G04 #@! TF.FileFunction,Copper,L2,Bot,Mixed*
%FSLAX46Y46*%
G04 Gerber Fmt 4.6, Leading zero omitted, Abs format (unit mm)*
G04 Created by KiCad (PCBNEW 4.0.6-e0-6349~53~ubuntu16.04.1) date Tue Jul 11 19:26:18 2017*
%MOMM*%
%LPD*%
G01*
G04 APERTURE LIST*
%ADD10C,0.100000*%
%ADD11C,1.998980*%
%ADD12R,0.800000X0.750000*%
%ADD13R,0.970000X1.270000*%
%ADD14C,0.600000*%
%ADD15C,0.304800*%
%ADD16C,0.203200*%
%ADD17C,0.152400*%
G04 APERTURE END LIST*
D10*
D11*
X144625000Y-99270000D03*
X149875000Y-99270000D03*
X152500000Y-99270000D03*
X147250000Y-99270000D03*
X155125000Y-99270000D03*
D12*
X153125000Y-103145000D03*
X154625000Y-103145000D03*
X153125000Y-104645000D03*
X154625000Y-104645000D03*
D13*
X147187000Y-107930000D03*
X148457000Y-107930000D03*
X149727000Y-107930000D03*
X147187000Y-104247000D03*
X148457000Y-104247000D03*
X149727000Y-104247000D03*
D14*
X151125000Y-104635000D03*
X151124000Y-106596500D03*
X149854000Y-106660000D03*
X148584000Y-105898000D03*
D15*
X153125000Y-103145000D02*
X151546000Y-103145000D01*
X144625000Y-100669000D02*
X144625000Y-99270000D01*
X145028000Y-101072000D02*
X144625000Y-100669000D01*
X149473000Y-101072000D02*
X145028000Y-101072000D01*
X151546000Y-103145000D02*
X149473000Y-101072000D01*
X151125000Y-104635000D02*
X151125000Y-103645000D01*
X151625000Y-103145000D02*
X153125000Y-103145000D01*
X151125000Y-103645000D02*
X151625000Y-103145000D01*
D16*
X151124000Y-106596500D02*
X150806500Y-106596500D01*
X149727000Y-105517000D02*
X149727000Y-104247000D01*
X150806500Y-106596500D02*
X149727000Y-105517000D01*
X151124000Y-106596500D02*
X151124000Y-107295000D01*
X150489000Y-107930000D02*
X149727000Y-107930000D01*
X151124000Y-107295000D02*
X150489000Y-107930000D01*
X151124000Y-106596500D02*
X151124000Y-106021000D01*
X153125000Y-105145000D02*
X153125000Y-104645000D01*
X152750000Y-105520000D02*
X153125000Y-105145000D01*
X151625000Y-105520000D02*
X152750000Y-105520000D01*
X151124000Y-106021000D02*
X151625000Y-105520000D01*
X148457000Y-107930000D02*
X148457000Y-107295000D01*
X148457000Y-107295000D02*
X149092000Y-106660000D01*
X149092000Y-106660000D02*
X149854000Y-106660000D01*
X148457000Y-104247000D02*
X148457000Y-105771000D01*
X148457000Y-105771000D02*
X148584000Y-105898000D01*
D17*
G36*
X146526513Y-98185178D02*
X146166442Y-98544621D01*
X145971332Y-99014497D01*
X145970888Y-99523271D01*
X146165178Y-99993487D01*
X146524621Y-100353558D01*
X146994497Y-100548668D01*
X147503271Y-100549112D01*
X147973487Y-100354822D01*
X148333558Y-99995379D01*
X148528668Y-99525503D01*
X148529112Y-99016729D01*
X148334822Y-98546513D01*
X147975379Y-98186442D01*
X147801883Y-98114400D01*
X149322808Y-98114400D01*
X149151513Y-98185178D01*
X148791442Y-98544621D01*
X148596332Y-99014497D01*
X148595888Y-99523271D01*
X148790178Y-99993487D01*
X149149621Y-100353558D01*
X149619497Y-100548668D01*
X150128271Y-100549112D01*
X150598487Y-100354822D01*
X150958558Y-99995379D01*
X151153668Y-99525503D01*
X151154112Y-99016729D01*
X150959822Y-98546513D01*
X150600379Y-98186442D01*
X150426883Y-98114400D01*
X151947808Y-98114400D01*
X151776513Y-98185178D01*
X151416442Y-98544621D01*
X151221332Y-99014497D01*
X151220888Y-99523271D01*
X151415178Y-99993487D01*
X151774621Y-100353558D01*
X152244497Y-100548668D01*
X152753271Y-100549112D01*
X153223487Y-100354822D01*
X153383735Y-100194853D01*
X154307910Y-100194853D01*
X154421517Y-100367900D01*
X154895214Y-100553539D01*
X155403895Y-100543770D01*
X155828483Y-100367900D01*
X155942090Y-100194853D01*
X155125000Y-99377763D01*
X154307910Y-100194853D01*
X153383735Y-100194853D01*
X153583558Y-99995379D01*
X153778668Y-99525503D01*
X153779091Y-99040214D01*
X153841461Y-99040214D01*
X153851230Y-99548895D01*
X154027100Y-99973483D01*
X154200147Y-100087090D01*
X155017237Y-99270000D01*
X154200147Y-98452910D01*
X154027100Y-98566517D01*
X153841461Y-99040214D01*
X153779091Y-99040214D01*
X153779112Y-99016729D01*
X153584822Y-98546513D01*
X153225379Y-98186442D01*
X153051883Y-98114400D01*
X154560817Y-98114400D01*
X154421517Y-98172100D01*
X154307910Y-98345147D01*
X155125000Y-99162237D01*
X155942090Y-98345147D01*
X155828483Y-98172100D01*
X155681249Y-98114400D01*
X156145600Y-98114400D01*
X156145600Y-98515769D01*
X156049853Y-98452910D01*
X155232763Y-99270000D01*
X156049853Y-100087090D01*
X156145600Y-100024231D01*
X156145600Y-109629152D01*
X156009908Y-109656143D01*
X155882154Y-109709060D01*
X155525289Y-109947510D01*
X155427510Y-110045289D01*
X155189060Y-110402154D01*
X155136143Y-110529908D01*
X155109152Y-110665600D01*
X152765848Y-110665600D01*
X152738857Y-110529908D01*
X152685940Y-110402154D01*
X152447490Y-110045289D01*
X152349711Y-109947510D01*
X151992846Y-109709060D01*
X151865092Y-109656143D01*
X151444140Y-109572410D01*
X151305860Y-109572410D01*
X150884908Y-109656143D01*
X150757154Y-109709060D01*
X150400289Y-109947510D01*
X150302510Y-110045289D01*
X150064060Y-110402154D01*
X150011143Y-110529908D01*
X149984152Y-110665600D01*
X144640848Y-110665600D01*
X144613857Y-110529908D01*
X144560940Y-110402154D01*
X144322490Y-110045289D01*
X144224711Y-109947510D01*
X143867846Y-109709060D01*
X143740092Y-109656143D01*
X143604400Y-109629152D01*
X143604400Y-108076050D01*
X146422600Y-108076050D01*
X146422600Y-108620576D01*
X146465136Y-108723267D01*
X146543733Y-108801864D01*
X146646424Y-108844400D01*
X147040950Y-108844400D01*
X147110800Y-108774550D01*
X147110800Y-108006200D01*
X146492450Y-108006200D01*
X146422600Y-108076050D01*
X143604400Y-108076050D01*
X143604400Y-107239424D01*
X146422600Y-107239424D01*
X146422600Y-107783950D01*
X146492450Y-107853800D01*
X147110800Y-107853800D01*
X147110800Y-107085450D01*
X147040950Y-107015600D01*
X146646424Y-107015600D01*
X146543733Y-107058136D01*
X146465136Y-107136733D01*
X146422600Y-107239424D01*
X143604400Y-107239424D01*
X143604400Y-105160848D01*
X143740092Y-105133857D01*
X143867846Y-105080940D01*
X144224711Y-104842490D01*
X144322490Y-104744711D01*
X144557462Y-104393050D01*
X146422600Y-104393050D01*
X146422600Y-104937576D01*
X146465136Y-105040267D01*
X146543733Y-105118864D01*
X146646424Y-105161400D01*
X147040950Y-105161400D01*
X147110800Y-105091550D01*
X147110800Y-104323200D01*
X146492450Y-104323200D01*
X146422600Y-104393050D01*
X144557462Y-104393050D01*
X144560940Y-104387846D01*
X144613857Y-104260092D01*
X144697590Y-103839140D01*
X144697590Y-103700860D01*
X144668860Y-103556424D01*
X146422600Y-103556424D01*
X146422600Y-104100950D01*
X146492450Y-104170800D01*
X147110800Y-104170800D01*
X147110800Y-103402450D01*
X147263200Y-103402450D01*
X147263200Y-104170800D01*
X147283200Y-104170800D01*
X147283200Y-104323200D01*
X147263200Y-104323200D01*
X147263200Y-105091550D01*
X147333050Y-105161400D01*
X147727576Y-105161400D01*
X147826211Y-105120544D01*
X147861168Y-105144429D01*
X147972000Y-105166873D01*
X148076000Y-105166873D01*
X148076000Y-105610537D01*
X148004701Y-105782245D01*
X148004500Y-106012744D01*
X148092522Y-106225775D01*
X148255368Y-106388905D01*
X148468245Y-106477299D01*
X148698744Y-106477500D01*
X148761696Y-106451489D01*
X148203057Y-107010127D01*
X147972000Y-107010127D01*
X147868461Y-107029609D01*
X147826533Y-107056589D01*
X147727576Y-107015600D01*
X147333050Y-107015600D01*
X147263200Y-107085450D01*
X147263200Y-107853800D01*
X147283200Y-107853800D01*
X147283200Y-108006200D01*
X147263200Y-108006200D01*
X147263200Y-108774550D01*
X147333050Y-108844400D01*
X147727576Y-108844400D01*
X147826211Y-108803544D01*
X147861168Y-108827429D01*
X147972000Y-108849873D01*
X148942000Y-108849873D01*
X149045539Y-108830391D01*
X149091870Y-108800578D01*
X149131168Y-108827429D01*
X149242000Y-108849873D01*
X150212000Y-108849873D01*
X150315539Y-108830391D01*
X150410634Y-108769199D01*
X150474429Y-108675832D01*
X150496873Y-108565000D01*
X150496873Y-108309434D01*
X150634803Y-108281998D01*
X150758408Y-108199408D01*
X151393405Y-107564410D01*
X151393408Y-107564408D01*
X151475998Y-107440802D01*
X151505001Y-107295000D01*
X151505000Y-107294995D01*
X151505000Y-107034846D01*
X151614905Y-106925132D01*
X151703299Y-106712255D01*
X151703500Y-106481756D01*
X151615478Y-106268725D01*
X151515372Y-106168444D01*
X151782816Y-105901000D01*
X152750000Y-105901000D01*
X152895803Y-105871998D01*
X153019408Y-105789408D01*
X153394408Y-105414408D01*
X153467597Y-105304873D01*
X153525000Y-105304873D01*
X153628539Y-105285391D01*
X153723634Y-105224199D01*
X153787429Y-105130832D01*
X153809873Y-105020000D01*
X153809873Y-104791050D01*
X153945600Y-104791050D01*
X153945600Y-105075576D01*
X153988136Y-105178267D01*
X154066733Y-105256864D01*
X154169424Y-105299400D01*
X154478950Y-105299400D01*
X154548800Y-105229550D01*
X154548800Y-104721200D01*
X154701200Y-104721200D01*
X154701200Y-105229550D01*
X154771050Y-105299400D01*
X155080576Y-105299400D01*
X155183267Y-105256864D01*
X155261864Y-105178267D01*
X155304400Y-105075576D01*
X155304400Y-104791050D01*
X155234550Y-104721200D01*
X154701200Y-104721200D01*
X154548800Y-104721200D01*
X154015450Y-104721200D01*
X153945600Y-104791050D01*
X153809873Y-104791050D01*
X153809873Y-104270000D01*
X153799416Y-104214424D01*
X153945600Y-104214424D01*
X153945600Y-104498950D01*
X154015450Y-104568800D01*
X154548800Y-104568800D01*
X154548800Y-104060450D01*
X154701200Y-104060450D01*
X154701200Y-104568800D01*
X155234550Y-104568800D01*
X155304400Y-104498950D01*
X155304400Y-104214424D01*
X155261864Y-104111733D01*
X155183267Y-104033136D01*
X155080576Y-103990600D01*
X154771050Y-103990600D01*
X154701200Y-104060450D01*
X154548800Y-104060450D01*
X154478950Y-103990600D01*
X154169424Y-103990600D01*
X154066733Y-104033136D01*
X153988136Y-104111733D01*
X153945600Y-104214424D01*
X153799416Y-104214424D01*
X153790391Y-104166461D01*
X153729199Y-104071366D01*
X153635832Y-104007571D01*
X153525000Y-103985127D01*
X152725000Y-103985127D01*
X152621461Y-104004609D01*
X152526366Y-104065801D01*
X152462571Y-104159168D01*
X152440127Y-104270000D01*
X152440127Y-105020000D01*
X152459609Y-105123539D01*
X152469558Y-105139000D01*
X151625000Y-105139000D01*
X151479197Y-105168002D01*
X151355592Y-105250592D01*
X150854592Y-105751592D01*
X150772002Y-105875197D01*
X150763726Y-105916802D01*
X150747449Y-105998634D01*
X150108000Y-105359184D01*
X150108000Y-105166873D01*
X150212000Y-105166873D01*
X150315539Y-105147391D01*
X150410634Y-105086199D01*
X150474429Y-104992832D01*
X150496873Y-104882000D01*
X150496873Y-103612000D01*
X150477391Y-103508461D01*
X150416199Y-103413366D01*
X150322832Y-103349571D01*
X150212000Y-103327127D01*
X149242000Y-103327127D01*
X149138461Y-103346609D01*
X149092130Y-103376422D01*
X149052832Y-103349571D01*
X148942000Y-103327127D01*
X147972000Y-103327127D01*
X147868461Y-103346609D01*
X147826533Y-103373589D01*
X147727576Y-103332600D01*
X147333050Y-103332600D01*
X147263200Y-103402450D01*
X147110800Y-103402450D01*
X147040950Y-103332600D01*
X146646424Y-103332600D01*
X146543733Y-103375136D01*
X146465136Y-103453733D01*
X146422600Y-103556424D01*
X144668860Y-103556424D01*
X144613857Y-103279908D01*
X144560940Y-103152154D01*
X144322490Y-102795289D01*
X144224711Y-102697510D01*
X143867846Y-102459060D01*
X143740092Y-102406143D01*
X143604400Y-102379152D01*
X143604400Y-100057821D01*
X143899621Y-100353558D01*
X144193200Y-100475463D01*
X144193200Y-100669000D01*
X144226069Y-100834243D01*
X144274521Y-100906757D01*
X144319671Y-100974329D01*
X144722671Y-101377329D01*
X144862757Y-101470931D01*
X145028000Y-101503800D01*
X149294142Y-101503800D01*
X150974842Y-103184500D01*
X150819671Y-103339671D01*
X150726069Y-103479757D01*
X150693200Y-103645000D01*
X150693200Y-104247366D01*
X150634095Y-104306368D01*
X150545701Y-104519245D01*
X150545500Y-104749744D01*
X150633522Y-104962775D01*
X150796368Y-105125905D01*
X151009245Y-105214299D01*
X151239744Y-105214500D01*
X151452775Y-105126478D01*
X151615905Y-104963632D01*
X151704299Y-104750755D01*
X151704500Y-104520256D01*
X151616478Y-104307225D01*
X151556800Y-104247443D01*
X151556800Y-103823858D01*
X151803858Y-103576800D01*
X152450815Y-103576800D01*
X152459609Y-103623539D01*
X152520801Y-103718634D01*
X152614168Y-103782429D01*
X152725000Y-103804873D01*
X153525000Y-103804873D01*
X153628539Y-103785391D01*
X153723634Y-103724199D01*
X153787429Y-103630832D01*
X153809873Y-103520000D01*
X153809873Y-103291050D01*
X153945600Y-103291050D01*
X153945600Y-103575576D01*
X153988136Y-103678267D01*
X154066733Y-103756864D01*
X154169424Y-103799400D01*
X154478950Y-103799400D01*
X154548800Y-103729550D01*
X154548800Y-103221200D01*
X154701200Y-103221200D01*
X154701200Y-103729550D01*
X154771050Y-103799400D01*
X155080576Y-103799400D01*
X155183267Y-103756864D01*
X155261864Y-103678267D01*
X155304400Y-103575576D01*
X155304400Y-103291050D01*
X155234550Y-103221200D01*
X154701200Y-103221200D01*
X154548800Y-103221200D01*
X154015450Y-103221200D01*
X153945600Y-103291050D01*
X153809873Y-103291050D01*
X153809873Y-102770000D01*
X153799416Y-102714424D01*
X153945600Y-102714424D01*
X153945600Y-102998950D01*
X154015450Y-103068800D01*
X154548800Y-103068800D01*
X154548800Y-102560450D01*
X154701200Y-102560450D01*
X154701200Y-103068800D01*
X155234550Y-103068800D01*
X155304400Y-102998950D01*
X155304400Y-102714424D01*
X155261864Y-102611733D01*
X155183267Y-102533136D01*
X155080576Y-102490600D01*
X154771050Y-102490600D01*
X154701200Y-102560450D01*
X154548800Y-102560450D01*
X154478950Y-102490600D01*
X154169424Y-102490600D01*
X154066733Y-102533136D01*
X153988136Y-102611733D01*
X153945600Y-102714424D01*
X153799416Y-102714424D01*
X153790391Y-102666461D01*
X153729199Y-102571366D01*
X153635832Y-102507571D01*
X153525000Y-102485127D01*
X152725000Y-102485127D01*
X152621461Y-102504609D01*
X152526366Y-102565801D01*
X152462571Y-102659168D01*
X152451629Y-102713200D01*
X151724858Y-102713200D01*
X149778329Y-100766671D01*
X149638243Y-100673069D01*
X149473000Y-100640200D01*
X145206858Y-100640200D01*
X145056800Y-100490142D01*
X145056800Y-100475345D01*
X145348487Y-100354822D01*
X145708558Y-99995379D01*
X145903668Y-99525503D01*
X145904112Y-99016729D01*
X145709822Y-98546513D01*
X145350379Y-98186442D01*
X145176883Y-98114400D01*
X146697808Y-98114400D01*
X146526513Y-98185178D01*
X146526513Y-98185178D01*
G37*
X146526513Y-98185178D02*
X146166442Y-98544621D01*
X145971332Y-99014497D01*
X145970888Y-99523271D01*
X146165178Y-99993487D01*
X146524621Y-100353558D01*
X146994497Y-100548668D01*
X147503271Y-100549112D01*
X147973487Y-100354822D01*
X148333558Y-99995379D01*
X148528668Y-99525503D01*
X148529112Y-99016729D01*
X148334822Y-98546513D01*
X147975379Y-98186442D01*
X147801883Y-98114400D01*
X149322808Y-98114400D01*
X149151513Y-98185178D01*
X148791442Y-98544621D01*
X148596332Y-99014497D01*
X148595888Y-99523271D01*
X148790178Y-99993487D01*
X149149621Y-100353558D01*
X149619497Y-100548668D01*
X150128271Y-100549112D01*
X150598487Y-100354822D01*
X150958558Y-99995379D01*
X151153668Y-99525503D01*
X151154112Y-99016729D01*
X150959822Y-98546513D01*
X150600379Y-98186442D01*
X150426883Y-98114400D01*
X151947808Y-98114400D01*
X151776513Y-98185178D01*
X151416442Y-98544621D01*
X151221332Y-99014497D01*
X151220888Y-99523271D01*
X151415178Y-99993487D01*
X151774621Y-100353558D01*
X152244497Y-100548668D01*
X152753271Y-100549112D01*
X153223487Y-100354822D01*
X153383735Y-100194853D01*
X154307910Y-100194853D01*
X154421517Y-100367900D01*
X154895214Y-100553539D01*
X155403895Y-100543770D01*
X155828483Y-100367900D01*
X155942090Y-100194853D01*
X155125000Y-99377763D01*
X154307910Y-100194853D01*
X153383735Y-100194853D01*
X153583558Y-99995379D01*
X153778668Y-99525503D01*
X153779091Y-99040214D01*
X153841461Y-99040214D01*
X153851230Y-99548895D01*
X154027100Y-99973483D01*
X154200147Y-100087090D01*
X155017237Y-99270000D01*
X154200147Y-98452910D01*
X154027100Y-98566517D01*
X153841461Y-99040214D01*
X153779091Y-99040214D01*
X153779112Y-99016729D01*
X153584822Y-98546513D01*
X153225379Y-98186442D01*
X153051883Y-98114400D01*
X154560817Y-98114400D01*
X154421517Y-98172100D01*
X154307910Y-98345147D01*
X155125000Y-99162237D01*
X155942090Y-98345147D01*
X155828483Y-98172100D01*
X155681249Y-98114400D01*
X156145600Y-98114400D01*
X156145600Y-98515769D01*
X156049853Y-98452910D01*
X155232763Y-99270000D01*
X156049853Y-100087090D01*
X156145600Y-100024231D01*
X156145600Y-109629152D01*
X156009908Y-109656143D01*
X155882154Y-109709060D01*
X155525289Y-109947510D01*
X155427510Y-110045289D01*
X155189060Y-110402154D01*
X155136143Y-110529908D01*
X155109152Y-110665600D01*
X152765848Y-110665600D01*
X152738857Y-110529908D01*
X152685940Y-110402154D01*
X152447490Y-110045289D01*
X152349711Y-109947510D01*
X151992846Y-109709060D01*
X151865092Y-109656143D01*
X151444140Y-109572410D01*
X151305860Y-109572410D01*
X150884908Y-109656143D01*
X150757154Y-109709060D01*
X150400289Y-109947510D01*
X150302510Y-110045289D01*
X150064060Y-110402154D01*
X150011143Y-110529908D01*
X149984152Y-110665600D01*
X144640848Y-110665600D01*
X144613857Y-110529908D01*
X144560940Y-110402154D01*
X144322490Y-110045289D01*
X144224711Y-109947510D01*
X143867846Y-109709060D01*
X143740092Y-109656143D01*
X143604400Y-109629152D01*
X143604400Y-108076050D01*
X146422600Y-108076050D01*
X146422600Y-108620576D01*
X146465136Y-108723267D01*
X146543733Y-108801864D01*
X146646424Y-108844400D01*
X147040950Y-108844400D01*
X147110800Y-108774550D01*
X147110800Y-108006200D01*
X146492450Y-108006200D01*
X146422600Y-108076050D01*
X143604400Y-108076050D01*
X143604400Y-107239424D01*
X146422600Y-107239424D01*
X146422600Y-107783950D01*
X146492450Y-107853800D01*
X147110800Y-107853800D01*
X147110800Y-107085450D01*
X147040950Y-107015600D01*
X146646424Y-107015600D01*
X146543733Y-107058136D01*
X146465136Y-107136733D01*
X146422600Y-107239424D01*
X143604400Y-107239424D01*
X143604400Y-105160848D01*
X143740092Y-105133857D01*
X143867846Y-105080940D01*
X144224711Y-104842490D01*
X144322490Y-104744711D01*
X144557462Y-104393050D01*
X146422600Y-104393050D01*
X146422600Y-104937576D01*
X146465136Y-105040267D01*
X146543733Y-105118864D01*
X146646424Y-105161400D01*
X147040950Y-105161400D01*
X147110800Y-105091550D01*
X147110800Y-104323200D01*
X146492450Y-104323200D01*
X146422600Y-104393050D01*
X144557462Y-104393050D01*
X144560940Y-104387846D01*
X144613857Y-104260092D01*
X144697590Y-103839140D01*
X144697590Y-103700860D01*
X144668860Y-103556424D01*
X146422600Y-103556424D01*
X146422600Y-104100950D01*
X146492450Y-104170800D01*
X147110800Y-104170800D01*
X147110800Y-103402450D01*
X147263200Y-103402450D01*
X147263200Y-104170800D01*
X147283200Y-104170800D01*
X147283200Y-104323200D01*
X147263200Y-104323200D01*
X147263200Y-105091550D01*
X147333050Y-105161400D01*
X147727576Y-105161400D01*
X147826211Y-105120544D01*
X147861168Y-105144429D01*
X147972000Y-105166873D01*
X148076000Y-105166873D01*
X148076000Y-105610537D01*
X148004701Y-105782245D01*
X148004500Y-106012744D01*
X148092522Y-106225775D01*
X148255368Y-106388905D01*
X148468245Y-106477299D01*
X148698744Y-106477500D01*
X148761696Y-106451489D01*
X148203057Y-107010127D01*
X147972000Y-107010127D01*
X147868461Y-107029609D01*
X147826533Y-107056589D01*
X147727576Y-107015600D01*
X147333050Y-107015600D01*
X147263200Y-107085450D01*
X147263200Y-107853800D01*
X147283200Y-107853800D01*
X147283200Y-108006200D01*
X147263200Y-108006200D01*
X147263200Y-108774550D01*
X147333050Y-108844400D01*
X147727576Y-108844400D01*
X147826211Y-108803544D01*
X147861168Y-108827429D01*
X147972000Y-108849873D01*
X148942000Y-108849873D01*
X149045539Y-108830391D01*
X149091870Y-108800578D01*
X149131168Y-108827429D01*
X149242000Y-108849873D01*
X150212000Y-108849873D01*
X150315539Y-108830391D01*
X150410634Y-108769199D01*
X150474429Y-108675832D01*
X150496873Y-108565000D01*
X150496873Y-108309434D01*
X150634803Y-108281998D01*
X150758408Y-108199408D01*
X151393405Y-107564410D01*
X151393408Y-107564408D01*
X151475998Y-107440802D01*
X151505001Y-107295000D01*
X151505000Y-107294995D01*
X151505000Y-107034846D01*
X151614905Y-106925132D01*
X151703299Y-106712255D01*
X151703500Y-106481756D01*
X151615478Y-106268725D01*
X151515372Y-106168444D01*
X151782816Y-105901000D01*
X152750000Y-105901000D01*
X152895803Y-105871998D01*
X153019408Y-105789408D01*
X153394408Y-105414408D01*
X153467597Y-105304873D01*
X153525000Y-105304873D01*
X153628539Y-105285391D01*
X153723634Y-105224199D01*
X153787429Y-105130832D01*
X153809873Y-105020000D01*
X153809873Y-104791050D01*
X153945600Y-104791050D01*
X153945600Y-105075576D01*
X153988136Y-105178267D01*
X154066733Y-105256864D01*
X154169424Y-105299400D01*
X154478950Y-105299400D01*
X154548800Y-105229550D01*
X154548800Y-104721200D01*
X154701200Y-104721200D01*
X154701200Y-105229550D01*
X154771050Y-105299400D01*
X155080576Y-105299400D01*
X155183267Y-105256864D01*
X155261864Y-105178267D01*
X155304400Y-105075576D01*
X155304400Y-104791050D01*
X155234550Y-104721200D01*
X154701200Y-104721200D01*
X154548800Y-104721200D01*
X154015450Y-104721200D01*
X153945600Y-104791050D01*
X153809873Y-104791050D01*
X153809873Y-104270000D01*
X153799416Y-104214424D01*
X153945600Y-104214424D01*
X153945600Y-104498950D01*
X154015450Y-104568800D01*
X154548800Y-104568800D01*
X154548800Y-104060450D01*
X154701200Y-104060450D01*
X154701200Y-104568800D01*
X155234550Y-104568800D01*
X155304400Y-104498950D01*
X155304400Y-104214424D01*
X155261864Y-104111733D01*
X155183267Y-104033136D01*
X155080576Y-103990600D01*
X154771050Y-103990600D01*
X154701200Y-104060450D01*
X154548800Y-104060450D01*
X154478950Y-103990600D01*
X154169424Y-103990600D01*
X154066733Y-104033136D01*
X153988136Y-104111733D01*
X153945600Y-104214424D01*
X153799416Y-104214424D01*
X153790391Y-104166461D01*
X153729199Y-104071366D01*
X153635832Y-104007571D01*
X153525000Y-103985127D01*
X152725000Y-103985127D01*
X152621461Y-104004609D01*
X152526366Y-104065801D01*
X152462571Y-104159168D01*
X152440127Y-104270000D01*
X152440127Y-105020000D01*
X152459609Y-105123539D01*
X152469558Y-105139000D01*
X151625000Y-105139000D01*
X151479197Y-105168002D01*
X151355592Y-105250592D01*
X150854592Y-105751592D01*
X150772002Y-105875197D01*
X150763726Y-105916802D01*
X150747449Y-105998634D01*
X150108000Y-105359184D01*
X150108000Y-105166873D01*
X150212000Y-105166873D01*
X150315539Y-105147391D01*
X150410634Y-105086199D01*
X150474429Y-104992832D01*
X150496873Y-104882000D01*
X150496873Y-103612000D01*
X150477391Y-103508461D01*
X150416199Y-103413366D01*
X150322832Y-103349571D01*
X150212000Y-103327127D01*
X149242000Y-103327127D01*
X149138461Y-103346609D01*
X149092130Y-103376422D01*
X149052832Y-103349571D01*
X148942000Y-103327127D01*
X147972000Y-103327127D01*
X147868461Y-103346609D01*
X147826533Y-103373589D01*
X147727576Y-103332600D01*
X147333050Y-103332600D01*
X147263200Y-103402450D01*
X147110800Y-103402450D01*
X147040950Y-103332600D01*
X146646424Y-103332600D01*
X146543733Y-103375136D01*
X146465136Y-103453733D01*
X146422600Y-103556424D01*
X144668860Y-103556424D01*
X144613857Y-103279908D01*
X144560940Y-103152154D01*
X144322490Y-102795289D01*
X144224711Y-102697510D01*
X143867846Y-102459060D01*
X143740092Y-102406143D01*
X143604400Y-102379152D01*
X143604400Y-100057821D01*
X143899621Y-100353558D01*
X144193200Y-100475463D01*
X144193200Y-100669000D01*
X144226069Y-100834243D01*
X144274521Y-100906757D01*
X144319671Y-100974329D01*
X144722671Y-101377329D01*
X144862757Y-101470931D01*
X145028000Y-101503800D01*
X149294142Y-101503800D01*
X150974842Y-103184500D01*
X150819671Y-103339671D01*
X150726069Y-103479757D01*
X150693200Y-103645000D01*
X150693200Y-104247366D01*
X150634095Y-104306368D01*
X150545701Y-104519245D01*
X150545500Y-104749744D01*
X150633522Y-104962775D01*
X150796368Y-105125905D01*
X151009245Y-105214299D01*
X151239744Y-105214500D01*
X151452775Y-105126478D01*
X151615905Y-104963632D01*
X151704299Y-104750755D01*
X151704500Y-104520256D01*
X151616478Y-104307225D01*
X151556800Y-104247443D01*
X151556800Y-103823858D01*
X151803858Y-103576800D01*
X152450815Y-103576800D01*
X152459609Y-103623539D01*
X152520801Y-103718634D01*
X152614168Y-103782429D01*
X152725000Y-103804873D01*
X153525000Y-103804873D01*
X153628539Y-103785391D01*
X153723634Y-103724199D01*
X153787429Y-103630832D01*
X153809873Y-103520000D01*
X153809873Y-103291050D01*
X153945600Y-103291050D01*
X153945600Y-103575576D01*
X153988136Y-103678267D01*
X154066733Y-103756864D01*
X154169424Y-103799400D01*
X154478950Y-103799400D01*
X154548800Y-103729550D01*
X154548800Y-103221200D01*
X154701200Y-103221200D01*
X154701200Y-103729550D01*
X154771050Y-103799400D01*
X155080576Y-103799400D01*
X155183267Y-103756864D01*
X155261864Y-103678267D01*
X155304400Y-103575576D01*
X155304400Y-103291050D01*
X155234550Y-103221200D01*
X154701200Y-103221200D01*
X154548800Y-103221200D01*
X154015450Y-103221200D01*
X153945600Y-103291050D01*
X153809873Y-103291050D01*
X153809873Y-102770000D01*
X153799416Y-102714424D01*
X153945600Y-102714424D01*
X153945600Y-102998950D01*
X154015450Y-103068800D01*
X154548800Y-103068800D01*
X154548800Y-102560450D01*
X154701200Y-102560450D01*
X154701200Y-103068800D01*
X155234550Y-103068800D01*
X155304400Y-102998950D01*
X155304400Y-102714424D01*
X155261864Y-102611733D01*
X155183267Y-102533136D01*
X155080576Y-102490600D01*
X154771050Y-102490600D01*
X154701200Y-102560450D01*
X154548800Y-102560450D01*
X154478950Y-102490600D01*
X154169424Y-102490600D01*
X154066733Y-102533136D01*
X153988136Y-102611733D01*
X153945600Y-102714424D01*
X153799416Y-102714424D01*
X153790391Y-102666461D01*
X153729199Y-102571366D01*
X153635832Y-102507571D01*
X153525000Y-102485127D01*
X152725000Y-102485127D01*
X152621461Y-102504609D01*
X152526366Y-102565801D01*
X152462571Y-102659168D01*
X152451629Y-102713200D01*
X151724858Y-102713200D01*
X149778329Y-100766671D01*
X149638243Y-100673069D01*
X149473000Y-100640200D01*
X145206858Y-100640200D01*
X145056800Y-100490142D01*
X145056800Y-100475345D01*
X145348487Y-100354822D01*
X145708558Y-99995379D01*
X145903668Y-99525503D01*
X145904112Y-99016729D01*
X145709822Y-98546513D01*
X145350379Y-98186442D01*
X145176883Y-98114400D01*
X146697808Y-98114400D01*
X146526513Y-98185178D01*
M02*
