G04 #@! TF.GenerationSoftware,KiCad,Pcbnew,5.0.2-bee76a0~70~ubuntu18.04.1*
G04 #@! TF.CreationDate,2018-11-29T22:51:57+01:00*
G04 #@! TF.ProjectId,A1335_long_I2C,41313333-355f-46c6-9f6e-675f4932432e,rev?*
G04 #@! TF.SameCoordinates,Original*
G04 #@! TF.FileFunction,Soldermask,Top*
G04 #@! TF.FilePolarity,Negative*
%FSLAX46Y46*%
G04 Gerber Fmt 4.6, Leading zero omitted, Abs format (unit mm)*
G04 Created by KiCad (PCBNEW 5.0.2-bee76a0~70~ubuntu18.04.1) date Thu 29 Nov 2018 22:51:57 CET*
%MOMM*%
%LPD*%
G01*
G04 APERTURE LIST*
%ADD10C,0.100000*%
G04 APERTURE END LIST*
D10*
G36*
X124313765Y-97505647D02*
X124509531Y-97586736D01*
X124597922Y-97645797D01*
X124685713Y-97704457D01*
X124835543Y-97854287D01*
X124894203Y-97942078D01*
X124953264Y-98030469D01*
X125034353Y-98226235D01*
X125075690Y-98434052D01*
X125075690Y-98645948D01*
X125034353Y-98853765D01*
X124953264Y-99049531D01*
X124894203Y-99137922D01*
X124835543Y-99225713D01*
X124685713Y-99375543D01*
X124597922Y-99434203D01*
X124509531Y-99493264D01*
X124313765Y-99574353D01*
X124105948Y-99615690D01*
X123894052Y-99615690D01*
X123686235Y-99574353D01*
X123490469Y-99493264D01*
X123402078Y-99434203D01*
X123314287Y-99375543D01*
X123164457Y-99225713D01*
X123105797Y-99137922D01*
X123046736Y-99049531D01*
X122965647Y-98853765D01*
X122924310Y-98645948D01*
X122924310Y-98434052D01*
X122965647Y-98226235D01*
X123046736Y-98030469D01*
X123105797Y-97942078D01*
X123164457Y-97854287D01*
X123314287Y-97704457D01*
X123402078Y-97645797D01*
X123490469Y-97586736D01*
X123686235Y-97505647D01*
X123894052Y-97464310D01*
X124105948Y-97464310D01*
X124313765Y-97505647D01*
X124313765Y-97505647D01*
G37*
G36*
X121773765Y-97505647D02*
X121969531Y-97586736D01*
X122057922Y-97645797D01*
X122145713Y-97704457D01*
X122295543Y-97854287D01*
X122354203Y-97942078D01*
X122413264Y-98030469D01*
X122494353Y-98226235D01*
X122535690Y-98434052D01*
X122535690Y-98645948D01*
X122494353Y-98853765D01*
X122413264Y-99049531D01*
X122354203Y-99137922D01*
X122295543Y-99225713D01*
X122145713Y-99375543D01*
X122057922Y-99434203D01*
X121969531Y-99493264D01*
X121773765Y-99574353D01*
X121565948Y-99615690D01*
X121354052Y-99615690D01*
X121146235Y-99574353D01*
X120950469Y-99493264D01*
X120862078Y-99434203D01*
X120774287Y-99375543D01*
X120624457Y-99225713D01*
X120565797Y-99137922D01*
X120506736Y-99049531D01*
X120425647Y-98853765D01*
X120384310Y-98645948D01*
X120384310Y-98434052D01*
X120425647Y-98226235D01*
X120506736Y-98030469D01*
X120565797Y-97942078D01*
X120624457Y-97854287D01*
X120774287Y-97704457D01*
X120862078Y-97645797D01*
X120950469Y-97586736D01*
X121146235Y-97505647D01*
X121354052Y-97464310D01*
X121565948Y-97464310D01*
X121773765Y-97505647D01*
X121773765Y-97505647D01*
G37*
G36*
X126853765Y-97505647D02*
X127049531Y-97586736D01*
X127137922Y-97645797D01*
X127225713Y-97704457D01*
X127375543Y-97854287D01*
X127434203Y-97942078D01*
X127493264Y-98030469D01*
X127574353Y-98226235D01*
X127615690Y-98434052D01*
X127615690Y-98645948D01*
X127574353Y-98853765D01*
X127493264Y-99049531D01*
X127434203Y-99137922D01*
X127375543Y-99225713D01*
X127225713Y-99375543D01*
X127137922Y-99434203D01*
X127049531Y-99493264D01*
X126853765Y-99574353D01*
X126645948Y-99615690D01*
X126434052Y-99615690D01*
X126226235Y-99574353D01*
X126030469Y-99493264D01*
X125942078Y-99434203D01*
X125854287Y-99375543D01*
X125704457Y-99225713D01*
X125645797Y-99137922D01*
X125586736Y-99049531D01*
X125505647Y-98853765D01*
X125464310Y-98645948D01*
X125464310Y-98434052D01*
X125505647Y-98226235D01*
X125586736Y-98030469D01*
X125645797Y-97942078D01*
X125704457Y-97854287D01*
X125854287Y-97704457D01*
X125942078Y-97645797D01*
X126030469Y-97586736D01*
X126226235Y-97505647D01*
X126434052Y-97464310D01*
X126645948Y-97464310D01*
X126853765Y-97505647D01*
X126853765Y-97505647D01*
G37*
G36*
X126853765Y-94965647D02*
X127049531Y-95046736D01*
X127137922Y-95105797D01*
X127225713Y-95164457D01*
X127375543Y-95314287D01*
X127434203Y-95402078D01*
X127493264Y-95490469D01*
X127574353Y-95686235D01*
X127615690Y-95894052D01*
X127615690Y-96105948D01*
X127574353Y-96313765D01*
X127493264Y-96509531D01*
X127434203Y-96597922D01*
X127375543Y-96685713D01*
X127225713Y-96835543D01*
X127137922Y-96894203D01*
X127049531Y-96953264D01*
X126853765Y-97034353D01*
X126645948Y-97075690D01*
X126434052Y-97075690D01*
X126226235Y-97034353D01*
X126030469Y-96953264D01*
X125942078Y-96894203D01*
X125854287Y-96835543D01*
X125704457Y-96685713D01*
X125645797Y-96597922D01*
X125586736Y-96509531D01*
X125505647Y-96313765D01*
X125464310Y-96105948D01*
X125464310Y-95894052D01*
X125505647Y-95686235D01*
X125586736Y-95490469D01*
X125645797Y-95402078D01*
X125704457Y-95314287D01*
X125854287Y-95164457D01*
X125942078Y-95105797D01*
X126030469Y-95046736D01*
X126226235Y-94965647D01*
X126434052Y-94924310D01*
X126645948Y-94924310D01*
X126853765Y-94965647D01*
X126853765Y-94965647D01*
G37*
G36*
X124313765Y-94965647D02*
X124509531Y-95046736D01*
X124597922Y-95105797D01*
X124685713Y-95164457D01*
X124835543Y-95314287D01*
X124894203Y-95402078D01*
X124953264Y-95490469D01*
X125034353Y-95686235D01*
X125075690Y-95894052D01*
X125075690Y-96105948D01*
X125034353Y-96313765D01*
X124953264Y-96509531D01*
X124894203Y-96597922D01*
X124835543Y-96685713D01*
X124685713Y-96835543D01*
X124597922Y-96894203D01*
X124509531Y-96953264D01*
X124313765Y-97034353D01*
X124105948Y-97075690D01*
X123894052Y-97075690D01*
X123686235Y-97034353D01*
X123490469Y-96953264D01*
X123402078Y-96894203D01*
X123314287Y-96835543D01*
X123164457Y-96685713D01*
X123105797Y-96597922D01*
X123046736Y-96509531D01*
X122965647Y-96313765D01*
X122924310Y-96105948D01*
X122924310Y-95894052D01*
X122965647Y-95686235D01*
X123046736Y-95490469D01*
X123105797Y-95402078D01*
X123164457Y-95314287D01*
X123314287Y-95164457D01*
X123402078Y-95105797D01*
X123490469Y-95046736D01*
X123686235Y-94965647D01*
X123894052Y-94924310D01*
X124105948Y-94924310D01*
X124313765Y-94965647D01*
X124313765Y-94965647D01*
G37*
G36*
X121773765Y-94965647D02*
X121969531Y-95046736D01*
X122057922Y-95105797D01*
X122145713Y-95164457D01*
X122295543Y-95314287D01*
X122354203Y-95402078D01*
X122413264Y-95490469D01*
X122494353Y-95686235D01*
X122535690Y-95894052D01*
X122535690Y-96105948D01*
X122494353Y-96313765D01*
X122413264Y-96509531D01*
X122354203Y-96597922D01*
X122295543Y-96685713D01*
X122145713Y-96835543D01*
X122057922Y-96894203D01*
X121969531Y-96953264D01*
X121773765Y-97034353D01*
X121565948Y-97075690D01*
X121354052Y-97075690D01*
X121146235Y-97034353D01*
X120950469Y-96953264D01*
X120862078Y-96894203D01*
X120774287Y-96835543D01*
X120624457Y-96685713D01*
X120565797Y-96597922D01*
X120506736Y-96509531D01*
X120425647Y-96313765D01*
X120384310Y-96105948D01*
X120384310Y-95894052D01*
X120425647Y-95686235D01*
X120506736Y-95490469D01*
X120565797Y-95402078D01*
X120624457Y-95314287D01*
X120774287Y-95164457D01*
X120862078Y-95105797D01*
X120950469Y-95046736D01*
X121146235Y-94965647D01*
X121354052Y-94924310D01*
X121565948Y-94924310D01*
X121773765Y-94965647D01*
X121773765Y-94965647D01*
G37*
G36*
X124576436Y-90599744D02*
X124936082Y-90748714D01*
X125257573Y-90963528D01*
X125259757Y-90964987D01*
X125535013Y-91240243D01*
X125535015Y-91240246D01*
X125751286Y-91563918D01*
X125900256Y-91923564D01*
X125976200Y-92305361D01*
X125976200Y-92694639D01*
X125900256Y-93076436D01*
X125751286Y-93436082D01*
X125536472Y-93757573D01*
X125535013Y-93759757D01*
X125259757Y-94035013D01*
X125259754Y-94035015D01*
X124936082Y-94251286D01*
X124576436Y-94400256D01*
X124194640Y-94476200D01*
X123805360Y-94476200D01*
X123423564Y-94400256D01*
X123063918Y-94251286D01*
X122740246Y-94035015D01*
X122740243Y-94035013D01*
X122464987Y-93759757D01*
X122463528Y-93757573D01*
X122248714Y-93436082D01*
X122099744Y-93076436D01*
X122023800Y-92694639D01*
X122023800Y-92305361D01*
X122099744Y-91923564D01*
X122248714Y-91563918D01*
X122464985Y-91240246D01*
X122464987Y-91240243D01*
X122740243Y-90964987D01*
X122742427Y-90963528D01*
X123063918Y-90748714D01*
X123423564Y-90599744D01*
X123805360Y-90523800D01*
X124194640Y-90523800D01*
X124576436Y-90599744D01*
X124576436Y-90599744D01*
G37*
G36*
X122226200Y-88176200D02*
X121373800Y-88176200D01*
X121373800Y-86423800D01*
X122226200Y-86423800D01*
X122226200Y-88176200D01*
X122226200Y-88176200D01*
G37*
G36*
X125176200Y-87226200D02*
X123423800Y-87226200D01*
X123423800Y-86373800D01*
X125176200Y-86373800D01*
X125176200Y-87226200D01*
X125176200Y-87226200D01*
G37*
G36*
X125341200Y-85751200D02*
X120838800Y-85751200D01*
X120838800Y-84148800D01*
X125341200Y-84148800D01*
X125341200Y-85751200D01*
X125341200Y-85751200D01*
G37*
G36*
X125341200Y-79851200D02*
X120838800Y-79851200D01*
X120838800Y-78248800D01*
X125341200Y-78248800D01*
X125341200Y-79851200D01*
X125341200Y-79851200D01*
G37*
M02*
