G04 #@! TF.GenerationSoftware,KiCad,Pcbnew,5.0.2-bee76a0~70~ubuntu18.04.1*
G04 #@! TF.CreationDate,2018-11-29T22:51:57+01:00*
G04 #@! TF.ProjectId,A1335_long_I2C,41313333-355f-46c6-9f6e-675f4932432e,rev?*
G04 #@! TF.SameCoordinates,Original*
G04 #@! TF.FileFunction,Copper,L2,Bot*
G04 #@! TF.FilePolarity,Positive*
%FSLAX46Y46*%
G04 Gerber Fmt 4.6, Leading zero omitted, Abs format (unit mm)*
G04 Created by KiCad (PCBNEW 5.0.2-bee76a0~70~ubuntu18.04.1) date Thu 29 Nov 2018 22:51:57 CET*
%MOMM*%
%LPD*%
G01*
G04 APERTURE LIST*
G04 #@! TA.AperFunction,ComponentPad*
%ADD10C,1.998980*%
G04 #@! TD*
G04 #@! TA.AperFunction,ComponentPad*
%ADD11C,3.800000*%
G04 #@! TD*
G04 #@! TA.AperFunction,SMDPad,CuDef*
%ADD12C,0.600000*%
G04 #@! TD*
G04 #@! TA.AperFunction,Conductor*
%ADD13C,0.100000*%
G04 #@! TD*
G04 #@! TA.AperFunction,ViaPad*
%ADD14C,0.800000*%
G04 #@! TD*
G04 #@! TA.AperFunction,Conductor*
%ADD15C,0.254000*%
G04 #@! TD*
G04 #@! TA.AperFunction,Conductor*
%ADD16C,0.152400*%
G04 #@! TD*
G04 APERTURE END LIST*
D10*
G04 #@! TO.P,5V,1*
G04 #@! TO.N,+5V*
X126540000Y-96000000D03*
G04 #@! TD*
G04 #@! TO.P,MISO/SDA,1*
G04 #@! TO.N,/SDA_MISO*
X124000000Y-98540000D03*
G04 #@! TD*
G04 #@! TO.P,MOSI,1*
G04 #@! TO.N,/SA1_MOSI*
X121460000Y-98540000D03*
G04 #@! TD*
G04 #@! TO.P,SCK,1*
G04 #@! TO.N,/SCL_SCLK*
X126540000Y-98540000D03*
G04 #@! TD*
G04 #@! TO.P,~CS,1*
G04 #@! TO.N,/SA0_~CS*
X124000000Y-96000000D03*
G04 #@! TD*
G04 #@! TO.P,GND,1*
G04 #@! TO.N,GND*
X121460000Y-96000000D03*
G04 #@! TD*
D11*
G04 #@! TO.P,H1,1*
G04 #@! TO.N,GND*
X124000000Y-92500000D03*
G04 #@! TD*
D12*
G04 #@! TO.P,SPI-I2C,2*
G04 #@! TO.N,Net-(JP1-Pad2)*
X125100000Y-80900000D03*
D13*
G04 #@! TD*
G04 #@! TO.N,Net-(JP1-Pad2)*
G04 #@! TO.C,SPI-I2C*
G36*
X125100000Y-81201000D02*
X124750000Y-81400000D01*
X124750000Y-80400000D01*
X125100000Y-80599000D01*
X125450000Y-80400000D01*
X125450000Y-81400000D01*
X125100000Y-81201000D01*
X125100000Y-81201000D01*
G37*
D12*
G04 #@! TO.P,SPI-I2C,1*
G04 #@! TO.N,/BYP*
X125100000Y-79900000D03*
D13*
G04 #@! TD*
G04 #@! TO.N,/BYP*
G04 #@! TO.C,SPI-I2C*
G36*
X125100000Y-80400000D02*
X124750000Y-80200000D01*
X124750000Y-79600000D01*
X125450000Y-79600000D01*
X125450000Y-80200000D01*
X125100000Y-80400000D01*
X125100000Y-80400000D01*
G37*
D12*
G04 #@! TO.P,SPI-I2C,3*
G04 #@! TO.N,GND*
X125100000Y-81900000D03*
D13*
G04 #@! TD*
G04 #@! TO.N,GND*
G04 #@! TO.C,SPI-I2C*
G36*
X124750000Y-82200000D02*
X124750000Y-81600000D01*
X125100000Y-81400000D01*
X125450000Y-81600000D01*
X125450000Y-82200000D01*
X124750000Y-82200000D01*
X124750000Y-82200000D01*
G37*
D12*
G04 #@! TO.P,SA0,2*
G04 #@! TO.N,/SA0_~CS*
X122100000Y-79400000D03*
D13*
G04 #@! TD*
G04 #@! TO.N,/SA0_~CS*
G04 #@! TO.C,SA0*
G36*
X121799000Y-79400000D02*
X121600000Y-79050000D01*
X122600000Y-79050000D01*
X122401000Y-79400000D01*
X122600000Y-79750000D01*
X121600000Y-79750000D01*
X121799000Y-79400000D01*
X121799000Y-79400000D01*
G37*
D12*
G04 #@! TO.P,SA0,1*
G04 #@! TO.N,+5V*
X123100000Y-79400000D03*
D13*
G04 #@! TD*
G04 #@! TO.N,+5V*
G04 #@! TO.C,SA0*
G36*
X122600000Y-79400000D02*
X122800000Y-79050000D01*
X123400000Y-79050000D01*
X123400000Y-79750000D01*
X122800000Y-79750000D01*
X122600000Y-79400000D01*
X122600000Y-79400000D01*
G37*
D12*
G04 #@! TO.P,SA0,3*
G04 #@! TO.N,GND*
X121100000Y-79400000D03*
D13*
G04 #@! TD*
G04 #@! TO.N,GND*
G04 #@! TO.C,SA0*
G36*
X120800000Y-79050000D02*
X121400000Y-79050000D01*
X121600000Y-79400000D01*
X121400000Y-79750000D01*
X120800000Y-79750000D01*
X120800000Y-79050000D01*
X120800000Y-79050000D01*
G37*
D12*
G04 #@! TO.P,SA1,2*
G04 #@! TO.N,/SA1_MOSI*
X122100000Y-80500000D03*
D13*
G04 #@! TD*
G04 #@! TO.N,/SA1_MOSI*
G04 #@! TO.C,SA1*
G36*
X121799000Y-80500000D02*
X121600000Y-80150000D01*
X122600000Y-80150000D01*
X122401000Y-80500000D01*
X122600000Y-80850000D01*
X121600000Y-80850000D01*
X121799000Y-80500000D01*
X121799000Y-80500000D01*
G37*
D12*
G04 #@! TO.P,SA1,1*
G04 #@! TO.N,+5V*
X123100000Y-80500000D03*
D13*
G04 #@! TD*
G04 #@! TO.N,+5V*
G04 #@! TO.C,SA1*
G36*
X122600000Y-80500000D02*
X122800000Y-80150000D01*
X123400000Y-80150000D01*
X123400000Y-80850000D01*
X122800000Y-80850000D01*
X122600000Y-80500000D01*
X122600000Y-80500000D01*
G37*
D12*
G04 #@! TO.P,SA1,3*
G04 #@! TO.N,GND*
X121100000Y-80500000D03*
D13*
G04 #@! TD*
G04 #@! TO.N,GND*
G04 #@! TO.C,SA1*
G36*
X120800000Y-80150000D02*
X121400000Y-80150000D01*
X121600000Y-80500000D01*
X121400000Y-80850000D01*
X120800000Y-80850000D01*
X120800000Y-80150000D01*
X120800000Y-80150000D01*
G37*
D14*
G04 #@! TO.N,+5V*
X122900000Y-86800000D03*
G04 #@! TO.N,GND*
X125100000Y-82900000D03*
X126928600Y-82900000D03*
G04 #@! TO.N,Net-(JP1-Pad2)*
X126000000Y-79100000D03*
G04 #@! TO.N,/SA0_~CS*
X126700000Y-79800000D03*
X122000000Y-77500000D03*
G04 #@! TO.N,/SA1_MOSI*
X122100000Y-81500000D03*
G04 #@! TO.N,/SDA_MISO*
X123999996Y-89700000D03*
G04 #@! TO.N,/BYP*
X124000000Y-82000000D03*
G04 #@! TD*
D15*
G04 #@! TO.N,+5V*
X123100000Y-79400000D02*
X123100000Y-80500000D01*
X123100000Y-80500000D02*
X123100000Y-81700000D01*
G04 #@! TO.N,GND*
X125000000Y-82000000D02*
X125100000Y-81900000D01*
X125100000Y-81900000D02*
X125100000Y-82900000D01*
X121100000Y-79400000D02*
X121100000Y-80500000D01*
X121100000Y-80500000D02*
X121100000Y-81400000D01*
X125100000Y-82900000D02*
X126928600Y-82900000D01*
D16*
G04 #@! TO.N,Net-(JP1-Pad2)*
X125100000Y-80900000D02*
X125900000Y-80900000D01*
X126000000Y-80800000D02*
X126000000Y-79100000D01*
X125900000Y-80900000D02*
X126000000Y-80800000D01*
G04 #@! TO.N,/SA0_~CS*
X122600000Y-77500000D02*
X122000000Y-77500000D01*
X122900000Y-77800000D02*
X122600000Y-77500000D01*
X125630330Y-77800000D02*
X122900000Y-77800000D01*
X126700000Y-79800000D02*
X126700000Y-78869670D01*
X126700000Y-78869670D02*
X125630330Y-77800000D01*
X122000000Y-79300000D02*
X122100000Y-79400000D01*
X122000000Y-77500000D02*
X122000000Y-79300000D01*
G04 #@! TO.N,/SA1_MOSI*
X122100000Y-81500000D02*
X122100000Y-80500000D01*
X122100000Y-83300000D02*
X122100000Y-81500000D01*
X121200000Y-84200000D02*
X122100000Y-83300000D01*
X121200000Y-93600000D02*
X121200000Y-84200000D01*
X122688091Y-95088091D02*
X121200000Y-93600000D01*
X121460000Y-98540000D02*
X122688091Y-97311909D01*
X122688091Y-97311909D02*
X122688091Y-95088091D01*
G04 #@! TO.N,/SDA_MISO*
X125300000Y-97240000D02*
X125300000Y-95300000D01*
X125300000Y-95300000D02*
X124700000Y-94700000D01*
X123434311Y-89700000D02*
X123999996Y-89700000D01*
X124700000Y-94700000D02*
X122900000Y-94700000D01*
X121700000Y-91434311D02*
X123434311Y-89700000D01*
X121700000Y-93500000D02*
X121700000Y-91434311D01*
X124000000Y-98540000D02*
X125300000Y-97240000D01*
X122900000Y-94700000D02*
X121700000Y-93500000D01*
G04 #@! TO.N,/BYP*
X124400000Y-79900000D02*
X125100000Y-79900000D01*
X124000000Y-82000000D02*
X124400000Y-81600000D01*
X124400000Y-81600000D02*
X124400000Y-79900000D01*
G04 #@! TD*
D15*
G04 #@! TO.N,+5V*
G36*
X125361423Y-76647219D02*
X126007788Y-76989451D01*
X126572135Y-77454665D01*
X127031410Y-78023851D01*
X127366854Y-78673761D01*
X127565533Y-79380583D01*
X127620601Y-80016410D01*
X127620600Y-95037362D01*
X127620601Y-95037367D01*
X127620601Y-95159119D01*
X127581144Y-95138461D01*
X126719605Y-96000000D01*
X127581144Y-96861539D01*
X127620601Y-96840881D01*
X127620600Y-97811976D01*
X127264433Y-97455809D01*
X127030627Y-97358964D01*
X127291773Y-97250793D01*
X127401539Y-97041144D01*
X126540000Y-96179605D01*
X126525858Y-96193748D01*
X126346253Y-96014143D01*
X126360395Y-96000000D01*
X125662206Y-95301811D01*
X125662566Y-95299999D01*
X125655600Y-95264980D01*
X125634967Y-95161252D01*
X125556373Y-95043627D01*
X125526683Y-95023789D01*
X125461750Y-94958856D01*
X125678461Y-94958856D01*
X126540000Y-95820395D01*
X127401539Y-94958856D01*
X127291773Y-94749207D01*
X126755890Y-94556726D01*
X126187140Y-94583971D01*
X125788227Y-94749207D01*
X125678461Y-94958856D01*
X125461750Y-94958856D01*
X124976211Y-94473317D01*
X124966419Y-94458662D01*
X125234531Y-94347606D01*
X125847606Y-93734531D01*
X126179400Y-92933510D01*
X126179400Y-92066490D01*
X125847606Y-91265469D01*
X125234531Y-90652394D01*
X124433510Y-90320600D01*
X124277092Y-90320600D01*
X124384845Y-90275967D01*
X124575963Y-90084849D01*
X124679396Y-89835141D01*
X124679396Y-89564859D01*
X124575963Y-89315151D01*
X124384845Y-89124033D01*
X124135137Y-89020600D01*
X123864855Y-89020600D01*
X123615147Y-89124033D01*
X123424029Y-89315151D01*
X123413047Y-89341664D01*
X123399291Y-89344400D01*
X123295563Y-89365033D01*
X123177938Y-89443627D01*
X123158100Y-89473317D01*
X121555600Y-91075817D01*
X121555600Y-84347294D01*
X122326685Y-83576209D01*
X122356372Y-83556373D01*
X122434967Y-83438748D01*
X122455600Y-83335020D01*
X122455600Y-83335019D01*
X122462566Y-83300001D01*
X122455600Y-83264982D01*
X122455600Y-82088082D01*
X122484849Y-82075967D01*
X122675967Y-81884849D01*
X122779400Y-81635141D01*
X122779400Y-81364859D01*
X122685423Y-81137980D01*
X122800000Y-81160771D01*
X123400000Y-81160771D01*
X123518927Y-81137115D01*
X123619748Y-81069748D01*
X123687115Y-80968927D01*
X123710771Y-80850000D01*
X123710771Y-80150000D01*
X123687115Y-80031073D01*
X123632943Y-79950000D01*
X123687115Y-79868927D01*
X123710771Y-79750000D01*
X123710771Y-79050000D01*
X123687115Y-78931073D01*
X123619748Y-78830252D01*
X123518927Y-78762885D01*
X123400000Y-78739229D01*
X122800000Y-78739229D01*
X122718231Y-78750179D01*
X122663093Y-78777676D01*
X122600000Y-78765126D01*
X122355600Y-78765126D01*
X122355600Y-78088082D01*
X122384849Y-78075967D01*
X122528961Y-77931855D01*
X122623790Y-78026685D01*
X122643627Y-78056373D01*
X122673314Y-78076209D01*
X122673315Y-78076210D01*
X122761252Y-78134967D01*
X122899999Y-78162566D01*
X122935019Y-78155600D01*
X125483036Y-78155600D01*
X125782253Y-78454817D01*
X125615151Y-78524033D01*
X125424033Y-78715151D01*
X125320600Y-78964859D01*
X125320600Y-79235141D01*
X125353731Y-79315126D01*
X124750000Y-79315126D01*
X124640983Y-79336811D01*
X124548564Y-79398564D01*
X124486811Y-79490983D01*
X124476186Y-79544400D01*
X124435020Y-79544400D01*
X124400000Y-79537434D01*
X124364980Y-79544400D01*
X124261252Y-79565033D01*
X124143627Y-79643627D01*
X124065033Y-79761252D01*
X124037434Y-79900000D01*
X124044401Y-79935025D01*
X124044400Y-81320600D01*
X123864859Y-81320600D01*
X123615151Y-81424033D01*
X123424033Y-81615151D01*
X123320600Y-81864859D01*
X123320600Y-82135141D01*
X123424033Y-82384849D01*
X123615151Y-82575967D01*
X123864859Y-82679400D01*
X124135141Y-82679400D01*
X124384849Y-82575967D01*
X124555048Y-82405768D01*
X124602026Y-82437158D01*
X124524033Y-82515151D01*
X124420600Y-82764859D01*
X124420600Y-83035141D01*
X124524033Y-83284849D01*
X124715151Y-83475967D01*
X124964859Y-83579400D01*
X125235141Y-83579400D01*
X125484849Y-83475967D01*
X125654416Y-83306400D01*
X126374184Y-83306400D01*
X126543751Y-83475967D01*
X126793459Y-83579400D01*
X127063741Y-83579400D01*
X127313449Y-83475967D01*
X127504567Y-83284849D01*
X127608000Y-83035141D01*
X127608000Y-82764859D01*
X127504567Y-82515151D01*
X127313449Y-82324033D01*
X127063741Y-82220600D01*
X126793459Y-82220600D01*
X126543751Y-82324033D01*
X126374184Y-82493600D01*
X125654416Y-82493600D01*
X125597974Y-82437158D01*
X125651436Y-82401436D01*
X125713189Y-82309017D01*
X125734874Y-82200000D01*
X125734874Y-81600000D01*
X125724836Y-81525045D01*
X125714231Y-81503779D01*
X125734874Y-81400000D01*
X125734874Y-81255600D01*
X125864980Y-81255600D01*
X125900000Y-81262566D01*
X125935020Y-81255600D01*
X126038748Y-81234967D01*
X126156373Y-81156373D01*
X126176212Y-81126682D01*
X126226683Y-81076211D01*
X126256372Y-81056373D01*
X126334967Y-80938748D01*
X126355600Y-80835020D01*
X126355600Y-80835016D01*
X126362565Y-80800001D01*
X126355600Y-80764986D01*
X126355600Y-80392722D01*
X126564859Y-80479400D01*
X126835141Y-80479400D01*
X127084849Y-80375967D01*
X127275967Y-80184849D01*
X127379400Y-79935141D01*
X127379400Y-79664859D01*
X127275967Y-79415151D01*
X127084849Y-79224033D01*
X127055600Y-79211918D01*
X127055600Y-78904690D01*
X127062566Y-78869670D01*
X127034967Y-78730922D01*
X126976210Y-78642985D01*
X126976209Y-78642984D01*
X126956373Y-78613297D01*
X126926686Y-78593461D01*
X125906541Y-77573317D01*
X125886703Y-77543627D01*
X125769078Y-77465033D01*
X125665350Y-77444400D01*
X125630330Y-77437434D01*
X125595310Y-77444400D01*
X124763816Y-77444400D01*
X124933062Y-77292734D01*
X125021915Y-77174330D01*
X125165402Y-76875324D01*
X125165403Y-76875323D01*
X125200635Y-76737958D01*
X125202181Y-76731931D01*
X125202181Y-76731930D01*
X125209259Y-76602723D01*
X125361423Y-76647219D01*
X125361423Y-76647219D01*
G37*
X125361423Y-76647219D02*
X126007788Y-76989451D01*
X126572135Y-77454665D01*
X127031410Y-78023851D01*
X127366854Y-78673761D01*
X127565533Y-79380583D01*
X127620601Y-80016410D01*
X127620600Y-95037362D01*
X127620601Y-95037367D01*
X127620601Y-95159119D01*
X127581144Y-95138461D01*
X126719605Y-96000000D01*
X127581144Y-96861539D01*
X127620601Y-96840881D01*
X127620600Y-97811976D01*
X127264433Y-97455809D01*
X127030627Y-97358964D01*
X127291773Y-97250793D01*
X127401539Y-97041144D01*
X126540000Y-96179605D01*
X126525858Y-96193748D01*
X126346253Y-96014143D01*
X126360395Y-96000000D01*
X125662206Y-95301811D01*
X125662566Y-95299999D01*
X125655600Y-95264980D01*
X125634967Y-95161252D01*
X125556373Y-95043627D01*
X125526683Y-95023789D01*
X125461750Y-94958856D01*
X125678461Y-94958856D01*
X126540000Y-95820395D01*
X127401539Y-94958856D01*
X127291773Y-94749207D01*
X126755890Y-94556726D01*
X126187140Y-94583971D01*
X125788227Y-94749207D01*
X125678461Y-94958856D01*
X125461750Y-94958856D01*
X124976211Y-94473317D01*
X124966419Y-94458662D01*
X125234531Y-94347606D01*
X125847606Y-93734531D01*
X126179400Y-92933510D01*
X126179400Y-92066490D01*
X125847606Y-91265469D01*
X125234531Y-90652394D01*
X124433510Y-90320600D01*
X124277092Y-90320600D01*
X124384845Y-90275967D01*
X124575963Y-90084849D01*
X124679396Y-89835141D01*
X124679396Y-89564859D01*
X124575963Y-89315151D01*
X124384845Y-89124033D01*
X124135137Y-89020600D01*
X123864855Y-89020600D01*
X123615147Y-89124033D01*
X123424029Y-89315151D01*
X123413047Y-89341664D01*
X123399291Y-89344400D01*
X123295563Y-89365033D01*
X123177938Y-89443627D01*
X123158100Y-89473317D01*
X121555600Y-91075817D01*
X121555600Y-84347294D01*
X122326685Y-83576209D01*
X122356372Y-83556373D01*
X122434967Y-83438748D01*
X122455600Y-83335020D01*
X122455600Y-83335019D01*
X122462566Y-83300001D01*
X122455600Y-83264982D01*
X122455600Y-82088082D01*
X122484849Y-82075967D01*
X122675967Y-81884849D01*
X122779400Y-81635141D01*
X122779400Y-81364859D01*
X122685423Y-81137980D01*
X122800000Y-81160771D01*
X123400000Y-81160771D01*
X123518927Y-81137115D01*
X123619748Y-81069748D01*
X123687115Y-80968927D01*
X123710771Y-80850000D01*
X123710771Y-80150000D01*
X123687115Y-80031073D01*
X123632943Y-79950000D01*
X123687115Y-79868927D01*
X123710771Y-79750000D01*
X123710771Y-79050000D01*
X123687115Y-78931073D01*
X123619748Y-78830252D01*
X123518927Y-78762885D01*
X123400000Y-78739229D01*
X122800000Y-78739229D01*
X122718231Y-78750179D01*
X122663093Y-78777676D01*
X122600000Y-78765126D01*
X122355600Y-78765126D01*
X122355600Y-78088082D01*
X122384849Y-78075967D01*
X122528961Y-77931855D01*
X122623790Y-78026685D01*
X122643627Y-78056373D01*
X122673314Y-78076209D01*
X122673315Y-78076210D01*
X122761252Y-78134967D01*
X122899999Y-78162566D01*
X122935019Y-78155600D01*
X125483036Y-78155600D01*
X125782253Y-78454817D01*
X125615151Y-78524033D01*
X125424033Y-78715151D01*
X125320600Y-78964859D01*
X125320600Y-79235141D01*
X125353731Y-79315126D01*
X124750000Y-79315126D01*
X124640983Y-79336811D01*
X124548564Y-79398564D01*
X124486811Y-79490983D01*
X124476186Y-79544400D01*
X124435020Y-79544400D01*
X124400000Y-79537434D01*
X124364980Y-79544400D01*
X124261252Y-79565033D01*
X124143627Y-79643627D01*
X124065033Y-79761252D01*
X124037434Y-79900000D01*
X124044401Y-79935025D01*
X124044400Y-81320600D01*
X123864859Y-81320600D01*
X123615151Y-81424033D01*
X123424033Y-81615151D01*
X123320600Y-81864859D01*
X123320600Y-82135141D01*
X123424033Y-82384849D01*
X123615151Y-82575967D01*
X123864859Y-82679400D01*
X124135141Y-82679400D01*
X124384849Y-82575967D01*
X124555048Y-82405768D01*
X124602026Y-82437158D01*
X124524033Y-82515151D01*
X124420600Y-82764859D01*
X124420600Y-83035141D01*
X124524033Y-83284849D01*
X124715151Y-83475967D01*
X124964859Y-83579400D01*
X125235141Y-83579400D01*
X125484849Y-83475967D01*
X125654416Y-83306400D01*
X126374184Y-83306400D01*
X126543751Y-83475967D01*
X126793459Y-83579400D01*
X127063741Y-83579400D01*
X127313449Y-83475967D01*
X127504567Y-83284849D01*
X127608000Y-83035141D01*
X127608000Y-82764859D01*
X127504567Y-82515151D01*
X127313449Y-82324033D01*
X127063741Y-82220600D01*
X126793459Y-82220600D01*
X126543751Y-82324033D01*
X126374184Y-82493600D01*
X125654416Y-82493600D01*
X125597974Y-82437158D01*
X125651436Y-82401436D01*
X125713189Y-82309017D01*
X125734874Y-82200000D01*
X125734874Y-81600000D01*
X125724836Y-81525045D01*
X125714231Y-81503779D01*
X125734874Y-81400000D01*
X125734874Y-81255600D01*
X125864980Y-81255600D01*
X125900000Y-81262566D01*
X125935020Y-81255600D01*
X126038748Y-81234967D01*
X126156373Y-81156373D01*
X126176212Y-81126682D01*
X126226683Y-81076211D01*
X126256372Y-81056373D01*
X126334967Y-80938748D01*
X126355600Y-80835020D01*
X126355600Y-80835016D01*
X126362565Y-80800001D01*
X126355600Y-80764986D01*
X126355600Y-80392722D01*
X126564859Y-80479400D01*
X126835141Y-80479400D01*
X127084849Y-80375967D01*
X127275967Y-80184849D01*
X127379400Y-79935141D01*
X127379400Y-79664859D01*
X127275967Y-79415151D01*
X127084849Y-79224033D01*
X127055600Y-79211918D01*
X127055600Y-78904690D01*
X127062566Y-78869670D01*
X127034967Y-78730922D01*
X126976210Y-78642985D01*
X126976209Y-78642984D01*
X126956373Y-78613297D01*
X126926686Y-78593461D01*
X125906541Y-77573317D01*
X125886703Y-77543627D01*
X125769078Y-77465033D01*
X125665350Y-77444400D01*
X125630330Y-77437434D01*
X125595310Y-77444400D01*
X124763816Y-77444400D01*
X124933062Y-77292734D01*
X125021915Y-77174330D01*
X125165402Y-76875324D01*
X125165403Y-76875323D01*
X125200635Y-76737958D01*
X125202181Y-76731931D01*
X125202181Y-76731930D01*
X125209259Y-76602723D01*
X125361423Y-76647219D01*
G04 #@! TO.N,GND*
G36*
X120515126Y-79750000D02*
X120536811Y-79859017D01*
X120597604Y-79950000D01*
X120536811Y-80040983D01*
X120515126Y-80150000D01*
X120515126Y-80850000D01*
X120536811Y-80959017D01*
X120598564Y-81051436D01*
X120690983Y-81113189D01*
X120800000Y-81134874D01*
X121400000Y-81134874D01*
X121474955Y-81124836D01*
X121496221Y-81114231D01*
X121522268Y-81119412D01*
X121420600Y-81364859D01*
X121420600Y-81635141D01*
X121524033Y-81884849D01*
X121715151Y-82075967D01*
X121744401Y-82088083D01*
X121744400Y-83152706D01*
X120973315Y-83923791D01*
X120943628Y-83943627D01*
X120923792Y-83973314D01*
X120923790Y-83973316D01*
X120865033Y-84061253D01*
X120837434Y-84200000D01*
X120844401Y-84235025D01*
X120844400Y-93564980D01*
X120837434Y-93600000D01*
X120845142Y-93638748D01*
X120865033Y-93738747D01*
X120943627Y-93856372D01*
X120973315Y-93876209D01*
X121721864Y-94624758D01*
X121214762Y-94613994D01*
X120703028Y-94813346D01*
X120653355Y-94846536D01*
X120550209Y-95054288D01*
X121460000Y-95964079D01*
X121474143Y-95949937D01*
X121510064Y-95985858D01*
X121495921Y-96000000D01*
X121510064Y-96014143D01*
X121474143Y-96050064D01*
X121460000Y-96035921D01*
X121445858Y-96050064D01*
X121409937Y-96014143D01*
X121424079Y-96000000D01*
X120514288Y-95090209D01*
X120379400Y-95157179D01*
X120379400Y-80021941D01*
X120454746Y-79274889D01*
X120515126Y-79081735D01*
X120515126Y-79750000D01*
X120515126Y-79750000D01*
G37*
X120515126Y-79750000D02*
X120536811Y-79859017D01*
X120597604Y-79950000D01*
X120536811Y-80040983D01*
X120515126Y-80150000D01*
X120515126Y-80850000D01*
X120536811Y-80959017D01*
X120598564Y-81051436D01*
X120690983Y-81113189D01*
X120800000Y-81134874D01*
X121400000Y-81134874D01*
X121474955Y-81124836D01*
X121496221Y-81114231D01*
X121522268Y-81119412D01*
X121420600Y-81364859D01*
X121420600Y-81635141D01*
X121524033Y-81884849D01*
X121715151Y-82075967D01*
X121744401Y-82088083D01*
X121744400Y-83152706D01*
X120973315Y-83923791D01*
X120943628Y-83943627D01*
X120923792Y-83973314D01*
X120923790Y-83973316D01*
X120865033Y-84061253D01*
X120837434Y-84200000D01*
X120844401Y-84235025D01*
X120844400Y-93564980D01*
X120837434Y-93600000D01*
X120845142Y-93638748D01*
X120865033Y-93738747D01*
X120943627Y-93856372D01*
X120973315Y-93876209D01*
X121721864Y-94624758D01*
X121214762Y-94613994D01*
X120703028Y-94813346D01*
X120653355Y-94846536D01*
X120550209Y-95054288D01*
X121460000Y-95964079D01*
X121474143Y-95949937D01*
X121510064Y-95985858D01*
X121495921Y-96000000D01*
X121510064Y-96014143D01*
X121474143Y-96050064D01*
X121460000Y-96035921D01*
X121445858Y-96050064D01*
X121409937Y-96014143D01*
X121424079Y-96000000D01*
X120514288Y-95090209D01*
X120379400Y-95157179D01*
X120379400Y-80021941D01*
X120454746Y-79274889D01*
X120515126Y-79081735D01*
X120515126Y-79750000D01*
G04 #@! TD*
M02*
