G04 #@! TF.GenerationSoftware,KiCad,Pcbnew,5.0.2-bee76a0~70~ubuntu18.04.1*
G04 #@! TF.CreationDate,2018-11-29T22:51:57+01:00*
G04 #@! TF.ProjectId,A1335_long_I2C,41313333-355f-46c6-9f6e-675f4932432e,rev?*
G04 #@! TF.SameCoordinates,Original*
G04 #@! TF.FileFunction,Legend,Bot*
G04 #@! TF.FilePolarity,Positive*
%FSLAX46Y46*%
G04 Gerber Fmt 4.6, Leading zero omitted, Abs format (unit mm)*
G04 Created by KiCad (PCBNEW 5.0.2-bee76a0~70~ubuntu18.04.1) date Thu 29 Nov 2018 22:51:57 CET*
%MOMM*%
%LPD*%
G01*
G04 APERTURE LIST*
%ADD10C,0.150000*%
%ADD11C,0.077506*%
%ADD12C,0.007078*%
%ADD13C,0.100000*%
%ADD14C,0.014156*%
G04 APERTURE END LIST*
D10*
X124000000Y-94700000D02*
X124000000Y-94600000D01*
X122800000Y-97200000D02*
X122800000Y-94700000D01*
X125200000Y-97200000D02*
X122800000Y-97200000D01*
X125200000Y-94700000D02*
X125200000Y-97200000D01*
X122800000Y-94700000D02*
X125200000Y-94700000D01*
X120400000Y-83100000D02*
X120400000Y-79100000D01*
X123771428Y-80261904D02*
X124228571Y-80261904D01*
X124000000Y-80261904D02*
X124000000Y-79461904D01*
X124076190Y-79576190D01*
X124152380Y-79652380D01*
X124228571Y-79690476D01*
X121138095Y-77961904D02*
X121061904Y-77961904D01*
X120985714Y-78000000D01*
X120947619Y-78038095D01*
X120909523Y-78114285D01*
X120871428Y-78266666D01*
X120871428Y-78457142D01*
X120909523Y-78609523D01*
X120947619Y-78685714D01*
X120985714Y-78723809D01*
X121061904Y-78761904D01*
X121138095Y-78761904D01*
X121214285Y-78723809D01*
X121252380Y-78685714D01*
X121290476Y-78609523D01*
X121328571Y-78457142D01*
X121328571Y-78266666D01*
X121290476Y-78114285D01*
X121252380Y-78038095D01*
X121214285Y-78000000D01*
X121138095Y-77961904D01*
X126000000Y-80300000D02*
X126000000Y-79200000D01*
X125700000Y-80300000D02*
X126000000Y-80300000D01*
X126000000Y-81500000D02*
X125700000Y-81500000D01*
X126000000Y-82700000D02*
X126000000Y-81500000D01*
X122000000Y-84000000D02*
X124000000Y-82000000D01*
X126000000Y-84000000D02*
X124000000Y-82000000D01*
X124000000Y-89000000D02*
X124000000Y-90300000D01*
X126900000Y-87600000D02*
X126900000Y-88900000D01*
X121100000Y-88000000D02*
X121100000Y-88700000D01*
X126900000Y-92600000D02*
X126900000Y-94600000D01*
X121100000Y-92600000D02*
X121100000Y-94600000D01*
D11*
G04 #@! TO.C,svg2mod*
X124092644Y-87133645D02*
X124092644Y-87133631D01*
X124074405Y-87134663D02*
X124092644Y-87133645D01*
X124051507Y-87135370D02*
X124074405Y-87134663D01*
X124024877Y-87135780D02*
X124051507Y-87135370D01*
X123995445Y-87135908D02*
X124024877Y-87135780D01*
X123964140Y-87135769D02*
X123995445Y-87135908D01*
X123931890Y-87135378D02*
X123964140Y-87135769D01*
X123899625Y-87134748D02*
X123931890Y-87135378D01*
X123868275Y-87133894D02*
X123899625Y-87134748D01*
X123838766Y-87132832D02*
X123868275Y-87133894D01*
X123812030Y-87131575D02*
X123838766Y-87132832D01*
X123788994Y-87130139D02*
X123812030Y-87131575D01*
X123770589Y-87128537D02*
X123788994Y-87130139D01*
X123742833Y-87125407D02*
X123770589Y-87128537D01*
X123715206Y-87121915D02*
X123742833Y-87125407D01*
X123687707Y-87118061D02*
X123715206Y-87121915D01*
X123660338Y-87113847D02*
X123687707Y-87118061D01*
X123633102Y-87109273D02*
X123660338Y-87113847D01*
X123606000Y-87104339D02*
X123633102Y-87109273D01*
X123579034Y-87099046D02*
X123606000Y-87104339D01*
X123552205Y-87093396D02*
X123579034Y-87099046D01*
X123525515Y-87087389D02*
X123552205Y-87093396D01*
X123498965Y-87081025D02*
X123525515Y-87087389D01*
X123472558Y-87074305D02*
X123498965Y-87081025D01*
X123446295Y-87067230D02*
X123472558Y-87074305D01*
X123420178Y-87059801D02*
X123446295Y-87067230D01*
X123394208Y-87052018D02*
X123420178Y-87059801D01*
X123368387Y-87043882D02*
X123394208Y-87052018D01*
X123342716Y-87035393D02*
X123368387Y-87043882D01*
X123317198Y-87026553D02*
X123342716Y-87035393D01*
X123291834Y-87017362D02*
X123317198Y-87026553D01*
X123266625Y-87007821D02*
X123291834Y-87017362D01*
X123241574Y-86997930D02*
X123266625Y-87007821D01*
X123216682Y-86987691D02*
X123241574Y-86997930D01*
X123191951Y-86977103D02*
X123216682Y-86987691D01*
X123167382Y-86966168D02*
X123191951Y-86977103D01*
X123142977Y-86954886D02*
X123167382Y-86966168D01*
X123118738Y-86943258D02*
X123142977Y-86954886D01*
X123094666Y-86931285D02*
X123118738Y-86943258D01*
X123070763Y-86918968D02*
X123094666Y-86931285D01*
X123047031Y-86906306D02*
X123070763Y-86918968D01*
X123023471Y-86893301D02*
X123047031Y-86906306D01*
X123000086Y-86879954D02*
X123023471Y-86893301D01*
X122976876Y-86866264D02*
X123000086Y-86879954D01*
X122953843Y-86852234D02*
X122976876Y-86866264D01*
X122930990Y-86837863D02*
X122953843Y-86852234D01*
X122908317Y-86823153D02*
X122930990Y-86837863D01*
X122885827Y-86808103D02*
X122908317Y-86823153D01*
X122863520Y-86792715D02*
X122885827Y-86808103D01*
X122841400Y-86776990D02*
X122863520Y-86792715D01*
X122819467Y-86760927D02*
X122841400Y-86776990D01*
X122797723Y-86744529D02*
X122819467Y-86760927D01*
X122776170Y-86727794D02*
X122797723Y-86744529D01*
X122754809Y-86710726D02*
X122776170Y-86727794D01*
X122733642Y-86693322D02*
X122754809Y-86710726D01*
X122712687Y-86675585D02*
X122733642Y-86693322D01*
X122691991Y-86657537D02*
X122712687Y-86675585D01*
X122671558Y-86639186D02*
X122691991Y-86657537D01*
X122651391Y-86620536D02*
X122671558Y-86639186D01*
X122631494Y-86601592D02*
X122651391Y-86620536D01*
X122611869Y-86582360D02*
X122631494Y-86601592D01*
X122592521Y-86562844D02*
X122611869Y-86582360D01*
X122573453Y-86543051D02*
X122592521Y-86562844D01*
X122554669Y-86522984D02*
X122573453Y-86543051D01*
X122536171Y-86502650D02*
X122554669Y-86522984D01*
X122517964Y-86482054D02*
X122536171Y-86502650D01*
X122500051Y-86461200D02*
X122517964Y-86482054D01*
X122482436Y-86440095D02*
X122500051Y-86461200D01*
X122465121Y-86418742D02*
X122482436Y-86440095D01*
X122448111Y-86397148D02*
X122465121Y-86418742D01*
X122431408Y-86375318D02*
X122448111Y-86397148D01*
X122415017Y-86353256D02*
X122431408Y-86375318D01*
X122398941Y-86330969D02*
X122415017Y-86353256D01*
X122383184Y-86308461D02*
X122398941Y-86330969D01*
X122367748Y-86285737D02*
X122383184Y-86308461D01*
X122352637Y-86262803D02*
X122367748Y-86285737D01*
X122337855Y-86239664D02*
X122352637Y-86262803D01*
X122323406Y-86216325D02*
X122337855Y-86239664D01*
X122309292Y-86192791D02*
X122323406Y-86216325D01*
X122295518Y-86169068D02*
X122309292Y-86192791D01*
X122282086Y-86145161D02*
X122295518Y-86169068D01*
X122269001Y-86121074D02*
X122282086Y-86145161D01*
X122256265Y-86096814D02*
X122269001Y-86121074D01*
X122243883Y-86072385D02*
X122256265Y-86096814D01*
X122231857Y-86047793D02*
X122243883Y-86072385D01*
X122220191Y-86023042D02*
X122231857Y-86047793D01*
X122208889Y-85998138D02*
X122220191Y-86023042D01*
X122197954Y-85973087D02*
X122208889Y-85998138D01*
X122187390Y-85947893D02*
X122197954Y-85973087D01*
X122177200Y-85922562D02*
X122187390Y-85947893D01*
X122167388Y-85897098D02*
X122177200Y-85922562D01*
X122157956Y-85871508D02*
X122167388Y-85897098D01*
X122148910Y-85845796D02*
X122157956Y-85871508D01*
X122140251Y-85819967D02*
X122148910Y-85845796D01*
X122131984Y-85794027D02*
X122140251Y-85819967D01*
X122123976Y-85767636D02*
X122131984Y-85794027D01*
X122116386Y-85741393D02*
X122123976Y-85767636D01*
X122109210Y-85715272D02*
X122116386Y-85741393D01*
X122102445Y-85689245D02*
X122109210Y-85715272D01*
X122096085Y-85663285D02*
X122102445Y-85689245D01*
X122090126Y-85637365D02*
X122096085Y-85663285D01*
X122084564Y-85611457D02*
X122090126Y-85637365D01*
X122079394Y-85585535D02*
X122084564Y-85611457D01*
X122074612Y-85559570D02*
X122079394Y-85585535D01*
X122070213Y-85533537D02*
X122074612Y-85559570D01*
X122066194Y-85507407D02*
X122070213Y-85533537D01*
X122062550Y-85481153D02*
X122066194Y-85507407D01*
X122059276Y-85454749D02*
X122062550Y-85481153D01*
X122056368Y-85428167D02*
X122059276Y-85454749D01*
X122053822Y-85401379D02*
X122056368Y-85428167D01*
X122051633Y-85374359D02*
X122053822Y-85401379D01*
X122049797Y-85347079D02*
X122051633Y-85374359D01*
X122048310Y-85319513D02*
X122049797Y-85347079D01*
X122047167Y-85291632D02*
X122048310Y-85319513D01*
X122046363Y-85263410D02*
X122047167Y-85291632D01*
X122045937Y-85235754D02*
X122046363Y-85263410D01*
X122045899Y-85208151D02*
X122045937Y-85235754D01*
X122046247Y-85180604D02*
X122045899Y-85208151D01*
X122046980Y-85153116D02*
X122046247Y-85180604D01*
X122048097Y-85125689D02*
X122046980Y-85153116D01*
X122049598Y-85098327D02*
X122048097Y-85125689D01*
X122051481Y-85071034D02*
X122049598Y-85098327D01*
X122053745Y-85043811D02*
X122051481Y-85071034D01*
X122056390Y-85016663D02*
X122053745Y-85043811D01*
X122059413Y-84989592D02*
X122056390Y-85016663D01*
X122062815Y-84962602D02*
X122059413Y-84989592D01*
X122066595Y-84935696D02*
X122062815Y-84962602D01*
X122070750Y-84908876D02*
X122066595Y-84935696D01*
X122075281Y-84882146D02*
X122070750Y-84908876D01*
X122080186Y-84855510D02*
X122075281Y-84882146D01*
X122085465Y-84828969D02*
X122080186Y-84855510D01*
X122091116Y-84802527D02*
X122085465Y-84828969D01*
X122097138Y-84776188D02*
X122091116Y-84802527D01*
X122103530Y-84749955D02*
X122097138Y-84776188D01*
X122110292Y-84723830D02*
X122103530Y-84749955D01*
X122117422Y-84697816D02*
X122110292Y-84723830D01*
X122124919Y-84671918D02*
X122117422Y-84697816D01*
X122132782Y-84646137D02*
X122124919Y-84671918D01*
X122141011Y-84620478D02*
X122132782Y-84646137D01*
X122149604Y-84594942D02*
X122141011Y-84620478D01*
X122158561Y-84569534D02*
X122149604Y-84594942D01*
X122167879Y-84544257D02*
X122158561Y-84569534D01*
X122177559Y-84519112D02*
X122167879Y-84544257D01*
X122187599Y-84494105D02*
X122177559Y-84519112D01*
X122197999Y-84469237D02*
X122187599Y-84494105D01*
X122208757Y-84444512D02*
X122197999Y-84469237D01*
X122219872Y-84419933D02*
X122208757Y-84444512D01*
X122231344Y-84395503D02*
X122219872Y-84419933D01*
X122243170Y-84371225D02*
X122231344Y-84395503D01*
X122255351Y-84347103D02*
X122243170Y-84371225D01*
X122267886Y-84323139D02*
X122255351Y-84347103D01*
X122280773Y-84299336D02*
X122267886Y-84323139D01*
X122294011Y-84275699D02*
X122280773Y-84299336D01*
X122307599Y-84252229D02*
X122294011Y-84275699D01*
X122321537Y-84228930D02*
X122307599Y-84252229D01*
X122335823Y-84205804D02*
X122321537Y-84228930D01*
X122350456Y-84182856D02*
X122335823Y-84205804D01*
X122365435Y-84160089D02*
X122350456Y-84182856D01*
X122380760Y-84137504D02*
X122365435Y-84160089D01*
X122396430Y-84115106D02*
X122380760Y-84137504D01*
X122412442Y-84092898D02*
X122396430Y-84115106D01*
X122428797Y-84070883D02*
X122412442Y-84092898D01*
X122445768Y-84048702D02*
X122428797Y-84070883D01*
X122463017Y-84026808D02*
X122445768Y-84048702D01*
X122480541Y-84005203D02*
X122463017Y-84026808D01*
X122498337Y-83983888D02*
X122480541Y-84005203D01*
X122516402Y-83962866D02*
X122498337Y-83983888D01*
X122534733Y-83942137D02*
X122516402Y-83962866D01*
X122553326Y-83921704D02*
X122534733Y-83942137D01*
X122572179Y-83901569D02*
X122553326Y-83921704D01*
X122591287Y-83881733D02*
X122572179Y-83901569D01*
X122610649Y-83862198D02*
X122591287Y-83881733D01*
X122630260Y-83842966D02*
X122610649Y-83862198D01*
X122650118Y-83824039D02*
X122630260Y-83842966D01*
X122670220Y-83805419D02*
X122650118Y-83824039D01*
X122690562Y-83787107D02*
X122670220Y-83805419D01*
X122711140Y-83769106D02*
X122690562Y-83787107D01*
X122731953Y-83751416D02*
X122711140Y-83769106D01*
X122752997Y-83734041D02*
X122731953Y-83751416D01*
X122774268Y-83716981D02*
X122752997Y-83734041D01*
X122795764Y-83700238D02*
X122774268Y-83716981D01*
X122817481Y-83683815D02*
X122795764Y-83700238D01*
X122839416Y-83667714D02*
X122817481Y-83683815D01*
X122861565Y-83651935D02*
X122839416Y-83667714D01*
X122883927Y-83636480D02*
X122861565Y-83651935D01*
X122906497Y-83621353D02*
X122883927Y-83636480D01*
X122929273Y-83606554D02*
X122906497Y-83621353D01*
X122952251Y-83592084D02*
X122929273Y-83606554D01*
X122975428Y-83577947D02*
X122952251Y-83592084D01*
X122998801Y-83564144D02*
X122975428Y-83577947D01*
X123022367Y-83550677D02*
X122998801Y-83564144D01*
X123046122Y-83537546D02*
X123022367Y-83550677D01*
X123070063Y-83524755D02*
X123046122Y-83537546D01*
X123094188Y-83512306D02*
X123070063Y-83524755D01*
X123118493Y-83500199D02*
X123094188Y-83512306D01*
X123142975Y-83488436D02*
X123118493Y-83500199D01*
X123167630Y-83477021D02*
X123142975Y-83488436D01*
X123192456Y-83465953D02*
X123167630Y-83477021D01*
X123217450Y-83455236D02*
X123192456Y-83465953D01*
X123242607Y-83444870D02*
X123217450Y-83455236D01*
X123267926Y-83434858D02*
X123242607Y-83444870D01*
X123293403Y-83425202D02*
X123267926Y-83434858D01*
X123319034Y-83415904D02*
X123293403Y-83425202D01*
X123344817Y-83406964D02*
X123319034Y-83415904D01*
X123370748Y-83398385D02*
X123344817Y-83406964D01*
X123396824Y-83390169D02*
X123370748Y-83398385D01*
X123423042Y-83382318D02*
X123396824Y-83390169D01*
X123449399Y-83374833D02*
X123423042Y-83382318D01*
X123475892Y-83367717D02*
X123449399Y-83374833D01*
X123502517Y-83360970D02*
X123475892Y-83367717D01*
X123529272Y-83354596D02*
X123502517Y-83360970D01*
X123556153Y-83348595D02*
X123529272Y-83354596D01*
X123583157Y-83342969D02*
X123556153Y-83348595D01*
X123610280Y-83337721D02*
X123583157Y-83342969D01*
X123637520Y-83332852D02*
X123610280Y-83337721D01*
X123664874Y-83328364D02*
X123637520Y-83332852D01*
X123692338Y-83324258D02*
X123664874Y-83328364D01*
X123719909Y-83320537D02*
X123692338Y-83324258D01*
X123747585Y-83317202D02*
X123719909Y-83320537D01*
X123774849Y-83314318D02*
X123747585Y-83317202D01*
X123802140Y-83311837D02*
X123774849Y-83314318D01*
X123829453Y-83309757D02*
X123802140Y-83311837D01*
X123856782Y-83308078D02*
X123829453Y-83309757D01*
X123884123Y-83306798D02*
X123856782Y-83308078D01*
X123911470Y-83305916D02*
X123884123Y-83306798D01*
X123938818Y-83305429D02*
X123911470Y-83305916D01*
X123966162Y-83305337D02*
X123938818Y-83305429D01*
X123993496Y-83305638D02*
X123966162Y-83305337D01*
X124020816Y-83306331D02*
X123993496Y-83305638D01*
X124048116Y-83307415D02*
X124020816Y-83306331D01*
X124075390Y-83308887D02*
X124048116Y-83307415D01*
X124102635Y-83310746D02*
X124075390Y-83308887D01*
X124129844Y-83312992D02*
X124102635Y-83310746D01*
X124157013Y-83315621D02*
X124129844Y-83312992D01*
X124184136Y-83318634D02*
X124157013Y-83315621D01*
X124211208Y-83322029D02*
X124184136Y-83318634D01*
X124238224Y-83325803D02*
X124211208Y-83322029D01*
X124265178Y-83329957D02*
X124238224Y-83325803D01*
X124292066Y-83334487D02*
X124265178Y-83329957D01*
X124318883Y-83339393D02*
X124292066Y-83334487D01*
X124345622Y-83344674D02*
X124318883Y-83339393D01*
X124372279Y-83350328D02*
X124345622Y-83344674D01*
X124398849Y-83356353D02*
X124372279Y-83350328D01*
X124425326Y-83362748D02*
X124398849Y-83356353D01*
X124451706Y-83369511D02*
X124425326Y-83362748D01*
X124477983Y-83376642D02*
X124451706Y-83369511D01*
X124504152Y-83384138D02*
X124477983Y-83376642D01*
X124530207Y-83391998D02*
X124504152Y-83384138D01*
X124556144Y-83400222D02*
X124530207Y-83391998D01*
X124581957Y-83408806D02*
X124556144Y-83400222D01*
X124607642Y-83417750D02*
X124581957Y-83408806D01*
X124633192Y-83427053D02*
X124607642Y-83417750D01*
X124658603Y-83436713D02*
X124633192Y-83427053D01*
X124683870Y-83446728D02*
X124658603Y-83436713D01*
X124708987Y-83457098D02*
X124683870Y-83446728D01*
X124733950Y-83467819D02*
X124708987Y-83457098D01*
X124758752Y-83478893D02*
X124733950Y-83467819D01*
X124783389Y-83490315D02*
X124758752Y-83478893D01*
X124807856Y-83502086D02*
X124783389Y-83490315D01*
X124832147Y-83514204D02*
X124807856Y-83502086D01*
X124856257Y-83526668D02*
X124832147Y-83514204D01*
X124880181Y-83539475D02*
X124856257Y-83526668D01*
X124903915Y-83552625D02*
X124880181Y-83539475D01*
X124927452Y-83566115D02*
X124903915Y-83552625D01*
X124950787Y-83579946D02*
X124927452Y-83566115D01*
X124973915Y-83594114D02*
X124950787Y-83579946D01*
X124996832Y-83608619D02*
X124973915Y-83594114D01*
X125019531Y-83623459D02*
X124996832Y-83608619D01*
X125042009Y-83638634D02*
X125019531Y-83623459D01*
X125064258Y-83654140D02*
X125042009Y-83638634D01*
X125086275Y-83669977D02*
X125064258Y-83654140D01*
X125108054Y-83686144D02*
X125086275Y-83669977D01*
X125129590Y-83702639D02*
X125108054Y-83686144D01*
X125151539Y-83719957D02*
X125129590Y-83702639D01*
X125173201Y-83737537D02*
X125151539Y-83719957D01*
X125194574Y-83755378D02*
X125173201Y-83737537D01*
X125215657Y-83773477D02*
X125194574Y-83755378D01*
X125236450Y-83791834D02*
X125215657Y-83773477D01*
X125256950Y-83810448D02*
X125236450Y-83791834D01*
X125277158Y-83829317D02*
X125256950Y-83810448D01*
X125297071Y-83848440D02*
X125277158Y-83829317D01*
X125316689Y-83867815D02*
X125297071Y-83848440D01*
X125336011Y-83887442D02*
X125316689Y-83867815D01*
X125355035Y-83907319D02*
X125336011Y-83887442D01*
X125373760Y-83927445D02*
X125355035Y-83907319D01*
X125392185Y-83947818D02*
X125373760Y-83927445D01*
X125410310Y-83968438D02*
X125392185Y-83947818D01*
X125428132Y-83989302D02*
X125410310Y-83968438D01*
X125445651Y-84010411D02*
X125428132Y-83989302D01*
X125462866Y-84031761D02*
X125445651Y-84010411D01*
X125479776Y-84053353D02*
X125462866Y-84031761D01*
X125496379Y-84075184D02*
X125479776Y-84053353D01*
X125512674Y-84097254D02*
X125496379Y-84075184D01*
X125528660Y-84119561D02*
X125512674Y-84097254D01*
X125544336Y-84142105D02*
X125528660Y-84119561D01*
X125559702Y-84164882D02*
X125544336Y-84142105D01*
X125574755Y-84187894D02*
X125559702Y-84164882D01*
X125589494Y-84211137D02*
X125574755Y-84187894D01*
X125603920Y-84234611D02*
X125589494Y-84211137D01*
X125618029Y-84258315D02*
X125603920Y-84234611D01*
X125631686Y-84282030D02*
X125618029Y-84258315D01*
X125644974Y-84305915D02*
X125631686Y-84282030D01*
X125657894Y-84329965D02*
X125644974Y-84305915D01*
X125670445Y-84354176D02*
X125657894Y-84329965D01*
X125682627Y-84378542D02*
X125670445Y-84354176D01*
X125694441Y-84403060D02*
X125682627Y-84378542D01*
X125705886Y-84427725D02*
X125694441Y-84403060D01*
X125716962Y-84452532D02*
X125705886Y-84427725D01*
X125727669Y-84477476D02*
X125716962Y-84452532D01*
X125738006Y-84502553D02*
X125727669Y-84477476D01*
X125747974Y-84527758D02*
X125738006Y-84502553D01*
X125757572Y-84553087D02*
X125747974Y-84527758D01*
X125766800Y-84578535D02*
X125757572Y-84553087D01*
X125775658Y-84604097D02*
X125766800Y-84578535D01*
X125784146Y-84629769D02*
X125775658Y-84604097D01*
X125792264Y-84655546D02*
X125784146Y-84629769D01*
X125800011Y-84681424D02*
X125792264Y-84655546D01*
X125807388Y-84707397D02*
X125800011Y-84681424D01*
X125814394Y-84733462D02*
X125807388Y-84707397D01*
X125821029Y-84759614D02*
X125814394Y-84733462D01*
X125827293Y-84785847D02*
X125821029Y-84759614D01*
X125833187Y-84812158D02*
X125827293Y-84785847D01*
X125838708Y-84838542D02*
X125833187Y-84812158D01*
X125843858Y-84864994D02*
X125838708Y-84838542D01*
X125848637Y-84891509D02*
X125843858Y-84864994D01*
X125853044Y-84918084D02*
X125848637Y-84891509D01*
X125857079Y-84944712D02*
X125853044Y-84918084D01*
X125860742Y-84971391D02*
X125857079Y-84944712D01*
X125864032Y-84998115D02*
X125860742Y-84971391D01*
X125866951Y-85024879D02*
X125864032Y-84998115D01*
X125869496Y-85051679D02*
X125866951Y-85024879D01*
X125871669Y-85078510D02*
X125869496Y-85051679D01*
X125873470Y-85105368D02*
X125871669Y-85078510D01*
X125874897Y-85132248D02*
X125873470Y-85105368D01*
X125875951Y-85159145D02*
X125874897Y-85132248D01*
X125876632Y-85186055D02*
X125875951Y-85159145D01*
X125876940Y-85212973D02*
X125876632Y-85186055D01*
X125876874Y-85239895D02*
X125876940Y-85212973D01*
X125876434Y-85266815D02*
X125876874Y-85239895D01*
X125875621Y-85293730D02*
X125876434Y-85266815D01*
X125874433Y-85320635D02*
X125875621Y-85293730D01*
X125872871Y-85347525D02*
X125874433Y-85320635D01*
X125870935Y-85374395D02*
X125872871Y-85347525D01*
X125868625Y-85401241D02*
X125870935Y-85374395D01*
X125865940Y-85428058D02*
X125868625Y-85401241D01*
X125862880Y-85454842D02*
X125865940Y-85428058D01*
X125859445Y-85481588D02*
X125862880Y-85454842D01*
X125855636Y-85508291D02*
X125859445Y-85481588D01*
X125851451Y-85534947D02*
X125855636Y-85508291D01*
X125846890Y-85561551D02*
X125851451Y-85534947D01*
X125841955Y-85588098D02*
X125846890Y-85561551D01*
X125836643Y-85614585D02*
X125841955Y-85588098D01*
X125830956Y-85641005D02*
X125836643Y-85614585D01*
X125824893Y-85667356D02*
X125830956Y-85641005D01*
X125818453Y-85693631D02*
X125824893Y-85667356D01*
X125811638Y-85719827D02*
X125818453Y-85693631D01*
X125804446Y-85745938D02*
X125811638Y-85719827D01*
X125796878Y-85771961D02*
X125804446Y-85745938D01*
X125788933Y-85797890D02*
X125796878Y-85771961D01*
X125780611Y-85823722D02*
X125788933Y-85797890D01*
X125771912Y-85849450D02*
X125780611Y-85823722D01*
X125762836Y-85875072D02*
X125771912Y-85849450D01*
X125753382Y-85900581D02*
X125762836Y-85875072D01*
X125743552Y-85925974D02*
X125753382Y-85900581D01*
X125733343Y-85951246D02*
X125743552Y-85925974D01*
X125722757Y-85976392D02*
X125733343Y-85951246D01*
X125711793Y-86001407D02*
X125722757Y-85976392D01*
X125700451Y-86026288D02*
X125711793Y-86001407D01*
X125688731Y-86051029D02*
X125700451Y-86026288D01*
X125676633Y-86075625D02*
X125688731Y-86051029D01*
X125663491Y-86101432D02*
X125676633Y-86075625D01*
X125650136Y-86126815D02*
X125663491Y-86101432D01*
X125636556Y-86151795D02*
X125650136Y-86126815D01*
X125622736Y-86176387D02*
X125636556Y-86151795D01*
X125608663Y-86200611D02*
X125622736Y-86176387D01*
X125594326Y-86224484D02*
X125608663Y-86200611D01*
X125579709Y-86248025D02*
X125594326Y-86224484D01*
X125564801Y-86271251D02*
X125579709Y-86248025D01*
X125549588Y-86294180D02*
X125564801Y-86271251D01*
X125534056Y-86316830D02*
X125549588Y-86294180D01*
X125518193Y-86339220D02*
X125534056Y-86316830D01*
X125501986Y-86361366D02*
X125518193Y-86339220D01*
X125485421Y-86383288D02*
X125501986Y-86361366D01*
X125468486Y-86405003D02*
X125485421Y-86383288D01*
X125451166Y-86426530D02*
X125468486Y-86405003D01*
X125433449Y-86447885D02*
X125451166Y-86426530D01*
X125415322Y-86469088D02*
X125433449Y-86447885D01*
X125396772Y-86490155D02*
X125415322Y-86469088D01*
X125377785Y-86511106D02*
X125396772Y-86490155D01*
X125358348Y-86531958D02*
X125377785Y-86511106D01*
X125338448Y-86552728D02*
X125358348Y-86531958D01*
X125318073Y-86573436D02*
X125338448Y-86552728D01*
X125297208Y-86594099D02*
X125318073Y-86573436D01*
X125277177Y-86613410D02*
X125297208Y-86594099D01*
X125256921Y-86632392D02*
X125277177Y-86613410D01*
X125236441Y-86651043D02*
X125256921Y-86632392D01*
X125215741Y-86669362D02*
X125236441Y-86651043D01*
X125194823Y-86687348D02*
X125215741Y-86669362D01*
X125173688Y-86705000D02*
X125194823Y-86687348D01*
X125152339Y-86722317D02*
X125173688Y-86705000D01*
X125130779Y-86739298D02*
X125152339Y-86722317D01*
X125109009Y-86755942D02*
X125130779Y-86739298D01*
X125087032Y-86772248D02*
X125109009Y-86755942D01*
X125064851Y-86788215D02*
X125087032Y-86772248D01*
X125042466Y-86803842D02*
X125064851Y-86788215D01*
X125019882Y-86819128D02*
X125042466Y-86803842D01*
X124997099Y-86834071D02*
X125019882Y-86819128D01*
X124974120Y-86848672D02*
X124997099Y-86834071D01*
X124950949Y-86862928D02*
X124974120Y-86848672D01*
X124927586Y-86876839D02*
X124950949Y-86862928D01*
X124904034Y-86890404D02*
X124927586Y-86876839D01*
X124880295Y-86903622D02*
X124904034Y-86890404D01*
X124856372Y-86916491D02*
X124880295Y-86903622D01*
X124832267Y-86929011D02*
X124856372Y-86916491D01*
X124807982Y-86941181D02*
X124832267Y-86929011D01*
X124783520Y-86953000D02*
X124807982Y-86941181D01*
X124758882Y-86964466D02*
X124783520Y-86953000D01*
X124734071Y-86975579D02*
X124758882Y-86964466D01*
X124709090Y-86986337D02*
X124734071Y-86975579D01*
X124683940Y-86996741D02*
X124709090Y-86986337D01*
X124658625Y-87006787D02*
X124683940Y-86996741D01*
X124633145Y-87016477D02*
X124658625Y-87006787D01*
X124607503Y-87025807D02*
X124633145Y-87016477D01*
X124581703Y-87034779D02*
X124607503Y-87025807D01*
X124555745Y-87043390D02*
X124581703Y-87034779D01*
X124529633Y-87051639D02*
X124555745Y-87043390D01*
X124503368Y-87059526D02*
X124529633Y-87051639D01*
X124476953Y-87067049D02*
X124503368Y-87059526D01*
X124450390Y-87074208D02*
X124476953Y-87067049D01*
X124423681Y-87081001D02*
X124450390Y-87074208D01*
X124396829Y-87087428D02*
X124423681Y-87081001D01*
X124369835Y-87093486D02*
X124396829Y-87087428D01*
X124342703Y-87099177D02*
X124369835Y-87093486D01*
X124315435Y-87104497D02*
X124342703Y-87099177D01*
X124288032Y-87109447D02*
X124315435Y-87104497D01*
X124260497Y-87114025D02*
X124288032Y-87109447D01*
X124232833Y-87118231D02*
X124260497Y-87114025D01*
X124205041Y-87122063D02*
X124232833Y-87118231D01*
X124177123Y-87125519D02*
X124205041Y-87122063D01*
X124149083Y-87128601D02*
X124177123Y-87125519D01*
X124120923Y-87131305D02*
X124149083Y-87128601D01*
X124092644Y-87133631D02*
X124120923Y-87131305D01*
D12*
G36*
X122570845Y-85789212D02*
X122596250Y-85779043D01*
X122617458Y-85767889D01*
X122635074Y-85755131D01*
X122649700Y-85740152D01*
X122661939Y-85722334D01*
X122672396Y-85701060D01*
X122681674Y-85675711D01*
X122687330Y-85656433D01*
X122692207Y-85636031D01*
X122696329Y-85614237D01*
X122699720Y-85590783D01*
X122702403Y-85565401D01*
X122704402Y-85537822D01*
X122705740Y-85507779D01*
X122706441Y-85475005D01*
X122706530Y-85439229D01*
X122706029Y-85400186D01*
X122705219Y-85367130D01*
X122704101Y-85335434D01*
X122702668Y-85305045D01*
X122700916Y-85275912D01*
X122698837Y-85247983D01*
X122696427Y-85221207D01*
X122693680Y-85195530D01*
X122690589Y-85170903D01*
X122687150Y-85147272D01*
X122683356Y-85124587D01*
X122679201Y-85102795D01*
X122674680Y-85081844D01*
X122669786Y-85061683D01*
X122659728Y-85023811D01*
X122649424Y-84987606D01*
X122638904Y-84953134D01*
X122628200Y-84920466D01*
X122617342Y-84889668D01*
X122606360Y-84860809D01*
X122595287Y-84833958D01*
X122584151Y-84809182D01*
X122572984Y-84786551D01*
X122561817Y-84766131D01*
X122550680Y-84747991D01*
X122539604Y-84732201D01*
X122528620Y-84718827D01*
X122517758Y-84707938D01*
X122507049Y-84699603D01*
X122487898Y-84690000D01*
X122458834Y-84688314D01*
X122439405Y-84688816D01*
X122423155Y-84690948D01*
X122409473Y-84695650D01*
X122397745Y-84703861D01*
X122387357Y-84716521D01*
X122377699Y-84734568D01*
X122368155Y-84758943D01*
X122358114Y-84790584D01*
X122346963Y-84830431D01*
X122334089Y-84879424D01*
X122327213Y-84906882D01*
X122321040Y-84933475D01*
X122315538Y-84959453D01*
X122310674Y-84985065D01*
X122306414Y-85010562D01*
X122302725Y-85036193D01*
X122299575Y-85062208D01*
X122296929Y-85088857D01*
X122294756Y-85116389D01*
X122293022Y-85145055D01*
X122291694Y-85175105D01*
X122290739Y-85206787D01*
X122289863Y-85246679D01*
X122289891Y-85273919D01*
X122291256Y-85294845D01*
X122294386Y-85315797D01*
X122299714Y-85343115D01*
X122306201Y-85374342D01*
X122313216Y-85405655D01*
X122320659Y-85436700D01*
X122328426Y-85467124D01*
X122336415Y-85496570D01*
X122344525Y-85524686D01*
X122352654Y-85551117D01*
X122360699Y-85575509D01*
X122368558Y-85597507D01*
X122376130Y-85616758D01*
X122383311Y-85632906D01*
X122389728Y-85645185D01*
X122398211Y-85659332D01*
X122409456Y-85676363D01*
X122424160Y-85697294D01*
X122443019Y-85723144D01*
X122466730Y-85754928D01*
X122484495Y-85774454D01*
X122503705Y-85787618D01*
X122524442Y-85794448D01*
X122546790Y-85794971D01*
X122570831Y-85789215D01*
X122570845Y-85789212D01*
X122570845Y-85789212D01*
G37*
X122570845Y-85789212D02*
X122596250Y-85779043D01*
X122617458Y-85767889D01*
X122635074Y-85755131D01*
X122649700Y-85740152D01*
X122661939Y-85722334D01*
X122672396Y-85701060D01*
X122681674Y-85675711D01*
X122687330Y-85656433D01*
X122692207Y-85636031D01*
X122696329Y-85614237D01*
X122699720Y-85590783D01*
X122702403Y-85565401D01*
X122704402Y-85537822D01*
X122705740Y-85507779D01*
X122706441Y-85475005D01*
X122706530Y-85439229D01*
X122706029Y-85400186D01*
X122705219Y-85367130D01*
X122704101Y-85335434D01*
X122702668Y-85305045D01*
X122700916Y-85275912D01*
X122698837Y-85247983D01*
X122696427Y-85221207D01*
X122693680Y-85195530D01*
X122690589Y-85170903D01*
X122687150Y-85147272D01*
X122683356Y-85124587D01*
X122679201Y-85102795D01*
X122674680Y-85081844D01*
X122669786Y-85061683D01*
X122659728Y-85023811D01*
X122649424Y-84987606D01*
X122638904Y-84953134D01*
X122628200Y-84920466D01*
X122617342Y-84889668D01*
X122606360Y-84860809D01*
X122595287Y-84833958D01*
X122584151Y-84809182D01*
X122572984Y-84786551D01*
X122561817Y-84766131D01*
X122550680Y-84747991D01*
X122539604Y-84732201D01*
X122528620Y-84718827D01*
X122517758Y-84707938D01*
X122507049Y-84699603D01*
X122487898Y-84690000D01*
X122458834Y-84688314D01*
X122439405Y-84688816D01*
X122423155Y-84690948D01*
X122409473Y-84695650D01*
X122397745Y-84703861D01*
X122387357Y-84716521D01*
X122377699Y-84734568D01*
X122368155Y-84758943D01*
X122358114Y-84790584D01*
X122346963Y-84830431D01*
X122334089Y-84879424D01*
X122327213Y-84906882D01*
X122321040Y-84933475D01*
X122315538Y-84959453D01*
X122310674Y-84985065D01*
X122306414Y-85010562D01*
X122302725Y-85036193D01*
X122299575Y-85062208D01*
X122296929Y-85088857D01*
X122294756Y-85116389D01*
X122293022Y-85145055D01*
X122291694Y-85175105D01*
X122290739Y-85206787D01*
X122289863Y-85246679D01*
X122289891Y-85273919D01*
X122291256Y-85294845D01*
X122294386Y-85315797D01*
X122299714Y-85343115D01*
X122306201Y-85374342D01*
X122313216Y-85405655D01*
X122320659Y-85436700D01*
X122328426Y-85467124D01*
X122336415Y-85496570D01*
X122344525Y-85524686D01*
X122352654Y-85551117D01*
X122360699Y-85575509D01*
X122368558Y-85597507D01*
X122376130Y-85616758D01*
X122383311Y-85632906D01*
X122389728Y-85645185D01*
X122398211Y-85659332D01*
X122409456Y-85676363D01*
X122424160Y-85697294D01*
X122443019Y-85723144D01*
X122466730Y-85754928D01*
X122484495Y-85774454D01*
X122503705Y-85787618D01*
X122524442Y-85794448D01*
X122546790Y-85794971D01*
X122570831Y-85789215D01*
X122570845Y-85789212D01*
D13*
G36*
X124363851Y-85772891D02*
X124307008Y-85867063D01*
X124292113Y-85873871D01*
X124275701Y-85890736D01*
X124260747Y-85915494D01*
X124250225Y-85945981D01*
X124250790Y-85972312D01*
X124262558Y-85982296D01*
X124281521Y-85970901D01*
X124294683Y-85955582D01*
X124306530Y-85935717D01*
X124315477Y-85914447D01*
X124319940Y-85894907D01*
X124318045Y-85873825D01*
X124308510Y-85866883D01*
X124308702Y-85867035D01*
X124307008Y-85867063D01*
X124363851Y-85772891D01*
X124385203Y-85776805D01*
X124399920Y-85789142D01*
X124408394Y-85810486D01*
X124411019Y-85841421D01*
X124408908Y-85866905D01*
X124403182Y-85893152D01*
X124394236Y-85919533D01*
X124382469Y-85945419D01*
X124368278Y-85970181D01*
X124352062Y-85993189D01*
X124334217Y-86013815D01*
X124315141Y-86031429D01*
X124295233Y-86045402D01*
X124274889Y-86055105D01*
X124252509Y-86059647D01*
X124233889Y-86056130D01*
X124219473Y-86044903D01*
X124209700Y-86026312D01*
X124205013Y-86000704D01*
X124205452Y-85976869D01*
X124209655Y-85951853D01*
X124217192Y-85926276D01*
X124227631Y-85900757D01*
X124240541Y-85875913D01*
X124255490Y-85852364D01*
X124272047Y-85830727D01*
X124289780Y-85811623D01*
X124308258Y-85795668D01*
X124327051Y-85783482D01*
X124345725Y-85775684D01*
X124363851Y-85772891D01*
X124363851Y-85772891D01*
G37*
G36*
X123300706Y-85591755D02*
X123314693Y-85592734D01*
X123304648Y-85675618D01*
X123286542Y-85678799D01*
X123270468Y-85688289D01*
X123258336Y-85704097D01*
X123252750Y-85725131D01*
X123255992Y-85745209D01*
X123266715Y-85762196D01*
X123283574Y-85773955D01*
X123305221Y-85778350D01*
X123320755Y-85776395D01*
X123333901Y-85770334D01*
X123351408Y-85751547D01*
X123357703Y-85728175D01*
X123351765Y-85703990D01*
X123339189Y-85688216D01*
X123322843Y-85678766D01*
X123304659Y-85675635D01*
X123304648Y-85675618D01*
X123314693Y-85592734D01*
X123329887Y-85595199D01*
X123355332Y-85602761D01*
X123377762Y-85614174D01*
X123397178Y-85629440D01*
X123413576Y-85648563D01*
X123426958Y-85671545D01*
X123434194Y-85688707D01*
X123437285Y-85704642D01*
X123437936Y-85728170D01*
X123437269Y-85751789D01*
X123434106Y-85767864D01*
X123426704Y-85785507D01*
X123414285Y-85807222D01*
X123399179Y-85825495D01*
X123381229Y-85840456D01*
X123360283Y-85852231D01*
X123336187Y-85860947D01*
X123314414Y-85864735D01*
X123291848Y-85864403D01*
X123269254Y-85860223D01*
X123247397Y-85852466D01*
X123227040Y-85841406D01*
X123208950Y-85827313D01*
X123193890Y-85810461D01*
X123181451Y-85789930D01*
X123173010Y-85768221D01*
X123168427Y-85745829D01*
X123167561Y-85723245D01*
X123170271Y-85700963D01*
X123176416Y-85679475D01*
X123185856Y-85659275D01*
X123198448Y-85640856D01*
X123214054Y-85624711D01*
X123232531Y-85611332D01*
X123253738Y-85601213D01*
X123278141Y-85594020D01*
X123300725Y-85591758D01*
X123300706Y-85591755D01*
X123300706Y-85591755D01*
G37*
D14*
G36*
X123380879Y-83753586D02*
X123337363Y-85487717D01*
X123311285Y-85489053D01*
X123285297Y-85493343D01*
X123259833Y-85500503D01*
X123235328Y-85510450D01*
X123212217Y-85523098D01*
X123190934Y-85538363D01*
X123171913Y-85556161D01*
X123155590Y-85576409D01*
X123142398Y-85599022D01*
X123132772Y-85623915D01*
X123126406Y-85648993D01*
X123123095Y-85674259D01*
X123122650Y-85699562D01*
X123124880Y-85724751D01*
X123129595Y-85749676D01*
X123136604Y-85774185D01*
X123145717Y-85798128D01*
X123156743Y-85821354D01*
X123169491Y-85843712D01*
X123183772Y-85865052D01*
X123199395Y-85885223D01*
X123216169Y-85904074D01*
X123234858Y-85923483D01*
X123254760Y-85941751D01*
X123275782Y-85958791D01*
X123297829Y-85974516D01*
X123320809Y-85988836D01*
X123344627Y-86001665D01*
X123369190Y-86012915D01*
X123394403Y-86022498D01*
X123420173Y-86030326D01*
X123446406Y-86036311D01*
X123473009Y-86040367D01*
X123499887Y-86042404D01*
X123526948Y-86042336D01*
X123554096Y-86040074D01*
X123577953Y-86036489D01*
X123601040Y-86029897D01*
X123623098Y-86020517D01*
X123643867Y-86008568D01*
X123663087Y-85994268D01*
X123680500Y-85977837D01*
X123695845Y-85959493D01*
X123708862Y-85939455D01*
X123719293Y-85917941D01*
X123726878Y-85895170D01*
X123731357Y-85871361D01*
X123733098Y-85845829D01*
X123732277Y-85820558D01*
X123729045Y-85795639D01*
X123723555Y-85771161D01*
X123715961Y-85747216D01*
X123706416Y-85723894D01*
X123695071Y-85701285D01*
X123682081Y-85679480D01*
X123667597Y-85658569D01*
X123651773Y-85638643D01*
X123634762Y-85619792D01*
X123616717Y-85602106D01*
X123597790Y-85585676D01*
X123577552Y-85569718D01*
X123556381Y-85554931D01*
X123534360Y-85541394D01*
X123511569Y-85529189D01*
X123488091Y-85518394D01*
X123464007Y-85509090D01*
X123439399Y-85501356D01*
X123414349Y-85495272D01*
X123388939Y-85490918D01*
X123363249Y-85488373D01*
X123337363Y-85487717D01*
X123380879Y-83753586D01*
X124472560Y-85619117D01*
X124447185Y-85623375D01*
X124422990Y-85630900D01*
X124399932Y-85641266D01*
X124377969Y-85654046D01*
X124357059Y-85668817D01*
X124337159Y-85685151D01*
X124318228Y-85702625D01*
X124300223Y-85720812D01*
X124283101Y-85739287D01*
X124266093Y-85760139D01*
X124249775Y-85781670D01*
X124234252Y-85803854D01*
X124219625Y-85826665D01*
X124205999Y-85850078D01*
X124193476Y-85874065D01*
X124182159Y-85898603D01*
X124172151Y-85923664D01*
X124163556Y-85949223D01*
X124156477Y-85975254D01*
X124151016Y-86001731D01*
X124148360Y-86024834D01*
X124148036Y-86048984D01*
X124150971Y-86072886D01*
X124158091Y-86095243D01*
X124170322Y-86114757D01*
X124188591Y-86130131D01*
X124210499Y-86137940D01*
X124232868Y-86139996D01*
X124255289Y-86137227D01*
X124277351Y-86130559D01*
X124298646Y-86120920D01*
X124318763Y-86109237D01*
X124337294Y-86096437D01*
X124358367Y-86080058D01*
X124378519Y-86062611D01*
X124397739Y-86044160D01*
X124416016Y-86024770D01*
X124433338Y-86004505D01*
X124449697Y-85983428D01*
X124465079Y-85961603D01*
X124479476Y-85939096D01*
X124492876Y-85915969D01*
X124505268Y-85892288D01*
X124516641Y-85868115D01*
X124526986Y-85843516D01*
X124536290Y-85818554D01*
X124544544Y-85793293D01*
X124550072Y-85769093D01*
X124553930Y-85743924D01*
X124555183Y-85718488D01*
X124552899Y-85693487D01*
X124546145Y-85669622D01*
X124533988Y-85647596D01*
X124516679Y-85632021D01*
X124495612Y-85622139D01*
X124472546Y-85619117D01*
X124472560Y-85619117D01*
X123380879Y-83753586D01*
X123408349Y-83753854D01*
X123435826Y-83754651D01*
X123463297Y-83755978D01*
X123490749Y-83757838D01*
X123518168Y-83760232D01*
X123545542Y-83763162D01*
X123572856Y-83766630D01*
X123807664Y-86671022D01*
X123802630Y-86653573D01*
X123789151Y-86642168D01*
X123770673Y-86643256D01*
X123747102Y-86648116D01*
X123723004Y-86652322D01*
X123698609Y-86655363D01*
X123674149Y-86656729D01*
X123649855Y-86655907D01*
X123625959Y-86652388D01*
X123602691Y-86645660D01*
X123580283Y-86635213D01*
X123555232Y-86624541D01*
X123529001Y-86617997D01*
X123528989Y-86618048D01*
X123513321Y-86625707D01*
X123506611Y-86641364D01*
X123509362Y-86658484D01*
X123522075Y-86670533D01*
X123544015Y-86682799D01*
X123566932Y-86693196D01*
X123590649Y-86701645D01*
X123614992Y-86708069D01*
X123639785Y-86712388D01*
X123664852Y-86714525D01*
X123690018Y-86714402D01*
X123715107Y-86711941D01*
X123737164Y-86708210D01*
X123759440Y-86703982D01*
X123780975Y-86697764D01*
X123800809Y-86688065D01*
X123807664Y-86671022D01*
X123572856Y-83766630D01*
X123600099Y-83770639D01*
X123627257Y-83775191D01*
X123654317Y-83780286D01*
X123681265Y-83785928D01*
X123708089Y-83792118D01*
X123734776Y-83798859D01*
X123761311Y-83806151D01*
X123787683Y-83813998D01*
X123813878Y-83822401D01*
X123839882Y-83831362D01*
X123865683Y-83840884D01*
X123891268Y-83850967D01*
X123916623Y-83861615D01*
X123941735Y-83872829D01*
X123966592Y-83884611D01*
X123991179Y-83896963D01*
X124014174Y-83909402D01*
X124036790Y-83922509D01*
X124059008Y-83936270D01*
X124080811Y-83950675D01*
X124102181Y-83965709D01*
X124123101Y-83981362D01*
X124143554Y-83997619D01*
X124163521Y-84014470D01*
X124182986Y-84031901D01*
X124201931Y-84049901D01*
X124220338Y-84068455D01*
X124238189Y-84087554D01*
X124255468Y-84107182D01*
X124272157Y-84127330D01*
X124288238Y-84147983D01*
X124305278Y-84169130D01*
X124322095Y-84190496D01*
X124338677Y-84212078D01*
X124355015Y-84233876D01*
X124371097Y-84255886D01*
X124386913Y-84278105D01*
X124402452Y-84300533D01*
X124417703Y-84323166D01*
X124432657Y-84346002D01*
X124447301Y-84369040D01*
X124461627Y-84392275D01*
X124475622Y-84415708D01*
X124489276Y-84439334D01*
X124502579Y-84463152D01*
X124515519Y-84487160D01*
X124528087Y-84511355D01*
X124540272Y-84535735D01*
X124552062Y-84560298D01*
X124563448Y-84585041D01*
X124574418Y-84609963D01*
X124584962Y-84635060D01*
X124595070Y-84660331D01*
X124604730Y-84685774D01*
X124613932Y-84711385D01*
X124622666Y-84737163D01*
X124630920Y-84763106D01*
X124638684Y-84789211D01*
X124645948Y-84815476D01*
X124652700Y-84841899D01*
X124658930Y-84868477D01*
X124664628Y-84895208D01*
X124669782Y-84922090D01*
X124674946Y-84949687D01*
X124679278Y-84977375D01*
X124682836Y-85005144D01*
X124685678Y-85032985D01*
X124687864Y-85060887D01*
X124689450Y-85088841D01*
X124690495Y-85116836D01*
X124691057Y-85144864D01*
X124691196Y-85172913D01*
X124690968Y-85200974D01*
X124690432Y-85229036D01*
X124689647Y-85257091D01*
X124688671Y-85285128D01*
X124687561Y-85313137D01*
X124686377Y-85341108D01*
X124683651Y-85368346D01*
X124680471Y-85395510D01*
X124676850Y-85422601D01*
X124672800Y-85449617D01*
X124668331Y-85476558D01*
X124663457Y-85503423D01*
X124658187Y-85530211D01*
X124652535Y-85556921D01*
X124646512Y-85583552D01*
X124640128Y-85610104D01*
X124633397Y-85636575D01*
X124626330Y-85662966D01*
X124618938Y-85689274D01*
X124611234Y-85715500D01*
X124603228Y-85741642D01*
X124594933Y-85767700D01*
X124586359Y-85793673D01*
X124577520Y-85819560D01*
X124568426Y-85845360D01*
X124559090Y-85871072D01*
X124549522Y-85896696D01*
X124539735Y-85922231D01*
X124529740Y-85947676D01*
X124519549Y-85973030D01*
X124509173Y-85998292D01*
X124498625Y-86023461D01*
X124487916Y-86048538D01*
X124476596Y-86073554D01*
X124465098Y-86098516D01*
X124453394Y-86123401D01*
X124441457Y-86148187D01*
X124429260Y-86172850D01*
X124416777Y-86197368D01*
X124403980Y-86221717D01*
X124390843Y-86245876D01*
X124377338Y-86269820D01*
X124363439Y-86293528D01*
X124349118Y-86316975D01*
X124334349Y-86340140D01*
X124319105Y-86363000D01*
X124303359Y-86385531D01*
X124285763Y-86406905D01*
X124267648Y-86427842D01*
X124249034Y-86448338D01*
X124229941Y-86468389D01*
X124210389Y-86487991D01*
X124190396Y-86507141D01*
X124169984Y-86525836D01*
X124149171Y-86544071D01*
X124127977Y-86561842D01*
X124106422Y-86579147D01*
X124084526Y-86595981D01*
X124062308Y-86612342D01*
X124039870Y-86627371D01*
X124016984Y-86641649D01*
X123993675Y-86655177D01*
X123969966Y-86667958D01*
X123945880Y-86679997D01*
X123921441Y-86691295D01*
X123896671Y-86701855D01*
X123871595Y-86711680D01*
X123846237Y-86720774D01*
X123820618Y-86729139D01*
X123794763Y-86736778D01*
X123768696Y-86743694D01*
X123742439Y-86749889D01*
X123716016Y-86755368D01*
X123689451Y-86760132D01*
X123662766Y-86764185D01*
X123635986Y-86767530D01*
X123609134Y-86770168D01*
X123582233Y-86772105D01*
X123554593Y-86774758D01*
X123526764Y-86776781D01*
X123498857Y-86777797D01*
X123470986Y-86777428D01*
X123443261Y-86775295D01*
X123415796Y-86771022D01*
X123388702Y-86764231D01*
X123362966Y-86757492D01*
X123337541Y-86749866D01*
X123312428Y-86741386D01*
X123287630Y-86732088D01*
X123263147Y-86722006D01*
X123238979Y-86711176D01*
X123215129Y-86699632D01*
X123191597Y-86687409D01*
X123168384Y-86674543D01*
X123145491Y-86661068D01*
X123122920Y-86647019D01*
X123100670Y-86632430D01*
X123078744Y-86617338D01*
X123057143Y-86601776D01*
X123035867Y-86585780D01*
X123014917Y-86569384D01*
X122994295Y-86552624D01*
X122974002Y-86535534D01*
X122954038Y-86518150D01*
X122933469Y-86500860D01*
X122913149Y-86483260D01*
X122893104Y-86465339D01*
X122873362Y-86447085D01*
X122853949Y-86428488D01*
X122834892Y-86409535D01*
X122816220Y-86390215D01*
X122797957Y-86370517D01*
X122780132Y-86350430D01*
X122762772Y-86329941D01*
X122745903Y-86309041D01*
X122729552Y-86287716D01*
X122713747Y-86265957D01*
X122698514Y-86243751D01*
X122683293Y-86221843D01*
X122668278Y-86199700D01*
X122653585Y-86177288D01*
X122639330Y-86154577D01*
X122625631Y-86131533D01*
X122612605Y-86108126D01*
X122600368Y-86084322D01*
X122589038Y-86060090D01*
X122578731Y-86035399D01*
X122569565Y-86010215D01*
X122561656Y-85984507D01*
X122560246Y-85962272D01*
X122563472Y-85940457D01*
X122568750Y-85918784D01*
X122573493Y-85896974D01*
X122575118Y-85874748D01*
X122576887Y-85850228D01*
X122578927Y-85825687D01*
X122582258Y-85801588D01*
X122606518Y-85790563D01*
X122629775Y-85777222D01*
X122650773Y-85760990D01*
X122668257Y-85741291D01*
X122680971Y-85717550D01*
X122691175Y-85692402D01*
X122699472Y-85666713D01*
X122706076Y-85640569D01*
X122711202Y-85614058D01*
X122715066Y-85587264D01*
X122717882Y-85560273D01*
X122719864Y-85533173D01*
X122721229Y-85506049D01*
X122722190Y-85478987D01*
X122722963Y-85452072D01*
X122722831Y-85424001D01*
X122722405Y-85395914D01*
X122721662Y-85367820D01*
X122720577Y-85339730D01*
X122719128Y-85311655D01*
X122717292Y-85283603D01*
X122715044Y-85255584D01*
X122712361Y-85227610D01*
X122709221Y-85199689D01*
X122705599Y-85171833D01*
X122701473Y-85144050D01*
X122696819Y-85116351D01*
X122691614Y-85088745D01*
X122685436Y-85062107D01*
X122678491Y-85035642D01*
X122671071Y-85009290D01*
X122663469Y-84982991D01*
X122655978Y-84956685D01*
X122648889Y-84930313D01*
X122642496Y-84903813D01*
X122643198Y-84876713D01*
X122643809Y-84849608D01*
X122644340Y-84822499D01*
X122644804Y-84795387D01*
X122645215Y-84768272D01*
X122645584Y-84741156D01*
X122645925Y-84714040D01*
X122646249Y-84686923D01*
X122646570Y-84659807D01*
X122646900Y-84632692D01*
X122647252Y-84605579D01*
X122647638Y-84578470D01*
X122648072Y-84551364D01*
X122648565Y-84524262D01*
X122649130Y-84497166D01*
X122649780Y-84470076D01*
X122650528Y-84442992D01*
X122651386Y-84415916D01*
X122652914Y-84388437D01*
X122654805Y-84360963D01*
X122657061Y-84333505D01*
X122659685Y-84306071D01*
X122662682Y-84278668D01*
X122666055Y-84251306D01*
X122669807Y-84223993D01*
X122673941Y-84196738D01*
X122678463Y-84169549D01*
X122683374Y-84142434D01*
X122688678Y-84115402D01*
X122694380Y-84088462D01*
X122700481Y-84061622D01*
X122706987Y-84034891D01*
X122713901Y-84008277D01*
X122733259Y-83988958D01*
X122753273Y-83970425D01*
X122773914Y-83952675D01*
X122795152Y-83935706D01*
X122816958Y-83919514D01*
X122839300Y-83904097D01*
X122862151Y-83889451D01*
X122885480Y-83875575D01*
X122909258Y-83862464D01*
X122933454Y-83850116D01*
X122958039Y-83838528D01*
X122982984Y-83827697D01*
X123008259Y-83817620D01*
X123033834Y-83808294D01*
X123059679Y-83799717D01*
X123085764Y-83791886D01*
X123112061Y-83784797D01*
X123138539Y-83778448D01*
X123165169Y-83772835D01*
X123191920Y-83767956D01*
X123218764Y-83763809D01*
X123245670Y-83760389D01*
X123272609Y-83757695D01*
X123299551Y-83755722D01*
X123326635Y-83754322D01*
X123353713Y-83753548D01*
X123380888Y-83753464D01*
X123380879Y-83753586D01*
X123380879Y-83753586D01*
G37*
X123380879Y-83753586D02*
X123337363Y-85487717D01*
X123311285Y-85489053D01*
X123285297Y-85493343D01*
X123259833Y-85500503D01*
X123235328Y-85510450D01*
X123212217Y-85523098D01*
X123190934Y-85538363D01*
X123171913Y-85556161D01*
X123155590Y-85576409D01*
X123142398Y-85599022D01*
X123132772Y-85623915D01*
X123126406Y-85648993D01*
X123123095Y-85674259D01*
X123122650Y-85699562D01*
X123124880Y-85724751D01*
X123129595Y-85749676D01*
X123136604Y-85774185D01*
X123145717Y-85798128D01*
X123156743Y-85821354D01*
X123169491Y-85843712D01*
X123183772Y-85865052D01*
X123199395Y-85885223D01*
X123216169Y-85904074D01*
X123234858Y-85923483D01*
X123254760Y-85941751D01*
X123275782Y-85958791D01*
X123297829Y-85974516D01*
X123320809Y-85988836D01*
X123344627Y-86001665D01*
X123369190Y-86012915D01*
X123394403Y-86022498D01*
X123420173Y-86030326D01*
X123446406Y-86036311D01*
X123473009Y-86040367D01*
X123499887Y-86042404D01*
X123526948Y-86042336D01*
X123554096Y-86040074D01*
X123577953Y-86036489D01*
X123601040Y-86029897D01*
X123623098Y-86020517D01*
X123643867Y-86008568D01*
X123663087Y-85994268D01*
X123680500Y-85977837D01*
X123695845Y-85959493D01*
X123708862Y-85939455D01*
X123719293Y-85917941D01*
X123726878Y-85895170D01*
X123731357Y-85871361D01*
X123733098Y-85845829D01*
X123732277Y-85820558D01*
X123729045Y-85795639D01*
X123723555Y-85771161D01*
X123715961Y-85747216D01*
X123706416Y-85723894D01*
X123695071Y-85701285D01*
X123682081Y-85679480D01*
X123667597Y-85658569D01*
X123651773Y-85638643D01*
X123634762Y-85619792D01*
X123616717Y-85602106D01*
X123597790Y-85585676D01*
X123577552Y-85569718D01*
X123556381Y-85554931D01*
X123534360Y-85541394D01*
X123511569Y-85529189D01*
X123488091Y-85518394D01*
X123464007Y-85509090D01*
X123439399Y-85501356D01*
X123414349Y-85495272D01*
X123388939Y-85490918D01*
X123363249Y-85488373D01*
X123337363Y-85487717D01*
X123380879Y-83753586D01*
X124472560Y-85619117D01*
X124447185Y-85623375D01*
X124422990Y-85630900D01*
X124399932Y-85641266D01*
X124377969Y-85654046D01*
X124357059Y-85668817D01*
X124337159Y-85685151D01*
X124318228Y-85702625D01*
X124300223Y-85720812D01*
X124283101Y-85739287D01*
X124266093Y-85760139D01*
X124249775Y-85781670D01*
X124234252Y-85803854D01*
X124219625Y-85826665D01*
X124205999Y-85850078D01*
X124193476Y-85874065D01*
X124182159Y-85898603D01*
X124172151Y-85923664D01*
X124163556Y-85949223D01*
X124156477Y-85975254D01*
X124151016Y-86001731D01*
X124148360Y-86024834D01*
X124148036Y-86048984D01*
X124150971Y-86072886D01*
X124158091Y-86095243D01*
X124170322Y-86114757D01*
X124188591Y-86130131D01*
X124210499Y-86137940D01*
X124232868Y-86139996D01*
X124255289Y-86137227D01*
X124277351Y-86130559D01*
X124298646Y-86120920D01*
X124318763Y-86109237D01*
X124337294Y-86096437D01*
X124358367Y-86080058D01*
X124378519Y-86062611D01*
X124397739Y-86044160D01*
X124416016Y-86024770D01*
X124433338Y-86004505D01*
X124449697Y-85983428D01*
X124465079Y-85961603D01*
X124479476Y-85939096D01*
X124492876Y-85915969D01*
X124505268Y-85892288D01*
X124516641Y-85868115D01*
X124526986Y-85843516D01*
X124536290Y-85818554D01*
X124544544Y-85793293D01*
X124550072Y-85769093D01*
X124553930Y-85743924D01*
X124555183Y-85718488D01*
X124552899Y-85693487D01*
X124546145Y-85669622D01*
X124533988Y-85647596D01*
X124516679Y-85632021D01*
X124495612Y-85622139D01*
X124472546Y-85619117D01*
X124472560Y-85619117D01*
X123380879Y-83753586D01*
X123408349Y-83753854D01*
X123435826Y-83754651D01*
X123463297Y-83755978D01*
X123490749Y-83757838D01*
X123518168Y-83760232D01*
X123545542Y-83763162D01*
X123572856Y-83766630D01*
X123807664Y-86671022D01*
X123802630Y-86653573D01*
X123789151Y-86642168D01*
X123770673Y-86643256D01*
X123747102Y-86648116D01*
X123723004Y-86652322D01*
X123698609Y-86655363D01*
X123674149Y-86656729D01*
X123649855Y-86655907D01*
X123625959Y-86652388D01*
X123602691Y-86645660D01*
X123580283Y-86635213D01*
X123555232Y-86624541D01*
X123529001Y-86617997D01*
X123528989Y-86618048D01*
X123513321Y-86625707D01*
X123506611Y-86641364D01*
X123509362Y-86658484D01*
X123522075Y-86670533D01*
X123544015Y-86682799D01*
X123566932Y-86693196D01*
X123590649Y-86701645D01*
X123614992Y-86708069D01*
X123639785Y-86712388D01*
X123664852Y-86714525D01*
X123690018Y-86714402D01*
X123715107Y-86711941D01*
X123737164Y-86708210D01*
X123759440Y-86703982D01*
X123780975Y-86697764D01*
X123800809Y-86688065D01*
X123807664Y-86671022D01*
X123572856Y-83766630D01*
X123600099Y-83770639D01*
X123627257Y-83775191D01*
X123654317Y-83780286D01*
X123681265Y-83785928D01*
X123708089Y-83792118D01*
X123734776Y-83798859D01*
X123761311Y-83806151D01*
X123787683Y-83813998D01*
X123813878Y-83822401D01*
X123839882Y-83831362D01*
X123865683Y-83840884D01*
X123891268Y-83850967D01*
X123916623Y-83861615D01*
X123941735Y-83872829D01*
X123966592Y-83884611D01*
X123991179Y-83896963D01*
X124014174Y-83909402D01*
X124036790Y-83922509D01*
X124059008Y-83936270D01*
X124080811Y-83950675D01*
X124102181Y-83965709D01*
X124123101Y-83981362D01*
X124143554Y-83997619D01*
X124163521Y-84014470D01*
X124182986Y-84031901D01*
X124201931Y-84049901D01*
X124220338Y-84068455D01*
X124238189Y-84087554D01*
X124255468Y-84107182D01*
X124272157Y-84127330D01*
X124288238Y-84147983D01*
X124305278Y-84169130D01*
X124322095Y-84190496D01*
X124338677Y-84212078D01*
X124355015Y-84233876D01*
X124371097Y-84255886D01*
X124386913Y-84278105D01*
X124402452Y-84300533D01*
X124417703Y-84323166D01*
X124432657Y-84346002D01*
X124447301Y-84369040D01*
X124461627Y-84392275D01*
X124475622Y-84415708D01*
X124489276Y-84439334D01*
X124502579Y-84463152D01*
X124515519Y-84487160D01*
X124528087Y-84511355D01*
X124540272Y-84535735D01*
X124552062Y-84560298D01*
X124563448Y-84585041D01*
X124574418Y-84609963D01*
X124584962Y-84635060D01*
X124595070Y-84660331D01*
X124604730Y-84685774D01*
X124613932Y-84711385D01*
X124622666Y-84737163D01*
X124630920Y-84763106D01*
X124638684Y-84789211D01*
X124645948Y-84815476D01*
X124652700Y-84841899D01*
X124658930Y-84868477D01*
X124664628Y-84895208D01*
X124669782Y-84922090D01*
X124674946Y-84949687D01*
X124679278Y-84977375D01*
X124682836Y-85005144D01*
X124685678Y-85032985D01*
X124687864Y-85060887D01*
X124689450Y-85088841D01*
X124690495Y-85116836D01*
X124691057Y-85144864D01*
X124691196Y-85172913D01*
X124690968Y-85200974D01*
X124690432Y-85229036D01*
X124689647Y-85257091D01*
X124688671Y-85285128D01*
X124687561Y-85313137D01*
X124686377Y-85341108D01*
X124683651Y-85368346D01*
X124680471Y-85395510D01*
X124676850Y-85422601D01*
X124672800Y-85449617D01*
X124668331Y-85476558D01*
X124663457Y-85503423D01*
X124658187Y-85530211D01*
X124652535Y-85556921D01*
X124646512Y-85583552D01*
X124640128Y-85610104D01*
X124633397Y-85636575D01*
X124626330Y-85662966D01*
X124618938Y-85689274D01*
X124611234Y-85715500D01*
X124603228Y-85741642D01*
X124594933Y-85767700D01*
X124586359Y-85793673D01*
X124577520Y-85819560D01*
X124568426Y-85845360D01*
X124559090Y-85871072D01*
X124549522Y-85896696D01*
X124539735Y-85922231D01*
X124529740Y-85947676D01*
X124519549Y-85973030D01*
X124509173Y-85998292D01*
X124498625Y-86023461D01*
X124487916Y-86048538D01*
X124476596Y-86073554D01*
X124465098Y-86098516D01*
X124453394Y-86123401D01*
X124441457Y-86148187D01*
X124429260Y-86172850D01*
X124416777Y-86197368D01*
X124403980Y-86221717D01*
X124390843Y-86245876D01*
X124377338Y-86269820D01*
X124363439Y-86293528D01*
X124349118Y-86316975D01*
X124334349Y-86340140D01*
X124319105Y-86363000D01*
X124303359Y-86385531D01*
X124285763Y-86406905D01*
X124267648Y-86427842D01*
X124249034Y-86448338D01*
X124229941Y-86468389D01*
X124210389Y-86487991D01*
X124190396Y-86507141D01*
X124169984Y-86525836D01*
X124149171Y-86544071D01*
X124127977Y-86561842D01*
X124106422Y-86579147D01*
X124084526Y-86595981D01*
X124062308Y-86612342D01*
X124039870Y-86627371D01*
X124016984Y-86641649D01*
X123993675Y-86655177D01*
X123969966Y-86667958D01*
X123945880Y-86679997D01*
X123921441Y-86691295D01*
X123896671Y-86701855D01*
X123871595Y-86711680D01*
X123846237Y-86720774D01*
X123820618Y-86729139D01*
X123794763Y-86736778D01*
X123768696Y-86743694D01*
X123742439Y-86749889D01*
X123716016Y-86755368D01*
X123689451Y-86760132D01*
X123662766Y-86764185D01*
X123635986Y-86767530D01*
X123609134Y-86770168D01*
X123582233Y-86772105D01*
X123554593Y-86774758D01*
X123526764Y-86776781D01*
X123498857Y-86777797D01*
X123470986Y-86777428D01*
X123443261Y-86775295D01*
X123415796Y-86771022D01*
X123388702Y-86764231D01*
X123362966Y-86757492D01*
X123337541Y-86749866D01*
X123312428Y-86741386D01*
X123287630Y-86732088D01*
X123263147Y-86722006D01*
X123238979Y-86711176D01*
X123215129Y-86699632D01*
X123191597Y-86687409D01*
X123168384Y-86674543D01*
X123145491Y-86661068D01*
X123122920Y-86647019D01*
X123100670Y-86632430D01*
X123078744Y-86617338D01*
X123057143Y-86601776D01*
X123035867Y-86585780D01*
X123014917Y-86569384D01*
X122994295Y-86552624D01*
X122974002Y-86535534D01*
X122954038Y-86518150D01*
X122933469Y-86500860D01*
X122913149Y-86483260D01*
X122893104Y-86465339D01*
X122873362Y-86447085D01*
X122853949Y-86428488D01*
X122834892Y-86409535D01*
X122816220Y-86390215D01*
X122797957Y-86370517D01*
X122780132Y-86350430D01*
X122762772Y-86329941D01*
X122745903Y-86309041D01*
X122729552Y-86287716D01*
X122713747Y-86265957D01*
X122698514Y-86243751D01*
X122683293Y-86221843D01*
X122668278Y-86199700D01*
X122653585Y-86177288D01*
X122639330Y-86154577D01*
X122625631Y-86131533D01*
X122612605Y-86108126D01*
X122600368Y-86084322D01*
X122589038Y-86060090D01*
X122578731Y-86035399D01*
X122569565Y-86010215D01*
X122561656Y-85984507D01*
X122560246Y-85962272D01*
X122563472Y-85940457D01*
X122568750Y-85918784D01*
X122573493Y-85896974D01*
X122575118Y-85874748D01*
X122576887Y-85850228D01*
X122578927Y-85825687D01*
X122582258Y-85801588D01*
X122606518Y-85790563D01*
X122629775Y-85777222D01*
X122650773Y-85760990D01*
X122668257Y-85741291D01*
X122680971Y-85717550D01*
X122691175Y-85692402D01*
X122699472Y-85666713D01*
X122706076Y-85640569D01*
X122711202Y-85614058D01*
X122715066Y-85587264D01*
X122717882Y-85560273D01*
X122719864Y-85533173D01*
X122721229Y-85506049D01*
X122722190Y-85478987D01*
X122722963Y-85452072D01*
X122722831Y-85424001D01*
X122722405Y-85395914D01*
X122721662Y-85367820D01*
X122720577Y-85339730D01*
X122719128Y-85311655D01*
X122717292Y-85283603D01*
X122715044Y-85255584D01*
X122712361Y-85227610D01*
X122709221Y-85199689D01*
X122705599Y-85171833D01*
X122701473Y-85144050D01*
X122696819Y-85116351D01*
X122691614Y-85088745D01*
X122685436Y-85062107D01*
X122678491Y-85035642D01*
X122671071Y-85009290D01*
X122663469Y-84982991D01*
X122655978Y-84956685D01*
X122648889Y-84930313D01*
X122642496Y-84903813D01*
X122643198Y-84876713D01*
X122643809Y-84849608D01*
X122644340Y-84822499D01*
X122644804Y-84795387D01*
X122645215Y-84768272D01*
X122645584Y-84741156D01*
X122645925Y-84714040D01*
X122646249Y-84686923D01*
X122646570Y-84659807D01*
X122646900Y-84632692D01*
X122647252Y-84605579D01*
X122647638Y-84578470D01*
X122648072Y-84551364D01*
X122648565Y-84524262D01*
X122649130Y-84497166D01*
X122649780Y-84470076D01*
X122650528Y-84442992D01*
X122651386Y-84415916D01*
X122652914Y-84388437D01*
X122654805Y-84360963D01*
X122657061Y-84333505D01*
X122659685Y-84306071D01*
X122662682Y-84278668D01*
X122666055Y-84251306D01*
X122669807Y-84223993D01*
X122673941Y-84196738D01*
X122678463Y-84169549D01*
X122683374Y-84142434D01*
X122688678Y-84115402D01*
X122694380Y-84088462D01*
X122700481Y-84061622D01*
X122706987Y-84034891D01*
X122713901Y-84008277D01*
X122733259Y-83988958D01*
X122753273Y-83970425D01*
X122773914Y-83952675D01*
X122795152Y-83935706D01*
X122816958Y-83919514D01*
X122839300Y-83904097D01*
X122862151Y-83889451D01*
X122885480Y-83875575D01*
X122909258Y-83862464D01*
X122933454Y-83850116D01*
X122958039Y-83838528D01*
X122982984Y-83827697D01*
X123008259Y-83817620D01*
X123033834Y-83808294D01*
X123059679Y-83799717D01*
X123085764Y-83791886D01*
X123112061Y-83784797D01*
X123138539Y-83778448D01*
X123165169Y-83772835D01*
X123191920Y-83767956D01*
X123218764Y-83763809D01*
X123245670Y-83760389D01*
X123272609Y-83757695D01*
X123299551Y-83755722D01*
X123326635Y-83754322D01*
X123353713Y-83753548D01*
X123380888Y-83753464D01*
X123380879Y-83753586D01*
G04 #@! TO.C,5V*
D10*
X126352380Y-86109523D02*
X126352380Y-85633333D01*
X126828571Y-85585714D01*
X126780952Y-85633333D01*
X126733333Y-85728571D01*
X126733333Y-85966666D01*
X126780952Y-86061904D01*
X126828571Y-86109523D01*
X126923809Y-86157142D01*
X127161904Y-86157142D01*
X127257142Y-86109523D01*
X127304761Y-86061904D01*
X127352380Y-85966666D01*
X127352380Y-85728571D01*
X127304761Y-85633333D01*
X127257142Y-85585714D01*
X126352380Y-86442857D02*
X127352380Y-86776190D01*
X126352380Y-87109523D01*
G04 #@! TO.C,MOSI*
X121552380Y-89028571D02*
X120552380Y-89028571D01*
X121266666Y-89361904D01*
X120552380Y-89695238D01*
X121552380Y-89695238D01*
X120552380Y-90361904D02*
X120552380Y-90552380D01*
X120600000Y-90647619D01*
X120695238Y-90742857D01*
X120885714Y-90790476D01*
X121219047Y-90790476D01*
X121409523Y-90742857D01*
X121504761Y-90647619D01*
X121552380Y-90552380D01*
X121552380Y-90361904D01*
X121504761Y-90266666D01*
X121409523Y-90171428D01*
X121219047Y-90123809D01*
X120885714Y-90123809D01*
X120695238Y-90171428D01*
X120600000Y-90266666D01*
X120552380Y-90361904D01*
X121504761Y-91171428D02*
X121552380Y-91314285D01*
X121552380Y-91552380D01*
X121504761Y-91647619D01*
X121457142Y-91695238D01*
X121361904Y-91742857D01*
X121266666Y-91742857D01*
X121171428Y-91695238D01*
X121123809Y-91647619D01*
X121076190Y-91552380D01*
X121028571Y-91361904D01*
X120980952Y-91266666D01*
X120933333Y-91219047D01*
X120838095Y-91171428D01*
X120742857Y-91171428D01*
X120647619Y-91219047D01*
X120600000Y-91266666D01*
X120552380Y-91361904D01*
X120552380Y-91600000D01*
X120600000Y-91742857D01*
X121552380Y-92171428D02*
X120552380Y-92171428D01*
G04 #@! TO.C,SCK*
X127304761Y-89514285D02*
X127352380Y-89657142D01*
X127352380Y-89895238D01*
X127304761Y-89990476D01*
X127257142Y-90038095D01*
X127161904Y-90085714D01*
X127066666Y-90085714D01*
X126971428Y-90038095D01*
X126923809Y-89990476D01*
X126876190Y-89895238D01*
X126828571Y-89704761D01*
X126780952Y-89609523D01*
X126733333Y-89561904D01*
X126638095Y-89514285D01*
X126542857Y-89514285D01*
X126447619Y-89561904D01*
X126400000Y-89609523D01*
X126352380Y-89704761D01*
X126352380Y-89942857D01*
X126400000Y-90085714D01*
X127257142Y-91085714D02*
X127304761Y-91038095D01*
X127352380Y-90895238D01*
X127352380Y-90800000D01*
X127304761Y-90657142D01*
X127209523Y-90561904D01*
X127114285Y-90514285D01*
X126923809Y-90466666D01*
X126780952Y-90466666D01*
X126590476Y-90514285D01*
X126495238Y-90561904D01*
X126400000Y-90657142D01*
X126352380Y-90800000D01*
X126352380Y-90895238D01*
X126400000Y-91038095D01*
X126447619Y-91085714D01*
X127352380Y-91514285D02*
X126352380Y-91514285D01*
X127352380Y-92085714D02*
X126780952Y-91657142D01*
X126352380Y-92085714D02*
X126923809Y-91514285D01*
G04 #@! TO.C,~CS*
X124780952Y-87429000D02*
X123980952Y-87429000D01*
X124133333Y-88485714D02*
X124171428Y-88523809D01*
X124285714Y-88561904D01*
X124361904Y-88561904D01*
X124476190Y-88523809D01*
X124552380Y-88447619D01*
X124590476Y-88371428D01*
X124628571Y-88219047D01*
X124628571Y-88104761D01*
X124590476Y-87952380D01*
X124552380Y-87876190D01*
X124476190Y-87800000D01*
X124361904Y-87761904D01*
X124285714Y-87761904D01*
X124171428Y-87800000D01*
X124133333Y-87838095D01*
X123980952Y-87429000D02*
X123219047Y-87429000D01*
X123828571Y-88523809D02*
X123714285Y-88561904D01*
X123523809Y-88561904D01*
X123447619Y-88523809D01*
X123409523Y-88485714D01*
X123371428Y-88409523D01*
X123371428Y-88333333D01*
X123409523Y-88257142D01*
X123447619Y-88219047D01*
X123523809Y-88180952D01*
X123676190Y-88142857D01*
X123752380Y-88104761D01*
X123790476Y-88066666D01*
X123828571Y-87990476D01*
X123828571Y-87914285D01*
X123790476Y-87838095D01*
X123752380Y-87800000D01*
X123676190Y-87761904D01*
X123485714Y-87761904D01*
X123371428Y-87800000D01*
G04 #@! TO.C,GND*
X120600000Y-85538095D02*
X120552380Y-85442857D01*
X120552380Y-85300000D01*
X120600000Y-85157142D01*
X120695238Y-85061904D01*
X120790476Y-85014285D01*
X120980952Y-84966666D01*
X121123809Y-84966666D01*
X121314285Y-85014285D01*
X121409523Y-85061904D01*
X121504761Y-85157142D01*
X121552380Y-85300000D01*
X121552380Y-85395238D01*
X121504761Y-85538095D01*
X121457142Y-85585714D01*
X121123809Y-85585714D01*
X121123809Y-85395238D01*
X121552380Y-86014285D02*
X120552380Y-86014285D01*
X121552380Y-86585714D01*
X120552380Y-86585714D01*
X121552380Y-87061904D02*
X120552380Y-87061904D01*
X120552380Y-87300000D01*
X120600000Y-87442857D01*
X120695238Y-87538095D01*
X120790476Y-87585714D01*
X120980952Y-87633333D01*
X121123809Y-87633333D01*
X121314285Y-87585714D01*
X121409523Y-87538095D01*
X121504761Y-87442857D01*
X121552380Y-87300000D01*
X121552380Y-87061904D01*
G04 #@! TO.C,SPI-I2C*
X127204761Y-78242857D02*
X127252380Y-78385714D01*
X127252380Y-78623809D01*
X127204761Y-78719047D01*
X127157142Y-78766666D01*
X127061904Y-78814285D01*
X126966666Y-78814285D01*
X126871428Y-78766666D01*
X126823809Y-78719047D01*
X126776190Y-78623809D01*
X126728571Y-78433333D01*
X126680952Y-78338095D01*
X126633333Y-78290476D01*
X126538095Y-78242857D01*
X126442857Y-78242857D01*
X126347619Y-78290476D01*
X126300000Y-78338095D01*
X126252380Y-78433333D01*
X126252380Y-78671428D01*
X126300000Y-78814285D01*
X127252380Y-79242857D02*
X126252380Y-79242857D01*
X126252380Y-79623809D01*
X126300000Y-79719047D01*
X126347619Y-79766666D01*
X126442857Y-79814285D01*
X126585714Y-79814285D01*
X126680952Y-79766666D01*
X126728571Y-79719047D01*
X126776190Y-79623809D01*
X126776190Y-79242857D01*
X127252380Y-80242857D02*
X126252380Y-80242857D01*
X126871428Y-80719047D02*
X126871428Y-81480952D01*
X127252380Y-81957142D02*
X126252380Y-81957142D01*
X126347619Y-82385714D02*
X126300000Y-82433333D01*
X126252380Y-82528571D01*
X126252380Y-82766666D01*
X126300000Y-82861904D01*
X126347619Y-82909523D01*
X126442857Y-82957142D01*
X126538095Y-82957142D01*
X126680952Y-82909523D01*
X127252380Y-82338095D01*
X127252380Y-82957142D01*
X127157142Y-83957142D02*
X127204761Y-83909523D01*
X127252380Y-83766666D01*
X127252380Y-83671428D01*
X127204761Y-83528571D01*
X127109523Y-83433333D01*
X127014285Y-83385714D01*
X126823809Y-83338095D01*
X126680952Y-83338095D01*
X126490476Y-83385714D01*
X126395238Y-83433333D01*
X126300000Y-83528571D01*
X126252380Y-83671428D01*
X126252380Y-83766666D01*
X126300000Y-83909523D01*
X126347619Y-83957142D01*
G04 #@! TO.C,SA0*
X122552380Y-81923809D02*
X122438095Y-81961904D01*
X122247619Y-81961904D01*
X122171428Y-81923809D01*
X122133333Y-81885714D01*
X122095238Y-81809523D01*
X122095238Y-81733333D01*
X122133333Y-81657142D01*
X122171428Y-81619047D01*
X122247619Y-81580952D01*
X122400000Y-81542857D01*
X122476190Y-81504761D01*
X122514285Y-81466666D01*
X122552380Y-81390476D01*
X122552380Y-81314285D01*
X122514285Y-81238095D01*
X122476190Y-81200000D01*
X122400000Y-81161904D01*
X122209523Y-81161904D01*
X122095238Y-81200000D01*
X121790476Y-81733333D02*
X121409523Y-81733333D01*
X121866666Y-81961904D02*
X121600000Y-81161904D01*
X121333333Y-81961904D01*
X120914285Y-81161904D02*
X120838095Y-81161904D01*
X120761904Y-81200000D01*
X120723809Y-81238095D01*
X120685714Y-81314285D01*
X120647619Y-81466666D01*
X120647619Y-81657142D01*
X120685714Y-81809523D01*
X120723809Y-81885714D01*
X120761904Y-81923809D01*
X120838095Y-81961904D01*
X120914285Y-81961904D01*
X120990476Y-81923809D01*
X121028571Y-81885714D01*
X121066666Y-81809523D01*
X121104761Y-81657142D01*
X121104761Y-81466666D01*
X121066666Y-81314285D01*
X121028571Y-81238095D01*
X120990476Y-81200000D01*
X120914285Y-81161904D01*
G04 #@! TO.C,SA1*
X122552380Y-83023809D02*
X122438095Y-83061904D01*
X122247619Y-83061904D01*
X122171428Y-83023809D01*
X122133333Y-82985714D01*
X122095238Y-82909523D01*
X122095238Y-82833333D01*
X122133333Y-82757142D01*
X122171428Y-82719047D01*
X122247619Y-82680952D01*
X122400000Y-82642857D01*
X122476190Y-82604761D01*
X122514285Y-82566666D01*
X122552380Y-82490476D01*
X122552380Y-82414285D01*
X122514285Y-82338095D01*
X122476190Y-82300000D01*
X122400000Y-82261904D01*
X122209523Y-82261904D01*
X122095238Y-82300000D01*
X121790476Y-82833333D02*
X121409523Y-82833333D01*
X121866666Y-83061904D02*
X121600000Y-82261904D01*
X121333333Y-83061904D01*
X120647619Y-83061904D02*
X121104761Y-83061904D01*
X120876190Y-83061904D02*
X120876190Y-82261904D01*
X120952380Y-82376190D01*
X121028571Y-82452380D01*
X121104761Y-82490476D01*
G04 #@! TD*
M02*
