G04 #@! TF.GenerationSoftware,KiCad,Pcbnew,5.0.2-bee76a0~70~ubuntu18.04.1*
G04 #@! TF.CreationDate,2018-11-29T22:51:57+01:00*
G04 #@! TF.ProjectId,A1335_long_I2C,41313333-355f-46c6-9f6e-675f4932432e,rev?*
G04 #@! TF.SameCoordinates,Original*
G04 #@! TF.FileFunction,Legend,Top*
G04 #@! TF.FilePolarity,Positive*
%FSLAX46Y46*%
G04 Gerber Fmt 4.6, Leading zero omitted, Abs format (unit mm)*
G04 Created by KiCad (PCBNEW 5.0.2-bee76a0~70~ubuntu18.04.1) date Thu 29 Nov 2018 22:51:57 CET*
%MOMM*%
%LPD*%
G01*
G04 APERTURE LIST*
%ADD10C,0.150000*%
G04 APERTURE END LIST*
D10*
X122800000Y-97300000D02*
X125300000Y-97300000D01*
X122800000Y-99700000D02*
X122800000Y-97300000D01*
X125300000Y-99700000D02*
X122800000Y-99700000D01*
X125300000Y-97800000D02*
X125300000Y-99700000D01*
X125300000Y-95200000D02*
X125300000Y-97800000D01*
X127500000Y-94000000D02*
X125300000Y-95200000D01*
X127500000Y-88000000D02*
X127500000Y-94000000D01*
G04 #@! TO.C,U1*
X120590000Y-84325000D02*
X120590000Y-85675000D01*
X125715000Y-84325000D02*
X125715000Y-79675000D01*
X120465000Y-84325000D02*
X120465000Y-79675000D01*
X125715000Y-84325000D02*
X125490000Y-84325000D01*
X125715000Y-79675000D02*
X125490000Y-79675000D01*
X120465000Y-79675000D02*
X120690000Y-79675000D01*
X120465000Y-84325000D02*
X120590000Y-84325000D01*
G04 #@! TO.C,MISO/SDA*
X127261904Y-93800000D02*
X126461904Y-93800000D01*
X127033333Y-93533333D01*
X126461904Y-93266666D01*
X127261904Y-93266666D01*
X127261904Y-92885714D02*
X126461904Y-92885714D01*
X127223809Y-92542857D02*
X127261904Y-92428571D01*
X127261904Y-92238095D01*
X127223809Y-92161904D01*
X127185714Y-92123809D01*
X127109523Y-92085714D01*
X127033333Y-92085714D01*
X126957142Y-92123809D01*
X126919047Y-92161904D01*
X126880952Y-92238095D01*
X126842857Y-92390476D01*
X126804761Y-92466666D01*
X126766666Y-92504761D01*
X126690476Y-92542857D01*
X126614285Y-92542857D01*
X126538095Y-92504761D01*
X126500000Y-92466666D01*
X126461904Y-92390476D01*
X126461904Y-92200000D01*
X126500000Y-92085714D01*
X126461904Y-91590476D02*
X126461904Y-91438095D01*
X126500000Y-91361904D01*
X126576190Y-91285714D01*
X126728571Y-91247619D01*
X126995238Y-91247619D01*
X127147619Y-91285714D01*
X127223809Y-91361904D01*
X127261904Y-91438095D01*
X127261904Y-91590476D01*
X127223809Y-91666666D01*
X127147619Y-91742857D01*
X126995238Y-91780952D01*
X126728571Y-91780952D01*
X126576190Y-91742857D01*
X126500000Y-91666666D01*
X126461904Y-91590476D01*
X126423809Y-90333333D02*
X127452380Y-91019047D01*
X127223809Y-90104761D02*
X127261904Y-89990476D01*
X127261904Y-89800000D01*
X127223809Y-89723809D01*
X127185714Y-89685714D01*
X127109523Y-89647619D01*
X127033333Y-89647619D01*
X126957142Y-89685714D01*
X126919047Y-89723809D01*
X126880952Y-89800000D01*
X126842857Y-89952380D01*
X126804761Y-90028571D01*
X126766666Y-90066666D01*
X126690476Y-90104761D01*
X126614285Y-90104761D01*
X126538095Y-90066666D01*
X126500000Y-90028571D01*
X126461904Y-89952380D01*
X126461904Y-89761904D01*
X126500000Y-89647619D01*
X127261904Y-89304761D02*
X126461904Y-89304761D01*
X126461904Y-89114285D01*
X126500000Y-89000000D01*
X126576190Y-88923809D01*
X126652380Y-88885714D01*
X126804761Y-88847619D01*
X126919047Y-88847619D01*
X127071428Y-88885714D01*
X127147619Y-88923809D01*
X127223809Y-89000000D01*
X127261904Y-89114285D01*
X127261904Y-89304761D01*
X127033333Y-88542857D02*
X127033333Y-88161904D01*
X127261904Y-88619047D02*
X126461904Y-88352380D01*
X127261904Y-88085714D01*
G04 #@! TO.C,U1*
X126352380Y-81961904D02*
X127161904Y-81961904D01*
X127257142Y-81914285D01*
X127304761Y-81866666D01*
X127352380Y-81771428D01*
X127352380Y-81580952D01*
X127304761Y-81485714D01*
X127257142Y-81438095D01*
X127161904Y-81390476D01*
X126352380Y-81390476D01*
X127352380Y-80390476D02*
X127352380Y-80961904D01*
X127352380Y-80676190D02*
X126352380Y-80676190D01*
X126495238Y-80771428D01*
X126590476Y-80866666D01*
X126638095Y-80961904D01*
G04 #@! TO.C,C1*
X126333333Y-87157142D02*
X126285714Y-87204761D01*
X126142857Y-87252380D01*
X126047619Y-87252380D01*
X125904761Y-87204761D01*
X125809523Y-87109523D01*
X125761904Y-87014285D01*
X125714285Y-86823809D01*
X125714285Y-86680952D01*
X125761904Y-86490476D01*
X125809523Y-86395238D01*
X125904761Y-86300000D01*
X126047619Y-86252380D01*
X126142857Y-86252380D01*
X126285714Y-86300000D01*
X126333333Y-86347619D01*
X127285714Y-87252380D02*
X126714285Y-87252380D01*
X127000000Y-87252380D02*
X127000000Y-86252380D01*
X126904761Y-86395238D01*
X126809523Y-86490476D01*
X126714285Y-86538095D01*
G04 #@! TO.C,C2*
X122157142Y-89466666D02*
X122204761Y-89514285D01*
X122252380Y-89657142D01*
X122252380Y-89752380D01*
X122204761Y-89895238D01*
X122109523Y-89990476D01*
X122014285Y-90038095D01*
X121823809Y-90085714D01*
X121680952Y-90085714D01*
X121490476Y-90038095D01*
X121395238Y-89990476D01*
X121300000Y-89895238D01*
X121252380Y-89752380D01*
X121252380Y-89657142D01*
X121300000Y-89514285D01*
X121347619Y-89466666D01*
X121347619Y-89085714D02*
X121300000Y-89038095D01*
X121252380Y-88942857D01*
X121252380Y-88704761D01*
X121300000Y-88609523D01*
X121347619Y-88561904D01*
X121442857Y-88514285D01*
X121538095Y-88514285D01*
X121680952Y-88561904D01*
X122252380Y-89133333D01*
X122252380Y-88514285D01*
G04 #@! TD*
M02*
