G04 #@! TF.GenerationSoftware,KiCad,Pcbnew,5.0.2-bee76a0~70~ubuntu18.04.1*
G04 #@! TF.CreationDate,2018-11-29T22:51:57+01:00*
G04 #@! TF.ProjectId,A1335_long_I2C,41313333-355f-46c6-9f6e-675f4932432e,rev?*
G04 #@! TF.SameCoordinates,Original*
G04 #@! TF.FileFunction,Paste,Bot*
G04 #@! TF.FilePolarity,Positive*
%FSLAX46Y46*%
G04 Gerber Fmt 4.6, Leading zero omitted, Abs format (unit mm)*
G04 Created by KiCad (PCBNEW 5.0.2-bee76a0~70~ubuntu18.04.1) date Thu 29 Nov 2018 22:51:57 CET*
%MOMM*%
%LPD*%
G01*
G04 APERTURE LIST*
%ADD10C,0.447600*%
%ADD11C,0.100000*%
G04 APERTURE END LIST*
D10*
G04 #@! TO.C,SPI-I2C*
X125100000Y-80900000D03*
D11*
G36*
X124826200Y-81123800D02*
X124826200Y-80676200D01*
X125373800Y-80676200D01*
X125373800Y-81123800D01*
X124826200Y-81123800D01*
X124826200Y-81123800D01*
G37*
D10*
X125100000Y-79900000D03*
D11*
G36*
X125240703Y-80123800D02*
X125141215Y-80257039D01*
X124989288Y-80123800D01*
X124826200Y-80123800D01*
X124826200Y-79676200D01*
X125373800Y-79676200D01*
X125373800Y-80123800D01*
X125240703Y-80123800D01*
X125240703Y-80123800D01*
G37*
G36*
X125100000Y-80312237D02*
X125036936Y-80276200D01*
X125126908Y-80276200D01*
X125100000Y-80312237D01*
X125100000Y-80312237D01*
G37*
G36*
X125126908Y-80276200D02*
X125141215Y-80257039D01*
X125163064Y-80276200D01*
X125126908Y-80276200D01*
X125126908Y-80276200D01*
G37*
D10*
X125100000Y-81900000D03*
D11*
G36*
X124826200Y-82123800D02*
X124826200Y-81676200D01*
X125087223Y-81676200D01*
X125100000Y-81650526D01*
X125112777Y-81676200D01*
X125373800Y-81676200D01*
X125373800Y-82123800D01*
X124826200Y-82123800D01*
X124826200Y-82123800D01*
G37*
G36*
X125100000Y-81650526D02*
X125036936Y-81523800D01*
X125100000Y-81487763D01*
X125163064Y-81523800D01*
X125100000Y-81650526D01*
X125100000Y-81650526D01*
G37*
G04 #@! TD*
D10*
G04 #@! TO.C,SA0*
X122100000Y-79400000D03*
D11*
G36*
X121876200Y-79126200D02*
X122323800Y-79126200D01*
X122323800Y-79673800D01*
X121876200Y-79673800D01*
X121876200Y-79126200D01*
X121876200Y-79126200D01*
G37*
D10*
X123100000Y-79400000D03*
D11*
G36*
X122876200Y-79540703D02*
X122742961Y-79441215D01*
X122876200Y-79289288D01*
X122876200Y-79126200D01*
X123323800Y-79126200D01*
X123323800Y-79673800D01*
X122876200Y-79673800D01*
X122876200Y-79540703D01*
X122876200Y-79540703D01*
G37*
G36*
X122687763Y-79400000D02*
X122723800Y-79336936D01*
X122723800Y-79426908D01*
X122687763Y-79400000D01*
X122687763Y-79400000D01*
G37*
G36*
X122723800Y-79426908D02*
X122742961Y-79441215D01*
X122723800Y-79463064D01*
X122723800Y-79426908D01*
X122723800Y-79426908D01*
G37*
D10*
X121100000Y-79400000D03*
D11*
G36*
X120876200Y-79126200D02*
X121323800Y-79126200D01*
X121323800Y-79387223D01*
X121349474Y-79400000D01*
X121323800Y-79412777D01*
X121323800Y-79673800D01*
X120876200Y-79673800D01*
X120876200Y-79126200D01*
X120876200Y-79126200D01*
G37*
G36*
X121349474Y-79400000D02*
X121476200Y-79336936D01*
X121512237Y-79400000D01*
X121476200Y-79463064D01*
X121349474Y-79400000D01*
X121349474Y-79400000D01*
G37*
G04 #@! TD*
D10*
G04 #@! TO.C,SA1*
X122100000Y-80500000D03*
D11*
G36*
X121876200Y-80226200D02*
X122323800Y-80226200D01*
X122323800Y-80773800D01*
X121876200Y-80773800D01*
X121876200Y-80226200D01*
X121876200Y-80226200D01*
G37*
D10*
X123100000Y-80500000D03*
D11*
G36*
X122876200Y-80640703D02*
X122742961Y-80541215D01*
X122876200Y-80389288D01*
X122876200Y-80226200D01*
X123323800Y-80226200D01*
X123323800Y-80773800D01*
X122876200Y-80773800D01*
X122876200Y-80640703D01*
X122876200Y-80640703D01*
G37*
G36*
X122687763Y-80500000D02*
X122723800Y-80436936D01*
X122723800Y-80526908D01*
X122687763Y-80500000D01*
X122687763Y-80500000D01*
G37*
G36*
X122723800Y-80526908D02*
X122742961Y-80541215D01*
X122723800Y-80563064D01*
X122723800Y-80526908D01*
X122723800Y-80526908D01*
G37*
D10*
X121100000Y-80500000D03*
D11*
G36*
X120876200Y-80226200D02*
X121323800Y-80226200D01*
X121323800Y-80487223D01*
X121349474Y-80500000D01*
X121323800Y-80512777D01*
X121323800Y-80773800D01*
X120876200Y-80773800D01*
X120876200Y-80226200D01*
X120876200Y-80226200D01*
G37*
G36*
X121349474Y-80500000D02*
X121476200Y-80436936D01*
X121512237Y-80500000D01*
X121476200Y-80563064D01*
X121349474Y-80500000D01*
X121349474Y-80500000D01*
G37*
G04 #@! TD*
M02*
