M48
; DRILL file {KiCad 5.1.5-52549c5~84~ubuntu18.04.1} date Tue 17 Mar 2020 11:40:14 AM CET
; FORMAT={-:-/ absolute / inch / decimal}
; #@! TF.CreationDate,2020-03-17T11:40:14+01:00
; #@! TF.GenerationSoftware,Kicad,Pcbnew,5.1.5-52549c5~84~ubuntu18.04.1
; #@! TF.FileFunction,Plated,1,2,PTH
FMAT,2
INCH
T1C0.0157
T2C0.0315
T3C0.0866
%
G90
G05
T1
X4.4127Y-3.2386
X4.4217Y-3.3606
X4.4488Y-3.7008
X4.4492Y-3.3882
X4.4528Y-3.8583
X4.4843Y-4.0669
X4.4846Y-3.2386
X4.5276Y-4.1811
X4.5276Y-3.878
X4.528Y-3.274
X4.528Y-2.9709
X4.5709Y-3.9134
X4.5713Y-3.085
X4.6028Y-3.2937
X4.6063Y-3.7638
X4.6067Y-3.4512
X4.6339Y-3.7913
X4.6429Y-3.9134
X4.8851Y-3.2386
X4.8941Y-3.3606
X4.9213Y-3.7008
X4.9217Y-3.3882
X4.9252Y-3.8583
X4.9567Y-4.0669
X4.9571Y-3.2386
X5.0Y-4.1811
X5.0Y-3.878
X5.0004Y-3.274
X5.0004Y-2.9709
X5.0433Y-3.9134
X5.0437Y-3.085
X5.0752Y-3.2937
X5.0787Y-3.7638
X5.0791Y-3.4512
X5.1063Y-3.7913
X5.1153Y-3.9134
X5.3575Y-3.2386
X5.3665Y-3.3606
X5.3937Y-3.7008
X5.3941Y-3.3882
X5.3976Y-3.8583
X5.4291Y-4.0669
X5.4295Y-3.2386
X5.4724Y-4.1811
X5.4724Y-3.878
X5.4728Y-3.274
X5.4728Y-2.9709
X5.5157Y-3.9134
X5.5161Y-3.085
X5.5476Y-3.2937
X5.5512Y-3.7638
X5.5516Y-3.4512
X5.5787Y-3.7913
X5.5877Y-3.9134
X5.83Y-3.2386
X5.839Y-3.3606
X5.8661Y-3.7008
X5.8665Y-3.3882
X5.8701Y-3.8583
X5.9016Y-4.0669
X5.902Y-3.2386
X5.9449Y-4.1811
X5.9449Y-3.878
X5.9453Y-3.274
X5.9453Y-2.9709
X5.9882Y-3.9134
X5.9886Y-3.085
X6.0201Y-3.2937
X6.0236Y-3.7638
X6.024Y-3.4512
X6.0512Y-3.7913
X6.0602Y-3.9134
X6.3024Y-3.2386
X6.3114Y-3.3606
X6.3386Y-3.7008
X6.339Y-3.3882
X6.3425Y-3.8583
X6.374Y-4.0669
X6.3744Y-3.2386
X6.4173Y-4.1811
X6.4173Y-3.878
X6.4177Y-3.274
X6.4177Y-2.9709
X6.4606Y-3.9134
X6.461Y-3.085
X6.4925Y-3.2937
X6.4961Y-3.7638
X6.4965Y-3.4512
X6.5236Y-3.7913
X6.5326Y-3.9134
X6.7749Y-3.2386
X6.7839Y-3.3606
X6.811Y-3.7008
X6.8114Y-3.3882
X6.815Y-3.8583
X6.8465Y-4.0669
X6.8469Y-3.2386
X6.8898Y-4.1811
X6.8898Y-3.878
X6.8902Y-3.274
X6.8902Y-2.9709
X6.9331Y-3.9134
X6.9335Y-3.085
X6.965Y-3.2937
X6.9685Y-3.7638
X6.9689Y-3.4512
X6.9961Y-3.7913
X7.0051Y-3.9134
T2
X4.4276Y-4.4291
X6.8902Y-2.6228
X6.5173Y-4.5291
X6.8898Y-4.5291
X6.9898Y-4.4291
X4.428Y-2.6228
X6.4173Y-4.5291
X5.9449Y-4.5291
X5.3728Y-2.7228
X6.4177Y-2.7228
X6.0453Y-2.7228
X6.9898Y-4.5291
X5.9449Y-4.4291
X6.3173Y-4.4291
X4.528Y-2.6228
X5.0004Y-2.6228
X5.4724Y-4.5291
X5.0Y-4.5291
X4.5276Y-4.4291
X4.5276Y-4.5291
X4.628Y-2.6228
X6.7902Y-2.6228
X5.5728Y-2.7228
X5.9453Y-2.6228
X5.1004Y-2.6228
X6.7902Y-2.7228
X5.5728Y-2.6228
X5.4728Y-2.6228
X6.0453Y-2.6228
X4.9004Y-2.7228
X5.9453Y-2.7228
X4.6276Y-4.4291
X4.4276Y-4.5291
X4.6276Y-4.5291
X6.3177Y-2.6228
X5.1Y-4.4291
X6.7898Y-4.4291
X6.4173Y-4.4291
X4.9Y-4.4291
X5.5724Y-4.4291
X4.428Y-2.7228
X5.1004Y-2.7228
X5.8453Y-2.6228
X6.3177Y-2.7228
X6.5177Y-2.6228
X6.9902Y-2.6228
X5.4728Y-2.7228
X6.7898Y-4.5291
X5.0Y-4.4291
X5.1Y-4.5291
X6.9902Y-2.7228
X5.3728Y-2.6228
X5.3724Y-4.4291
X6.8898Y-4.4291
X5.0004Y-2.7228
X6.0449Y-4.4291
X6.3173Y-4.5291
X5.5724Y-4.5291
X4.9004Y-2.6228
X5.8449Y-4.5291
X6.5173Y-4.4291
X5.3724Y-4.5291
X5.8453Y-2.7228
X4.9Y-4.5291
X6.8902Y-2.7228
X4.628Y-2.7228
X6.4177Y-2.6228
X6.5177Y-2.7228
X5.4724Y-4.4291
X6.0449Y-4.5291
X5.8449Y-4.4291
X4.528Y-2.7228
T3
X6.4177Y-2.8606
X5.9449Y-4.2913
X5.0004Y-2.8606
X4.5276Y-4.2913
X6.8902Y-2.8606
X6.8898Y-4.2913
X6.4173Y-4.2913
X4.528Y-2.8606
X5.0Y-4.2913
X5.4728Y-2.8606
X5.9453Y-2.8606
X5.4724Y-4.2913
T0
M30
