G04 #@! TF.GenerationSoftware,KiCad,Pcbnew,5.1.5-52549c5~84~ubuntu18.04.1*
G04 #@! TF.CreationDate,2020-03-17T11:40:12+01:00*
G04 #@! TF.ProjectId,output.A1335_long_I2C_panel,6f757470-7574-42e4-9131-3333355f6c6f,rev?*
G04 #@! TF.SameCoordinates,Original*
G04 #@! TF.FileFunction,Legend,Top*
G04 #@! TF.FilePolarity,Positive*
%FSLAX46Y46*%
G04 Gerber Fmt 4.6, Leading zero omitted, Abs format (unit mm)*
G04 Created by KiCad (PCBNEW 5.1.5-52549c5~84~ubuntu18.04.1) date 2020-03-17 11:40:12*
%MOMM*%
%LPD*%
G04 APERTURE LIST*
%ADD10C,0.150000*%
G04 APERTURE END LIST*
D10*
X111510000Y-77160000D02*
X111510000Y-71160000D01*
X123510000Y-77160000D02*
X123510000Y-71160000D01*
X135510000Y-77160000D02*
X135510000Y-71160000D01*
X147510000Y-77160000D02*
X147510000Y-71160000D01*
X159510000Y-77160000D02*
X159510000Y-71160000D01*
X171510000Y-77160000D02*
X171510000Y-71160000D01*
X178500000Y-104500000D02*
X178500000Y-110500000D01*
X166500000Y-104500000D02*
X166500000Y-110500000D01*
X154500000Y-104500000D02*
X154500000Y-110500000D01*
X142500000Y-104500000D02*
X142500000Y-110500000D01*
X130500000Y-104500000D02*
X130500000Y-110500000D01*
X111510000Y-71160000D02*
X113710000Y-69960000D01*
X123510000Y-71160000D02*
X125710000Y-69960000D01*
X135510000Y-71160000D02*
X137710000Y-69960000D01*
X147510000Y-71160000D02*
X149710000Y-69960000D01*
X159510000Y-71160000D02*
X161710000Y-69960000D01*
X171510000Y-71160000D02*
X173710000Y-69960000D01*
X178500000Y-110500000D02*
X176300000Y-111700000D01*
X166500000Y-110500000D02*
X164300000Y-111700000D01*
X154500000Y-110500000D02*
X152300000Y-111700000D01*
X142500000Y-110500000D02*
X140300000Y-111700000D01*
X130500000Y-110500000D02*
X128300000Y-111700000D01*
X113710000Y-65460000D02*
X116210000Y-65460000D01*
X125710000Y-65460000D02*
X128210000Y-65460000D01*
X137710000Y-65460000D02*
X140210000Y-65460000D01*
X149710000Y-65460000D02*
X152210000Y-65460000D01*
X161710000Y-65460000D02*
X164210000Y-65460000D01*
X173710000Y-65460000D02*
X176210000Y-65460000D01*
X176300000Y-116200000D02*
X173800000Y-116200000D01*
X164300000Y-116200000D02*
X161800000Y-116200000D01*
X152300000Y-116200000D02*
X149800000Y-116200000D01*
X140300000Y-116200000D02*
X137800000Y-116200000D01*
X128300000Y-116200000D02*
X125800000Y-116200000D01*
X113710000Y-69960000D02*
X113710000Y-67360000D01*
X125710000Y-69960000D02*
X125710000Y-67360000D01*
X137710000Y-69960000D02*
X137710000Y-67360000D01*
X149710000Y-69960000D02*
X149710000Y-67360000D01*
X161710000Y-69960000D02*
X161710000Y-67360000D01*
X173710000Y-69960000D02*
X173710000Y-67360000D01*
X176300000Y-111700000D02*
X176300000Y-114300000D01*
X164300000Y-111700000D02*
X164300000Y-114300000D01*
X152300000Y-111700000D02*
X152300000Y-114300000D01*
X140300000Y-111700000D02*
X140300000Y-114300000D01*
X128300000Y-111700000D02*
X128300000Y-114300000D01*
X113710000Y-67360000D02*
X113710000Y-65460000D01*
X125710000Y-67360000D02*
X125710000Y-65460000D01*
X137710000Y-67360000D02*
X137710000Y-65460000D01*
X149710000Y-67360000D02*
X149710000Y-65460000D01*
X161710000Y-67360000D02*
X161710000Y-65460000D01*
X173710000Y-67360000D02*
X173710000Y-65460000D01*
X176300000Y-114300000D02*
X176300000Y-116200000D01*
X164300000Y-114300000D02*
X164300000Y-116200000D01*
X152300000Y-114300000D02*
X152300000Y-116200000D01*
X140300000Y-114300000D02*
X140300000Y-116200000D01*
X128300000Y-114300000D02*
X128300000Y-116200000D01*
X116210000Y-65460000D02*
X116210000Y-67860000D01*
X128210000Y-65460000D02*
X128210000Y-67860000D01*
X140210000Y-65460000D02*
X140210000Y-67860000D01*
X152210000Y-65460000D02*
X152210000Y-67860000D01*
X164210000Y-65460000D02*
X164210000Y-67860000D01*
X176210000Y-65460000D02*
X176210000Y-67860000D01*
X173800000Y-116200000D02*
X173800000Y-113800000D01*
X161800000Y-116200000D02*
X161800000Y-113800000D01*
X149800000Y-116200000D02*
X149800000Y-113800000D01*
X137800000Y-116200000D02*
X137800000Y-113800000D01*
X125800000Y-116200000D02*
X125800000Y-113800000D01*
X116210000Y-67860000D02*
X113710000Y-67860000D01*
X128210000Y-67860000D02*
X125710000Y-67860000D01*
X140210000Y-67860000D02*
X137710000Y-67860000D01*
X152210000Y-67860000D02*
X149710000Y-67860000D01*
X164210000Y-67860000D02*
X161710000Y-67860000D01*
X176210000Y-67860000D02*
X173710000Y-67860000D01*
X173800000Y-113800000D02*
X176300000Y-113800000D01*
X161800000Y-113800000D02*
X164300000Y-113800000D01*
X149800000Y-113800000D02*
X152300000Y-113800000D01*
X137800000Y-113800000D02*
X140300000Y-113800000D01*
X125800000Y-113800000D02*
X128300000Y-113800000D01*
X113800000Y-113800000D02*
X116300000Y-113800000D01*
X113800000Y-116200000D02*
X113800000Y-113800000D01*
X116300000Y-116200000D02*
X113800000Y-116200000D01*
X116300000Y-114300000D02*
X116300000Y-116200000D01*
X116300000Y-111700000D02*
X116300000Y-114300000D01*
X118500000Y-110500000D02*
X116300000Y-111700000D01*
X118500000Y-104500000D02*
X118500000Y-110500000D01*
X118545000Y-80835000D02*
X118420000Y-80835000D01*
X118545000Y-85485000D02*
X118320000Y-85485000D01*
X113295000Y-85485000D02*
X113520000Y-85485000D01*
X113295000Y-80835000D02*
X113520000Y-80835000D01*
X118545000Y-80835000D02*
X118545000Y-85485000D01*
X113295000Y-80835000D02*
X113295000Y-85485000D01*
X118420000Y-80835000D02*
X118420000Y-79485000D01*
X130545000Y-80835000D02*
X130420000Y-80835000D01*
X130545000Y-85485000D02*
X130320000Y-85485000D01*
X125295000Y-85485000D02*
X125520000Y-85485000D01*
X125295000Y-80835000D02*
X125520000Y-80835000D01*
X130545000Y-80835000D02*
X130545000Y-85485000D01*
X125295000Y-80835000D02*
X125295000Y-85485000D01*
X130420000Y-80835000D02*
X130420000Y-79485000D01*
X142545000Y-80835000D02*
X142420000Y-80835000D01*
X142545000Y-85485000D02*
X142320000Y-85485000D01*
X137295000Y-85485000D02*
X137520000Y-85485000D01*
X137295000Y-80835000D02*
X137520000Y-80835000D01*
X142545000Y-80835000D02*
X142545000Y-85485000D01*
X137295000Y-80835000D02*
X137295000Y-85485000D01*
X142420000Y-80835000D02*
X142420000Y-79485000D01*
X154545000Y-80835000D02*
X154420000Y-80835000D01*
X154545000Y-85485000D02*
X154320000Y-85485000D01*
X149295000Y-85485000D02*
X149520000Y-85485000D01*
X149295000Y-80835000D02*
X149520000Y-80835000D01*
X154545000Y-80835000D02*
X154545000Y-85485000D01*
X149295000Y-80835000D02*
X149295000Y-85485000D01*
X154420000Y-80835000D02*
X154420000Y-79485000D01*
X166545000Y-80835000D02*
X166420000Y-80835000D01*
X166545000Y-85485000D02*
X166320000Y-85485000D01*
X161295000Y-85485000D02*
X161520000Y-85485000D01*
X161295000Y-80835000D02*
X161520000Y-80835000D01*
X166545000Y-80835000D02*
X166545000Y-85485000D01*
X161295000Y-80835000D02*
X161295000Y-85485000D01*
X166420000Y-80835000D02*
X166420000Y-79485000D01*
X178545000Y-80835000D02*
X178420000Y-80835000D01*
X178545000Y-85485000D02*
X178320000Y-85485000D01*
X173295000Y-85485000D02*
X173520000Y-85485000D01*
X173295000Y-80835000D02*
X173520000Y-80835000D01*
X178545000Y-80835000D02*
X178545000Y-85485000D01*
X173295000Y-80835000D02*
X173295000Y-85485000D01*
X178420000Y-80835000D02*
X178420000Y-79485000D01*
X171465000Y-100825000D02*
X171590000Y-100825000D01*
X171465000Y-96175000D02*
X171690000Y-96175000D01*
X176715000Y-96175000D02*
X176490000Y-96175000D01*
X176715000Y-100825000D02*
X176490000Y-100825000D01*
X171465000Y-100825000D02*
X171465000Y-96175000D01*
X176715000Y-100825000D02*
X176715000Y-96175000D01*
X171590000Y-100825000D02*
X171590000Y-102175000D01*
X159465000Y-100825000D02*
X159590000Y-100825000D01*
X159465000Y-96175000D02*
X159690000Y-96175000D01*
X164715000Y-96175000D02*
X164490000Y-96175000D01*
X164715000Y-100825000D02*
X164490000Y-100825000D01*
X159465000Y-100825000D02*
X159465000Y-96175000D01*
X164715000Y-100825000D02*
X164715000Y-96175000D01*
X159590000Y-100825000D02*
X159590000Y-102175000D01*
X147465000Y-100825000D02*
X147590000Y-100825000D01*
X147465000Y-96175000D02*
X147690000Y-96175000D01*
X152715000Y-96175000D02*
X152490000Y-96175000D01*
X152715000Y-100825000D02*
X152490000Y-100825000D01*
X147465000Y-100825000D02*
X147465000Y-96175000D01*
X152715000Y-100825000D02*
X152715000Y-96175000D01*
X147590000Y-100825000D02*
X147590000Y-102175000D01*
X135465000Y-100825000D02*
X135590000Y-100825000D01*
X135465000Y-96175000D02*
X135690000Y-96175000D01*
X140715000Y-96175000D02*
X140490000Y-96175000D01*
X140715000Y-100825000D02*
X140490000Y-100825000D01*
X135465000Y-100825000D02*
X135465000Y-96175000D01*
X140715000Y-100825000D02*
X140715000Y-96175000D01*
X135590000Y-100825000D02*
X135590000Y-102175000D01*
X123465000Y-100825000D02*
X123590000Y-100825000D01*
X123465000Y-96175000D02*
X123690000Y-96175000D01*
X128715000Y-96175000D02*
X128490000Y-96175000D01*
X128715000Y-100825000D02*
X128490000Y-100825000D01*
X123465000Y-100825000D02*
X123465000Y-96175000D01*
X128715000Y-100825000D02*
X128715000Y-96175000D01*
X123590000Y-100825000D02*
X123590000Y-102175000D01*
X111590000Y-100825000D02*
X111590000Y-102175000D01*
X116715000Y-100825000D02*
X116715000Y-96175000D01*
X111465000Y-100825000D02*
X111465000Y-96175000D01*
X116715000Y-100825000D02*
X116490000Y-100825000D01*
X116715000Y-96175000D02*
X116490000Y-96175000D01*
X111465000Y-96175000D02*
X111690000Y-96175000D01*
X111465000Y-100825000D02*
X111590000Y-100825000D01*
X117567142Y-76026666D02*
X117614761Y-76074285D01*
X117662380Y-76217142D01*
X117662380Y-76312380D01*
X117614761Y-76455238D01*
X117519523Y-76550476D01*
X117424285Y-76598095D01*
X117233809Y-76645714D01*
X117090952Y-76645714D01*
X116900476Y-76598095D01*
X116805238Y-76550476D01*
X116710000Y-76455238D01*
X116662380Y-76312380D01*
X116662380Y-76217142D01*
X116710000Y-76074285D01*
X116757619Y-76026666D01*
X116757619Y-75645714D02*
X116710000Y-75598095D01*
X116662380Y-75502857D01*
X116662380Y-75264761D01*
X116710000Y-75169523D01*
X116757619Y-75121904D01*
X116852857Y-75074285D01*
X116948095Y-75074285D01*
X117090952Y-75121904D01*
X117662380Y-75693333D01*
X117662380Y-75074285D01*
X129567142Y-76026666D02*
X129614761Y-76074285D01*
X129662380Y-76217142D01*
X129662380Y-76312380D01*
X129614761Y-76455238D01*
X129519523Y-76550476D01*
X129424285Y-76598095D01*
X129233809Y-76645714D01*
X129090952Y-76645714D01*
X128900476Y-76598095D01*
X128805238Y-76550476D01*
X128710000Y-76455238D01*
X128662380Y-76312380D01*
X128662380Y-76217142D01*
X128710000Y-76074285D01*
X128757619Y-76026666D01*
X128757619Y-75645714D02*
X128710000Y-75598095D01*
X128662380Y-75502857D01*
X128662380Y-75264761D01*
X128710000Y-75169523D01*
X128757619Y-75121904D01*
X128852857Y-75074285D01*
X128948095Y-75074285D01*
X129090952Y-75121904D01*
X129662380Y-75693333D01*
X129662380Y-75074285D01*
X141567142Y-76026666D02*
X141614761Y-76074285D01*
X141662380Y-76217142D01*
X141662380Y-76312380D01*
X141614761Y-76455238D01*
X141519523Y-76550476D01*
X141424285Y-76598095D01*
X141233809Y-76645714D01*
X141090952Y-76645714D01*
X140900476Y-76598095D01*
X140805238Y-76550476D01*
X140710000Y-76455238D01*
X140662380Y-76312380D01*
X140662380Y-76217142D01*
X140710000Y-76074285D01*
X140757619Y-76026666D01*
X140757619Y-75645714D02*
X140710000Y-75598095D01*
X140662380Y-75502857D01*
X140662380Y-75264761D01*
X140710000Y-75169523D01*
X140757619Y-75121904D01*
X140852857Y-75074285D01*
X140948095Y-75074285D01*
X141090952Y-75121904D01*
X141662380Y-75693333D01*
X141662380Y-75074285D01*
X153567142Y-76026666D02*
X153614761Y-76074285D01*
X153662380Y-76217142D01*
X153662380Y-76312380D01*
X153614761Y-76455238D01*
X153519523Y-76550476D01*
X153424285Y-76598095D01*
X153233809Y-76645714D01*
X153090952Y-76645714D01*
X152900476Y-76598095D01*
X152805238Y-76550476D01*
X152710000Y-76455238D01*
X152662380Y-76312380D01*
X152662380Y-76217142D01*
X152710000Y-76074285D01*
X152757619Y-76026666D01*
X152757619Y-75645714D02*
X152710000Y-75598095D01*
X152662380Y-75502857D01*
X152662380Y-75264761D01*
X152710000Y-75169523D01*
X152757619Y-75121904D01*
X152852857Y-75074285D01*
X152948095Y-75074285D01*
X153090952Y-75121904D01*
X153662380Y-75693333D01*
X153662380Y-75074285D01*
X165567142Y-76026666D02*
X165614761Y-76074285D01*
X165662380Y-76217142D01*
X165662380Y-76312380D01*
X165614761Y-76455238D01*
X165519523Y-76550476D01*
X165424285Y-76598095D01*
X165233809Y-76645714D01*
X165090952Y-76645714D01*
X164900476Y-76598095D01*
X164805238Y-76550476D01*
X164710000Y-76455238D01*
X164662380Y-76312380D01*
X164662380Y-76217142D01*
X164710000Y-76074285D01*
X164757619Y-76026666D01*
X164757619Y-75645714D02*
X164710000Y-75598095D01*
X164662380Y-75502857D01*
X164662380Y-75264761D01*
X164710000Y-75169523D01*
X164757619Y-75121904D01*
X164852857Y-75074285D01*
X164948095Y-75074285D01*
X165090952Y-75121904D01*
X165662380Y-75693333D01*
X165662380Y-75074285D01*
X177567142Y-76026666D02*
X177614761Y-76074285D01*
X177662380Y-76217142D01*
X177662380Y-76312380D01*
X177614761Y-76455238D01*
X177519523Y-76550476D01*
X177424285Y-76598095D01*
X177233809Y-76645714D01*
X177090952Y-76645714D01*
X176900476Y-76598095D01*
X176805238Y-76550476D01*
X176710000Y-76455238D01*
X176662380Y-76312380D01*
X176662380Y-76217142D01*
X176710000Y-76074285D01*
X176757619Y-76026666D01*
X176757619Y-75645714D02*
X176710000Y-75598095D01*
X176662380Y-75502857D01*
X176662380Y-75264761D01*
X176710000Y-75169523D01*
X176757619Y-75121904D01*
X176852857Y-75074285D01*
X176948095Y-75074285D01*
X177090952Y-75121904D01*
X177662380Y-75693333D01*
X177662380Y-75074285D01*
X173157142Y-105966666D02*
X173204761Y-106014285D01*
X173252380Y-106157142D01*
X173252380Y-106252380D01*
X173204761Y-106395238D01*
X173109523Y-106490476D01*
X173014285Y-106538095D01*
X172823809Y-106585714D01*
X172680952Y-106585714D01*
X172490476Y-106538095D01*
X172395238Y-106490476D01*
X172300000Y-106395238D01*
X172252380Y-106252380D01*
X172252380Y-106157142D01*
X172300000Y-106014285D01*
X172347619Y-105966666D01*
X172347619Y-105585714D02*
X172300000Y-105538095D01*
X172252380Y-105442857D01*
X172252380Y-105204761D01*
X172300000Y-105109523D01*
X172347619Y-105061904D01*
X172442857Y-105014285D01*
X172538095Y-105014285D01*
X172680952Y-105061904D01*
X173252380Y-105633333D01*
X173252380Y-105014285D01*
X161157142Y-105966666D02*
X161204761Y-106014285D01*
X161252380Y-106157142D01*
X161252380Y-106252380D01*
X161204761Y-106395238D01*
X161109523Y-106490476D01*
X161014285Y-106538095D01*
X160823809Y-106585714D01*
X160680952Y-106585714D01*
X160490476Y-106538095D01*
X160395238Y-106490476D01*
X160300000Y-106395238D01*
X160252380Y-106252380D01*
X160252380Y-106157142D01*
X160300000Y-106014285D01*
X160347619Y-105966666D01*
X160347619Y-105585714D02*
X160300000Y-105538095D01*
X160252380Y-105442857D01*
X160252380Y-105204761D01*
X160300000Y-105109523D01*
X160347619Y-105061904D01*
X160442857Y-105014285D01*
X160538095Y-105014285D01*
X160680952Y-105061904D01*
X161252380Y-105633333D01*
X161252380Y-105014285D01*
X149157142Y-105966666D02*
X149204761Y-106014285D01*
X149252380Y-106157142D01*
X149252380Y-106252380D01*
X149204761Y-106395238D01*
X149109523Y-106490476D01*
X149014285Y-106538095D01*
X148823809Y-106585714D01*
X148680952Y-106585714D01*
X148490476Y-106538095D01*
X148395238Y-106490476D01*
X148300000Y-106395238D01*
X148252380Y-106252380D01*
X148252380Y-106157142D01*
X148300000Y-106014285D01*
X148347619Y-105966666D01*
X148347619Y-105585714D02*
X148300000Y-105538095D01*
X148252380Y-105442857D01*
X148252380Y-105204761D01*
X148300000Y-105109523D01*
X148347619Y-105061904D01*
X148442857Y-105014285D01*
X148538095Y-105014285D01*
X148680952Y-105061904D01*
X149252380Y-105633333D01*
X149252380Y-105014285D01*
X137157142Y-105966666D02*
X137204761Y-106014285D01*
X137252380Y-106157142D01*
X137252380Y-106252380D01*
X137204761Y-106395238D01*
X137109523Y-106490476D01*
X137014285Y-106538095D01*
X136823809Y-106585714D01*
X136680952Y-106585714D01*
X136490476Y-106538095D01*
X136395238Y-106490476D01*
X136300000Y-106395238D01*
X136252380Y-106252380D01*
X136252380Y-106157142D01*
X136300000Y-106014285D01*
X136347619Y-105966666D01*
X136347619Y-105585714D02*
X136300000Y-105538095D01*
X136252380Y-105442857D01*
X136252380Y-105204761D01*
X136300000Y-105109523D01*
X136347619Y-105061904D01*
X136442857Y-105014285D01*
X136538095Y-105014285D01*
X136680952Y-105061904D01*
X137252380Y-105633333D01*
X137252380Y-105014285D01*
X125157142Y-105966666D02*
X125204761Y-106014285D01*
X125252380Y-106157142D01*
X125252380Y-106252380D01*
X125204761Y-106395238D01*
X125109523Y-106490476D01*
X125014285Y-106538095D01*
X124823809Y-106585714D01*
X124680952Y-106585714D01*
X124490476Y-106538095D01*
X124395238Y-106490476D01*
X124300000Y-106395238D01*
X124252380Y-106252380D01*
X124252380Y-106157142D01*
X124300000Y-106014285D01*
X124347619Y-105966666D01*
X124347619Y-105585714D02*
X124300000Y-105538095D01*
X124252380Y-105442857D01*
X124252380Y-105204761D01*
X124300000Y-105109523D01*
X124347619Y-105061904D01*
X124442857Y-105014285D01*
X124538095Y-105014285D01*
X124680952Y-105061904D01*
X125252380Y-105633333D01*
X125252380Y-105014285D01*
X112343333Y-78717142D02*
X112295714Y-78764761D01*
X112152857Y-78812380D01*
X112057619Y-78812380D01*
X111914761Y-78764761D01*
X111819523Y-78669523D01*
X111771904Y-78574285D01*
X111724285Y-78383809D01*
X111724285Y-78240952D01*
X111771904Y-78050476D01*
X111819523Y-77955238D01*
X111914761Y-77860000D01*
X112057619Y-77812380D01*
X112152857Y-77812380D01*
X112295714Y-77860000D01*
X112343333Y-77907619D01*
X113295714Y-78812380D02*
X112724285Y-78812380D01*
X113010000Y-78812380D02*
X113010000Y-77812380D01*
X112914761Y-77955238D01*
X112819523Y-78050476D01*
X112724285Y-78098095D01*
X124343333Y-78717142D02*
X124295714Y-78764761D01*
X124152857Y-78812380D01*
X124057619Y-78812380D01*
X123914761Y-78764761D01*
X123819523Y-78669523D01*
X123771904Y-78574285D01*
X123724285Y-78383809D01*
X123724285Y-78240952D01*
X123771904Y-78050476D01*
X123819523Y-77955238D01*
X123914761Y-77860000D01*
X124057619Y-77812380D01*
X124152857Y-77812380D01*
X124295714Y-77860000D01*
X124343333Y-77907619D01*
X125295714Y-78812380D02*
X124724285Y-78812380D01*
X125010000Y-78812380D02*
X125010000Y-77812380D01*
X124914761Y-77955238D01*
X124819523Y-78050476D01*
X124724285Y-78098095D01*
X136343333Y-78717142D02*
X136295714Y-78764761D01*
X136152857Y-78812380D01*
X136057619Y-78812380D01*
X135914761Y-78764761D01*
X135819523Y-78669523D01*
X135771904Y-78574285D01*
X135724285Y-78383809D01*
X135724285Y-78240952D01*
X135771904Y-78050476D01*
X135819523Y-77955238D01*
X135914761Y-77860000D01*
X136057619Y-77812380D01*
X136152857Y-77812380D01*
X136295714Y-77860000D01*
X136343333Y-77907619D01*
X137295714Y-78812380D02*
X136724285Y-78812380D01*
X137010000Y-78812380D02*
X137010000Y-77812380D01*
X136914761Y-77955238D01*
X136819523Y-78050476D01*
X136724285Y-78098095D01*
X148343333Y-78717142D02*
X148295714Y-78764761D01*
X148152857Y-78812380D01*
X148057619Y-78812380D01*
X147914761Y-78764761D01*
X147819523Y-78669523D01*
X147771904Y-78574285D01*
X147724285Y-78383809D01*
X147724285Y-78240952D01*
X147771904Y-78050476D01*
X147819523Y-77955238D01*
X147914761Y-77860000D01*
X148057619Y-77812380D01*
X148152857Y-77812380D01*
X148295714Y-77860000D01*
X148343333Y-77907619D01*
X149295714Y-78812380D02*
X148724285Y-78812380D01*
X149010000Y-78812380D02*
X149010000Y-77812380D01*
X148914761Y-77955238D01*
X148819523Y-78050476D01*
X148724285Y-78098095D01*
X160343333Y-78717142D02*
X160295714Y-78764761D01*
X160152857Y-78812380D01*
X160057619Y-78812380D01*
X159914761Y-78764761D01*
X159819523Y-78669523D01*
X159771904Y-78574285D01*
X159724285Y-78383809D01*
X159724285Y-78240952D01*
X159771904Y-78050476D01*
X159819523Y-77955238D01*
X159914761Y-77860000D01*
X160057619Y-77812380D01*
X160152857Y-77812380D01*
X160295714Y-77860000D01*
X160343333Y-77907619D01*
X161295714Y-78812380D02*
X160724285Y-78812380D01*
X161010000Y-78812380D02*
X161010000Y-77812380D01*
X160914761Y-77955238D01*
X160819523Y-78050476D01*
X160724285Y-78098095D01*
X172343333Y-78717142D02*
X172295714Y-78764761D01*
X172152857Y-78812380D01*
X172057619Y-78812380D01*
X171914761Y-78764761D01*
X171819523Y-78669523D01*
X171771904Y-78574285D01*
X171724285Y-78383809D01*
X171724285Y-78240952D01*
X171771904Y-78050476D01*
X171819523Y-77955238D01*
X171914761Y-77860000D01*
X172057619Y-77812380D01*
X172152857Y-77812380D01*
X172295714Y-77860000D01*
X172343333Y-77907619D01*
X173295714Y-78812380D02*
X172724285Y-78812380D01*
X173010000Y-78812380D02*
X173010000Y-77812380D01*
X172914761Y-77955238D01*
X172819523Y-78050476D01*
X172724285Y-78098095D01*
X177333333Y-103657142D02*
X177285714Y-103704761D01*
X177142857Y-103752380D01*
X177047619Y-103752380D01*
X176904761Y-103704761D01*
X176809523Y-103609523D01*
X176761904Y-103514285D01*
X176714285Y-103323809D01*
X176714285Y-103180952D01*
X176761904Y-102990476D01*
X176809523Y-102895238D01*
X176904761Y-102800000D01*
X177047619Y-102752380D01*
X177142857Y-102752380D01*
X177285714Y-102800000D01*
X177333333Y-102847619D01*
X178285714Y-103752380D02*
X177714285Y-103752380D01*
X178000000Y-103752380D02*
X178000000Y-102752380D01*
X177904761Y-102895238D01*
X177809523Y-102990476D01*
X177714285Y-103038095D01*
X165333333Y-103657142D02*
X165285714Y-103704761D01*
X165142857Y-103752380D01*
X165047619Y-103752380D01*
X164904761Y-103704761D01*
X164809523Y-103609523D01*
X164761904Y-103514285D01*
X164714285Y-103323809D01*
X164714285Y-103180952D01*
X164761904Y-102990476D01*
X164809523Y-102895238D01*
X164904761Y-102800000D01*
X165047619Y-102752380D01*
X165142857Y-102752380D01*
X165285714Y-102800000D01*
X165333333Y-102847619D01*
X166285714Y-103752380D02*
X165714285Y-103752380D01*
X166000000Y-103752380D02*
X166000000Y-102752380D01*
X165904761Y-102895238D01*
X165809523Y-102990476D01*
X165714285Y-103038095D01*
X153333333Y-103657142D02*
X153285714Y-103704761D01*
X153142857Y-103752380D01*
X153047619Y-103752380D01*
X152904761Y-103704761D01*
X152809523Y-103609523D01*
X152761904Y-103514285D01*
X152714285Y-103323809D01*
X152714285Y-103180952D01*
X152761904Y-102990476D01*
X152809523Y-102895238D01*
X152904761Y-102800000D01*
X153047619Y-102752380D01*
X153142857Y-102752380D01*
X153285714Y-102800000D01*
X153333333Y-102847619D01*
X154285714Y-103752380D02*
X153714285Y-103752380D01*
X154000000Y-103752380D02*
X154000000Y-102752380D01*
X153904761Y-102895238D01*
X153809523Y-102990476D01*
X153714285Y-103038095D01*
X141333333Y-103657142D02*
X141285714Y-103704761D01*
X141142857Y-103752380D01*
X141047619Y-103752380D01*
X140904761Y-103704761D01*
X140809523Y-103609523D01*
X140761904Y-103514285D01*
X140714285Y-103323809D01*
X140714285Y-103180952D01*
X140761904Y-102990476D01*
X140809523Y-102895238D01*
X140904761Y-102800000D01*
X141047619Y-102752380D01*
X141142857Y-102752380D01*
X141285714Y-102800000D01*
X141333333Y-102847619D01*
X142285714Y-103752380D02*
X141714285Y-103752380D01*
X142000000Y-103752380D02*
X142000000Y-102752380D01*
X141904761Y-102895238D01*
X141809523Y-102990476D01*
X141714285Y-103038095D01*
X129333333Y-103657142D02*
X129285714Y-103704761D01*
X129142857Y-103752380D01*
X129047619Y-103752380D01*
X128904761Y-103704761D01*
X128809523Y-103609523D01*
X128761904Y-103514285D01*
X128714285Y-103323809D01*
X128714285Y-103180952D01*
X128761904Y-102990476D01*
X128809523Y-102895238D01*
X128904761Y-102800000D01*
X129047619Y-102752380D01*
X129142857Y-102752380D01*
X129285714Y-102800000D01*
X129333333Y-102847619D01*
X130285714Y-103752380D02*
X129714285Y-103752380D01*
X130000000Y-103752380D02*
X130000000Y-102752380D01*
X129904761Y-102895238D01*
X129809523Y-102990476D01*
X129714285Y-103038095D01*
X112471904Y-76960000D02*
X111671904Y-76960000D01*
X112243333Y-76693333D01*
X111671904Y-76426666D01*
X112471904Y-76426666D01*
X112471904Y-76045714D02*
X111671904Y-76045714D01*
X112433809Y-75702857D02*
X112471904Y-75588571D01*
X112471904Y-75398095D01*
X112433809Y-75321904D01*
X112395714Y-75283809D01*
X112319523Y-75245714D01*
X112243333Y-75245714D01*
X112167142Y-75283809D01*
X112129047Y-75321904D01*
X112090952Y-75398095D01*
X112052857Y-75550476D01*
X112014761Y-75626666D01*
X111976666Y-75664761D01*
X111900476Y-75702857D01*
X111824285Y-75702857D01*
X111748095Y-75664761D01*
X111710000Y-75626666D01*
X111671904Y-75550476D01*
X111671904Y-75360000D01*
X111710000Y-75245714D01*
X111671904Y-74750476D02*
X111671904Y-74598095D01*
X111710000Y-74521904D01*
X111786190Y-74445714D01*
X111938571Y-74407619D01*
X112205238Y-74407619D01*
X112357619Y-74445714D01*
X112433809Y-74521904D01*
X112471904Y-74598095D01*
X112471904Y-74750476D01*
X112433809Y-74826666D01*
X112357619Y-74902857D01*
X112205238Y-74940952D01*
X111938571Y-74940952D01*
X111786190Y-74902857D01*
X111710000Y-74826666D01*
X111671904Y-74750476D01*
X111633809Y-73493333D02*
X112662380Y-74179047D01*
X112433809Y-73264761D02*
X112471904Y-73150476D01*
X112471904Y-72960000D01*
X112433809Y-72883809D01*
X112395714Y-72845714D01*
X112319523Y-72807619D01*
X112243333Y-72807619D01*
X112167142Y-72845714D01*
X112129047Y-72883809D01*
X112090952Y-72960000D01*
X112052857Y-73112380D01*
X112014761Y-73188571D01*
X111976666Y-73226666D01*
X111900476Y-73264761D01*
X111824285Y-73264761D01*
X111748095Y-73226666D01*
X111710000Y-73188571D01*
X111671904Y-73112380D01*
X111671904Y-72921904D01*
X111710000Y-72807619D01*
X112471904Y-72464761D02*
X111671904Y-72464761D01*
X111671904Y-72274285D01*
X111710000Y-72160000D01*
X111786190Y-72083809D01*
X111862380Y-72045714D01*
X112014761Y-72007619D01*
X112129047Y-72007619D01*
X112281428Y-72045714D01*
X112357619Y-72083809D01*
X112433809Y-72160000D01*
X112471904Y-72274285D01*
X112471904Y-72464761D01*
X112243333Y-71702857D02*
X112243333Y-71321904D01*
X112471904Y-71779047D02*
X111671904Y-71512380D01*
X112471904Y-71245714D01*
X124471904Y-76960000D02*
X123671904Y-76960000D01*
X124243333Y-76693333D01*
X123671904Y-76426666D01*
X124471904Y-76426666D01*
X124471904Y-76045714D02*
X123671904Y-76045714D01*
X124433809Y-75702857D02*
X124471904Y-75588571D01*
X124471904Y-75398095D01*
X124433809Y-75321904D01*
X124395714Y-75283809D01*
X124319523Y-75245714D01*
X124243333Y-75245714D01*
X124167142Y-75283809D01*
X124129047Y-75321904D01*
X124090952Y-75398095D01*
X124052857Y-75550476D01*
X124014761Y-75626666D01*
X123976666Y-75664761D01*
X123900476Y-75702857D01*
X123824285Y-75702857D01*
X123748095Y-75664761D01*
X123710000Y-75626666D01*
X123671904Y-75550476D01*
X123671904Y-75360000D01*
X123710000Y-75245714D01*
X123671904Y-74750476D02*
X123671904Y-74598095D01*
X123710000Y-74521904D01*
X123786190Y-74445714D01*
X123938571Y-74407619D01*
X124205238Y-74407619D01*
X124357619Y-74445714D01*
X124433809Y-74521904D01*
X124471904Y-74598095D01*
X124471904Y-74750476D01*
X124433809Y-74826666D01*
X124357619Y-74902857D01*
X124205238Y-74940952D01*
X123938571Y-74940952D01*
X123786190Y-74902857D01*
X123710000Y-74826666D01*
X123671904Y-74750476D01*
X123633809Y-73493333D02*
X124662380Y-74179047D01*
X124433809Y-73264761D02*
X124471904Y-73150476D01*
X124471904Y-72960000D01*
X124433809Y-72883809D01*
X124395714Y-72845714D01*
X124319523Y-72807619D01*
X124243333Y-72807619D01*
X124167142Y-72845714D01*
X124129047Y-72883809D01*
X124090952Y-72960000D01*
X124052857Y-73112380D01*
X124014761Y-73188571D01*
X123976666Y-73226666D01*
X123900476Y-73264761D01*
X123824285Y-73264761D01*
X123748095Y-73226666D01*
X123710000Y-73188571D01*
X123671904Y-73112380D01*
X123671904Y-72921904D01*
X123710000Y-72807619D01*
X124471904Y-72464761D02*
X123671904Y-72464761D01*
X123671904Y-72274285D01*
X123710000Y-72160000D01*
X123786190Y-72083809D01*
X123862380Y-72045714D01*
X124014761Y-72007619D01*
X124129047Y-72007619D01*
X124281428Y-72045714D01*
X124357619Y-72083809D01*
X124433809Y-72160000D01*
X124471904Y-72274285D01*
X124471904Y-72464761D01*
X124243333Y-71702857D02*
X124243333Y-71321904D01*
X124471904Y-71779047D02*
X123671904Y-71512380D01*
X124471904Y-71245714D01*
X136471904Y-76960000D02*
X135671904Y-76960000D01*
X136243333Y-76693333D01*
X135671904Y-76426666D01*
X136471904Y-76426666D01*
X136471904Y-76045714D02*
X135671904Y-76045714D01*
X136433809Y-75702857D02*
X136471904Y-75588571D01*
X136471904Y-75398095D01*
X136433809Y-75321904D01*
X136395714Y-75283809D01*
X136319523Y-75245714D01*
X136243333Y-75245714D01*
X136167142Y-75283809D01*
X136129047Y-75321904D01*
X136090952Y-75398095D01*
X136052857Y-75550476D01*
X136014761Y-75626666D01*
X135976666Y-75664761D01*
X135900476Y-75702857D01*
X135824285Y-75702857D01*
X135748095Y-75664761D01*
X135710000Y-75626666D01*
X135671904Y-75550476D01*
X135671904Y-75360000D01*
X135710000Y-75245714D01*
X135671904Y-74750476D02*
X135671904Y-74598095D01*
X135710000Y-74521904D01*
X135786190Y-74445714D01*
X135938571Y-74407619D01*
X136205238Y-74407619D01*
X136357619Y-74445714D01*
X136433809Y-74521904D01*
X136471904Y-74598095D01*
X136471904Y-74750476D01*
X136433809Y-74826666D01*
X136357619Y-74902857D01*
X136205238Y-74940952D01*
X135938571Y-74940952D01*
X135786190Y-74902857D01*
X135710000Y-74826666D01*
X135671904Y-74750476D01*
X135633809Y-73493333D02*
X136662380Y-74179047D01*
X136433809Y-73264761D02*
X136471904Y-73150476D01*
X136471904Y-72960000D01*
X136433809Y-72883809D01*
X136395714Y-72845714D01*
X136319523Y-72807619D01*
X136243333Y-72807619D01*
X136167142Y-72845714D01*
X136129047Y-72883809D01*
X136090952Y-72960000D01*
X136052857Y-73112380D01*
X136014761Y-73188571D01*
X135976666Y-73226666D01*
X135900476Y-73264761D01*
X135824285Y-73264761D01*
X135748095Y-73226666D01*
X135710000Y-73188571D01*
X135671904Y-73112380D01*
X135671904Y-72921904D01*
X135710000Y-72807619D01*
X136471904Y-72464761D02*
X135671904Y-72464761D01*
X135671904Y-72274285D01*
X135710000Y-72160000D01*
X135786190Y-72083809D01*
X135862380Y-72045714D01*
X136014761Y-72007619D01*
X136129047Y-72007619D01*
X136281428Y-72045714D01*
X136357619Y-72083809D01*
X136433809Y-72160000D01*
X136471904Y-72274285D01*
X136471904Y-72464761D01*
X136243333Y-71702857D02*
X136243333Y-71321904D01*
X136471904Y-71779047D02*
X135671904Y-71512380D01*
X136471904Y-71245714D01*
X148471904Y-76960000D02*
X147671904Y-76960000D01*
X148243333Y-76693333D01*
X147671904Y-76426666D01*
X148471904Y-76426666D01*
X148471904Y-76045714D02*
X147671904Y-76045714D01*
X148433809Y-75702857D02*
X148471904Y-75588571D01*
X148471904Y-75398095D01*
X148433809Y-75321904D01*
X148395714Y-75283809D01*
X148319523Y-75245714D01*
X148243333Y-75245714D01*
X148167142Y-75283809D01*
X148129047Y-75321904D01*
X148090952Y-75398095D01*
X148052857Y-75550476D01*
X148014761Y-75626666D01*
X147976666Y-75664761D01*
X147900476Y-75702857D01*
X147824285Y-75702857D01*
X147748095Y-75664761D01*
X147710000Y-75626666D01*
X147671904Y-75550476D01*
X147671904Y-75360000D01*
X147710000Y-75245714D01*
X147671904Y-74750476D02*
X147671904Y-74598095D01*
X147710000Y-74521904D01*
X147786190Y-74445714D01*
X147938571Y-74407619D01*
X148205238Y-74407619D01*
X148357619Y-74445714D01*
X148433809Y-74521904D01*
X148471904Y-74598095D01*
X148471904Y-74750476D01*
X148433809Y-74826666D01*
X148357619Y-74902857D01*
X148205238Y-74940952D01*
X147938571Y-74940952D01*
X147786190Y-74902857D01*
X147710000Y-74826666D01*
X147671904Y-74750476D01*
X147633809Y-73493333D02*
X148662380Y-74179047D01*
X148433809Y-73264761D02*
X148471904Y-73150476D01*
X148471904Y-72960000D01*
X148433809Y-72883809D01*
X148395714Y-72845714D01*
X148319523Y-72807619D01*
X148243333Y-72807619D01*
X148167142Y-72845714D01*
X148129047Y-72883809D01*
X148090952Y-72960000D01*
X148052857Y-73112380D01*
X148014761Y-73188571D01*
X147976666Y-73226666D01*
X147900476Y-73264761D01*
X147824285Y-73264761D01*
X147748095Y-73226666D01*
X147710000Y-73188571D01*
X147671904Y-73112380D01*
X147671904Y-72921904D01*
X147710000Y-72807619D01*
X148471904Y-72464761D02*
X147671904Y-72464761D01*
X147671904Y-72274285D01*
X147710000Y-72160000D01*
X147786190Y-72083809D01*
X147862380Y-72045714D01*
X148014761Y-72007619D01*
X148129047Y-72007619D01*
X148281428Y-72045714D01*
X148357619Y-72083809D01*
X148433809Y-72160000D01*
X148471904Y-72274285D01*
X148471904Y-72464761D01*
X148243333Y-71702857D02*
X148243333Y-71321904D01*
X148471904Y-71779047D02*
X147671904Y-71512380D01*
X148471904Y-71245714D01*
X160471904Y-76960000D02*
X159671904Y-76960000D01*
X160243333Y-76693333D01*
X159671904Y-76426666D01*
X160471904Y-76426666D01*
X160471904Y-76045714D02*
X159671904Y-76045714D01*
X160433809Y-75702857D02*
X160471904Y-75588571D01*
X160471904Y-75398095D01*
X160433809Y-75321904D01*
X160395714Y-75283809D01*
X160319523Y-75245714D01*
X160243333Y-75245714D01*
X160167142Y-75283809D01*
X160129047Y-75321904D01*
X160090952Y-75398095D01*
X160052857Y-75550476D01*
X160014761Y-75626666D01*
X159976666Y-75664761D01*
X159900476Y-75702857D01*
X159824285Y-75702857D01*
X159748095Y-75664761D01*
X159710000Y-75626666D01*
X159671904Y-75550476D01*
X159671904Y-75360000D01*
X159710000Y-75245714D01*
X159671904Y-74750476D02*
X159671904Y-74598095D01*
X159710000Y-74521904D01*
X159786190Y-74445714D01*
X159938571Y-74407619D01*
X160205238Y-74407619D01*
X160357619Y-74445714D01*
X160433809Y-74521904D01*
X160471904Y-74598095D01*
X160471904Y-74750476D01*
X160433809Y-74826666D01*
X160357619Y-74902857D01*
X160205238Y-74940952D01*
X159938571Y-74940952D01*
X159786190Y-74902857D01*
X159710000Y-74826666D01*
X159671904Y-74750476D01*
X159633809Y-73493333D02*
X160662380Y-74179047D01*
X160433809Y-73264761D02*
X160471904Y-73150476D01*
X160471904Y-72960000D01*
X160433809Y-72883809D01*
X160395714Y-72845714D01*
X160319523Y-72807619D01*
X160243333Y-72807619D01*
X160167142Y-72845714D01*
X160129047Y-72883809D01*
X160090952Y-72960000D01*
X160052857Y-73112380D01*
X160014761Y-73188571D01*
X159976666Y-73226666D01*
X159900476Y-73264761D01*
X159824285Y-73264761D01*
X159748095Y-73226666D01*
X159710000Y-73188571D01*
X159671904Y-73112380D01*
X159671904Y-72921904D01*
X159710000Y-72807619D01*
X160471904Y-72464761D02*
X159671904Y-72464761D01*
X159671904Y-72274285D01*
X159710000Y-72160000D01*
X159786190Y-72083809D01*
X159862380Y-72045714D01*
X160014761Y-72007619D01*
X160129047Y-72007619D01*
X160281428Y-72045714D01*
X160357619Y-72083809D01*
X160433809Y-72160000D01*
X160471904Y-72274285D01*
X160471904Y-72464761D01*
X160243333Y-71702857D02*
X160243333Y-71321904D01*
X160471904Y-71779047D02*
X159671904Y-71512380D01*
X160471904Y-71245714D01*
X172471904Y-76960000D02*
X171671904Y-76960000D01*
X172243333Y-76693333D01*
X171671904Y-76426666D01*
X172471904Y-76426666D01*
X172471904Y-76045714D02*
X171671904Y-76045714D01*
X172433809Y-75702857D02*
X172471904Y-75588571D01*
X172471904Y-75398095D01*
X172433809Y-75321904D01*
X172395714Y-75283809D01*
X172319523Y-75245714D01*
X172243333Y-75245714D01*
X172167142Y-75283809D01*
X172129047Y-75321904D01*
X172090952Y-75398095D01*
X172052857Y-75550476D01*
X172014761Y-75626666D01*
X171976666Y-75664761D01*
X171900476Y-75702857D01*
X171824285Y-75702857D01*
X171748095Y-75664761D01*
X171710000Y-75626666D01*
X171671904Y-75550476D01*
X171671904Y-75360000D01*
X171710000Y-75245714D01*
X171671904Y-74750476D02*
X171671904Y-74598095D01*
X171710000Y-74521904D01*
X171786190Y-74445714D01*
X171938571Y-74407619D01*
X172205238Y-74407619D01*
X172357619Y-74445714D01*
X172433809Y-74521904D01*
X172471904Y-74598095D01*
X172471904Y-74750476D01*
X172433809Y-74826666D01*
X172357619Y-74902857D01*
X172205238Y-74940952D01*
X171938571Y-74940952D01*
X171786190Y-74902857D01*
X171710000Y-74826666D01*
X171671904Y-74750476D01*
X171633809Y-73493333D02*
X172662380Y-74179047D01*
X172433809Y-73264761D02*
X172471904Y-73150476D01*
X172471904Y-72960000D01*
X172433809Y-72883809D01*
X172395714Y-72845714D01*
X172319523Y-72807619D01*
X172243333Y-72807619D01*
X172167142Y-72845714D01*
X172129047Y-72883809D01*
X172090952Y-72960000D01*
X172052857Y-73112380D01*
X172014761Y-73188571D01*
X171976666Y-73226666D01*
X171900476Y-73264761D01*
X171824285Y-73264761D01*
X171748095Y-73226666D01*
X171710000Y-73188571D01*
X171671904Y-73112380D01*
X171671904Y-72921904D01*
X171710000Y-72807619D01*
X172471904Y-72464761D02*
X171671904Y-72464761D01*
X171671904Y-72274285D01*
X171710000Y-72160000D01*
X171786190Y-72083809D01*
X171862380Y-72045714D01*
X172014761Y-72007619D01*
X172129047Y-72007619D01*
X172281428Y-72045714D01*
X172357619Y-72083809D01*
X172433809Y-72160000D01*
X172471904Y-72274285D01*
X172471904Y-72464761D01*
X172243333Y-71702857D02*
X172243333Y-71321904D01*
X172471904Y-71779047D02*
X171671904Y-71512380D01*
X172471904Y-71245714D01*
X178261904Y-110300000D02*
X177461904Y-110300000D01*
X178033333Y-110033333D01*
X177461904Y-109766666D01*
X178261904Y-109766666D01*
X178261904Y-109385714D02*
X177461904Y-109385714D01*
X178223809Y-109042857D02*
X178261904Y-108928571D01*
X178261904Y-108738095D01*
X178223809Y-108661904D01*
X178185714Y-108623809D01*
X178109523Y-108585714D01*
X178033333Y-108585714D01*
X177957142Y-108623809D01*
X177919047Y-108661904D01*
X177880952Y-108738095D01*
X177842857Y-108890476D01*
X177804761Y-108966666D01*
X177766666Y-109004761D01*
X177690476Y-109042857D01*
X177614285Y-109042857D01*
X177538095Y-109004761D01*
X177500000Y-108966666D01*
X177461904Y-108890476D01*
X177461904Y-108700000D01*
X177500000Y-108585714D01*
X177461904Y-108090476D02*
X177461904Y-107938095D01*
X177500000Y-107861904D01*
X177576190Y-107785714D01*
X177728571Y-107747619D01*
X177995238Y-107747619D01*
X178147619Y-107785714D01*
X178223809Y-107861904D01*
X178261904Y-107938095D01*
X178261904Y-108090476D01*
X178223809Y-108166666D01*
X178147619Y-108242857D01*
X177995238Y-108280952D01*
X177728571Y-108280952D01*
X177576190Y-108242857D01*
X177500000Y-108166666D01*
X177461904Y-108090476D01*
X177423809Y-106833333D02*
X178452380Y-107519047D01*
X178223809Y-106604761D02*
X178261904Y-106490476D01*
X178261904Y-106300000D01*
X178223809Y-106223809D01*
X178185714Y-106185714D01*
X178109523Y-106147619D01*
X178033333Y-106147619D01*
X177957142Y-106185714D01*
X177919047Y-106223809D01*
X177880952Y-106300000D01*
X177842857Y-106452380D01*
X177804761Y-106528571D01*
X177766666Y-106566666D01*
X177690476Y-106604761D01*
X177614285Y-106604761D01*
X177538095Y-106566666D01*
X177500000Y-106528571D01*
X177461904Y-106452380D01*
X177461904Y-106261904D01*
X177500000Y-106147619D01*
X178261904Y-105804761D02*
X177461904Y-105804761D01*
X177461904Y-105614285D01*
X177500000Y-105500000D01*
X177576190Y-105423809D01*
X177652380Y-105385714D01*
X177804761Y-105347619D01*
X177919047Y-105347619D01*
X178071428Y-105385714D01*
X178147619Y-105423809D01*
X178223809Y-105500000D01*
X178261904Y-105614285D01*
X178261904Y-105804761D01*
X178033333Y-105042857D02*
X178033333Y-104661904D01*
X178261904Y-105119047D02*
X177461904Y-104852380D01*
X178261904Y-104585714D01*
X166261904Y-110300000D02*
X165461904Y-110300000D01*
X166033333Y-110033333D01*
X165461904Y-109766666D01*
X166261904Y-109766666D01*
X166261904Y-109385714D02*
X165461904Y-109385714D01*
X166223809Y-109042857D02*
X166261904Y-108928571D01*
X166261904Y-108738095D01*
X166223809Y-108661904D01*
X166185714Y-108623809D01*
X166109523Y-108585714D01*
X166033333Y-108585714D01*
X165957142Y-108623809D01*
X165919047Y-108661904D01*
X165880952Y-108738095D01*
X165842857Y-108890476D01*
X165804761Y-108966666D01*
X165766666Y-109004761D01*
X165690476Y-109042857D01*
X165614285Y-109042857D01*
X165538095Y-109004761D01*
X165500000Y-108966666D01*
X165461904Y-108890476D01*
X165461904Y-108700000D01*
X165500000Y-108585714D01*
X165461904Y-108090476D02*
X165461904Y-107938095D01*
X165500000Y-107861904D01*
X165576190Y-107785714D01*
X165728571Y-107747619D01*
X165995238Y-107747619D01*
X166147619Y-107785714D01*
X166223809Y-107861904D01*
X166261904Y-107938095D01*
X166261904Y-108090476D01*
X166223809Y-108166666D01*
X166147619Y-108242857D01*
X165995238Y-108280952D01*
X165728571Y-108280952D01*
X165576190Y-108242857D01*
X165500000Y-108166666D01*
X165461904Y-108090476D01*
X165423809Y-106833333D02*
X166452380Y-107519047D01*
X166223809Y-106604761D02*
X166261904Y-106490476D01*
X166261904Y-106300000D01*
X166223809Y-106223809D01*
X166185714Y-106185714D01*
X166109523Y-106147619D01*
X166033333Y-106147619D01*
X165957142Y-106185714D01*
X165919047Y-106223809D01*
X165880952Y-106300000D01*
X165842857Y-106452380D01*
X165804761Y-106528571D01*
X165766666Y-106566666D01*
X165690476Y-106604761D01*
X165614285Y-106604761D01*
X165538095Y-106566666D01*
X165500000Y-106528571D01*
X165461904Y-106452380D01*
X165461904Y-106261904D01*
X165500000Y-106147619D01*
X166261904Y-105804761D02*
X165461904Y-105804761D01*
X165461904Y-105614285D01*
X165500000Y-105500000D01*
X165576190Y-105423809D01*
X165652380Y-105385714D01*
X165804761Y-105347619D01*
X165919047Y-105347619D01*
X166071428Y-105385714D01*
X166147619Y-105423809D01*
X166223809Y-105500000D01*
X166261904Y-105614285D01*
X166261904Y-105804761D01*
X166033333Y-105042857D02*
X166033333Y-104661904D01*
X166261904Y-105119047D02*
X165461904Y-104852380D01*
X166261904Y-104585714D01*
X154261904Y-110300000D02*
X153461904Y-110300000D01*
X154033333Y-110033333D01*
X153461904Y-109766666D01*
X154261904Y-109766666D01*
X154261904Y-109385714D02*
X153461904Y-109385714D01*
X154223809Y-109042857D02*
X154261904Y-108928571D01*
X154261904Y-108738095D01*
X154223809Y-108661904D01*
X154185714Y-108623809D01*
X154109523Y-108585714D01*
X154033333Y-108585714D01*
X153957142Y-108623809D01*
X153919047Y-108661904D01*
X153880952Y-108738095D01*
X153842857Y-108890476D01*
X153804761Y-108966666D01*
X153766666Y-109004761D01*
X153690476Y-109042857D01*
X153614285Y-109042857D01*
X153538095Y-109004761D01*
X153500000Y-108966666D01*
X153461904Y-108890476D01*
X153461904Y-108700000D01*
X153500000Y-108585714D01*
X153461904Y-108090476D02*
X153461904Y-107938095D01*
X153500000Y-107861904D01*
X153576190Y-107785714D01*
X153728571Y-107747619D01*
X153995238Y-107747619D01*
X154147619Y-107785714D01*
X154223809Y-107861904D01*
X154261904Y-107938095D01*
X154261904Y-108090476D01*
X154223809Y-108166666D01*
X154147619Y-108242857D01*
X153995238Y-108280952D01*
X153728571Y-108280952D01*
X153576190Y-108242857D01*
X153500000Y-108166666D01*
X153461904Y-108090476D01*
X153423809Y-106833333D02*
X154452380Y-107519047D01*
X154223809Y-106604761D02*
X154261904Y-106490476D01*
X154261904Y-106300000D01*
X154223809Y-106223809D01*
X154185714Y-106185714D01*
X154109523Y-106147619D01*
X154033333Y-106147619D01*
X153957142Y-106185714D01*
X153919047Y-106223809D01*
X153880952Y-106300000D01*
X153842857Y-106452380D01*
X153804761Y-106528571D01*
X153766666Y-106566666D01*
X153690476Y-106604761D01*
X153614285Y-106604761D01*
X153538095Y-106566666D01*
X153500000Y-106528571D01*
X153461904Y-106452380D01*
X153461904Y-106261904D01*
X153500000Y-106147619D01*
X154261904Y-105804761D02*
X153461904Y-105804761D01*
X153461904Y-105614285D01*
X153500000Y-105500000D01*
X153576190Y-105423809D01*
X153652380Y-105385714D01*
X153804761Y-105347619D01*
X153919047Y-105347619D01*
X154071428Y-105385714D01*
X154147619Y-105423809D01*
X154223809Y-105500000D01*
X154261904Y-105614285D01*
X154261904Y-105804761D01*
X154033333Y-105042857D02*
X154033333Y-104661904D01*
X154261904Y-105119047D02*
X153461904Y-104852380D01*
X154261904Y-104585714D01*
X142261904Y-110300000D02*
X141461904Y-110300000D01*
X142033333Y-110033333D01*
X141461904Y-109766666D01*
X142261904Y-109766666D01*
X142261904Y-109385714D02*
X141461904Y-109385714D01*
X142223809Y-109042857D02*
X142261904Y-108928571D01*
X142261904Y-108738095D01*
X142223809Y-108661904D01*
X142185714Y-108623809D01*
X142109523Y-108585714D01*
X142033333Y-108585714D01*
X141957142Y-108623809D01*
X141919047Y-108661904D01*
X141880952Y-108738095D01*
X141842857Y-108890476D01*
X141804761Y-108966666D01*
X141766666Y-109004761D01*
X141690476Y-109042857D01*
X141614285Y-109042857D01*
X141538095Y-109004761D01*
X141500000Y-108966666D01*
X141461904Y-108890476D01*
X141461904Y-108700000D01*
X141500000Y-108585714D01*
X141461904Y-108090476D02*
X141461904Y-107938095D01*
X141500000Y-107861904D01*
X141576190Y-107785714D01*
X141728571Y-107747619D01*
X141995238Y-107747619D01*
X142147619Y-107785714D01*
X142223809Y-107861904D01*
X142261904Y-107938095D01*
X142261904Y-108090476D01*
X142223809Y-108166666D01*
X142147619Y-108242857D01*
X141995238Y-108280952D01*
X141728571Y-108280952D01*
X141576190Y-108242857D01*
X141500000Y-108166666D01*
X141461904Y-108090476D01*
X141423809Y-106833333D02*
X142452380Y-107519047D01*
X142223809Y-106604761D02*
X142261904Y-106490476D01*
X142261904Y-106300000D01*
X142223809Y-106223809D01*
X142185714Y-106185714D01*
X142109523Y-106147619D01*
X142033333Y-106147619D01*
X141957142Y-106185714D01*
X141919047Y-106223809D01*
X141880952Y-106300000D01*
X141842857Y-106452380D01*
X141804761Y-106528571D01*
X141766666Y-106566666D01*
X141690476Y-106604761D01*
X141614285Y-106604761D01*
X141538095Y-106566666D01*
X141500000Y-106528571D01*
X141461904Y-106452380D01*
X141461904Y-106261904D01*
X141500000Y-106147619D01*
X142261904Y-105804761D02*
X141461904Y-105804761D01*
X141461904Y-105614285D01*
X141500000Y-105500000D01*
X141576190Y-105423809D01*
X141652380Y-105385714D01*
X141804761Y-105347619D01*
X141919047Y-105347619D01*
X142071428Y-105385714D01*
X142147619Y-105423809D01*
X142223809Y-105500000D01*
X142261904Y-105614285D01*
X142261904Y-105804761D01*
X142033333Y-105042857D02*
X142033333Y-104661904D01*
X142261904Y-105119047D02*
X141461904Y-104852380D01*
X142261904Y-104585714D01*
X130261904Y-110300000D02*
X129461904Y-110300000D01*
X130033333Y-110033333D01*
X129461904Y-109766666D01*
X130261904Y-109766666D01*
X130261904Y-109385714D02*
X129461904Y-109385714D01*
X130223809Y-109042857D02*
X130261904Y-108928571D01*
X130261904Y-108738095D01*
X130223809Y-108661904D01*
X130185714Y-108623809D01*
X130109523Y-108585714D01*
X130033333Y-108585714D01*
X129957142Y-108623809D01*
X129919047Y-108661904D01*
X129880952Y-108738095D01*
X129842857Y-108890476D01*
X129804761Y-108966666D01*
X129766666Y-109004761D01*
X129690476Y-109042857D01*
X129614285Y-109042857D01*
X129538095Y-109004761D01*
X129500000Y-108966666D01*
X129461904Y-108890476D01*
X129461904Y-108700000D01*
X129500000Y-108585714D01*
X129461904Y-108090476D02*
X129461904Y-107938095D01*
X129500000Y-107861904D01*
X129576190Y-107785714D01*
X129728571Y-107747619D01*
X129995238Y-107747619D01*
X130147619Y-107785714D01*
X130223809Y-107861904D01*
X130261904Y-107938095D01*
X130261904Y-108090476D01*
X130223809Y-108166666D01*
X130147619Y-108242857D01*
X129995238Y-108280952D01*
X129728571Y-108280952D01*
X129576190Y-108242857D01*
X129500000Y-108166666D01*
X129461904Y-108090476D01*
X129423809Y-106833333D02*
X130452380Y-107519047D01*
X130223809Y-106604761D02*
X130261904Y-106490476D01*
X130261904Y-106300000D01*
X130223809Y-106223809D01*
X130185714Y-106185714D01*
X130109523Y-106147619D01*
X130033333Y-106147619D01*
X129957142Y-106185714D01*
X129919047Y-106223809D01*
X129880952Y-106300000D01*
X129842857Y-106452380D01*
X129804761Y-106528571D01*
X129766666Y-106566666D01*
X129690476Y-106604761D01*
X129614285Y-106604761D01*
X129538095Y-106566666D01*
X129500000Y-106528571D01*
X129461904Y-106452380D01*
X129461904Y-106261904D01*
X129500000Y-106147619D01*
X130261904Y-105804761D02*
X129461904Y-105804761D01*
X129461904Y-105614285D01*
X129500000Y-105500000D01*
X129576190Y-105423809D01*
X129652380Y-105385714D01*
X129804761Y-105347619D01*
X129919047Y-105347619D01*
X130071428Y-105385714D01*
X130147619Y-105423809D01*
X130223809Y-105500000D01*
X130261904Y-105614285D01*
X130261904Y-105804761D01*
X130033333Y-105042857D02*
X130033333Y-104661904D01*
X130261904Y-105119047D02*
X129461904Y-104852380D01*
X130261904Y-104585714D01*
X111562380Y-84721904D02*
X112371904Y-84721904D01*
X112467142Y-84674285D01*
X112514761Y-84626666D01*
X112562380Y-84531428D01*
X112562380Y-84340952D01*
X112514761Y-84245714D01*
X112467142Y-84198095D01*
X112371904Y-84150476D01*
X111562380Y-84150476D01*
X112562380Y-83150476D02*
X112562380Y-83721904D01*
X112562380Y-83436190D02*
X111562380Y-83436190D01*
X111705238Y-83531428D01*
X111800476Y-83626666D01*
X111848095Y-83721904D01*
X123562380Y-84721904D02*
X124371904Y-84721904D01*
X124467142Y-84674285D01*
X124514761Y-84626666D01*
X124562380Y-84531428D01*
X124562380Y-84340952D01*
X124514761Y-84245714D01*
X124467142Y-84198095D01*
X124371904Y-84150476D01*
X123562380Y-84150476D01*
X124562380Y-83150476D02*
X124562380Y-83721904D01*
X124562380Y-83436190D02*
X123562380Y-83436190D01*
X123705238Y-83531428D01*
X123800476Y-83626666D01*
X123848095Y-83721904D01*
X135562380Y-84721904D02*
X136371904Y-84721904D01*
X136467142Y-84674285D01*
X136514761Y-84626666D01*
X136562380Y-84531428D01*
X136562380Y-84340952D01*
X136514761Y-84245714D01*
X136467142Y-84198095D01*
X136371904Y-84150476D01*
X135562380Y-84150476D01*
X136562380Y-83150476D02*
X136562380Y-83721904D01*
X136562380Y-83436190D02*
X135562380Y-83436190D01*
X135705238Y-83531428D01*
X135800476Y-83626666D01*
X135848095Y-83721904D01*
X147562380Y-84721904D02*
X148371904Y-84721904D01*
X148467142Y-84674285D01*
X148514761Y-84626666D01*
X148562380Y-84531428D01*
X148562380Y-84340952D01*
X148514761Y-84245714D01*
X148467142Y-84198095D01*
X148371904Y-84150476D01*
X147562380Y-84150476D01*
X148562380Y-83150476D02*
X148562380Y-83721904D01*
X148562380Y-83436190D02*
X147562380Y-83436190D01*
X147705238Y-83531428D01*
X147800476Y-83626666D01*
X147848095Y-83721904D01*
X159562380Y-84721904D02*
X160371904Y-84721904D01*
X160467142Y-84674285D01*
X160514761Y-84626666D01*
X160562380Y-84531428D01*
X160562380Y-84340952D01*
X160514761Y-84245714D01*
X160467142Y-84198095D01*
X160371904Y-84150476D01*
X159562380Y-84150476D01*
X160562380Y-83150476D02*
X160562380Y-83721904D01*
X160562380Y-83436190D02*
X159562380Y-83436190D01*
X159705238Y-83531428D01*
X159800476Y-83626666D01*
X159848095Y-83721904D01*
X171562380Y-84721904D02*
X172371904Y-84721904D01*
X172467142Y-84674285D01*
X172514761Y-84626666D01*
X172562380Y-84531428D01*
X172562380Y-84340952D01*
X172514761Y-84245714D01*
X172467142Y-84198095D01*
X172371904Y-84150476D01*
X171562380Y-84150476D01*
X172562380Y-83150476D02*
X172562380Y-83721904D01*
X172562380Y-83436190D02*
X171562380Y-83436190D01*
X171705238Y-83531428D01*
X171800476Y-83626666D01*
X171848095Y-83721904D01*
X177352380Y-98461904D02*
X178161904Y-98461904D01*
X178257142Y-98414285D01*
X178304761Y-98366666D01*
X178352380Y-98271428D01*
X178352380Y-98080952D01*
X178304761Y-97985714D01*
X178257142Y-97938095D01*
X178161904Y-97890476D01*
X177352380Y-97890476D01*
X178352380Y-96890476D02*
X178352380Y-97461904D01*
X178352380Y-97176190D02*
X177352380Y-97176190D01*
X177495238Y-97271428D01*
X177590476Y-97366666D01*
X177638095Y-97461904D01*
X165352380Y-98461904D02*
X166161904Y-98461904D01*
X166257142Y-98414285D01*
X166304761Y-98366666D01*
X166352380Y-98271428D01*
X166352380Y-98080952D01*
X166304761Y-97985714D01*
X166257142Y-97938095D01*
X166161904Y-97890476D01*
X165352380Y-97890476D01*
X166352380Y-96890476D02*
X166352380Y-97461904D01*
X166352380Y-97176190D02*
X165352380Y-97176190D01*
X165495238Y-97271428D01*
X165590476Y-97366666D01*
X165638095Y-97461904D01*
X153352380Y-98461904D02*
X154161904Y-98461904D01*
X154257142Y-98414285D01*
X154304761Y-98366666D01*
X154352380Y-98271428D01*
X154352380Y-98080952D01*
X154304761Y-97985714D01*
X154257142Y-97938095D01*
X154161904Y-97890476D01*
X153352380Y-97890476D01*
X154352380Y-96890476D02*
X154352380Y-97461904D01*
X154352380Y-97176190D02*
X153352380Y-97176190D01*
X153495238Y-97271428D01*
X153590476Y-97366666D01*
X153638095Y-97461904D01*
X141352380Y-98461904D02*
X142161904Y-98461904D01*
X142257142Y-98414285D01*
X142304761Y-98366666D01*
X142352380Y-98271428D01*
X142352380Y-98080952D01*
X142304761Y-97985714D01*
X142257142Y-97938095D01*
X142161904Y-97890476D01*
X141352380Y-97890476D01*
X142352380Y-96890476D02*
X142352380Y-97461904D01*
X142352380Y-97176190D02*
X141352380Y-97176190D01*
X141495238Y-97271428D01*
X141590476Y-97366666D01*
X141638095Y-97461904D01*
X129352380Y-98461904D02*
X130161904Y-98461904D01*
X130257142Y-98414285D01*
X130304761Y-98366666D01*
X130352380Y-98271428D01*
X130352380Y-98080952D01*
X130304761Y-97985714D01*
X130257142Y-97938095D01*
X130161904Y-97890476D01*
X129352380Y-97890476D01*
X130352380Y-96890476D02*
X130352380Y-97461904D01*
X130352380Y-97176190D02*
X129352380Y-97176190D01*
X129495238Y-97271428D01*
X129590476Y-97366666D01*
X129638095Y-97461904D01*
X166928571Y-123428571D02*
X166595238Y-123428571D01*
X166595238Y-123952380D02*
X166595238Y-122952380D01*
X167071428Y-122952380D01*
X167452380Y-123952380D02*
X167452380Y-122952380D01*
X167928571Y-123952380D02*
X167928571Y-122952380D01*
X168166666Y-122952380D01*
X168309523Y-123000000D01*
X168404761Y-123095238D01*
X168452380Y-123190476D01*
X168500000Y-123380952D01*
X168500000Y-123523809D01*
X168452380Y-123714285D01*
X168404761Y-123809523D01*
X168309523Y-123904761D01*
X168166666Y-123952380D01*
X167928571Y-123952380D01*
X169357142Y-123285714D02*
X169357142Y-123952380D01*
X169119047Y-122904761D02*
X168880952Y-123619047D01*
X169500000Y-123619047D01*
X120928571Y-123428571D02*
X120595238Y-123428571D01*
X120595238Y-123952380D02*
X120595238Y-122952380D01*
X121071428Y-122952380D01*
X121452380Y-123952380D02*
X121452380Y-122952380D01*
X121928571Y-123952380D02*
X121928571Y-122952380D01*
X122166666Y-122952380D01*
X122309523Y-123000000D01*
X122404761Y-123095238D01*
X122452380Y-123190476D01*
X122500000Y-123380952D01*
X122500000Y-123523809D01*
X122452380Y-123714285D01*
X122404761Y-123809523D01*
X122309523Y-123904761D01*
X122166666Y-123952380D01*
X121928571Y-123952380D01*
X122833333Y-122952380D02*
X123452380Y-122952380D01*
X123119047Y-123333333D01*
X123261904Y-123333333D01*
X123357142Y-123380952D01*
X123404761Y-123428571D01*
X123452380Y-123523809D01*
X123452380Y-123761904D01*
X123404761Y-123857142D01*
X123357142Y-123904761D01*
X123261904Y-123952380D01*
X122976190Y-123952380D01*
X122880952Y-123904761D01*
X122833333Y-123857142D01*
X166928571Y-60428571D02*
X166595238Y-60428571D01*
X166595238Y-60952380D02*
X166595238Y-59952380D01*
X167071428Y-59952380D01*
X167452380Y-60952380D02*
X167452380Y-59952380D01*
X167928571Y-60952380D02*
X167928571Y-59952380D01*
X168166666Y-59952380D01*
X168309523Y-60000000D01*
X168404761Y-60095238D01*
X168452380Y-60190476D01*
X168500000Y-60380952D01*
X168500000Y-60523809D01*
X168452380Y-60714285D01*
X168404761Y-60809523D01*
X168309523Y-60904761D01*
X168166666Y-60952380D01*
X167928571Y-60952380D01*
X169452380Y-60952380D02*
X168880952Y-60952380D01*
X169166666Y-60952380D02*
X169166666Y-59952380D01*
X169071428Y-60095238D01*
X168976190Y-60190476D01*
X168880952Y-60238095D01*
X120928571Y-60428571D02*
X120595238Y-60428571D01*
X120595238Y-60952380D02*
X120595238Y-59952380D01*
X121071428Y-59952380D01*
X121452380Y-60952380D02*
X121452380Y-59952380D01*
X121928571Y-60952380D02*
X121928571Y-59952380D01*
X122166666Y-59952380D01*
X122309523Y-60000000D01*
X122404761Y-60095238D01*
X122452380Y-60190476D01*
X122500000Y-60380952D01*
X122500000Y-60523809D01*
X122452380Y-60714285D01*
X122404761Y-60809523D01*
X122309523Y-60904761D01*
X122166666Y-60952380D01*
X121928571Y-60952380D01*
X122880952Y-60047619D02*
X122928571Y-60000000D01*
X123023809Y-59952380D01*
X123261904Y-59952380D01*
X123357142Y-60000000D01*
X123404761Y-60047619D01*
X123452380Y-60142857D01*
X123452380Y-60238095D01*
X123404761Y-60380952D01*
X122833333Y-60952380D01*
X123452380Y-60952380D01*
X118261904Y-110300000D02*
X117461904Y-110300000D01*
X118033333Y-110033333D01*
X117461904Y-109766666D01*
X118261904Y-109766666D01*
X118261904Y-109385714D02*
X117461904Y-109385714D01*
X118223809Y-109042857D02*
X118261904Y-108928571D01*
X118261904Y-108738095D01*
X118223809Y-108661904D01*
X118185714Y-108623809D01*
X118109523Y-108585714D01*
X118033333Y-108585714D01*
X117957142Y-108623809D01*
X117919047Y-108661904D01*
X117880952Y-108738095D01*
X117842857Y-108890476D01*
X117804761Y-108966666D01*
X117766666Y-109004761D01*
X117690476Y-109042857D01*
X117614285Y-109042857D01*
X117538095Y-109004761D01*
X117500000Y-108966666D01*
X117461904Y-108890476D01*
X117461904Y-108700000D01*
X117500000Y-108585714D01*
X117461904Y-108090476D02*
X117461904Y-107938095D01*
X117500000Y-107861904D01*
X117576190Y-107785714D01*
X117728571Y-107747619D01*
X117995238Y-107747619D01*
X118147619Y-107785714D01*
X118223809Y-107861904D01*
X118261904Y-107938095D01*
X118261904Y-108090476D01*
X118223809Y-108166666D01*
X118147619Y-108242857D01*
X117995238Y-108280952D01*
X117728571Y-108280952D01*
X117576190Y-108242857D01*
X117500000Y-108166666D01*
X117461904Y-108090476D01*
X117423809Y-106833333D02*
X118452380Y-107519047D01*
X118223809Y-106604761D02*
X118261904Y-106490476D01*
X118261904Y-106300000D01*
X118223809Y-106223809D01*
X118185714Y-106185714D01*
X118109523Y-106147619D01*
X118033333Y-106147619D01*
X117957142Y-106185714D01*
X117919047Y-106223809D01*
X117880952Y-106300000D01*
X117842857Y-106452380D01*
X117804761Y-106528571D01*
X117766666Y-106566666D01*
X117690476Y-106604761D01*
X117614285Y-106604761D01*
X117538095Y-106566666D01*
X117500000Y-106528571D01*
X117461904Y-106452380D01*
X117461904Y-106261904D01*
X117500000Y-106147619D01*
X118261904Y-105804761D02*
X117461904Y-105804761D01*
X117461904Y-105614285D01*
X117500000Y-105500000D01*
X117576190Y-105423809D01*
X117652380Y-105385714D01*
X117804761Y-105347619D01*
X117919047Y-105347619D01*
X118071428Y-105385714D01*
X118147619Y-105423809D01*
X118223809Y-105500000D01*
X118261904Y-105614285D01*
X118261904Y-105804761D01*
X118033333Y-105042857D02*
X118033333Y-104661904D01*
X118261904Y-105119047D02*
X117461904Y-104852380D01*
X118261904Y-104585714D01*
X117352380Y-98461904D02*
X118161904Y-98461904D01*
X118257142Y-98414285D01*
X118304761Y-98366666D01*
X118352380Y-98271428D01*
X118352380Y-98080952D01*
X118304761Y-97985714D01*
X118257142Y-97938095D01*
X118161904Y-97890476D01*
X117352380Y-97890476D01*
X118352380Y-96890476D02*
X118352380Y-97461904D01*
X118352380Y-97176190D02*
X117352380Y-97176190D01*
X117495238Y-97271428D01*
X117590476Y-97366666D01*
X117638095Y-97461904D01*
X117333333Y-103657142D02*
X117285714Y-103704761D01*
X117142857Y-103752380D01*
X117047619Y-103752380D01*
X116904761Y-103704761D01*
X116809523Y-103609523D01*
X116761904Y-103514285D01*
X116714285Y-103323809D01*
X116714285Y-103180952D01*
X116761904Y-102990476D01*
X116809523Y-102895238D01*
X116904761Y-102800000D01*
X117047619Y-102752380D01*
X117142857Y-102752380D01*
X117285714Y-102800000D01*
X117333333Y-102847619D01*
X118285714Y-103752380D02*
X117714285Y-103752380D01*
X118000000Y-103752380D02*
X118000000Y-102752380D01*
X117904761Y-102895238D01*
X117809523Y-102990476D01*
X117714285Y-103038095D01*
X113157142Y-105966666D02*
X113204761Y-106014285D01*
X113252380Y-106157142D01*
X113252380Y-106252380D01*
X113204761Y-106395238D01*
X113109523Y-106490476D01*
X113014285Y-106538095D01*
X112823809Y-106585714D01*
X112680952Y-106585714D01*
X112490476Y-106538095D01*
X112395238Y-106490476D01*
X112300000Y-106395238D01*
X112252380Y-106252380D01*
X112252380Y-106157142D01*
X112300000Y-106014285D01*
X112347619Y-105966666D01*
X112347619Y-105585714D02*
X112300000Y-105538095D01*
X112252380Y-105442857D01*
X112252380Y-105204761D01*
X112300000Y-105109523D01*
X112347619Y-105061904D01*
X112442857Y-105014285D01*
X112538095Y-105014285D01*
X112680952Y-105061904D01*
X113252380Y-105633333D01*
X113252380Y-105014285D01*
M02*
