M48
;DRILL file {KiCad 5.0.2-bee76a0~70~ubuntu18.04.1} date Thu 12 Mar 2020 01:59:15 PM CET
;FORMAT={-:-/ absolute / inch / decimal}
FMAT,2
INCH,TZ
T1C0.0157
T2C0.0315
T3C0.0866
%
G90
G05
T1
X4.4291Y-4.3787
X4.4381Y-4.5008
X4.4656Y-4.5283
X4.4685Y-2.6575
X4.4724Y-2.815
X4.5011Y-4.3787
X4.5039Y-3.0236
X4.5444Y-4.4142
X4.5444Y-4.111
X4.5472Y-3.1378
X4.5472Y-2.8346
X4.5877Y-4.2252
X4.5906Y-2.8701
X4.6192Y-4.4339
X4.6231Y-4.5913
X4.626Y-2.7205
X4.6535Y-2.748
X4.6625Y-2.8701
X4.9015Y-4.3787
X4.9105Y-4.5008
X4.9381Y-4.5283
X4.9409Y-2.6575
X4.9449Y-2.815
X4.9735Y-4.3787
X4.9764Y-3.0236
X5.0168Y-4.4142
X5.0168Y-4.111
X5.0197Y-3.1378
X5.0197Y-2.8346
X5.0601Y-4.2252
X5.063Y-2.8701
X5.0916Y-4.4339
X5.0956Y-4.5913
X5.0984Y-2.7205
X5.126Y-2.748
X5.135Y-2.8701
X5.374Y-4.3787
X5.383Y-4.5008
X5.4105Y-4.5283
X5.4134Y-2.6575
X5.4173Y-2.815
X5.446Y-4.3787
X5.4488Y-3.0236
X5.4893Y-4.4142
X5.4893Y-4.111
X5.4921Y-3.1378
X5.4921Y-2.8346
X5.5326Y-4.2252
X5.5354Y-2.8701
X5.5641Y-4.4339
X5.568Y-4.5913
X5.5709Y-2.7205
X5.5984Y-2.748
X5.6074Y-2.8701
X5.8464Y-4.3787
X5.8554Y-4.5008
X5.883Y-4.5283
X5.8858Y-2.6575
X5.8898Y-2.815
X5.9184Y-4.3787
X5.9213Y-3.0236
X5.9617Y-4.4142
X5.9617Y-4.111
X5.9646Y-3.1378
X5.9646Y-2.8346
X6.005Y-4.2252
X6.0079Y-2.8701
X6.0365Y-4.4339
X6.0404Y-4.5913
X6.0433Y-2.7205
X6.0709Y-2.748
X6.0799Y-2.8701
X6.3188Y-4.3787
X6.3278Y-4.5008
X6.3554Y-4.5283
X6.3583Y-2.6575
X6.3622Y-2.815
X6.3908Y-4.3787
X6.3937Y-3.0236
X6.4341Y-4.4142
X6.4341Y-4.111
X6.437Y-3.1378
X6.437Y-2.8346
X6.4775Y-4.2252
X6.4803Y-2.8701
X6.509Y-4.4339
X6.5129Y-4.5913
X6.5157Y-2.7205
X6.5433Y-2.748
X6.5523Y-2.8701
X6.7913Y-4.3787
X6.8003Y-4.5008
X6.8278Y-4.5283
X6.8307Y-2.6575
X6.8346Y-2.815
X6.8633Y-4.3787
X6.8661Y-3.0236
X6.9066Y-4.4142
X6.9066Y-4.111
X6.9094Y-3.1378
X6.9094Y-2.8346
X6.9499Y-4.2252
X6.9528Y-2.8701
X6.9814Y-4.4339
X6.9853Y-4.5913
X6.9882Y-2.7205
X7.0157Y-2.748
X7.0247Y-2.8701
T2
X4.5472Y-3.3858
X5.3893Y-3.863
X4.9168Y-3.863
X6.0646Y-3.4858
X6.9066Y-3.763
X4.5472Y-3.4858
X5.0197Y-3.4858
X5.5893Y-3.763
X5.5921Y-3.3858
X6.0617Y-3.763
X5.0168Y-3.863
X4.5444Y-3.863
X5.4893Y-3.863
X6.9094Y-3.4858
X5.9617Y-3.863
X5.9617Y-3.763
X5.5921Y-3.4858
X6.4341Y-3.863
X6.9066Y-3.863
X6.9094Y-3.3858
X6.437Y-3.3858
X6.0646Y-3.3858
X6.8066Y-3.863
X6.8066Y-3.763
X5.9646Y-3.3858
X5.9646Y-3.4858
X5.4921Y-3.3858
X6.4341Y-3.763
X6.5341Y-3.763
X4.6444Y-3.763
X4.4444Y-3.763
X4.4472Y-3.4858
X7.0094Y-3.3858
X5.1197Y-3.4858
X4.9197Y-3.4858
X5.1168Y-3.763
X6.3341Y-3.863
X7.0094Y-3.4858
X4.6472Y-3.4858
X4.9168Y-3.763
X4.6472Y-3.3858
X5.0168Y-3.763
X4.5444Y-3.763
X5.0197Y-3.3858
X6.337Y-3.4858
X4.6444Y-3.863
X5.4893Y-3.763
X5.1168Y-3.863
X5.3921Y-3.4858
X7.0066Y-3.763
X5.5893Y-3.863
X6.0617Y-3.863
X5.3893Y-3.763
X6.5341Y-3.863
X7.0066Y-3.863
X6.8094Y-3.3858
X4.4444Y-3.863
X6.337Y-3.3858
X5.8617Y-3.863
X6.537Y-3.3858
X5.8617Y-3.763
X5.1197Y-3.3858
X5.4921Y-3.4858
X6.437Y-3.4858
X6.537Y-3.4858
X6.3341Y-3.763
X5.8646Y-3.3858
X5.3921Y-3.3858
X5.8646Y-3.4858
X4.9197Y-3.3858
X4.4472Y-3.3858
X6.8094Y-3.4858
T3
X5.4893Y-4.0008
X5.9617Y-4.0008
X6.9094Y-3.248
X5.9646Y-3.248
X6.9066Y-4.0008
X4.5472Y-3.248
X6.4341Y-4.0008
X6.437Y-3.248
X4.5444Y-4.0008
X5.0168Y-4.0008
X5.0197Y-3.248
X5.4921Y-3.248
T0
M30
