G04 #@! TF.GenerationSoftware,KiCad,Pcbnew,5.0.2-bee76a0~70~ubuntu18.04.1*
G04 #@! TF.CreationDate,2020-03-16T11:34:46+01:00*
G04 #@! TF.ProjectId,output.A1335_long_I2C_panel,6f757470-7574-42e4-9131-3333355f6c6f,rev?*
G04 #@! TF.SameCoordinates,Original*
G04 #@! TF.FileFunction,Profile,NP*
%FSLAX46Y46*%
G04 Gerber Fmt 4.6, Leading zero omitted, Abs format (unit mm)*
G04 Created by KiCad (PCBNEW 5.0.2-bee76a0~70~ubuntu18.04.1) date Mon 16 Mar 2020 11:34:46 AM CET*
%MOMM*%
%LPD*%
G01*
G04 APERTURE LIST*
%ADD10C,0.200000*%
%ADD11C,0.150000*%
%ADD12C,0.100000*%
G04 APERTURE END LIST*
D10*
X167000000Y-66250000D02*
X167000000Y-71000000D01*
X143000000Y-66250000D02*
X143000000Y-71000000D01*
X131000000Y-66250000D02*
X131000000Y-71000000D01*
X116100000Y-73488571D02*
G75*
G03X116100000Y-73488571I-1100000J0D01*
G01*
X111000000Y-66250000D02*
X111000000Y-71000000D01*
X166999988Y-85990000D02*
G75*
G02X163731740Y-89932500I-3999988J-10000D01*
G01*
X135000000Y-66250000D02*
G75*
G02X135250000Y-66000000I250000J0D01*
G01*
X142999988Y-85990000D02*
G75*
G02X139731740Y-89932500I-3999988J-10000D01*
G01*
X154999988Y-85990000D02*
G75*
G02X151731740Y-89932500I-3999988J-10000D01*
G01*
X166750000Y-66000000D02*
G75*
G02X167000000Y-66250000I0J-250000D01*
G01*
X140100000Y-73488571D02*
G75*
G03X140100000Y-73488571I-1100000J0D01*
G01*
X178999988Y-85990000D02*
G75*
G02X175731740Y-89932500I-3999988J-10000D01*
G01*
X162268479Y-89932870D02*
G75*
G02X163731740Y-89932500I731521J432870D01*
G01*
X128100000Y-73488571D02*
G75*
G03X128100000Y-73488571I-1100000J0D01*
G01*
X152100000Y-73488571D02*
G75*
G03X152100000Y-73488571I-1100000J0D01*
G01*
X155000000Y-66250000D02*
X155000000Y-71000000D01*
X176100000Y-73488571D02*
G75*
G03X176100000Y-73488571I-1100000J0D01*
G01*
X114269493Y-89932729D02*
G75*
G02X111000000Y-86000000I730507J3932729D01*
G01*
X171000000Y-66250000D02*
G75*
G02X171250000Y-66000000I250000J0D01*
G01*
X126268479Y-89932870D02*
G75*
G02X127731740Y-89932500I731521J432870D01*
G01*
X128100000Y-73488571D02*
G75*
G03X128100000Y-73488571I-1100000J0D01*
G01*
X116100000Y-73488571D02*
G75*
G03X116100000Y-73488571I-1100000J0D01*
G01*
X164100000Y-73488571D02*
G75*
G03X164100000Y-73488571I-1100000J0D01*
G01*
X114268479Y-89932870D02*
G75*
G02X115731740Y-89932500I731521J432870D01*
G01*
X123000000Y-66250000D02*
X123000000Y-71000000D01*
X178750000Y-66000000D02*
G75*
G02X179000000Y-66250000I0J-250000D01*
G01*
X171000000Y-66250000D02*
X171000000Y-71000000D01*
X159000000Y-66250000D02*
X159000000Y-71000000D01*
X130750000Y-66000000D02*
G75*
G02X131000000Y-66250000I0J-250000D01*
G01*
X154750000Y-66000000D02*
G75*
G02X155000000Y-66250000I0J-250000D01*
G01*
X159000000Y-66250000D02*
G75*
G02X159250000Y-66000000I250000J0D01*
G01*
X118750000Y-66000000D02*
G75*
G02X119000000Y-66250000I0J-250000D01*
G01*
X140100000Y-73488571D02*
G75*
G03X140100000Y-73488571I-1100000J0D01*
G01*
X164100000Y-73488571D02*
G75*
G03X164100000Y-73488571I-1100000J0D01*
G01*
X150268479Y-89932870D02*
G75*
G02X151731740Y-89932500I731521J432870D01*
G01*
X152100000Y-73488571D02*
G75*
G03X152100000Y-73488571I-1100000J0D01*
G01*
X123000000Y-66250000D02*
G75*
G02X123250000Y-66000000I250000J0D01*
G01*
X138268479Y-89932870D02*
G75*
G02X139731740Y-89932500I731521J432870D01*
G01*
X174268479Y-89932870D02*
G75*
G02X175731740Y-89932500I731521J432870D01*
G01*
X119000000Y-66250000D02*
X119000000Y-71000000D01*
X150269493Y-89932729D02*
G75*
G02X147000000Y-86000000I730507J3932729D01*
G01*
X111000000Y-66250000D02*
G75*
G02X111250000Y-66000000I250000J0D01*
G01*
X179000000Y-66250000D02*
X179000000Y-71000000D01*
X126269493Y-89932729D02*
G75*
G02X123000000Y-86000000I730507J3932729D01*
G01*
X174269493Y-89932729D02*
G75*
G02X171000000Y-86000000I730507J3932729D01*
G01*
X176100000Y-73488571D02*
G75*
G03X176100000Y-73488571I-1100000J0D01*
G01*
X138269493Y-89932729D02*
G75*
G02X135000000Y-86000000I730507J3932729D01*
G01*
X147000000Y-66250000D02*
G75*
G02X147250000Y-66000000I250000J0D01*
G01*
X135000000Y-66250000D02*
X135000000Y-71000000D01*
X130999988Y-85990000D02*
G75*
G02X127731740Y-89932500I-3999988J-10000D01*
G01*
X142750000Y-66000000D02*
G75*
G02X143000000Y-66250000I0J-250000D01*
G01*
X118999988Y-85990000D02*
G75*
G02X115731740Y-89932500I-3999988J-10000D01*
G01*
X162269493Y-89932729D02*
G75*
G02X159000000Y-86000000I730507J3932729D01*
G01*
X147000000Y-66250000D02*
X147000000Y-71000000D01*
X171000012Y-98010000D02*
G75*
G02X174268260Y-94067500I3999988J10000D01*
G01*
X159000012Y-98010000D02*
G75*
G02X162268260Y-94067500I3999988J10000D01*
G01*
X147000012Y-98010000D02*
G75*
G02X150268260Y-94067500I3999988J10000D01*
G01*
X135000012Y-98010000D02*
G75*
G02X138268260Y-94067500I3999988J10000D01*
G01*
X123000012Y-98010000D02*
G75*
G02X126268260Y-94067500I3999988J10000D01*
G01*
X176100000Y-110511429D02*
G75*
G03X176100000Y-110511429I-1100000J0D01*
G01*
X164100000Y-110511429D02*
G75*
G03X164100000Y-110511429I-1100000J0D01*
G01*
X152100000Y-110511429D02*
G75*
G03X152100000Y-110511429I-1100000J0D01*
G01*
X140100000Y-110511429D02*
G75*
G03X140100000Y-110511429I-1100000J0D01*
G01*
X128100000Y-110511429D02*
G75*
G03X128100000Y-110511429I-1100000J0D01*
G01*
X179000000Y-117750000D02*
G75*
G02X178750000Y-118000000I-250000J0D01*
G01*
X167000000Y-117750000D02*
G75*
G02X166750000Y-118000000I-250000J0D01*
G01*
X155000000Y-117750000D02*
G75*
G02X154750000Y-118000000I-250000J0D01*
G01*
X143000000Y-117750000D02*
G75*
G02X142750000Y-118000000I-250000J0D01*
G01*
X131000000Y-117750000D02*
G75*
G02X130750000Y-118000000I-250000J0D01*
G01*
X171250000Y-118000000D02*
G75*
G02X171000000Y-117750000I0J250000D01*
G01*
X159250000Y-118000000D02*
G75*
G02X159000000Y-117750000I0J250000D01*
G01*
X147250000Y-118000000D02*
G75*
G02X147000000Y-117750000I0J250000D01*
G01*
X135250000Y-118000000D02*
G75*
G02X135000000Y-117750000I0J250000D01*
G01*
X123250000Y-118000000D02*
G75*
G02X123000000Y-117750000I0J250000D01*
G01*
X179000000Y-117750000D02*
X179000000Y-113000000D01*
X167000000Y-117750000D02*
X167000000Y-113000000D01*
X155000000Y-117750000D02*
X155000000Y-113000000D01*
X143000000Y-117750000D02*
X143000000Y-113000000D01*
X131000000Y-117750000D02*
X131000000Y-113000000D01*
X175731521Y-94067130D02*
G75*
G02X174268260Y-94067500I-731521J-432870D01*
G01*
X163731521Y-94067130D02*
G75*
G02X162268260Y-94067500I-731521J-432870D01*
G01*
X151731521Y-94067130D02*
G75*
G02X150268260Y-94067500I-731521J-432870D01*
G01*
X139731521Y-94067130D02*
G75*
G02X138268260Y-94067500I-731521J-432870D01*
G01*
X127731521Y-94067130D02*
G75*
G02X126268260Y-94067500I-731521J-432870D01*
G01*
X171000000Y-117750000D02*
X171000000Y-113000000D01*
X159000000Y-117750000D02*
X159000000Y-113000000D01*
X147000000Y-117750000D02*
X147000000Y-113000000D01*
X135000000Y-117750000D02*
X135000000Y-113000000D01*
X123000000Y-117750000D02*
X123000000Y-113000000D01*
X175730507Y-94067271D02*
G75*
G02X179000000Y-98000000I-730507J-3932729D01*
G01*
X163730507Y-94067271D02*
G75*
G02X167000000Y-98000000I-730507J-3932729D01*
G01*
X151730507Y-94067271D02*
G75*
G02X155000000Y-98000000I-730507J-3932729D01*
G01*
X139730507Y-94067271D02*
G75*
G02X143000000Y-98000000I-730507J-3932729D01*
G01*
X127730507Y-94067271D02*
G75*
G02X131000000Y-98000000I-730507J-3932729D01*
G01*
X176100000Y-110511429D02*
G75*
G03X176100000Y-110511429I-1100000J0D01*
G01*
X164100000Y-110511429D02*
G75*
G03X164100000Y-110511429I-1100000J0D01*
G01*
X152100000Y-110511429D02*
G75*
G03X152100000Y-110511429I-1100000J0D01*
G01*
X140100000Y-110511429D02*
G75*
G03X140100000Y-110511429I-1100000J0D01*
G01*
X128100000Y-110511429D02*
G75*
G03X128100000Y-110511429I-1100000J0D01*
G01*
D11*
X104000000Y-125000000D02*
X104000000Y-59000000D01*
X186000000Y-125000000D02*
X104000000Y-125000000D01*
X186000000Y-59000000D02*
X186000000Y-125000000D01*
X104000000Y-59000000D02*
X186000000Y-59000000D01*
D10*
X119000000Y-117750000D02*
X119000000Y-113000000D01*
X111000000Y-117750000D02*
X111000000Y-113000000D01*
X111000012Y-98010000D02*
G75*
G02X114268260Y-94067500I3999988J10000D01*
G01*
X111250000Y-118000000D02*
G75*
G02X111000000Y-117750000I0J250000D01*
G01*
X119000000Y-117750000D02*
G75*
G02X118750000Y-118000000I-250000J0D01*
G01*
X116100000Y-110511429D02*
G75*
G03X116100000Y-110511429I-1100000J0D01*
G01*
X116100000Y-110511429D02*
G75*
G03X116100000Y-110511429I-1100000J0D01*
G01*
X115730507Y-94067271D02*
G75*
G02X119000000Y-98000000I-730507J-3932729D01*
G01*
X115731521Y-94067130D02*
G75*
G02X114268260Y-94067500I-731521J-432870D01*
G01*
D12*
X129000002Y-66000000D02*
X130750000Y-66000000D01*
X124999998Y-66000000D02*
X123250000Y-66000000D01*
X125000000Y-62000000D02*
X125098000Y-62019900D01*
X124999998Y-66000000D02*
X125097998Y-65980100D01*
X125098000Y-62019900D02*
X125190080Y-62058904D01*
X125097998Y-65980100D02*
X125190078Y-65941096D01*
X125190080Y-62058904D02*
X125272557Y-62115452D01*
X125190078Y-65941096D02*
X125272555Y-65884548D01*
X125272557Y-62115452D02*
X125342132Y-62187282D01*
X125272555Y-65884548D02*
X125342130Y-65812718D01*
X125342132Y-62187282D02*
X125396022Y-62271521D01*
X125342130Y-65812718D02*
X125396020Y-65728479D01*
X125396022Y-62271521D02*
X125432071Y-62364799D01*
X125396020Y-65728479D02*
X125432069Y-65635201D01*
X125432071Y-62364799D02*
X125448837Y-62463385D01*
X125432069Y-65635201D02*
X125448835Y-65536615D01*
X125448837Y-62463385D02*
X125448835Y-65536615D01*
X128999984Y-62000000D02*
X128901984Y-62019900D01*
X129000002Y-66000000D02*
X128902002Y-65980100D01*
X128901984Y-62019900D02*
X128809904Y-62058904D01*
X128902002Y-65980100D02*
X128809922Y-65941096D01*
X128809904Y-62058904D02*
X128727427Y-62115452D01*
X128809922Y-65941096D02*
X128727445Y-65884548D01*
X128727427Y-62115452D02*
X128657852Y-62187282D01*
X128727445Y-65884548D02*
X128657870Y-65812718D01*
X128657852Y-62187282D02*
X128603962Y-62271521D01*
X128657870Y-65812718D02*
X128603980Y-65728479D01*
X128603962Y-62271521D02*
X128567913Y-62364799D01*
X128603980Y-65728479D02*
X128567931Y-65635201D01*
X128567913Y-62364799D02*
X128551147Y-62463385D01*
X128567931Y-65635201D02*
X128551165Y-65536615D01*
X128551147Y-62463385D02*
X128551165Y-65536615D01*
X117000002Y-66000000D02*
X118750000Y-66000000D01*
X112999998Y-66000000D02*
X111250000Y-66000000D01*
X117000000Y-62000000D02*
X125000000Y-62000000D01*
X113000000Y-62000000D02*
X107000000Y-62000000D01*
X117000000Y-62000000D02*
X116902000Y-62019900D01*
X117000002Y-66000000D02*
X116902002Y-65980100D01*
X116902000Y-62019900D02*
X116809920Y-62058904D01*
X116902002Y-65980100D02*
X116809922Y-65941096D01*
X116809920Y-62058904D02*
X116727443Y-62115452D01*
X116809922Y-65941096D02*
X116727445Y-65884548D01*
X116727443Y-62115452D02*
X116657868Y-62187282D01*
X116727445Y-65884548D02*
X116657870Y-65812718D01*
X116657868Y-62187282D02*
X116603978Y-62271521D01*
X116657870Y-65812718D02*
X116603980Y-65728479D01*
X116603978Y-62271521D02*
X116567929Y-62364799D01*
X116603980Y-65728479D02*
X116567931Y-65635201D01*
X116567929Y-62364799D02*
X116551163Y-62463385D01*
X116567931Y-65635201D02*
X116551165Y-65536615D01*
X116551165Y-65536615D02*
X116551163Y-62463385D01*
X113000000Y-62000000D02*
X113098000Y-62019900D01*
X112999998Y-66000000D02*
X113097998Y-65980100D01*
X113098000Y-62019900D02*
X113190080Y-62058904D01*
X113097998Y-65980100D02*
X113190078Y-65941096D01*
X113190080Y-62058904D02*
X113272557Y-62115452D01*
X113190078Y-65941096D02*
X113272555Y-65884548D01*
X113272557Y-62115452D02*
X113342132Y-62187282D01*
X113272555Y-65884548D02*
X113342130Y-65812718D01*
X113342132Y-62187282D02*
X113396022Y-62271521D01*
X113342130Y-65812718D02*
X113396020Y-65728479D01*
X113396022Y-62271521D02*
X113432071Y-62364799D01*
X113396020Y-65728479D02*
X113432069Y-65635201D01*
X113432071Y-62364799D02*
X113448837Y-62463385D01*
X113432069Y-65635201D02*
X113448835Y-65536615D01*
X113448835Y-65536615D02*
X113448837Y-62463385D01*
X141000002Y-66000000D02*
X142750000Y-66000000D01*
X136999998Y-66000000D02*
X135250000Y-66000000D01*
X136999996Y-62000000D02*
X128999984Y-62000000D01*
X140999976Y-62000000D02*
X140901976Y-62019900D01*
X141000002Y-66000000D02*
X140902002Y-65980100D01*
X140901976Y-62019900D02*
X140809896Y-62058904D01*
X140902002Y-65980100D02*
X140809922Y-65941096D01*
X140809896Y-62058904D02*
X140727419Y-62115452D01*
X140809922Y-65941096D02*
X140727445Y-65884548D01*
X140727419Y-62115452D02*
X140657844Y-62187282D01*
X140727445Y-65884548D02*
X140657870Y-65812718D01*
X140657844Y-62187282D02*
X140603954Y-62271521D01*
X140657870Y-65812718D02*
X140603980Y-65728479D01*
X140603954Y-62271521D02*
X140567905Y-62364799D01*
X140603980Y-65728479D02*
X140567931Y-65635201D01*
X140567905Y-62364799D02*
X140551139Y-62463385D01*
X140567931Y-65635201D02*
X140551165Y-65536615D01*
X140551165Y-65536615D02*
X140551139Y-62463385D01*
X136999998Y-66000000D02*
X137097998Y-65980100D01*
X136999996Y-62000000D02*
X137097996Y-62019900D01*
X137097998Y-65980100D02*
X137190078Y-65941096D01*
X137097996Y-62019900D02*
X137190076Y-62058904D01*
X137190078Y-65941096D02*
X137272555Y-65884548D01*
X137190076Y-62058904D02*
X137272553Y-62115452D01*
X137272555Y-65884548D02*
X137342130Y-65812718D01*
X137272553Y-62115452D02*
X137342128Y-62187282D01*
X137342130Y-65812718D02*
X137396020Y-65728479D01*
X137342128Y-62187282D02*
X137396018Y-62271521D01*
X137396020Y-65728479D02*
X137432069Y-65635201D01*
X137396018Y-62271521D02*
X137432067Y-62364799D01*
X137432069Y-65635201D02*
X137448835Y-65536615D01*
X137432067Y-62364799D02*
X137448833Y-62463385D01*
X137448835Y-65536615D02*
X137448833Y-62463385D01*
X148999996Y-62000000D02*
X140999976Y-62000000D01*
X153000002Y-66000000D02*
X154750000Y-66000000D01*
X148999998Y-66000000D02*
X147250000Y-66000000D01*
X148999998Y-66000000D02*
X149097998Y-65980100D01*
X148999996Y-62000000D02*
X149097996Y-62019900D01*
X149097998Y-65980100D02*
X149190078Y-65941096D01*
X149097996Y-62019900D02*
X149190076Y-62058904D01*
X149190078Y-65941096D02*
X149272555Y-65884548D01*
X149190076Y-62058904D02*
X149272553Y-62115452D01*
X149272555Y-65884548D02*
X149342130Y-65812718D01*
X149272553Y-62115452D02*
X149342128Y-62187282D01*
X149342130Y-65812718D02*
X149396020Y-65728479D01*
X149342128Y-62187282D02*
X149396018Y-62271521D01*
X149396020Y-65728479D02*
X149432069Y-65635201D01*
X149396018Y-62271521D02*
X149432067Y-62364799D01*
X149432069Y-65635201D02*
X149448835Y-65536615D01*
X149432067Y-62364799D02*
X149448833Y-62463385D01*
X149448833Y-62463385D02*
X149448835Y-65536615D01*
X153000000Y-62000000D02*
X152902000Y-62019900D01*
X153000002Y-66000000D02*
X152902002Y-65980100D01*
X152902000Y-62019900D02*
X152809920Y-62058904D01*
X152902002Y-65980100D02*
X152809922Y-65941096D01*
X152809920Y-62058904D02*
X152727443Y-62115452D01*
X152809922Y-65941096D02*
X152727445Y-65884548D01*
X152727443Y-62115452D02*
X152657868Y-62187282D01*
X152727445Y-65884548D02*
X152657870Y-65812718D01*
X152657868Y-62187282D02*
X152603978Y-62271521D01*
X152657870Y-65812718D02*
X152603980Y-65728479D01*
X152603978Y-62271521D02*
X152567929Y-62364799D01*
X152603980Y-65728479D02*
X152567931Y-65635201D01*
X152567929Y-62364799D02*
X152551163Y-62463385D01*
X152567931Y-65635201D02*
X152551165Y-65536615D01*
X152551163Y-62463385D02*
X152551165Y-65536615D01*
X165000002Y-66000000D02*
X166750000Y-66000000D01*
X160999998Y-66000000D02*
X159250000Y-66000000D01*
X161000000Y-62000000D02*
X153000000Y-62000000D01*
X165000000Y-62000000D02*
X164902000Y-62019900D01*
X165000002Y-66000000D02*
X164902002Y-65980100D01*
X164902000Y-62019900D02*
X164809920Y-62058904D01*
X164902002Y-65980100D02*
X164809922Y-65941096D01*
X164809920Y-62058904D02*
X164727443Y-62115452D01*
X164809922Y-65941096D02*
X164727445Y-65884548D01*
X164727443Y-62115452D02*
X164657868Y-62187282D01*
X164727445Y-65884548D02*
X164657870Y-65812718D01*
X164657868Y-62187282D02*
X164603978Y-62271521D01*
X164657870Y-65812718D02*
X164603980Y-65728479D01*
X164603978Y-62271521D02*
X164567929Y-62364799D01*
X164603980Y-65728479D02*
X164567931Y-65635201D01*
X164567929Y-62364799D02*
X164551163Y-62463385D01*
X164567931Y-65635201D02*
X164551165Y-65536615D01*
X164551165Y-65536615D02*
X164551163Y-62463385D01*
X161000000Y-62000000D02*
X161098000Y-62019900D01*
X160999998Y-66000000D02*
X161097998Y-65980100D01*
X161098000Y-62019900D02*
X161190080Y-62058904D01*
X161097998Y-65980100D02*
X161190078Y-65941096D01*
X161190080Y-62058904D02*
X161272557Y-62115452D01*
X161190078Y-65941096D02*
X161272555Y-65884548D01*
X161272557Y-62115452D02*
X161342132Y-62187282D01*
X161272555Y-65884548D02*
X161342130Y-65812718D01*
X161342132Y-62187282D02*
X161396022Y-62271521D01*
X161342130Y-65812718D02*
X161396020Y-65728479D01*
X161396022Y-62271521D02*
X161432071Y-62364799D01*
X161396020Y-65728479D02*
X161432069Y-65635201D01*
X161432071Y-62364799D02*
X161448837Y-62463385D01*
X161432069Y-65635201D02*
X161448835Y-65536615D01*
X161448835Y-65536615D02*
X161448837Y-62463385D01*
X173000000Y-62000000D02*
X165000000Y-62000000D01*
X177000000Y-62000000D02*
X183000000Y-62000000D01*
X177000002Y-66000000D02*
X178750000Y-66000000D01*
X172999998Y-66000000D02*
X171250000Y-66000000D01*
X173000000Y-62000000D02*
X173098000Y-62019900D01*
X172999998Y-66000000D02*
X173097998Y-65980100D01*
X173098000Y-62019900D02*
X173190080Y-62058904D01*
X173097998Y-65980100D02*
X173190078Y-65941096D01*
X173190080Y-62058904D02*
X173272557Y-62115452D01*
X173190078Y-65941096D02*
X173272555Y-65884548D01*
X173272557Y-62115452D02*
X173342132Y-62187282D01*
X173272555Y-65884548D02*
X173342130Y-65812718D01*
X173342132Y-62187282D02*
X173396022Y-62271521D01*
X173342130Y-65812718D02*
X173396020Y-65728479D01*
X173396022Y-62271521D02*
X173432071Y-62364799D01*
X173396020Y-65728479D02*
X173432069Y-65635201D01*
X173432071Y-62364799D02*
X173448837Y-62463385D01*
X173432069Y-65635201D02*
X173448835Y-65536615D01*
X173448837Y-62463385D02*
X173448835Y-65536615D01*
X177000000Y-62000000D02*
X176902000Y-62019900D01*
X177000002Y-66000000D02*
X176902002Y-65980100D01*
X176902000Y-62019900D02*
X176809920Y-62058904D01*
X176902002Y-65980100D02*
X176809922Y-65941096D01*
X176809920Y-62058904D02*
X176727443Y-62115452D01*
X176809922Y-65941096D02*
X176727445Y-65884548D01*
X176727443Y-62115452D02*
X176657868Y-62187282D01*
X176727445Y-65884548D02*
X176657870Y-65812718D01*
X176657868Y-62187282D02*
X176603978Y-62271521D01*
X176657870Y-65812718D02*
X176603980Y-65728479D01*
X176603978Y-62271521D02*
X176567929Y-62364799D01*
X176603980Y-65728479D02*
X176567931Y-65635201D01*
X176567929Y-62364799D02*
X176551163Y-62463385D01*
X176567931Y-65635201D02*
X176551165Y-65536615D01*
X176551163Y-62463385D02*
X176551165Y-65536615D01*
X113000000Y-122000000D02*
X107000000Y-122000000D01*
X112999998Y-118000000D02*
X111250000Y-118000000D01*
X117000002Y-118000000D02*
X118750000Y-118000000D01*
X117000002Y-118000000D02*
X116902002Y-118019900D01*
X117000016Y-122000000D02*
X116902016Y-121980100D01*
X116902002Y-118019900D02*
X116809922Y-118058904D01*
X116902016Y-121980100D02*
X116809936Y-121941096D01*
X116809922Y-118058904D02*
X116727445Y-118115452D01*
X116809936Y-121941096D02*
X116727459Y-121884548D01*
X116727445Y-118115452D02*
X116657870Y-118187282D01*
X116727459Y-121884548D02*
X116657884Y-121812718D01*
X116657870Y-118187282D02*
X116603980Y-118271521D01*
X116657884Y-121812718D02*
X116603994Y-121728479D01*
X116603980Y-118271521D02*
X116567931Y-118364799D01*
X116603994Y-121728479D02*
X116567945Y-121635201D01*
X116567931Y-118364799D02*
X116551165Y-118463385D01*
X116567945Y-121635201D02*
X116551179Y-121536615D01*
X116551179Y-121536615D02*
X116551165Y-118463385D01*
X113000000Y-122000000D02*
X113098000Y-121980100D01*
X112999998Y-118000000D02*
X113097998Y-118019900D01*
X113098000Y-121980100D02*
X113190080Y-121941096D01*
X113097998Y-118019900D02*
X113190078Y-118058904D01*
X113190080Y-121941096D02*
X113272557Y-121884548D01*
X113190078Y-118058904D02*
X113272555Y-118115452D01*
X113272557Y-121884548D02*
X113342132Y-121812718D01*
X113272555Y-118115452D02*
X113342130Y-118187282D01*
X113342132Y-121812718D02*
X113396022Y-121728479D01*
X113342130Y-118187282D02*
X113396020Y-118271521D01*
X113396022Y-121728479D02*
X113432071Y-121635201D01*
X113396020Y-118271521D02*
X113432069Y-118364799D01*
X113432071Y-121635201D02*
X113448837Y-121536615D01*
X113432069Y-118364799D02*
X113448835Y-118463385D01*
X113448837Y-121536615D02*
X113448835Y-118463385D01*
X124999998Y-118000000D02*
X123250000Y-118000000D01*
X129000002Y-118000000D02*
X130750000Y-118000000D01*
X125000004Y-122000000D02*
X117000016Y-122000000D01*
X125000004Y-122000000D02*
X125098004Y-121980100D01*
X124999998Y-118000000D02*
X125097998Y-118019900D01*
X125098004Y-121980100D02*
X125190084Y-121941096D01*
X125097998Y-118019900D02*
X125190078Y-118058904D01*
X125190084Y-121941096D02*
X125272561Y-121884548D01*
X125190078Y-118058904D02*
X125272555Y-118115452D01*
X125272561Y-121884548D02*
X125342136Y-121812718D01*
X125272555Y-118115452D02*
X125342130Y-118187282D01*
X125342136Y-121812718D02*
X125396026Y-121728479D01*
X125342130Y-118187282D02*
X125396020Y-118271521D01*
X125396026Y-121728479D02*
X125432075Y-121635201D01*
X125396020Y-118271521D02*
X125432069Y-118364799D01*
X125432075Y-121635201D02*
X125448841Y-121536615D01*
X125432069Y-118364799D02*
X125448835Y-118463385D01*
X125448835Y-118463385D02*
X125448841Y-121536615D01*
X128999984Y-122000000D02*
X128901984Y-121980100D01*
X129000002Y-118000000D02*
X128902002Y-118019900D01*
X128901984Y-121980100D02*
X128809904Y-121941096D01*
X128902002Y-118019900D02*
X128809922Y-118058904D01*
X128809904Y-121941096D02*
X128727427Y-121884548D01*
X128809922Y-118058904D02*
X128727445Y-118115452D01*
X128727427Y-121884548D02*
X128657852Y-121812718D01*
X128727445Y-118115452D02*
X128657870Y-118187282D01*
X128657852Y-121812718D02*
X128603962Y-121728479D01*
X128657870Y-118187282D02*
X128603980Y-118271521D01*
X128603962Y-121728479D02*
X128567913Y-121635201D01*
X128603980Y-118271521D02*
X128567931Y-118364799D01*
X128567913Y-121635201D02*
X128551147Y-121536615D01*
X128567931Y-118364799D02*
X128551165Y-118463385D01*
X128551165Y-118463385D02*
X128551147Y-121536615D01*
X136999996Y-122000000D02*
X128999984Y-122000000D01*
X136999998Y-118000000D02*
X135250000Y-118000000D01*
X141000002Y-118000000D02*
X142750000Y-118000000D01*
X140999976Y-122000000D02*
X140901976Y-121980100D01*
X141000002Y-118000000D02*
X140902002Y-118019900D01*
X140901976Y-121980100D02*
X140809896Y-121941096D01*
X140902002Y-118019900D02*
X140809922Y-118058904D01*
X140809896Y-121941096D02*
X140727419Y-121884548D01*
X140809922Y-118058904D02*
X140727445Y-118115452D01*
X140727419Y-121884548D02*
X140657844Y-121812718D01*
X140727445Y-118115452D02*
X140657870Y-118187282D01*
X140657844Y-121812718D02*
X140603954Y-121728479D01*
X140657870Y-118187282D02*
X140603980Y-118271521D01*
X140603954Y-121728479D02*
X140567905Y-121635201D01*
X140603980Y-118271521D02*
X140567931Y-118364799D01*
X140567905Y-121635201D02*
X140551139Y-121536615D01*
X140567931Y-118364799D02*
X140551165Y-118463385D01*
X140551139Y-121536615D02*
X140551165Y-118463385D01*
X136999998Y-118000000D02*
X137097998Y-118019900D01*
X136999996Y-122000000D02*
X137097996Y-121980100D01*
X137097998Y-118019900D02*
X137190078Y-118058904D01*
X137097996Y-121980100D02*
X137190076Y-121941096D01*
X137190078Y-118058904D02*
X137272555Y-118115452D01*
X137190076Y-121941096D02*
X137272553Y-121884548D01*
X137272555Y-118115452D02*
X137342130Y-118187282D01*
X137272553Y-121884548D02*
X137342128Y-121812718D01*
X137342130Y-118187282D02*
X137396020Y-118271521D01*
X137342128Y-121812718D02*
X137396018Y-121728479D01*
X137396020Y-118271521D02*
X137432069Y-118364799D01*
X137396018Y-121728479D02*
X137432067Y-121635201D01*
X137432069Y-118364799D02*
X137448835Y-118463385D01*
X137432067Y-121635201D02*
X137448833Y-121536615D01*
X137448833Y-121536615D02*
X137448835Y-118463385D01*
X148999998Y-118000000D02*
X147250000Y-118000000D01*
X153000002Y-118000000D02*
X154750000Y-118000000D01*
X148999996Y-122000000D02*
X140999976Y-122000000D01*
X148999998Y-118000000D02*
X149097998Y-118019900D01*
X148999996Y-122000000D02*
X149097996Y-121980100D01*
X149097998Y-118019900D02*
X149190078Y-118058904D01*
X149097996Y-121980100D02*
X149190076Y-121941096D01*
X149190078Y-118058904D02*
X149272555Y-118115452D01*
X149190076Y-121941096D02*
X149272553Y-121884548D01*
X149272555Y-118115452D02*
X149342130Y-118187282D01*
X149272553Y-121884548D02*
X149342128Y-121812718D01*
X149342130Y-118187282D02*
X149396020Y-118271521D01*
X149342128Y-121812718D02*
X149396018Y-121728479D01*
X149396020Y-118271521D02*
X149432069Y-118364799D01*
X149396018Y-121728479D02*
X149432067Y-121635201D01*
X149432069Y-118364799D02*
X149448835Y-118463385D01*
X149432067Y-121635201D02*
X149448833Y-121536615D01*
X149448835Y-118463385D02*
X149448833Y-121536615D01*
X153000000Y-122000000D02*
X152902000Y-121980100D01*
X153000002Y-118000000D02*
X152902002Y-118019900D01*
X152902000Y-121980100D02*
X152809920Y-121941096D01*
X152902002Y-118019900D02*
X152809922Y-118058904D01*
X152809920Y-121941096D02*
X152727443Y-121884548D01*
X152809922Y-118058904D02*
X152727445Y-118115452D01*
X152727443Y-121884548D02*
X152657868Y-121812718D01*
X152727445Y-118115452D02*
X152657870Y-118187282D01*
X152657868Y-121812718D02*
X152603978Y-121728479D01*
X152657870Y-118187282D02*
X152603980Y-118271521D01*
X152603978Y-121728479D02*
X152567929Y-121635201D01*
X152603980Y-118271521D02*
X152567931Y-118364799D01*
X152567929Y-121635201D02*
X152551163Y-121536615D01*
X152567931Y-118364799D02*
X152551165Y-118463385D01*
X152551165Y-118463385D02*
X152551163Y-121536615D01*
X161000000Y-122000000D02*
X153000000Y-122000000D01*
X160999998Y-118000000D02*
X159250000Y-118000000D01*
X165000002Y-118000000D02*
X166750000Y-118000000D01*
X165000000Y-122000000D02*
X164902000Y-121980100D01*
X165000002Y-118000000D02*
X164902002Y-118019900D01*
X164902000Y-121980100D02*
X164809920Y-121941096D01*
X164902002Y-118019900D02*
X164809922Y-118058904D01*
X164809920Y-121941096D02*
X164727443Y-121884548D01*
X164809922Y-118058904D02*
X164727445Y-118115452D01*
X164727443Y-121884548D02*
X164657868Y-121812718D01*
X164727445Y-118115452D02*
X164657870Y-118187282D01*
X164657868Y-121812718D02*
X164603978Y-121728479D01*
X164657870Y-118187282D02*
X164603980Y-118271521D01*
X164603978Y-121728479D02*
X164567929Y-121635201D01*
X164603980Y-118271521D02*
X164567931Y-118364799D01*
X164567929Y-121635201D02*
X164551163Y-121536615D01*
X164567931Y-118364799D02*
X164551165Y-118463385D01*
X164551163Y-121536615D02*
X164551165Y-118463385D01*
X161000000Y-122000000D02*
X161098000Y-121980100D01*
X160999998Y-118000000D02*
X161097998Y-118019900D01*
X161098000Y-121980100D02*
X161190080Y-121941096D01*
X161097998Y-118019900D02*
X161190078Y-118058904D01*
X161190080Y-121941096D02*
X161272557Y-121884548D01*
X161190078Y-118058904D02*
X161272555Y-118115452D01*
X161272557Y-121884548D02*
X161342132Y-121812718D01*
X161272555Y-118115452D02*
X161342130Y-118187282D01*
X161342132Y-121812718D02*
X161396022Y-121728479D01*
X161342130Y-118187282D02*
X161396020Y-118271521D01*
X161396022Y-121728479D02*
X161432071Y-121635201D01*
X161396020Y-118271521D02*
X161432069Y-118364799D01*
X161432071Y-121635201D02*
X161448837Y-121536615D01*
X161432069Y-118364799D02*
X161448835Y-118463385D01*
X161448837Y-121536615D02*
X161448835Y-118463385D01*
X172999998Y-118000000D02*
X171250000Y-118000000D01*
X177000002Y-118000000D02*
X178750000Y-118000000D01*
X173000000Y-122000000D02*
X165000000Y-122000000D01*
X177000000Y-122000000D02*
X183000000Y-122000000D01*
X173000000Y-122000000D02*
X173098000Y-121980100D01*
X172999998Y-118000000D02*
X173097998Y-118019900D01*
X173098000Y-121980100D02*
X173190080Y-121941096D01*
X173097998Y-118019900D02*
X173190078Y-118058904D01*
X173190080Y-121941096D02*
X173272557Y-121884548D01*
X173190078Y-118058904D02*
X173272555Y-118115452D01*
X173272557Y-121884548D02*
X173342132Y-121812718D01*
X173272555Y-118115452D02*
X173342130Y-118187282D01*
X173342132Y-121812718D02*
X173396022Y-121728479D01*
X173342130Y-118187282D02*
X173396020Y-118271521D01*
X173396022Y-121728479D02*
X173432071Y-121635201D01*
X173396020Y-118271521D02*
X173432069Y-118364799D01*
X173432071Y-121635201D02*
X173448837Y-121536615D01*
X173432069Y-118364799D02*
X173448835Y-118463385D01*
X173448835Y-118463385D02*
X173448837Y-121536615D01*
X177000000Y-122000000D02*
X176902000Y-121980100D01*
X177000002Y-118000000D02*
X176902002Y-118019900D01*
X176902000Y-121980100D02*
X176809920Y-121941096D01*
X176902002Y-118019900D02*
X176809922Y-118058904D01*
X176809920Y-121941096D02*
X176727443Y-121884548D01*
X176809922Y-118058904D02*
X176727445Y-118115452D01*
X176727443Y-121884548D02*
X176657868Y-121812718D01*
X176727445Y-118115452D02*
X176657870Y-118187282D01*
X176657868Y-121812718D02*
X176603978Y-121728479D01*
X176657870Y-118187282D02*
X176603980Y-118271521D01*
X176603978Y-121728479D02*
X176567929Y-121635201D01*
X176603980Y-118271521D02*
X176567931Y-118364799D01*
X176567929Y-121635201D02*
X176551163Y-121536615D01*
X176567931Y-118364799D02*
X176551165Y-118463385D01*
X176551165Y-118463385D02*
X176551163Y-121536615D01*
X179000000Y-107000000D02*
X179000000Y-113000000D01*
X179000000Y-103000002D02*
X179000000Y-98000000D01*
X183000000Y-107000016D02*
X183000000Y-122000000D01*
X179000000Y-107000000D02*
X179019900Y-106902000D01*
X183000000Y-107000016D02*
X182980100Y-106902016D01*
X179019900Y-106902000D02*
X179058904Y-106809920D01*
X182980100Y-106902016D02*
X182941096Y-106809936D01*
X179058904Y-106809920D02*
X179115452Y-106727443D01*
X182941096Y-106809936D02*
X182884548Y-106727459D01*
X179115452Y-106727443D02*
X179187282Y-106657868D01*
X182884548Y-106727459D02*
X182812718Y-106657884D01*
X179187282Y-106657868D02*
X179271521Y-106603978D01*
X182812718Y-106657884D02*
X182728479Y-106603994D01*
X179271521Y-106603978D02*
X179364799Y-106567929D01*
X182728479Y-106603994D02*
X182635201Y-106567945D01*
X179364799Y-106567929D02*
X179463385Y-106551163D01*
X182635201Y-106567945D02*
X182536615Y-106551179D01*
X179463385Y-106551163D02*
X182536615Y-106551179D01*
X179000000Y-103000002D02*
X179019900Y-103098002D01*
X183000000Y-102999984D02*
X182980100Y-103097984D01*
X179019900Y-103098002D02*
X179058904Y-103190082D01*
X182980100Y-103097984D02*
X182941096Y-103190064D01*
X179058904Y-103190082D02*
X179115452Y-103272559D01*
X182941096Y-103190064D02*
X182884548Y-103272541D01*
X179115452Y-103272559D02*
X179187282Y-103342134D01*
X182884548Y-103272541D02*
X182812718Y-103342116D01*
X179187282Y-103342134D02*
X179271521Y-103396024D01*
X182812718Y-103342116D02*
X182728479Y-103396006D01*
X179271521Y-103396024D02*
X179364799Y-103432073D01*
X182728479Y-103396006D02*
X182635201Y-103432055D01*
X179364799Y-103432073D02*
X179463385Y-103448839D01*
X182635201Y-103432055D02*
X182536615Y-103448821D01*
X179463385Y-103448839D02*
X182536615Y-103448821D01*
X167000000Y-107000000D02*
X167000000Y-113000000D01*
X167000000Y-103000002D02*
X167000000Y-98000000D01*
X171000000Y-102999994D02*
X171000000Y-98010000D01*
X171000000Y-107000000D02*
X171000000Y-113000000D01*
X171000000Y-107000000D02*
X170980100Y-106902000D01*
X167000000Y-107000000D02*
X167019900Y-106902000D01*
X170980100Y-106902000D02*
X170941096Y-106809920D01*
X167019900Y-106902000D02*
X167058904Y-106809920D01*
X170941096Y-106809920D02*
X170884548Y-106727443D01*
X167058904Y-106809920D02*
X167115452Y-106727443D01*
X170884548Y-106727443D02*
X170812718Y-106657868D01*
X167115452Y-106727443D02*
X167187282Y-106657868D01*
X170812718Y-106657868D02*
X170728479Y-106603978D01*
X167187282Y-106657868D02*
X167271521Y-106603978D01*
X170728479Y-106603978D02*
X170635201Y-106567929D01*
X167271521Y-106603978D02*
X167364799Y-106567929D01*
X170635201Y-106567929D02*
X170536615Y-106551163D01*
X167364799Y-106567929D02*
X167463385Y-106551163D01*
X167463385Y-106551163D02*
X170536615Y-106551163D01*
X167000000Y-103000002D02*
X167019900Y-103098002D01*
X171000000Y-102999994D02*
X170980100Y-103097994D01*
X167019900Y-103098002D02*
X167058904Y-103190082D01*
X170980100Y-103097994D02*
X170941096Y-103190074D01*
X167058904Y-103190082D02*
X167115452Y-103272559D01*
X170941096Y-103190074D02*
X170884548Y-103272551D01*
X167115452Y-103272559D02*
X167187282Y-103342134D01*
X170884548Y-103272551D02*
X170812718Y-103342126D01*
X167187282Y-103342134D02*
X167271521Y-103396024D01*
X170812718Y-103342126D02*
X170728479Y-103396016D01*
X167271521Y-103396024D02*
X167364799Y-103432073D01*
X170728479Y-103396016D02*
X170635201Y-103432065D01*
X167364799Y-103432073D02*
X167463385Y-103448839D01*
X170635201Y-103432065D02*
X170536615Y-103448831D01*
X167463385Y-103448839D02*
X170536615Y-103448831D01*
X155000000Y-107000000D02*
X155000000Y-113000000D01*
X155000000Y-103000002D02*
X155000000Y-98000000D01*
X159000000Y-102999994D02*
X159000000Y-98010000D01*
X159000000Y-107000000D02*
X159000000Y-113000000D01*
X159000000Y-107000000D02*
X158980100Y-106902000D01*
X155000000Y-107000000D02*
X155019900Y-106902000D01*
X158980100Y-106902000D02*
X158941096Y-106809920D01*
X155019900Y-106902000D02*
X155058904Y-106809920D01*
X158941096Y-106809920D02*
X158884548Y-106727443D01*
X155058904Y-106809920D02*
X155115452Y-106727443D01*
X158884548Y-106727443D02*
X158812718Y-106657868D01*
X155115452Y-106727443D02*
X155187282Y-106657868D01*
X158812718Y-106657868D02*
X158728479Y-106603978D01*
X155187282Y-106657868D02*
X155271521Y-106603978D01*
X158728479Y-106603978D02*
X158635201Y-106567929D01*
X155271521Y-106603978D02*
X155364799Y-106567929D01*
X158635201Y-106567929D02*
X158536615Y-106551163D01*
X155364799Y-106567929D02*
X155463385Y-106551163D01*
X155463385Y-106551163D02*
X158536615Y-106551163D01*
X155000000Y-103000002D02*
X155019900Y-103098002D01*
X159000000Y-102999994D02*
X158980100Y-103097994D01*
X155019900Y-103098002D02*
X155058904Y-103190082D01*
X158980100Y-103097994D02*
X158941096Y-103190074D01*
X155058904Y-103190082D02*
X155115452Y-103272559D01*
X158941096Y-103190074D02*
X158884548Y-103272551D01*
X155115452Y-103272559D02*
X155187282Y-103342134D01*
X158884548Y-103272551D02*
X158812718Y-103342126D01*
X155187282Y-103342134D02*
X155271521Y-103396024D01*
X158812718Y-103342126D02*
X158728479Y-103396016D01*
X155271521Y-103396024D02*
X155364799Y-103432073D01*
X158728479Y-103396016D02*
X158635201Y-103432065D01*
X155364799Y-103432073D02*
X155463385Y-103448839D01*
X158635201Y-103432065D02*
X158536615Y-103448831D01*
X155463385Y-103448839D02*
X158536615Y-103448831D01*
X143000000Y-107000000D02*
X143000000Y-113000000D01*
X143000000Y-103000002D02*
X143000000Y-98000000D01*
X147000000Y-102999994D02*
X147000000Y-98010000D01*
X147000000Y-107000000D02*
X147000000Y-113000000D01*
X147000000Y-107000000D02*
X146980100Y-106902000D01*
X143000000Y-107000000D02*
X143019900Y-106902000D01*
X146980100Y-106902000D02*
X146941096Y-106809920D01*
X143019900Y-106902000D02*
X143058904Y-106809920D01*
X146941096Y-106809920D02*
X146884548Y-106727443D01*
X143058904Y-106809920D02*
X143115452Y-106727443D01*
X146884548Y-106727443D02*
X146812718Y-106657868D01*
X143115452Y-106727443D02*
X143187282Y-106657868D01*
X146812718Y-106657868D02*
X146728479Y-106603978D01*
X143187282Y-106657868D02*
X143271521Y-106603978D01*
X146728479Y-106603978D02*
X146635201Y-106567929D01*
X143271521Y-106603978D02*
X143364799Y-106567929D01*
X146635201Y-106567929D02*
X146536615Y-106551163D01*
X143364799Y-106567929D02*
X143463385Y-106551163D01*
X143463385Y-106551163D02*
X146536615Y-106551163D01*
X143000000Y-103000002D02*
X143019900Y-103098002D01*
X147000000Y-102999994D02*
X146980100Y-103097994D01*
X143019900Y-103098002D02*
X143058904Y-103190082D01*
X146980100Y-103097994D02*
X146941096Y-103190074D01*
X143058904Y-103190082D02*
X143115452Y-103272559D01*
X146941096Y-103190074D02*
X146884548Y-103272551D01*
X143115452Y-103272559D02*
X143187282Y-103342134D01*
X146884548Y-103272551D02*
X146812718Y-103342126D01*
X143187282Y-103342134D02*
X143271521Y-103396024D01*
X146812718Y-103342126D02*
X146728479Y-103396016D01*
X143271521Y-103396024D02*
X143364799Y-103432073D01*
X146728479Y-103396016D02*
X146635201Y-103432065D01*
X143364799Y-103432073D02*
X143463385Y-103448839D01*
X146635201Y-103432065D02*
X146536615Y-103448831D01*
X143463385Y-103448839D02*
X146536615Y-103448831D01*
X131000000Y-107000000D02*
X131000000Y-113000000D01*
X131000000Y-103000002D02*
X131000000Y-98000000D01*
X135000000Y-102999994D02*
X135000000Y-98010000D01*
X135000000Y-107000000D02*
X135000000Y-113000000D01*
X135000000Y-107000000D02*
X134980100Y-106902000D01*
X131000000Y-107000000D02*
X131019900Y-106902000D01*
X134980100Y-106902000D02*
X134941096Y-106809920D01*
X131019900Y-106902000D02*
X131058904Y-106809920D01*
X134941096Y-106809920D02*
X134884548Y-106727443D01*
X131058904Y-106809920D02*
X131115452Y-106727443D01*
X134884548Y-106727443D02*
X134812718Y-106657868D01*
X131115452Y-106727443D02*
X131187282Y-106657868D01*
X134812718Y-106657868D02*
X134728479Y-106603978D01*
X131187282Y-106657868D02*
X131271521Y-106603978D01*
X134728479Y-106603978D02*
X134635201Y-106567929D01*
X131271521Y-106603978D02*
X131364799Y-106567929D01*
X134635201Y-106567929D02*
X134536615Y-106551163D01*
X131364799Y-106567929D02*
X131463385Y-106551163D01*
X131463385Y-106551163D02*
X134536615Y-106551163D01*
X131000000Y-103000002D02*
X131019900Y-103098002D01*
X135000000Y-102999994D02*
X134980100Y-103097994D01*
X131019900Y-103098002D02*
X131058904Y-103190082D01*
X134980100Y-103097994D02*
X134941096Y-103190074D01*
X131058904Y-103190082D02*
X131115452Y-103272559D01*
X134941096Y-103190074D02*
X134884548Y-103272551D01*
X131115452Y-103272559D02*
X131187282Y-103342134D01*
X134884548Y-103272551D02*
X134812718Y-103342126D01*
X131187282Y-103342134D02*
X131271521Y-103396024D01*
X134812718Y-103342126D02*
X134728479Y-103396016D01*
X131271521Y-103396024D02*
X131364799Y-103432073D01*
X134728479Y-103396016D02*
X134635201Y-103432065D01*
X131364799Y-103432073D02*
X131463385Y-103448839D01*
X134635201Y-103432065D02*
X134536615Y-103448831D01*
X131463385Y-103448839D02*
X134536615Y-103448831D01*
X119000000Y-107000000D02*
X119000000Y-113000000D01*
X119000000Y-103000002D02*
X119000000Y-98000000D01*
X123000000Y-102999994D02*
X123000000Y-98010000D01*
X123000000Y-107000000D02*
X123000000Y-113000000D01*
X123000000Y-107000000D02*
X122980100Y-106902000D01*
X119000000Y-107000000D02*
X119019900Y-106902000D01*
X122980100Y-106902000D02*
X122941096Y-106809920D01*
X119019900Y-106902000D02*
X119058904Y-106809920D01*
X122941096Y-106809920D02*
X122884548Y-106727443D01*
X119058904Y-106809920D02*
X119115452Y-106727443D01*
X122884548Y-106727443D02*
X122812718Y-106657868D01*
X119115452Y-106727443D02*
X119187282Y-106657868D01*
X122812718Y-106657868D02*
X122728479Y-106603978D01*
X119187282Y-106657868D02*
X119271521Y-106603978D01*
X122728479Y-106603978D02*
X122635201Y-106567929D01*
X119271521Y-106603978D02*
X119364799Y-106567929D01*
X122635201Y-106567929D02*
X122536615Y-106551163D01*
X119364799Y-106567929D02*
X119463385Y-106551163D01*
X119463385Y-106551163D02*
X122536615Y-106551163D01*
X119000000Y-103000002D02*
X119019900Y-103098002D01*
X123000000Y-102999994D02*
X122980100Y-103097994D01*
X119019900Y-103098002D02*
X119058904Y-103190082D01*
X122980100Y-103097994D02*
X122941096Y-103190074D01*
X119058904Y-103190082D02*
X119115452Y-103272559D01*
X122941096Y-103190074D02*
X122884548Y-103272551D01*
X119115452Y-103272559D02*
X119187282Y-103342134D01*
X122884548Y-103272551D02*
X122812718Y-103342126D01*
X119187282Y-103342134D02*
X119271521Y-103396024D01*
X122812718Y-103342126D02*
X122728479Y-103396016D01*
X119271521Y-103396024D02*
X119364799Y-103432073D01*
X122728479Y-103396016D02*
X122635201Y-103432065D01*
X119364799Y-103432073D02*
X119463385Y-103448839D01*
X122635201Y-103432065D02*
X122536615Y-103448831D01*
X119463385Y-103448839D02*
X122536615Y-103448831D01*
X107000000Y-107000016D02*
X107000000Y-122000000D01*
X111000000Y-102999994D02*
X111000000Y-98010000D01*
X111000000Y-107000000D02*
X111000000Y-113000000D01*
X111000000Y-107000000D02*
X110980100Y-106902000D01*
X107000000Y-107000016D02*
X107019900Y-106902016D01*
X110980100Y-106902000D02*
X110941096Y-106809920D01*
X107019900Y-106902016D02*
X107058904Y-106809936D01*
X110941096Y-106809920D02*
X110884548Y-106727443D01*
X107058904Y-106809936D02*
X107115452Y-106727459D01*
X110884548Y-106727443D02*
X110812718Y-106657868D01*
X107115452Y-106727459D02*
X107187282Y-106657884D01*
X110812718Y-106657868D02*
X110728479Y-106603978D01*
X107187282Y-106657884D02*
X107271521Y-106603994D01*
X110728479Y-106603978D02*
X110635201Y-106567929D01*
X107271521Y-106603994D02*
X107364799Y-106567945D01*
X110635201Y-106567929D02*
X110536615Y-106551163D01*
X107364799Y-106567945D02*
X107463385Y-106551179D01*
X107463385Y-106551179D02*
X110536615Y-106551163D01*
X111000000Y-102999994D02*
X110980100Y-103097994D01*
X107000000Y-102999984D02*
X107019900Y-103097984D01*
X110980100Y-103097994D02*
X110941096Y-103190074D01*
X107019900Y-103097984D02*
X107058904Y-103190064D01*
X110941096Y-103190074D02*
X110884548Y-103272551D01*
X107058904Y-103190064D02*
X107115452Y-103272541D01*
X110884548Y-103272551D02*
X110812718Y-103342126D01*
X107115452Y-103272541D02*
X107187282Y-103342116D01*
X110812718Y-103342126D02*
X110728479Y-103396016D01*
X107187282Y-103342116D02*
X107271521Y-103396006D01*
X110728479Y-103396016D02*
X110635201Y-103432065D01*
X107271521Y-103396006D02*
X107364799Y-103432055D01*
X110635201Y-103432065D02*
X110536615Y-103448831D01*
X107364799Y-103432055D02*
X107463385Y-103448821D01*
X107463385Y-103448821D02*
X110536615Y-103448831D01*
X111000000Y-76500004D02*
X111000000Y-71000000D01*
X111000000Y-80499996D02*
X111000000Y-86000000D01*
X107000000Y-80499982D02*
X107000000Y-102999984D01*
X107000000Y-76500002D02*
X107000000Y-62000000D01*
X111000000Y-76500004D02*
X110980100Y-76598004D01*
X107000000Y-76500002D02*
X107019900Y-76598002D01*
X110980100Y-76598004D02*
X110941096Y-76690084D01*
X107019900Y-76598002D02*
X107058904Y-76690082D01*
X110941096Y-76690084D02*
X110884548Y-76772561D01*
X107058904Y-76690082D02*
X107115452Y-76772559D01*
X110884548Y-76772561D02*
X110812718Y-76842136D01*
X107115452Y-76772559D02*
X107187282Y-76842134D01*
X110812718Y-76842136D02*
X110728479Y-76896026D01*
X107187282Y-76842134D02*
X107271521Y-76896024D01*
X110728479Y-76896026D02*
X110635201Y-76932075D01*
X107271521Y-76896024D02*
X107364799Y-76932073D01*
X110635201Y-76932075D02*
X110536615Y-76948841D01*
X107364799Y-76932073D02*
X107463385Y-76948839D01*
X110536615Y-76948841D02*
X107463385Y-76948839D01*
X107000000Y-80499982D02*
X107019900Y-80401982D01*
X111000000Y-80499996D02*
X110980100Y-80401996D01*
X107019900Y-80401982D02*
X107058904Y-80309902D01*
X110980100Y-80401996D02*
X110941096Y-80309916D01*
X107058904Y-80309902D02*
X107115452Y-80227425D01*
X110941096Y-80309916D02*
X110884548Y-80227439D01*
X107115452Y-80227425D02*
X107187282Y-80157850D01*
X110884548Y-80227439D02*
X110812718Y-80157864D01*
X107187282Y-80157850D02*
X107271521Y-80103960D01*
X110812718Y-80157864D02*
X110728479Y-80103974D01*
X107271521Y-80103960D02*
X107364799Y-80067911D01*
X110728479Y-80103974D02*
X110635201Y-80067925D01*
X107364799Y-80067911D02*
X107463385Y-80051145D01*
X110635201Y-80067925D02*
X110536615Y-80051159D01*
X110536615Y-80051159D02*
X107463385Y-80051145D01*
X123000000Y-76500004D02*
X123000000Y-71000000D01*
X123000000Y-80499996D02*
X123000000Y-86000000D01*
X119000000Y-80499994D02*
X119000000Y-85990000D01*
X119000000Y-76500004D02*
X119000000Y-71000000D01*
X119000000Y-76500004D02*
X119019900Y-76598004D01*
X123000000Y-76500004D02*
X122980100Y-76598004D01*
X119019900Y-76598004D02*
X119058904Y-76690084D01*
X122980100Y-76598004D02*
X122941096Y-76690084D01*
X119058904Y-76690084D02*
X119115452Y-76772561D01*
X122941096Y-76690084D02*
X122884548Y-76772561D01*
X119115452Y-76772561D02*
X119187282Y-76842136D01*
X122884548Y-76772561D02*
X122812718Y-76842136D01*
X119187282Y-76842136D02*
X119271521Y-76896026D01*
X122812718Y-76842136D02*
X122728479Y-76896026D01*
X119271521Y-76896026D02*
X119364799Y-76932075D01*
X122728479Y-76896026D02*
X122635201Y-76932075D01*
X119364799Y-76932075D02*
X119463385Y-76948841D01*
X122635201Y-76932075D02*
X122536615Y-76948841D01*
X122536615Y-76948841D02*
X119463385Y-76948841D01*
X119000000Y-80499994D02*
X119019900Y-80401994D01*
X123000000Y-80499996D02*
X122980100Y-80401996D01*
X119019900Y-80401994D02*
X119058904Y-80309914D01*
X122980100Y-80401996D02*
X122941096Y-80309916D01*
X119058904Y-80309914D02*
X119115452Y-80227437D01*
X122941096Y-80309916D02*
X122884548Y-80227439D01*
X119115452Y-80227437D02*
X119187282Y-80157862D01*
X122884548Y-80227439D02*
X122812718Y-80157864D01*
X119187282Y-80157862D02*
X119271521Y-80103972D01*
X122812718Y-80157864D02*
X122728479Y-80103974D01*
X119271521Y-80103972D02*
X119364799Y-80067923D01*
X122728479Y-80103974D02*
X122635201Y-80067925D01*
X119364799Y-80067923D02*
X119463385Y-80051157D01*
X122635201Y-80067925D02*
X122536615Y-80051159D01*
X122536615Y-80051159D02*
X119463385Y-80051157D01*
X135000000Y-76500004D02*
X135000000Y-71000000D01*
X135000000Y-80499996D02*
X135000000Y-86000000D01*
X131000000Y-80499994D02*
X131000000Y-85990000D01*
X131000000Y-76500004D02*
X131000000Y-71000000D01*
X131000000Y-76500004D02*
X131019900Y-76598004D01*
X135000000Y-76500004D02*
X134980100Y-76598004D01*
X131019900Y-76598004D02*
X131058904Y-76690084D01*
X134980100Y-76598004D02*
X134941096Y-76690084D01*
X131058904Y-76690084D02*
X131115452Y-76772561D01*
X134941096Y-76690084D02*
X134884548Y-76772561D01*
X131115452Y-76772561D02*
X131187282Y-76842136D01*
X134884548Y-76772561D02*
X134812718Y-76842136D01*
X131187282Y-76842136D02*
X131271521Y-76896026D01*
X134812718Y-76842136D02*
X134728479Y-76896026D01*
X131271521Y-76896026D02*
X131364799Y-76932075D01*
X134728479Y-76896026D02*
X134635201Y-76932075D01*
X131364799Y-76932075D02*
X131463385Y-76948841D01*
X134635201Y-76932075D02*
X134536615Y-76948841D01*
X134536615Y-76948841D02*
X131463385Y-76948841D01*
X131000000Y-80499994D02*
X131019900Y-80401994D01*
X135000000Y-80499996D02*
X134980100Y-80401996D01*
X131019900Y-80401994D02*
X131058904Y-80309914D01*
X134980100Y-80401996D02*
X134941096Y-80309916D01*
X131058904Y-80309914D02*
X131115452Y-80227437D01*
X134941096Y-80309916D02*
X134884548Y-80227439D01*
X131115452Y-80227437D02*
X131187282Y-80157862D01*
X134884548Y-80227439D02*
X134812718Y-80157864D01*
X131187282Y-80157862D02*
X131271521Y-80103972D01*
X134812718Y-80157864D02*
X134728479Y-80103974D01*
X131271521Y-80103972D02*
X131364799Y-80067923D01*
X134728479Y-80103974D02*
X134635201Y-80067925D01*
X131364799Y-80067923D02*
X131463385Y-80051157D01*
X134635201Y-80067925D02*
X134536615Y-80051159D01*
X134536615Y-80051159D02*
X131463385Y-80051157D01*
X147000000Y-76500004D02*
X147000000Y-71000000D01*
X147000000Y-80499996D02*
X147000000Y-86000000D01*
X143000000Y-80499994D02*
X143000000Y-85990000D01*
X143000000Y-76500004D02*
X143000000Y-71000000D01*
X143000000Y-76500004D02*
X143019900Y-76598004D01*
X147000000Y-76500004D02*
X146980100Y-76598004D01*
X143019900Y-76598004D02*
X143058904Y-76690084D01*
X146980100Y-76598004D02*
X146941096Y-76690084D01*
X143058904Y-76690084D02*
X143115452Y-76772561D01*
X146941096Y-76690084D02*
X146884548Y-76772561D01*
X143115452Y-76772561D02*
X143187282Y-76842136D01*
X146884548Y-76772561D02*
X146812718Y-76842136D01*
X143187282Y-76842136D02*
X143271521Y-76896026D01*
X146812718Y-76842136D02*
X146728479Y-76896026D01*
X143271521Y-76896026D02*
X143364799Y-76932075D01*
X146728479Y-76896026D02*
X146635201Y-76932075D01*
X143364799Y-76932075D02*
X143463385Y-76948841D01*
X146635201Y-76932075D02*
X146536615Y-76948841D01*
X146536615Y-76948841D02*
X143463385Y-76948841D01*
X143000000Y-80499994D02*
X143019900Y-80401994D01*
X147000000Y-80499996D02*
X146980100Y-80401996D01*
X143019900Y-80401994D02*
X143058904Y-80309914D01*
X146980100Y-80401996D02*
X146941096Y-80309916D01*
X143058904Y-80309914D02*
X143115452Y-80227437D01*
X146941096Y-80309916D02*
X146884548Y-80227439D01*
X143115452Y-80227437D02*
X143187282Y-80157862D01*
X146884548Y-80227439D02*
X146812718Y-80157864D01*
X143187282Y-80157862D02*
X143271521Y-80103972D01*
X146812718Y-80157864D02*
X146728479Y-80103974D01*
X143271521Y-80103972D02*
X143364799Y-80067923D01*
X146728479Y-80103974D02*
X146635201Y-80067925D01*
X143364799Y-80067923D02*
X143463385Y-80051157D01*
X146635201Y-80067925D02*
X146536615Y-80051159D01*
X146536615Y-80051159D02*
X143463385Y-80051157D01*
X159000000Y-76500004D02*
X159000000Y-71000000D01*
X159000000Y-80499996D02*
X159000000Y-86000000D01*
X155000000Y-80499994D02*
X155000000Y-85990000D01*
X155000000Y-76500004D02*
X155000000Y-71000000D01*
X155000000Y-76500004D02*
X155019900Y-76598004D01*
X159000000Y-76500004D02*
X158980100Y-76598004D01*
X155019900Y-76598004D02*
X155058904Y-76690084D01*
X158980100Y-76598004D02*
X158941096Y-76690084D01*
X155058904Y-76690084D02*
X155115452Y-76772561D01*
X158941096Y-76690084D02*
X158884548Y-76772561D01*
X155115452Y-76772561D02*
X155187282Y-76842136D01*
X158884548Y-76772561D02*
X158812718Y-76842136D01*
X155187282Y-76842136D02*
X155271521Y-76896026D01*
X158812718Y-76842136D02*
X158728479Y-76896026D01*
X155271521Y-76896026D02*
X155364799Y-76932075D01*
X158728479Y-76896026D02*
X158635201Y-76932075D01*
X155364799Y-76932075D02*
X155463385Y-76948841D01*
X158635201Y-76932075D02*
X158536615Y-76948841D01*
X158536615Y-76948841D02*
X155463385Y-76948841D01*
X155000000Y-80499994D02*
X155019900Y-80401994D01*
X159000000Y-80499996D02*
X158980100Y-80401996D01*
X155019900Y-80401994D02*
X155058904Y-80309914D01*
X158980100Y-80401996D02*
X158941096Y-80309916D01*
X155058904Y-80309914D02*
X155115452Y-80227437D01*
X158941096Y-80309916D02*
X158884548Y-80227439D01*
X155115452Y-80227437D02*
X155187282Y-80157862D01*
X158884548Y-80227439D02*
X158812718Y-80157864D01*
X155187282Y-80157862D02*
X155271521Y-80103972D01*
X158812718Y-80157864D02*
X158728479Y-80103974D01*
X155271521Y-80103972D02*
X155364799Y-80067923D01*
X158728479Y-80103974D02*
X158635201Y-80067925D01*
X155364799Y-80067923D02*
X155463385Y-80051157D01*
X158635201Y-80067925D02*
X158536615Y-80051159D01*
X158536615Y-80051159D02*
X155463385Y-80051157D01*
X171000000Y-76500004D02*
X171000000Y-71000000D01*
X171000000Y-80499996D02*
X171000000Y-86000000D01*
X167000000Y-80499994D02*
X167000000Y-85990000D01*
X167000000Y-76500004D02*
X167000000Y-71000000D01*
X167000000Y-76500004D02*
X167019900Y-76598004D01*
X171000000Y-76500004D02*
X170980100Y-76598004D01*
X167019900Y-76598004D02*
X167058904Y-76690084D01*
X170980100Y-76598004D02*
X170941096Y-76690084D01*
X167058904Y-76690084D02*
X167115452Y-76772561D01*
X170941096Y-76690084D02*
X170884548Y-76772561D01*
X167115452Y-76772561D02*
X167187282Y-76842136D01*
X170884548Y-76772561D02*
X170812718Y-76842136D01*
X167187282Y-76842136D02*
X167271521Y-76896026D01*
X170812718Y-76842136D02*
X170728479Y-76896026D01*
X167271521Y-76896026D02*
X167364799Y-76932075D01*
X170728479Y-76896026D02*
X170635201Y-76932075D01*
X167364799Y-76932075D02*
X167463385Y-76948841D01*
X170635201Y-76932075D02*
X170536615Y-76948841D01*
X170536615Y-76948841D02*
X167463385Y-76948841D01*
X167000000Y-80499994D02*
X167019900Y-80401994D01*
X171000000Y-80499996D02*
X170980100Y-80401996D01*
X167019900Y-80401994D02*
X167058904Y-80309914D01*
X170980100Y-80401996D02*
X170941096Y-80309916D01*
X167058904Y-80309914D02*
X167115452Y-80227437D01*
X170941096Y-80309916D02*
X170884548Y-80227439D01*
X167115452Y-80227437D02*
X167187282Y-80157862D01*
X170884548Y-80227439D02*
X170812718Y-80157864D01*
X167187282Y-80157862D02*
X167271521Y-80103972D01*
X170812718Y-80157864D02*
X170728479Y-80103974D01*
X167271521Y-80103972D02*
X167364799Y-80067923D01*
X170728479Y-80103974D02*
X170635201Y-80067925D01*
X167364799Y-80067923D02*
X167463385Y-80051157D01*
X170635201Y-80067925D02*
X170536615Y-80051159D01*
X170536615Y-80051159D02*
X167463385Y-80051157D01*
X179000000Y-80499994D02*
X179000000Y-85990000D01*
X179000000Y-76500004D02*
X179000000Y-71000000D01*
X183000000Y-80499982D02*
X183000000Y-102999984D01*
X183000000Y-76500002D02*
X183000000Y-62000000D01*
X183000000Y-80499982D02*
X182980100Y-80401982D01*
X179000000Y-80499994D02*
X179019900Y-80401994D01*
X182980100Y-80401982D02*
X182941096Y-80309902D01*
X179019900Y-80401994D02*
X179058904Y-80309914D01*
X182941096Y-80309902D02*
X182884548Y-80227425D01*
X179058904Y-80309914D02*
X179115452Y-80227437D01*
X182884548Y-80227425D02*
X182812718Y-80157850D01*
X179115452Y-80227437D02*
X179187282Y-80157862D01*
X182812718Y-80157850D02*
X182728479Y-80103960D01*
X179187282Y-80157862D02*
X179271521Y-80103972D01*
X182728479Y-80103960D02*
X182635201Y-80067911D01*
X179271521Y-80103972D02*
X179364799Y-80067923D01*
X182635201Y-80067911D02*
X182536615Y-80051145D01*
X179364799Y-80067923D02*
X179463385Y-80051157D01*
X179463385Y-80051157D02*
X182536615Y-80051145D01*
X179000000Y-76500004D02*
X179019900Y-76598004D01*
X183000000Y-76500002D02*
X182980100Y-76598002D01*
X179019900Y-76598004D02*
X179058904Y-76690084D01*
X182980100Y-76598002D02*
X182941096Y-76690082D01*
X179058904Y-76690084D02*
X179115452Y-76772561D01*
X182941096Y-76690082D02*
X182884548Y-76772559D01*
X179115452Y-76772561D02*
X179187282Y-76842136D01*
X182884548Y-76772559D02*
X182812718Y-76842134D01*
X179187282Y-76842136D02*
X179271521Y-76896026D01*
X182812718Y-76842134D02*
X182728479Y-76896024D01*
X179271521Y-76896026D02*
X179364799Y-76932075D01*
X182728479Y-76896024D02*
X182635201Y-76932073D01*
X179364799Y-76932075D02*
X179463385Y-76948841D01*
X182635201Y-76932073D02*
X182536615Y-76948839D01*
X179463385Y-76948841D02*
X182536615Y-76948839D01*
M02*
