G04 #@! TF.GenerationSoftware,KiCad,Pcbnew,5.1.5-52549c5~84~ubuntu18.04.1*
G04 #@! TF.CreationDate,2020-03-17T11:40:12+01:00*
G04 #@! TF.ProjectId,output.A1335_long_I2C_panel,6f757470-7574-42e4-9131-3333355f6c6f,rev?*
G04 #@! TF.SameCoordinates,Original*
G04 #@! TF.FileFunction,Paste,Top*
G04 #@! TF.FilePolarity,Positive*
%FSLAX46Y46*%
G04 Gerber Fmt 4.6, Leading zero omitted, Abs format (unit mm)*
G04 Created by KiCad (PCBNEW 5.1.5-52549c5~84~ubuntu18.04.1) date 2020-03-17 11:40:12*
%MOMM*%
%LPD*%
G04 APERTURE LIST*
%ADD10R,0.547600X0.447600*%
%ADD11R,0.447600X0.547600*%
%ADD12R,0.297600X1.297600*%
G04 APERTURE END LIST*
D10*
X117210000Y-77360000D03*
X117210000Y-78360000D03*
X129210000Y-77360000D03*
X129210000Y-78360000D03*
X141210000Y-77360000D03*
X141210000Y-78360000D03*
X153210000Y-77360000D03*
X153210000Y-78360000D03*
X165210000Y-77360000D03*
X165210000Y-78360000D03*
X177210000Y-77360000D03*
X177210000Y-78360000D03*
X172800000Y-104300000D03*
X172800000Y-103300000D03*
X160800000Y-104300000D03*
X160800000Y-103300000D03*
X148800000Y-104300000D03*
X148800000Y-103300000D03*
X136800000Y-104300000D03*
X136800000Y-103300000D03*
X124800000Y-104300000D03*
X124800000Y-103300000D03*
D11*
X115210000Y-78360000D03*
X114210000Y-78360000D03*
X127210000Y-78360000D03*
X126210000Y-78360000D03*
X139210000Y-78360000D03*
X138210000Y-78360000D03*
X151210000Y-78360000D03*
X150210000Y-78360000D03*
X163210000Y-78360000D03*
X162210000Y-78360000D03*
X175210000Y-78360000D03*
X174210000Y-78360000D03*
X174800000Y-103300000D03*
X175800000Y-103300000D03*
X162800000Y-103300000D03*
X163800000Y-103300000D03*
X150800000Y-103300000D03*
X151800000Y-103300000D03*
X138800000Y-103300000D03*
X139800000Y-103300000D03*
X126800000Y-103300000D03*
X127800000Y-103300000D03*
D12*
X117870000Y-80210000D03*
X117220000Y-80210000D03*
X116570000Y-80210000D03*
X115920000Y-80210000D03*
X115270000Y-80210000D03*
X114620000Y-80210000D03*
X113970000Y-80210000D03*
X113970000Y-86110000D03*
X114620000Y-86110000D03*
X115270000Y-86110000D03*
X115920000Y-86110000D03*
X116570000Y-86110000D03*
X117220000Y-86110000D03*
X117870000Y-86110000D03*
X129870000Y-80210000D03*
X129220000Y-80210000D03*
X128570000Y-80210000D03*
X127920000Y-80210000D03*
X127270000Y-80210000D03*
X126620000Y-80210000D03*
X125970000Y-80210000D03*
X125970000Y-86110000D03*
X126620000Y-86110000D03*
X127270000Y-86110000D03*
X127920000Y-86110000D03*
X128570000Y-86110000D03*
X129220000Y-86110000D03*
X129870000Y-86110000D03*
X141870000Y-80210000D03*
X141220000Y-80210000D03*
X140570000Y-80210000D03*
X139920000Y-80210000D03*
X139270000Y-80210000D03*
X138620000Y-80210000D03*
X137970000Y-80210000D03*
X137970000Y-86110000D03*
X138620000Y-86110000D03*
X139270000Y-86110000D03*
X139920000Y-86110000D03*
X140570000Y-86110000D03*
X141220000Y-86110000D03*
X141870000Y-86110000D03*
X153870000Y-80210000D03*
X153220000Y-80210000D03*
X152570000Y-80210000D03*
X151920000Y-80210000D03*
X151270000Y-80210000D03*
X150620000Y-80210000D03*
X149970000Y-80210000D03*
X149970000Y-86110000D03*
X150620000Y-86110000D03*
X151270000Y-86110000D03*
X151920000Y-86110000D03*
X152570000Y-86110000D03*
X153220000Y-86110000D03*
X153870000Y-86110000D03*
X165870000Y-80210000D03*
X165220000Y-80210000D03*
X164570000Y-80210000D03*
X163920000Y-80210000D03*
X163270000Y-80210000D03*
X162620000Y-80210000D03*
X161970000Y-80210000D03*
X161970000Y-86110000D03*
X162620000Y-86110000D03*
X163270000Y-86110000D03*
X163920000Y-86110000D03*
X164570000Y-86110000D03*
X165220000Y-86110000D03*
X165870000Y-86110000D03*
X177870000Y-80210000D03*
X177220000Y-80210000D03*
X176570000Y-80210000D03*
X175920000Y-80210000D03*
X175270000Y-80210000D03*
X174620000Y-80210000D03*
X173970000Y-80210000D03*
X173970000Y-86110000D03*
X174620000Y-86110000D03*
X175270000Y-86110000D03*
X175920000Y-86110000D03*
X176570000Y-86110000D03*
X177220000Y-86110000D03*
X177870000Y-86110000D03*
X172140000Y-101450000D03*
X172790000Y-101450000D03*
X173440000Y-101450000D03*
X174090000Y-101450000D03*
X174740000Y-101450000D03*
X175390000Y-101450000D03*
X176040000Y-101450000D03*
X176040000Y-95550000D03*
X175390000Y-95550000D03*
X174740000Y-95550000D03*
X174090000Y-95550000D03*
X173440000Y-95550000D03*
X172790000Y-95550000D03*
X172140000Y-95550000D03*
X160140000Y-101450000D03*
X160790000Y-101450000D03*
X161440000Y-101450000D03*
X162090000Y-101450000D03*
X162740000Y-101450000D03*
X163390000Y-101450000D03*
X164040000Y-101450000D03*
X164040000Y-95550000D03*
X163390000Y-95550000D03*
X162740000Y-95550000D03*
X162090000Y-95550000D03*
X161440000Y-95550000D03*
X160790000Y-95550000D03*
X160140000Y-95550000D03*
X148140000Y-101450000D03*
X148790000Y-101450000D03*
X149440000Y-101450000D03*
X150090000Y-101450000D03*
X150740000Y-101450000D03*
X151390000Y-101450000D03*
X152040000Y-101450000D03*
X152040000Y-95550000D03*
X151390000Y-95550000D03*
X150740000Y-95550000D03*
X150090000Y-95550000D03*
X149440000Y-95550000D03*
X148790000Y-95550000D03*
X148140000Y-95550000D03*
X136140000Y-101450000D03*
X136790000Y-101450000D03*
X137440000Y-101450000D03*
X138090000Y-101450000D03*
X138740000Y-101450000D03*
X139390000Y-101450000D03*
X140040000Y-101450000D03*
X140040000Y-95550000D03*
X139390000Y-95550000D03*
X138740000Y-95550000D03*
X138090000Y-95550000D03*
X137440000Y-95550000D03*
X136790000Y-95550000D03*
X136140000Y-95550000D03*
X124140000Y-101450000D03*
X124790000Y-101450000D03*
X125440000Y-101450000D03*
X126090000Y-101450000D03*
X126740000Y-101450000D03*
X127390000Y-101450000D03*
X128040000Y-101450000D03*
X128040000Y-95550000D03*
X127390000Y-95550000D03*
X126740000Y-95550000D03*
X126090000Y-95550000D03*
X125440000Y-95550000D03*
X124790000Y-95550000D03*
X124140000Y-95550000D03*
X112140000Y-95550000D03*
X112790000Y-95550000D03*
X113440000Y-95550000D03*
X114090000Y-95550000D03*
X114740000Y-95550000D03*
X115390000Y-95550000D03*
X116040000Y-95550000D03*
X116040000Y-101450000D03*
X115390000Y-101450000D03*
X114740000Y-101450000D03*
X114090000Y-101450000D03*
X113440000Y-101450000D03*
X112790000Y-101450000D03*
X112140000Y-101450000D03*
D11*
X115800000Y-103300000D03*
X114800000Y-103300000D03*
D10*
X112800000Y-103300000D03*
X112800000Y-104300000D03*
M02*
