G04 #@! TF.GenerationSoftware,KiCad,Pcbnew,5.0.2-bee76a0~70~ubuntu18.04.1*
G04 #@! TF.CreationDate,2020-03-12T13:59:12+01:00*
G04 #@! TF.ProjectId,output.A1335_long_I2C_panel,6f757470-7574-42e4-9131-3333355f6c6f,rev?*
G04 #@! TF.SameCoordinates,Original*
G04 #@! TF.FileFunction,Paste,Bot*
G04 #@! TF.FilePolarity,Positive*
%FSLAX46Y46*%
G04 Gerber Fmt 4.6, Leading zero omitted, Abs format (unit mm)*
G04 Created by KiCad (PCBNEW 5.0.2-bee76a0~70~ubuntu18.04.1) date Thu 12 Mar 2020 01:59:12 PM CET*
%MOMM*%
%LPD*%
G01*
G04 APERTURE LIST*
%ADD10C,0.447600*%
%ADD11C,0.100000*%
G04 APERTURE END LIST*
D10*
G04 #@! TO.C,SA1*
X118327336Y-113620004D03*
D11*
G36*
X118551136Y-113893804D02*
X118103536Y-113893804D01*
X118103536Y-113632781D01*
X118077862Y-113620004D01*
X118103536Y-113607227D01*
X118103536Y-113346204D01*
X118551136Y-113346204D01*
X118551136Y-113893804D01*
X118551136Y-113893804D01*
G37*
G36*
X118077862Y-113620004D02*
X117951136Y-113683068D01*
X117915099Y-113620004D01*
X117951136Y-113556940D01*
X118077862Y-113620004D01*
X118077862Y-113620004D01*
G37*
D10*
X116327336Y-113620004D03*
D11*
G36*
X116551136Y-113479301D02*
X116684375Y-113578789D01*
X116551136Y-113730716D01*
X116551136Y-113893804D01*
X116103536Y-113893804D01*
X116103536Y-113346204D01*
X116551136Y-113346204D01*
X116551136Y-113479301D01*
X116551136Y-113479301D01*
G37*
G36*
X116739573Y-113620004D02*
X116703536Y-113683068D01*
X116703536Y-113593096D01*
X116739573Y-113620004D01*
X116739573Y-113620004D01*
G37*
G36*
X116703536Y-113593096D02*
X116684375Y-113578789D01*
X116703536Y-113556940D01*
X116703536Y-113593096D01*
X116703536Y-113593096D01*
G37*
D10*
X117327336Y-113620004D03*
D11*
G36*
X117551136Y-113893804D02*
X117103536Y-113893804D01*
X117103536Y-113346204D01*
X117551136Y-113346204D01*
X117551136Y-113893804D01*
X117551136Y-113893804D01*
G37*
G04 #@! TD*
D10*
G04 #@! TO.C,SA1*
X130327336Y-113620004D03*
D11*
G36*
X130551136Y-113893804D02*
X130103536Y-113893804D01*
X130103536Y-113632781D01*
X130077862Y-113620004D01*
X130103536Y-113607227D01*
X130103536Y-113346204D01*
X130551136Y-113346204D01*
X130551136Y-113893804D01*
X130551136Y-113893804D01*
G37*
G36*
X130077862Y-113620004D02*
X129951136Y-113683068D01*
X129915099Y-113620004D01*
X129951136Y-113556940D01*
X130077862Y-113620004D01*
X130077862Y-113620004D01*
G37*
D10*
X128327336Y-113620004D03*
D11*
G36*
X128551136Y-113479301D02*
X128684375Y-113578789D01*
X128551136Y-113730716D01*
X128551136Y-113893804D01*
X128103536Y-113893804D01*
X128103536Y-113346204D01*
X128551136Y-113346204D01*
X128551136Y-113479301D01*
X128551136Y-113479301D01*
G37*
G36*
X128739573Y-113620004D02*
X128703536Y-113683068D01*
X128703536Y-113593096D01*
X128739573Y-113620004D01*
X128739573Y-113620004D01*
G37*
G36*
X128703536Y-113593096D02*
X128684375Y-113578789D01*
X128703536Y-113556940D01*
X128703536Y-113593096D01*
X128703536Y-113593096D01*
G37*
D10*
X129327336Y-113620004D03*
D11*
G36*
X129551136Y-113893804D02*
X129103536Y-113893804D01*
X129103536Y-113346204D01*
X129551136Y-113346204D01*
X129551136Y-113893804D01*
X129551136Y-113893804D01*
G37*
G04 #@! TD*
D10*
G04 #@! TO.C,SA1*
X142327336Y-113620004D03*
D11*
G36*
X142551136Y-113893804D02*
X142103536Y-113893804D01*
X142103536Y-113632781D01*
X142077862Y-113620004D01*
X142103536Y-113607227D01*
X142103536Y-113346204D01*
X142551136Y-113346204D01*
X142551136Y-113893804D01*
X142551136Y-113893804D01*
G37*
G36*
X142077862Y-113620004D02*
X141951136Y-113683068D01*
X141915099Y-113620004D01*
X141951136Y-113556940D01*
X142077862Y-113620004D01*
X142077862Y-113620004D01*
G37*
D10*
X140327336Y-113620004D03*
D11*
G36*
X140551136Y-113479301D02*
X140684375Y-113578789D01*
X140551136Y-113730716D01*
X140551136Y-113893804D01*
X140103536Y-113893804D01*
X140103536Y-113346204D01*
X140551136Y-113346204D01*
X140551136Y-113479301D01*
X140551136Y-113479301D01*
G37*
G36*
X140739573Y-113620004D02*
X140703536Y-113683068D01*
X140703536Y-113593096D01*
X140739573Y-113620004D01*
X140739573Y-113620004D01*
G37*
G36*
X140703536Y-113593096D02*
X140684375Y-113578789D01*
X140703536Y-113556940D01*
X140703536Y-113593096D01*
X140703536Y-113593096D01*
G37*
D10*
X141327336Y-113620004D03*
D11*
G36*
X141551136Y-113893804D02*
X141103536Y-113893804D01*
X141103536Y-113346204D01*
X141551136Y-113346204D01*
X141551136Y-113893804D01*
X141551136Y-113893804D01*
G37*
G04 #@! TD*
D10*
G04 #@! TO.C,SA1*
X154327336Y-113620004D03*
D11*
G36*
X154551136Y-113893804D02*
X154103536Y-113893804D01*
X154103536Y-113632781D01*
X154077862Y-113620004D01*
X154103536Y-113607227D01*
X154103536Y-113346204D01*
X154551136Y-113346204D01*
X154551136Y-113893804D01*
X154551136Y-113893804D01*
G37*
G36*
X154077862Y-113620004D02*
X153951136Y-113683068D01*
X153915099Y-113620004D01*
X153951136Y-113556940D01*
X154077862Y-113620004D01*
X154077862Y-113620004D01*
G37*
D10*
X152327336Y-113620004D03*
D11*
G36*
X152551136Y-113479301D02*
X152684375Y-113578789D01*
X152551136Y-113730716D01*
X152551136Y-113893804D01*
X152103536Y-113893804D01*
X152103536Y-113346204D01*
X152551136Y-113346204D01*
X152551136Y-113479301D01*
X152551136Y-113479301D01*
G37*
G36*
X152739573Y-113620004D02*
X152703536Y-113683068D01*
X152703536Y-113593096D01*
X152739573Y-113620004D01*
X152739573Y-113620004D01*
G37*
G36*
X152703536Y-113593096D02*
X152684375Y-113578789D01*
X152703536Y-113556940D01*
X152703536Y-113593096D01*
X152703536Y-113593096D01*
G37*
D10*
X153327336Y-113620004D03*
D11*
G36*
X153551136Y-113893804D02*
X153103536Y-113893804D01*
X153103536Y-113346204D01*
X153551136Y-113346204D01*
X153551136Y-113893804D01*
X153551136Y-113893804D01*
G37*
G04 #@! TD*
D10*
G04 #@! TO.C,SA1*
X166327336Y-113620004D03*
D11*
G36*
X166551136Y-113893804D02*
X166103536Y-113893804D01*
X166103536Y-113632781D01*
X166077862Y-113620004D01*
X166103536Y-113607227D01*
X166103536Y-113346204D01*
X166551136Y-113346204D01*
X166551136Y-113893804D01*
X166551136Y-113893804D01*
G37*
G36*
X166077862Y-113620004D02*
X165951136Y-113683068D01*
X165915099Y-113620004D01*
X165951136Y-113556940D01*
X166077862Y-113620004D01*
X166077862Y-113620004D01*
G37*
D10*
X164327336Y-113620004D03*
D11*
G36*
X164551136Y-113479301D02*
X164684375Y-113578789D01*
X164551136Y-113730716D01*
X164551136Y-113893804D01*
X164103536Y-113893804D01*
X164103536Y-113346204D01*
X164551136Y-113346204D01*
X164551136Y-113479301D01*
X164551136Y-113479301D01*
G37*
G36*
X164739573Y-113620004D02*
X164703536Y-113683068D01*
X164703536Y-113593096D01*
X164739573Y-113620004D01*
X164739573Y-113620004D01*
G37*
G36*
X164703536Y-113593096D02*
X164684375Y-113578789D01*
X164703536Y-113556940D01*
X164703536Y-113593096D01*
X164703536Y-113593096D01*
G37*
D10*
X165327336Y-113620004D03*
D11*
G36*
X165551136Y-113893804D02*
X165103536Y-113893804D01*
X165103536Y-113346204D01*
X165551136Y-113346204D01*
X165551136Y-113893804D01*
X165551136Y-113893804D01*
G37*
G04 #@! TD*
D10*
G04 #@! TO.C,SA1*
X178327336Y-113620004D03*
D11*
G36*
X178551136Y-113893804D02*
X178103536Y-113893804D01*
X178103536Y-113632781D01*
X178077862Y-113620004D01*
X178103536Y-113607227D01*
X178103536Y-113346204D01*
X178551136Y-113346204D01*
X178551136Y-113893804D01*
X178551136Y-113893804D01*
G37*
G36*
X178077862Y-113620004D02*
X177951136Y-113683068D01*
X177915099Y-113620004D01*
X177951136Y-113556940D01*
X178077862Y-113620004D01*
X178077862Y-113620004D01*
G37*
D10*
X176327336Y-113620004D03*
D11*
G36*
X176551136Y-113479301D02*
X176684375Y-113578789D01*
X176551136Y-113730716D01*
X176551136Y-113893804D01*
X176103536Y-113893804D01*
X176103536Y-113346204D01*
X176551136Y-113346204D01*
X176551136Y-113479301D01*
X176551136Y-113479301D01*
G37*
G36*
X176739573Y-113620004D02*
X176703536Y-113683068D01*
X176703536Y-113593096D01*
X176739573Y-113620004D01*
X176739573Y-113620004D01*
G37*
G36*
X176703536Y-113593096D02*
X176684375Y-113578789D01*
X176703536Y-113556940D01*
X176703536Y-113593096D01*
X176703536Y-113593096D01*
G37*
D10*
X177327336Y-113620004D03*
D11*
G36*
X177551136Y-113893804D02*
X177103536Y-113893804D01*
X177103536Y-113346204D01*
X177551136Y-113346204D01*
X177551136Y-113893804D01*
X177551136Y-113893804D01*
G37*
G04 #@! TD*
D10*
G04 #@! TO.C,SA1*
X172600000Y-70500000D03*
D11*
G36*
X172376200Y-70226200D02*
X172823800Y-70226200D01*
X172823800Y-70487223D01*
X172849474Y-70500000D01*
X172823800Y-70512777D01*
X172823800Y-70773800D01*
X172376200Y-70773800D01*
X172376200Y-70226200D01*
X172376200Y-70226200D01*
G37*
G36*
X172849474Y-70500000D02*
X172976200Y-70436936D01*
X173012237Y-70500000D01*
X172976200Y-70563064D01*
X172849474Y-70500000D01*
X172849474Y-70500000D01*
G37*
D10*
X174600000Y-70500000D03*
D11*
G36*
X174376200Y-70640703D02*
X174242961Y-70541215D01*
X174376200Y-70389288D01*
X174376200Y-70226200D01*
X174823800Y-70226200D01*
X174823800Y-70773800D01*
X174376200Y-70773800D01*
X174376200Y-70640703D01*
X174376200Y-70640703D01*
G37*
G36*
X174187763Y-70500000D02*
X174223800Y-70436936D01*
X174223800Y-70526908D01*
X174187763Y-70500000D01*
X174187763Y-70500000D01*
G37*
G36*
X174223800Y-70526908D02*
X174242961Y-70541215D01*
X174223800Y-70563064D01*
X174223800Y-70526908D01*
X174223800Y-70526908D01*
G37*
D10*
X173600000Y-70500000D03*
D11*
G36*
X173376200Y-70226200D02*
X173823800Y-70226200D01*
X173823800Y-70773800D01*
X173376200Y-70773800D01*
X173376200Y-70226200D01*
X173376200Y-70226200D01*
G37*
G04 #@! TD*
D10*
G04 #@! TO.C,SA1*
X160600000Y-70500000D03*
D11*
G36*
X160376200Y-70226200D02*
X160823800Y-70226200D01*
X160823800Y-70487223D01*
X160849474Y-70500000D01*
X160823800Y-70512777D01*
X160823800Y-70773800D01*
X160376200Y-70773800D01*
X160376200Y-70226200D01*
X160376200Y-70226200D01*
G37*
G36*
X160849474Y-70500000D02*
X160976200Y-70436936D01*
X161012237Y-70500000D01*
X160976200Y-70563064D01*
X160849474Y-70500000D01*
X160849474Y-70500000D01*
G37*
D10*
X162600000Y-70500000D03*
D11*
G36*
X162376200Y-70640703D02*
X162242961Y-70541215D01*
X162376200Y-70389288D01*
X162376200Y-70226200D01*
X162823800Y-70226200D01*
X162823800Y-70773800D01*
X162376200Y-70773800D01*
X162376200Y-70640703D01*
X162376200Y-70640703D01*
G37*
G36*
X162187763Y-70500000D02*
X162223800Y-70436936D01*
X162223800Y-70526908D01*
X162187763Y-70500000D01*
X162187763Y-70500000D01*
G37*
G36*
X162223800Y-70526908D02*
X162242961Y-70541215D01*
X162223800Y-70563064D01*
X162223800Y-70526908D01*
X162223800Y-70526908D01*
G37*
D10*
X161600000Y-70500000D03*
D11*
G36*
X161376200Y-70226200D02*
X161823800Y-70226200D01*
X161823800Y-70773800D01*
X161376200Y-70773800D01*
X161376200Y-70226200D01*
X161376200Y-70226200D01*
G37*
G04 #@! TD*
D10*
G04 #@! TO.C,SA1*
X148600000Y-70500000D03*
D11*
G36*
X148376200Y-70226200D02*
X148823800Y-70226200D01*
X148823800Y-70487223D01*
X148849474Y-70500000D01*
X148823800Y-70512777D01*
X148823800Y-70773800D01*
X148376200Y-70773800D01*
X148376200Y-70226200D01*
X148376200Y-70226200D01*
G37*
G36*
X148849474Y-70500000D02*
X148976200Y-70436936D01*
X149012237Y-70500000D01*
X148976200Y-70563064D01*
X148849474Y-70500000D01*
X148849474Y-70500000D01*
G37*
D10*
X150600000Y-70500000D03*
D11*
G36*
X150376200Y-70640703D02*
X150242961Y-70541215D01*
X150376200Y-70389288D01*
X150376200Y-70226200D01*
X150823800Y-70226200D01*
X150823800Y-70773800D01*
X150376200Y-70773800D01*
X150376200Y-70640703D01*
X150376200Y-70640703D01*
G37*
G36*
X150187763Y-70500000D02*
X150223800Y-70436936D01*
X150223800Y-70526908D01*
X150187763Y-70500000D01*
X150187763Y-70500000D01*
G37*
G36*
X150223800Y-70526908D02*
X150242961Y-70541215D01*
X150223800Y-70563064D01*
X150223800Y-70526908D01*
X150223800Y-70526908D01*
G37*
D10*
X149600000Y-70500000D03*
D11*
G36*
X149376200Y-70226200D02*
X149823800Y-70226200D01*
X149823800Y-70773800D01*
X149376200Y-70773800D01*
X149376200Y-70226200D01*
X149376200Y-70226200D01*
G37*
G04 #@! TD*
D10*
G04 #@! TO.C,SA1*
X136600000Y-70500000D03*
D11*
G36*
X136376200Y-70226200D02*
X136823800Y-70226200D01*
X136823800Y-70487223D01*
X136849474Y-70500000D01*
X136823800Y-70512777D01*
X136823800Y-70773800D01*
X136376200Y-70773800D01*
X136376200Y-70226200D01*
X136376200Y-70226200D01*
G37*
G36*
X136849474Y-70500000D02*
X136976200Y-70436936D01*
X137012237Y-70500000D01*
X136976200Y-70563064D01*
X136849474Y-70500000D01*
X136849474Y-70500000D01*
G37*
D10*
X138600000Y-70500000D03*
D11*
G36*
X138376200Y-70640703D02*
X138242961Y-70541215D01*
X138376200Y-70389288D01*
X138376200Y-70226200D01*
X138823800Y-70226200D01*
X138823800Y-70773800D01*
X138376200Y-70773800D01*
X138376200Y-70640703D01*
X138376200Y-70640703D01*
G37*
G36*
X138187763Y-70500000D02*
X138223800Y-70436936D01*
X138223800Y-70526908D01*
X138187763Y-70500000D01*
X138187763Y-70500000D01*
G37*
G36*
X138223800Y-70526908D02*
X138242961Y-70541215D01*
X138223800Y-70563064D01*
X138223800Y-70526908D01*
X138223800Y-70526908D01*
G37*
D10*
X137600000Y-70500000D03*
D11*
G36*
X137376200Y-70226200D02*
X137823800Y-70226200D01*
X137823800Y-70773800D01*
X137376200Y-70773800D01*
X137376200Y-70226200D01*
X137376200Y-70226200D01*
G37*
G04 #@! TD*
D10*
G04 #@! TO.C,SA1*
X124600000Y-70500000D03*
D11*
G36*
X124376200Y-70226200D02*
X124823800Y-70226200D01*
X124823800Y-70487223D01*
X124849474Y-70500000D01*
X124823800Y-70512777D01*
X124823800Y-70773800D01*
X124376200Y-70773800D01*
X124376200Y-70226200D01*
X124376200Y-70226200D01*
G37*
G36*
X124849474Y-70500000D02*
X124976200Y-70436936D01*
X125012237Y-70500000D01*
X124976200Y-70563064D01*
X124849474Y-70500000D01*
X124849474Y-70500000D01*
G37*
D10*
X126600000Y-70500000D03*
D11*
G36*
X126376200Y-70640703D02*
X126242961Y-70541215D01*
X126376200Y-70389288D01*
X126376200Y-70226200D01*
X126823800Y-70226200D01*
X126823800Y-70773800D01*
X126376200Y-70773800D01*
X126376200Y-70640703D01*
X126376200Y-70640703D01*
G37*
G36*
X126187763Y-70500000D02*
X126223800Y-70436936D01*
X126223800Y-70526908D01*
X126187763Y-70500000D01*
X126187763Y-70500000D01*
G37*
G36*
X126223800Y-70526908D02*
X126242961Y-70541215D01*
X126223800Y-70563064D01*
X126223800Y-70526908D01*
X126223800Y-70526908D01*
G37*
D10*
X125600000Y-70500000D03*
D11*
G36*
X125376200Y-70226200D02*
X125823800Y-70226200D01*
X125823800Y-70773800D01*
X125376200Y-70773800D01*
X125376200Y-70226200D01*
X125376200Y-70226200D01*
G37*
G04 #@! TD*
D10*
G04 #@! TO.C,SA0*
X118327336Y-114720004D03*
D11*
G36*
X118551136Y-114993804D02*
X118103536Y-114993804D01*
X118103536Y-114732781D01*
X118077862Y-114720004D01*
X118103536Y-114707227D01*
X118103536Y-114446204D01*
X118551136Y-114446204D01*
X118551136Y-114993804D01*
X118551136Y-114993804D01*
G37*
G36*
X118077862Y-114720004D02*
X117951136Y-114783068D01*
X117915099Y-114720004D01*
X117951136Y-114656940D01*
X118077862Y-114720004D01*
X118077862Y-114720004D01*
G37*
D10*
X116327336Y-114720004D03*
D11*
G36*
X116551136Y-114579301D02*
X116684375Y-114678789D01*
X116551136Y-114830716D01*
X116551136Y-114993804D01*
X116103536Y-114993804D01*
X116103536Y-114446204D01*
X116551136Y-114446204D01*
X116551136Y-114579301D01*
X116551136Y-114579301D01*
G37*
G36*
X116739573Y-114720004D02*
X116703536Y-114783068D01*
X116703536Y-114693096D01*
X116739573Y-114720004D01*
X116739573Y-114720004D01*
G37*
G36*
X116703536Y-114693096D02*
X116684375Y-114678789D01*
X116703536Y-114656940D01*
X116703536Y-114693096D01*
X116703536Y-114693096D01*
G37*
D10*
X117327336Y-114720004D03*
D11*
G36*
X117551136Y-114993804D02*
X117103536Y-114993804D01*
X117103536Y-114446204D01*
X117551136Y-114446204D01*
X117551136Y-114993804D01*
X117551136Y-114993804D01*
G37*
G04 #@! TD*
D10*
G04 #@! TO.C,SA0*
X130327336Y-114720004D03*
D11*
G36*
X130551136Y-114993804D02*
X130103536Y-114993804D01*
X130103536Y-114732781D01*
X130077862Y-114720004D01*
X130103536Y-114707227D01*
X130103536Y-114446204D01*
X130551136Y-114446204D01*
X130551136Y-114993804D01*
X130551136Y-114993804D01*
G37*
G36*
X130077862Y-114720004D02*
X129951136Y-114783068D01*
X129915099Y-114720004D01*
X129951136Y-114656940D01*
X130077862Y-114720004D01*
X130077862Y-114720004D01*
G37*
D10*
X128327336Y-114720004D03*
D11*
G36*
X128551136Y-114579301D02*
X128684375Y-114678789D01*
X128551136Y-114830716D01*
X128551136Y-114993804D01*
X128103536Y-114993804D01*
X128103536Y-114446204D01*
X128551136Y-114446204D01*
X128551136Y-114579301D01*
X128551136Y-114579301D01*
G37*
G36*
X128739573Y-114720004D02*
X128703536Y-114783068D01*
X128703536Y-114693096D01*
X128739573Y-114720004D01*
X128739573Y-114720004D01*
G37*
G36*
X128703536Y-114693096D02*
X128684375Y-114678789D01*
X128703536Y-114656940D01*
X128703536Y-114693096D01*
X128703536Y-114693096D01*
G37*
D10*
X129327336Y-114720004D03*
D11*
G36*
X129551136Y-114993804D02*
X129103536Y-114993804D01*
X129103536Y-114446204D01*
X129551136Y-114446204D01*
X129551136Y-114993804D01*
X129551136Y-114993804D01*
G37*
G04 #@! TD*
D10*
G04 #@! TO.C,SA0*
X142327336Y-114720004D03*
D11*
G36*
X142551136Y-114993804D02*
X142103536Y-114993804D01*
X142103536Y-114732781D01*
X142077862Y-114720004D01*
X142103536Y-114707227D01*
X142103536Y-114446204D01*
X142551136Y-114446204D01*
X142551136Y-114993804D01*
X142551136Y-114993804D01*
G37*
G36*
X142077862Y-114720004D02*
X141951136Y-114783068D01*
X141915099Y-114720004D01*
X141951136Y-114656940D01*
X142077862Y-114720004D01*
X142077862Y-114720004D01*
G37*
D10*
X140327336Y-114720004D03*
D11*
G36*
X140551136Y-114579301D02*
X140684375Y-114678789D01*
X140551136Y-114830716D01*
X140551136Y-114993804D01*
X140103536Y-114993804D01*
X140103536Y-114446204D01*
X140551136Y-114446204D01*
X140551136Y-114579301D01*
X140551136Y-114579301D01*
G37*
G36*
X140739573Y-114720004D02*
X140703536Y-114783068D01*
X140703536Y-114693096D01*
X140739573Y-114720004D01*
X140739573Y-114720004D01*
G37*
G36*
X140703536Y-114693096D02*
X140684375Y-114678789D01*
X140703536Y-114656940D01*
X140703536Y-114693096D01*
X140703536Y-114693096D01*
G37*
D10*
X141327336Y-114720004D03*
D11*
G36*
X141551136Y-114993804D02*
X141103536Y-114993804D01*
X141103536Y-114446204D01*
X141551136Y-114446204D01*
X141551136Y-114993804D01*
X141551136Y-114993804D01*
G37*
G04 #@! TD*
D10*
G04 #@! TO.C,SA0*
X154327336Y-114720004D03*
D11*
G36*
X154551136Y-114993804D02*
X154103536Y-114993804D01*
X154103536Y-114732781D01*
X154077862Y-114720004D01*
X154103536Y-114707227D01*
X154103536Y-114446204D01*
X154551136Y-114446204D01*
X154551136Y-114993804D01*
X154551136Y-114993804D01*
G37*
G36*
X154077862Y-114720004D02*
X153951136Y-114783068D01*
X153915099Y-114720004D01*
X153951136Y-114656940D01*
X154077862Y-114720004D01*
X154077862Y-114720004D01*
G37*
D10*
X152327336Y-114720004D03*
D11*
G36*
X152551136Y-114579301D02*
X152684375Y-114678789D01*
X152551136Y-114830716D01*
X152551136Y-114993804D01*
X152103536Y-114993804D01*
X152103536Y-114446204D01*
X152551136Y-114446204D01*
X152551136Y-114579301D01*
X152551136Y-114579301D01*
G37*
G36*
X152739573Y-114720004D02*
X152703536Y-114783068D01*
X152703536Y-114693096D01*
X152739573Y-114720004D01*
X152739573Y-114720004D01*
G37*
G36*
X152703536Y-114693096D02*
X152684375Y-114678789D01*
X152703536Y-114656940D01*
X152703536Y-114693096D01*
X152703536Y-114693096D01*
G37*
D10*
X153327336Y-114720004D03*
D11*
G36*
X153551136Y-114993804D02*
X153103536Y-114993804D01*
X153103536Y-114446204D01*
X153551136Y-114446204D01*
X153551136Y-114993804D01*
X153551136Y-114993804D01*
G37*
G04 #@! TD*
D10*
G04 #@! TO.C,SA0*
X166327336Y-114720004D03*
D11*
G36*
X166551136Y-114993804D02*
X166103536Y-114993804D01*
X166103536Y-114732781D01*
X166077862Y-114720004D01*
X166103536Y-114707227D01*
X166103536Y-114446204D01*
X166551136Y-114446204D01*
X166551136Y-114993804D01*
X166551136Y-114993804D01*
G37*
G36*
X166077862Y-114720004D02*
X165951136Y-114783068D01*
X165915099Y-114720004D01*
X165951136Y-114656940D01*
X166077862Y-114720004D01*
X166077862Y-114720004D01*
G37*
D10*
X164327336Y-114720004D03*
D11*
G36*
X164551136Y-114579301D02*
X164684375Y-114678789D01*
X164551136Y-114830716D01*
X164551136Y-114993804D01*
X164103536Y-114993804D01*
X164103536Y-114446204D01*
X164551136Y-114446204D01*
X164551136Y-114579301D01*
X164551136Y-114579301D01*
G37*
G36*
X164739573Y-114720004D02*
X164703536Y-114783068D01*
X164703536Y-114693096D01*
X164739573Y-114720004D01*
X164739573Y-114720004D01*
G37*
G36*
X164703536Y-114693096D02*
X164684375Y-114678789D01*
X164703536Y-114656940D01*
X164703536Y-114693096D01*
X164703536Y-114693096D01*
G37*
D10*
X165327336Y-114720004D03*
D11*
G36*
X165551136Y-114993804D02*
X165103536Y-114993804D01*
X165103536Y-114446204D01*
X165551136Y-114446204D01*
X165551136Y-114993804D01*
X165551136Y-114993804D01*
G37*
G04 #@! TD*
D10*
G04 #@! TO.C,SA0*
X178327336Y-114720004D03*
D11*
G36*
X178551136Y-114993804D02*
X178103536Y-114993804D01*
X178103536Y-114732781D01*
X178077862Y-114720004D01*
X178103536Y-114707227D01*
X178103536Y-114446204D01*
X178551136Y-114446204D01*
X178551136Y-114993804D01*
X178551136Y-114993804D01*
G37*
G36*
X178077862Y-114720004D02*
X177951136Y-114783068D01*
X177915099Y-114720004D01*
X177951136Y-114656940D01*
X178077862Y-114720004D01*
X178077862Y-114720004D01*
G37*
D10*
X176327336Y-114720004D03*
D11*
G36*
X176551136Y-114579301D02*
X176684375Y-114678789D01*
X176551136Y-114830716D01*
X176551136Y-114993804D01*
X176103536Y-114993804D01*
X176103536Y-114446204D01*
X176551136Y-114446204D01*
X176551136Y-114579301D01*
X176551136Y-114579301D01*
G37*
G36*
X176739573Y-114720004D02*
X176703536Y-114783068D01*
X176703536Y-114693096D01*
X176739573Y-114720004D01*
X176739573Y-114720004D01*
G37*
G36*
X176703536Y-114693096D02*
X176684375Y-114678789D01*
X176703536Y-114656940D01*
X176703536Y-114693096D01*
X176703536Y-114693096D01*
G37*
D10*
X177327336Y-114720004D03*
D11*
G36*
X177551136Y-114993804D02*
X177103536Y-114993804D01*
X177103536Y-114446204D01*
X177551136Y-114446204D01*
X177551136Y-114993804D01*
X177551136Y-114993804D01*
G37*
G04 #@! TD*
D10*
G04 #@! TO.C,SA0*
X172600000Y-69400000D03*
D11*
G36*
X172376200Y-69126200D02*
X172823800Y-69126200D01*
X172823800Y-69387223D01*
X172849474Y-69400000D01*
X172823800Y-69412777D01*
X172823800Y-69673800D01*
X172376200Y-69673800D01*
X172376200Y-69126200D01*
X172376200Y-69126200D01*
G37*
G36*
X172849474Y-69400000D02*
X172976200Y-69336936D01*
X173012237Y-69400000D01*
X172976200Y-69463064D01*
X172849474Y-69400000D01*
X172849474Y-69400000D01*
G37*
D10*
X174600000Y-69400000D03*
D11*
G36*
X174376200Y-69540703D02*
X174242961Y-69441215D01*
X174376200Y-69289288D01*
X174376200Y-69126200D01*
X174823800Y-69126200D01*
X174823800Y-69673800D01*
X174376200Y-69673800D01*
X174376200Y-69540703D01*
X174376200Y-69540703D01*
G37*
G36*
X174187763Y-69400000D02*
X174223800Y-69336936D01*
X174223800Y-69426908D01*
X174187763Y-69400000D01*
X174187763Y-69400000D01*
G37*
G36*
X174223800Y-69426908D02*
X174242961Y-69441215D01*
X174223800Y-69463064D01*
X174223800Y-69426908D01*
X174223800Y-69426908D01*
G37*
D10*
X173600000Y-69400000D03*
D11*
G36*
X173376200Y-69126200D02*
X173823800Y-69126200D01*
X173823800Y-69673800D01*
X173376200Y-69673800D01*
X173376200Y-69126200D01*
X173376200Y-69126200D01*
G37*
G04 #@! TD*
D10*
G04 #@! TO.C,SA0*
X160600000Y-69400000D03*
D11*
G36*
X160376200Y-69126200D02*
X160823800Y-69126200D01*
X160823800Y-69387223D01*
X160849474Y-69400000D01*
X160823800Y-69412777D01*
X160823800Y-69673800D01*
X160376200Y-69673800D01*
X160376200Y-69126200D01*
X160376200Y-69126200D01*
G37*
G36*
X160849474Y-69400000D02*
X160976200Y-69336936D01*
X161012237Y-69400000D01*
X160976200Y-69463064D01*
X160849474Y-69400000D01*
X160849474Y-69400000D01*
G37*
D10*
X162600000Y-69400000D03*
D11*
G36*
X162376200Y-69540703D02*
X162242961Y-69441215D01*
X162376200Y-69289288D01*
X162376200Y-69126200D01*
X162823800Y-69126200D01*
X162823800Y-69673800D01*
X162376200Y-69673800D01*
X162376200Y-69540703D01*
X162376200Y-69540703D01*
G37*
G36*
X162187763Y-69400000D02*
X162223800Y-69336936D01*
X162223800Y-69426908D01*
X162187763Y-69400000D01*
X162187763Y-69400000D01*
G37*
G36*
X162223800Y-69426908D02*
X162242961Y-69441215D01*
X162223800Y-69463064D01*
X162223800Y-69426908D01*
X162223800Y-69426908D01*
G37*
D10*
X161600000Y-69400000D03*
D11*
G36*
X161376200Y-69126200D02*
X161823800Y-69126200D01*
X161823800Y-69673800D01*
X161376200Y-69673800D01*
X161376200Y-69126200D01*
X161376200Y-69126200D01*
G37*
G04 #@! TD*
D10*
G04 #@! TO.C,SA0*
X148600000Y-69400000D03*
D11*
G36*
X148376200Y-69126200D02*
X148823800Y-69126200D01*
X148823800Y-69387223D01*
X148849474Y-69400000D01*
X148823800Y-69412777D01*
X148823800Y-69673800D01*
X148376200Y-69673800D01*
X148376200Y-69126200D01*
X148376200Y-69126200D01*
G37*
G36*
X148849474Y-69400000D02*
X148976200Y-69336936D01*
X149012237Y-69400000D01*
X148976200Y-69463064D01*
X148849474Y-69400000D01*
X148849474Y-69400000D01*
G37*
D10*
X150600000Y-69400000D03*
D11*
G36*
X150376200Y-69540703D02*
X150242961Y-69441215D01*
X150376200Y-69289288D01*
X150376200Y-69126200D01*
X150823800Y-69126200D01*
X150823800Y-69673800D01*
X150376200Y-69673800D01*
X150376200Y-69540703D01*
X150376200Y-69540703D01*
G37*
G36*
X150187763Y-69400000D02*
X150223800Y-69336936D01*
X150223800Y-69426908D01*
X150187763Y-69400000D01*
X150187763Y-69400000D01*
G37*
G36*
X150223800Y-69426908D02*
X150242961Y-69441215D01*
X150223800Y-69463064D01*
X150223800Y-69426908D01*
X150223800Y-69426908D01*
G37*
D10*
X149600000Y-69400000D03*
D11*
G36*
X149376200Y-69126200D02*
X149823800Y-69126200D01*
X149823800Y-69673800D01*
X149376200Y-69673800D01*
X149376200Y-69126200D01*
X149376200Y-69126200D01*
G37*
G04 #@! TD*
D10*
G04 #@! TO.C,SA0*
X136600000Y-69400000D03*
D11*
G36*
X136376200Y-69126200D02*
X136823800Y-69126200D01*
X136823800Y-69387223D01*
X136849474Y-69400000D01*
X136823800Y-69412777D01*
X136823800Y-69673800D01*
X136376200Y-69673800D01*
X136376200Y-69126200D01*
X136376200Y-69126200D01*
G37*
G36*
X136849474Y-69400000D02*
X136976200Y-69336936D01*
X137012237Y-69400000D01*
X136976200Y-69463064D01*
X136849474Y-69400000D01*
X136849474Y-69400000D01*
G37*
D10*
X138600000Y-69400000D03*
D11*
G36*
X138376200Y-69540703D02*
X138242961Y-69441215D01*
X138376200Y-69289288D01*
X138376200Y-69126200D01*
X138823800Y-69126200D01*
X138823800Y-69673800D01*
X138376200Y-69673800D01*
X138376200Y-69540703D01*
X138376200Y-69540703D01*
G37*
G36*
X138187763Y-69400000D02*
X138223800Y-69336936D01*
X138223800Y-69426908D01*
X138187763Y-69400000D01*
X138187763Y-69400000D01*
G37*
G36*
X138223800Y-69426908D02*
X138242961Y-69441215D01*
X138223800Y-69463064D01*
X138223800Y-69426908D01*
X138223800Y-69426908D01*
G37*
D10*
X137600000Y-69400000D03*
D11*
G36*
X137376200Y-69126200D02*
X137823800Y-69126200D01*
X137823800Y-69673800D01*
X137376200Y-69673800D01*
X137376200Y-69126200D01*
X137376200Y-69126200D01*
G37*
G04 #@! TD*
D10*
G04 #@! TO.C,SA0*
X124600000Y-69400000D03*
D11*
G36*
X124376200Y-69126200D02*
X124823800Y-69126200D01*
X124823800Y-69387223D01*
X124849474Y-69400000D01*
X124823800Y-69412777D01*
X124823800Y-69673800D01*
X124376200Y-69673800D01*
X124376200Y-69126200D01*
X124376200Y-69126200D01*
G37*
G36*
X124849474Y-69400000D02*
X124976200Y-69336936D01*
X125012237Y-69400000D01*
X124976200Y-69463064D01*
X124849474Y-69400000D01*
X124849474Y-69400000D01*
G37*
D10*
X126600000Y-69400000D03*
D11*
G36*
X126376200Y-69540703D02*
X126242961Y-69441215D01*
X126376200Y-69289288D01*
X126376200Y-69126200D01*
X126823800Y-69126200D01*
X126823800Y-69673800D01*
X126376200Y-69673800D01*
X126376200Y-69540703D01*
X126376200Y-69540703D01*
G37*
G36*
X126187763Y-69400000D02*
X126223800Y-69336936D01*
X126223800Y-69426908D01*
X126187763Y-69400000D01*
X126187763Y-69400000D01*
G37*
G36*
X126223800Y-69426908D02*
X126242961Y-69441215D01*
X126223800Y-69463064D01*
X126223800Y-69426908D01*
X126223800Y-69426908D01*
G37*
D10*
X125600000Y-69400000D03*
D11*
G36*
X125376200Y-69126200D02*
X125823800Y-69126200D01*
X125823800Y-69673800D01*
X125376200Y-69673800D01*
X125376200Y-69126200D01*
X125376200Y-69126200D01*
G37*
G04 #@! TD*
D10*
G04 #@! TO.C,SPI-I2C*
X114327336Y-112220004D03*
D11*
G36*
X114601136Y-111996204D02*
X114601136Y-112443804D01*
X114340113Y-112443804D01*
X114327336Y-112469478D01*
X114314559Y-112443804D01*
X114053536Y-112443804D01*
X114053536Y-111996204D01*
X114601136Y-111996204D01*
X114601136Y-111996204D01*
G37*
G36*
X114327336Y-112469478D02*
X114390400Y-112596204D01*
X114327336Y-112632241D01*
X114264272Y-112596204D01*
X114327336Y-112469478D01*
X114327336Y-112469478D01*
G37*
D10*
X114327336Y-114220004D03*
D11*
G36*
X114186633Y-113996204D02*
X114286121Y-113862965D01*
X114438048Y-113996204D01*
X114601136Y-113996204D01*
X114601136Y-114443804D01*
X114053536Y-114443804D01*
X114053536Y-113996204D01*
X114186633Y-113996204D01*
X114186633Y-113996204D01*
G37*
G36*
X114327336Y-113807767D02*
X114390400Y-113843804D01*
X114300428Y-113843804D01*
X114327336Y-113807767D01*
X114327336Y-113807767D01*
G37*
G36*
X114300428Y-113843804D02*
X114286121Y-113862965D01*
X114264272Y-113843804D01*
X114300428Y-113843804D01*
X114300428Y-113843804D01*
G37*
D10*
X114327336Y-113220004D03*
D11*
G36*
X114601136Y-112996204D02*
X114601136Y-113443804D01*
X114053536Y-113443804D01*
X114053536Y-112996204D01*
X114601136Y-112996204D01*
X114601136Y-112996204D01*
G37*
G04 #@! TD*
D10*
G04 #@! TO.C,SPI-I2C*
X126327336Y-112220004D03*
D11*
G36*
X126601136Y-111996204D02*
X126601136Y-112443804D01*
X126340113Y-112443804D01*
X126327336Y-112469478D01*
X126314559Y-112443804D01*
X126053536Y-112443804D01*
X126053536Y-111996204D01*
X126601136Y-111996204D01*
X126601136Y-111996204D01*
G37*
G36*
X126327336Y-112469478D02*
X126390400Y-112596204D01*
X126327336Y-112632241D01*
X126264272Y-112596204D01*
X126327336Y-112469478D01*
X126327336Y-112469478D01*
G37*
D10*
X126327336Y-114220004D03*
D11*
G36*
X126186633Y-113996204D02*
X126286121Y-113862965D01*
X126438048Y-113996204D01*
X126601136Y-113996204D01*
X126601136Y-114443804D01*
X126053536Y-114443804D01*
X126053536Y-113996204D01*
X126186633Y-113996204D01*
X126186633Y-113996204D01*
G37*
G36*
X126327336Y-113807767D02*
X126390400Y-113843804D01*
X126300428Y-113843804D01*
X126327336Y-113807767D01*
X126327336Y-113807767D01*
G37*
G36*
X126300428Y-113843804D02*
X126286121Y-113862965D01*
X126264272Y-113843804D01*
X126300428Y-113843804D01*
X126300428Y-113843804D01*
G37*
D10*
X126327336Y-113220004D03*
D11*
G36*
X126601136Y-112996204D02*
X126601136Y-113443804D01*
X126053536Y-113443804D01*
X126053536Y-112996204D01*
X126601136Y-112996204D01*
X126601136Y-112996204D01*
G37*
G04 #@! TD*
D10*
G04 #@! TO.C,SPI-I2C*
X138327336Y-112220004D03*
D11*
G36*
X138601136Y-111996204D02*
X138601136Y-112443804D01*
X138340113Y-112443804D01*
X138327336Y-112469478D01*
X138314559Y-112443804D01*
X138053536Y-112443804D01*
X138053536Y-111996204D01*
X138601136Y-111996204D01*
X138601136Y-111996204D01*
G37*
G36*
X138327336Y-112469478D02*
X138390400Y-112596204D01*
X138327336Y-112632241D01*
X138264272Y-112596204D01*
X138327336Y-112469478D01*
X138327336Y-112469478D01*
G37*
D10*
X138327336Y-114220004D03*
D11*
G36*
X138186633Y-113996204D02*
X138286121Y-113862965D01*
X138438048Y-113996204D01*
X138601136Y-113996204D01*
X138601136Y-114443804D01*
X138053536Y-114443804D01*
X138053536Y-113996204D01*
X138186633Y-113996204D01*
X138186633Y-113996204D01*
G37*
G36*
X138327336Y-113807767D02*
X138390400Y-113843804D01*
X138300428Y-113843804D01*
X138327336Y-113807767D01*
X138327336Y-113807767D01*
G37*
G36*
X138300428Y-113843804D02*
X138286121Y-113862965D01*
X138264272Y-113843804D01*
X138300428Y-113843804D01*
X138300428Y-113843804D01*
G37*
D10*
X138327336Y-113220004D03*
D11*
G36*
X138601136Y-112996204D02*
X138601136Y-113443804D01*
X138053536Y-113443804D01*
X138053536Y-112996204D01*
X138601136Y-112996204D01*
X138601136Y-112996204D01*
G37*
G04 #@! TD*
D10*
G04 #@! TO.C,SPI-I2C*
X150327336Y-112220004D03*
D11*
G36*
X150601136Y-111996204D02*
X150601136Y-112443804D01*
X150340113Y-112443804D01*
X150327336Y-112469478D01*
X150314559Y-112443804D01*
X150053536Y-112443804D01*
X150053536Y-111996204D01*
X150601136Y-111996204D01*
X150601136Y-111996204D01*
G37*
G36*
X150327336Y-112469478D02*
X150390400Y-112596204D01*
X150327336Y-112632241D01*
X150264272Y-112596204D01*
X150327336Y-112469478D01*
X150327336Y-112469478D01*
G37*
D10*
X150327336Y-114220004D03*
D11*
G36*
X150186633Y-113996204D02*
X150286121Y-113862965D01*
X150438048Y-113996204D01*
X150601136Y-113996204D01*
X150601136Y-114443804D01*
X150053536Y-114443804D01*
X150053536Y-113996204D01*
X150186633Y-113996204D01*
X150186633Y-113996204D01*
G37*
G36*
X150327336Y-113807767D02*
X150390400Y-113843804D01*
X150300428Y-113843804D01*
X150327336Y-113807767D01*
X150327336Y-113807767D01*
G37*
G36*
X150300428Y-113843804D02*
X150286121Y-113862965D01*
X150264272Y-113843804D01*
X150300428Y-113843804D01*
X150300428Y-113843804D01*
G37*
D10*
X150327336Y-113220004D03*
D11*
G36*
X150601136Y-112996204D02*
X150601136Y-113443804D01*
X150053536Y-113443804D01*
X150053536Y-112996204D01*
X150601136Y-112996204D01*
X150601136Y-112996204D01*
G37*
G04 #@! TD*
D10*
G04 #@! TO.C,SPI-I2C*
X162327336Y-112220004D03*
D11*
G36*
X162601136Y-111996204D02*
X162601136Y-112443804D01*
X162340113Y-112443804D01*
X162327336Y-112469478D01*
X162314559Y-112443804D01*
X162053536Y-112443804D01*
X162053536Y-111996204D01*
X162601136Y-111996204D01*
X162601136Y-111996204D01*
G37*
G36*
X162327336Y-112469478D02*
X162390400Y-112596204D01*
X162327336Y-112632241D01*
X162264272Y-112596204D01*
X162327336Y-112469478D01*
X162327336Y-112469478D01*
G37*
D10*
X162327336Y-114220004D03*
D11*
G36*
X162186633Y-113996204D02*
X162286121Y-113862965D01*
X162438048Y-113996204D01*
X162601136Y-113996204D01*
X162601136Y-114443804D01*
X162053536Y-114443804D01*
X162053536Y-113996204D01*
X162186633Y-113996204D01*
X162186633Y-113996204D01*
G37*
G36*
X162327336Y-113807767D02*
X162390400Y-113843804D01*
X162300428Y-113843804D01*
X162327336Y-113807767D01*
X162327336Y-113807767D01*
G37*
G36*
X162300428Y-113843804D02*
X162286121Y-113862965D01*
X162264272Y-113843804D01*
X162300428Y-113843804D01*
X162300428Y-113843804D01*
G37*
D10*
X162327336Y-113220004D03*
D11*
G36*
X162601136Y-112996204D02*
X162601136Y-113443804D01*
X162053536Y-113443804D01*
X162053536Y-112996204D01*
X162601136Y-112996204D01*
X162601136Y-112996204D01*
G37*
G04 #@! TD*
D10*
G04 #@! TO.C,SPI-I2C*
X174327336Y-112220004D03*
D11*
G36*
X174601136Y-111996204D02*
X174601136Y-112443804D01*
X174340113Y-112443804D01*
X174327336Y-112469478D01*
X174314559Y-112443804D01*
X174053536Y-112443804D01*
X174053536Y-111996204D01*
X174601136Y-111996204D01*
X174601136Y-111996204D01*
G37*
G36*
X174327336Y-112469478D02*
X174390400Y-112596204D01*
X174327336Y-112632241D01*
X174264272Y-112596204D01*
X174327336Y-112469478D01*
X174327336Y-112469478D01*
G37*
D10*
X174327336Y-114220004D03*
D11*
G36*
X174186633Y-113996204D02*
X174286121Y-113862965D01*
X174438048Y-113996204D01*
X174601136Y-113996204D01*
X174601136Y-114443804D01*
X174053536Y-114443804D01*
X174053536Y-113996204D01*
X174186633Y-113996204D01*
X174186633Y-113996204D01*
G37*
G36*
X174327336Y-113807767D02*
X174390400Y-113843804D01*
X174300428Y-113843804D01*
X174327336Y-113807767D01*
X174327336Y-113807767D01*
G37*
G36*
X174300428Y-113843804D02*
X174286121Y-113862965D01*
X174264272Y-113843804D01*
X174300428Y-113843804D01*
X174300428Y-113843804D01*
G37*
D10*
X174327336Y-113220004D03*
D11*
G36*
X174601136Y-112996204D02*
X174601136Y-113443804D01*
X174053536Y-113443804D01*
X174053536Y-112996204D01*
X174601136Y-112996204D01*
X174601136Y-112996204D01*
G37*
G04 #@! TD*
D10*
G04 #@! TO.C,SPI-I2C*
X176600000Y-71900000D03*
D11*
G36*
X176326200Y-72123800D02*
X176326200Y-71676200D01*
X176587223Y-71676200D01*
X176600000Y-71650526D01*
X176612777Y-71676200D01*
X176873800Y-71676200D01*
X176873800Y-72123800D01*
X176326200Y-72123800D01*
X176326200Y-72123800D01*
G37*
G36*
X176600000Y-71650526D02*
X176536936Y-71523800D01*
X176600000Y-71487763D01*
X176663064Y-71523800D01*
X176600000Y-71650526D01*
X176600000Y-71650526D01*
G37*
D10*
X176600000Y-69900000D03*
D11*
G36*
X176740703Y-70123800D02*
X176641215Y-70257039D01*
X176489288Y-70123800D01*
X176326200Y-70123800D01*
X176326200Y-69676200D01*
X176873800Y-69676200D01*
X176873800Y-70123800D01*
X176740703Y-70123800D01*
X176740703Y-70123800D01*
G37*
G36*
X176600000Y-70312237D02*
X176536936Y-70276200D01*
X176626908Y-70276200D01*
X176600000Y-70312237D01*
X176600000Y-70312237D01*
G37*
G36*
X176626908Y-70276200D02*
X176641215Y-70257039D01*
X176663064Y-70276200D01*
X176626908Y-70276200D01*
X176626908Y-70276200D01*
G37*
D10*
X176600000Y-70900000D03*
D11*
G36*
X176326200Y-71123800D02*
X176326200Y-70676200D01*
X176873800Y-70676200D01*
X176873800Y-71123800D01*
X176326200Y-71123800D01*
X176326200Y-71123800D01*
G37*
G04 #@! TD*
D10*
G04 #@! TO.C,SPI-I2C*
X164600000Y-71900000D03*
D11*
G36*
X164326200Y-72123800D02*
X164326200Y-71676200D01*
X164587223Y-71676200D01*
X164600000Y-71650526D01*
X164612777Y-71676200D01*
X164873800Y-71676200D01*
X164873800Y-72123800D01*
X164326200Y-72123800D01*
X164326200Y-72123800D01*
G37*
G36*
X164600000Y-71650526D02*
X164536936Y-71523800D01*
X164600000Y-71487763D01*
X164663064Y-71523800D01*
X164600000Y-71650526D01*
X164600000Y-71650526D01*
G37*
D10*
X164600000Y-69900000D03*
D11*
G36*
X164740703Y-70123800D02*
X164641215Y-70257039D01*
X164489288Y-70123800D01*
X164326200Y-70123800D01*
X164326200Y-69676200D01*
X164873800Y-69676200D01*
X164873800Y-70123800D01*
X164740703Y-70123800D01*
X164740703Y-70123800D01*
G37*
G36*
X164600000Y-70312237D02*
X164536936Y-70276200D01*
X164626908Y-70276200D01*
X164600000Y-70312237D01*
X164600000Y-70312237D01*
G37*
G36*
X164626908Y-70276200D02*
X164641215Y-70257039D01*
X164663064Y-70276200D01*
X164626908Y-70276200D01*
X164626908Y-70276200D01*
G37*
D10*
X164600000Y-70900000D03*
D11*
G36*
X164326200Y-71123800D02*
X164326200Y-70676200D01*
X164873800Y-70676200D01*
X164873800Y-71123800D01*
X164326200Y-71123800D01*
X164326200Y-71123800D01*
G37*
G04 #@! TD*
D10*
G04 #@! TO.C,SPI-I2C*
X152600000Y-71900000D03*
D11*
G36*
X152326200Y-72123800D02*
X152326200Y-71676200D01*
X152587223Y-71676200D01*
X152600000Y-71650526D01*
X152612777Y-71676200D01*
X152873800Y-71676200D01*
X152873800Y-72123800D01*
X152326200Y-72123800D01*
X152326200Y-72123800D01*
G37*
G36*
X152600000Y-71650526D02*
X152536936Y-71523800D01*
X152600000Y-71487763D01*
X152663064Y-71523800D01*
X152600000Y-71650526D01*
X152600000Y-71650526D01*
G37*
D10*
X152600000Y-69900000D03*
D11*
G36*
X152740703Y-70123800D02*
X152641215Y-70257039D01*
X152489288Y-70123800D01*
X152326200Y-70123800D01*
X152326200Y-69676200D01*
X152873800Y-69676200D01*
X152873800Y-70123800D01*
X152740703Y-70123800D01*
X152740703Y-70123800D01*
G37*
G36*
X152600000Y-70312237D02*
X152536936Y-70276200D01*
X152626908Y-70276200D01*
X152600000Y-70312237D01*
X152600000Y-70312237D01*
G37*
G36*
X152626908Y-70276200D02*
X152641215Y-70257039D01*
X152663064Y-70276200D01*
X152626908Y-70276200D01*
X152626908Y-70276200D01*
G37*
D10*
X152600000Y-70900000D03*
D11*
G36*
X152326200Y-71123800D02*
X152326200Y-70676200D01*
X152873800Y-70676200D01*
X152873800Y-71123800D01*
X152326200Y-71123800D01*
X152326200Y-71123800D01*
G37*
G04 #@! TD*
D10*
G04 #@! TO.C,SPI-I2C*
X140600000Y-71900000D03*
D11*
G36*
X140326200Y-72123800D02*
X140326200Y-71676200D01*
X140587223Y-71676200D01*
X140600000Y-71650526D01*
X140612777Y-71676200D01*
X140873800Y-71676200D01*
X140873800Y-72123800D01*
X140326200Y-72123800D01*
X140326200Y-72123800D01*
G37*
G36*
X140600000Y-71650526D02*
X140536936Y-71523800D01*
X140600000Y-71487763D01*
X140663064Y-71523800D01*
X140600000Y-71650526D01*
X140600000Y-71650526D01*
G37*
D10*
X140600000Y-69900000D03*
D11*
G36*
X140740703Y-70123800D02*
X140641215Y-70257039D01*
X140489288Y-70123800D01*
X140326200Y-70123800D01*
X140326200Y-69676200D01*
X140873800Y-69676200D01*
X140873800Y-70123800D01*
X140740703Y-70123800D01*
X140740703Y-70123800D01*
G37*
G36*
X140600000Y-70312237D02*
X140536936Y-70276200D01*
X140626908Y-70276200D01*
X140600000Y-70312237D01*
X140600000Y-70312237D01*
G37*
G36*
X140626908Y-70276200D02*
X140641215Y-70257039D01*
X140663064Y-70276200D01*
X140626908Y-70276200D01*
X140626908Y-70276200D01*
G37*
D10*
X140600000Y-70900000D03*
D11*
G36*
X140326200Y-71123800D02*
X140326200Y-70676200D01*
X140873800Y-70676200D01*
X140873800Y-71123800D01*
X140326200Y-71123800D01*
X140326200Y-71123800D01*
G37*
G04 #@! TD*
D10*
G04 #@! TO.C,SPI-I2C*
X128600000Y-71900000D03*
D11*
G36*
X128326200Y-72123800D02*
X128326200Y-71676200D01*
X128587223Y-71676200D01*
X128600000Y-71650526D01*
X128612777Y-71676200D01*
X128873800Y-71676200D01*
X128873800Y-72123800D01*
X128326200Y-72123800D01*
X128326200Y-72123800D01*
G37*
G36*
X128600000Y-71650526D02*
X128536936Y-71523800D01*
X128600000Y-71487763D01*
X128663064Y-71523800D01*
X128600000Y-71650526D01*
X128600000Y-71650526D01*
G37*
D10*
X128600000Y-69900000D03*
D11*
G36*
X128740703Y-70123800D02*
X128641215Y-70257039D01*
X128489288Y-70123800D01*
X128326200Y-70123800D01*
X128326200Y-69676200D01*
X128873800Y-69676200D01*
X128873800Y-70123800D01*
X128740703Y-70123800D01*
X128740703Y-70123800D01*
G37*
G36*
X128600000Y-70312237D02*
X128536936Y-70276200D01*
X128626908Y-70276200D01*
X128600000Y-70312237D01*
X128600000Y-70312237D01*
G37*
G36*
X128626908Y-70276200D02*
X128641215Y-70257039D01*
X128663064Y-70276200D01*
X128626908Y-70276200D01*
X128626908Y-70276200D01*
G37*
D10*
X128600000Y-70900000D03*
D11*
G36*
X128326200Y-71123800D02*
X128326200Y-70676200D01*
X128873800Y-70676200D01*
X128873800Y-71123800D01*
X128326200Y-71123800D01*
X128326200Y-71123800D01*
G37*
G04 #@! TD*
D10*
G04 #@! TO.C,SPI-I2C*
X116600000Y-70900000D03*
D11*
G36*
X116326200Y-71123800D02*
X116326200Y-70676200D01*
X116873800Y-70676200D01*
X116873800Y-71123800D01*
X116326200Y-71123800D01*
X116326200Y-71123800D01*
G37*
D10*
X116600000Y-69900000D03*
D11*
G36*
X116740703Y-70123800D02*
X116641215Y-70257039D01*
X116489288Y-70123800D01*
X116326200Y-70123800D01*
X116326200Y-69676200D01*
X116873800Y-69676200D01*
X116873800Y-70123800D01*
X116740703Y-70123800D01*
X116740703Y-70123800D01*
G37*
G36*
X116600000Y-70312237D02*
X116536936Y-70276200D01*
X116626908Y-70276200D01*
X116600000Y-70312237D01*
X116600000Y-70312237D01*
G37*
G36*
X116626908Y-70276200D02*
X116641215Y-70257039D01*
X116663064Y-70276200D01*
X116626908Y-70276200D01*
X116626908Y-70276200D01*
G37*
D10*
X116600000Y-71900000D03*
D11*
G36*
X116326200Y-72123800D02*
X116326200Y-71676200D01*
X116587223Y-71676200D01*
X116600000Y-71650526D01*
X116612777Y-71676200D01*
X116873800Y-71676200D01*
X116873800Y-72123800D01*
X116326200Y-72123800D01*
X116326200Y-72123800D01*
G37*
G36*
X116600000Y-71650526D02*
X116536936Y-71523800D01*
X116600000Y-71487763D01*
X116663064Y-71523800D01*
X116600000Y-71650526D01*
X116600000Y-71650526D01*
G37*
G04 #@! TD*
D10*
G04 #@! TO.C,SA0*
X113600000Y-69400000D03*
D11*
G36*
X113376200Y-69126200D02*
X113823800Y-69126200D01*
X113823800Y-69673800D01*
X113376200Y-69673800D01*
X113376200Y-69126200D01*
X113376200Y-69126200D01*
G37*
D10*
X114600000Y-69400000D03*
D11*
G36*
X114376200Y-69540703D02*
X114242961Y-69441215D01*
X114376200Y-69289288D01*
X114376200Y-69126200D01*
X114823800Y-69126200D01*
X114823800Y-69673800D01*
X114376200Y-69673800D01*
X114376200Y-69540703D01*
X114376200Y-69540703D01*
G37*
G36*
X114187763Y-69400000D02*
X114223800Y-69336936D01*
X114223800Y-69426908D01*
X114187763Y-69400000D01*
X114187763Y-69400000D01*
G37*
G36*
X114223800Y-69426908D02*
X114242961Y-69441215D01*
X114223800Y-69463064D01*
X114223800Y-69426908D01*
X114223800Y-69426908D01*
G37*
D10*
X112600000Y-69400000D03*
D11*
G36*
X112376200Y-69126200D02*
X112823800Y-69126200D01*
X112823800Y-69387223D01*
X112849474Y-69400000D01*
X112823800Y-69412777D01*
X112823800Y-69673800D01*
X112376200Y-69673800D01*
X112376200Y-69126200D01*
X112376200Y-69126200D01*
G37*
G36*
X112849474Y-69400000D02*
X112976200Y-69336936D01*
X113012237Y-69400000D01*
X112976200Y-69463064D01*
X112849474Y-69400000D01*
X112849474Y-69400000D01*
G37*
G04 #@! TD*
D10*
G04 #@! TO.C,SA1*
X113600000Y-70500000D03*
D11*
G36*
X113376200Y-70226200D02*
X113823800Y-70226200D01*
X113823800Y-70773800D01*
X113376200Y-70773800D01*
X113376200Y-70226200D01*
X113376200Y-70226200D01*
G37*
D10*
X114600000Y-70500000D03*
D11*
G36*
X114376200Y-70640703D02*
X114242961Y-70541215D01*
X114376200Y-70389288D01*
X114376200Y-70226200D01*
X114823800Y-70226200D01*
X114823800Y-70773800D01*
X114376200Y-70773800D01*
X114376200Y-70640703D01*
X114376200Y-70640703D01*
G37*
G36*
X114187763Y-70500000D02*
X114223800Y-70436936D01*
X114223800Y-70526908D01*
X114187763Y-70500000D01*
X114187763Y-70500000D01*
G37*
G36*
X114223800Y-70526908D02*
X114242961Y-70541215D01*
X114223800Y-70563064D01*
X114223800Y-70526908D01*
X114223800Y-70526908D01*
G37*
D10*
X112600000Y-70500000D03*
D11*
G36*
X112376200Y-70226200D02*
X112823800Y-70226200D01*
X112823800Y-70487223D01*
X112849474Y-70500000D01*
X112823800Y-70512777D01*
X112823800Y-70773800D01*
X112376200Y-70773800D01*
X112376200Y-70226200D01*
X112376200Y-70226200D01*
G37*
G36*
X112849474Y-70500000D02*
X112976200Y-70436936D01*
X113012237Y-70500000D01*
X112976200Y-70563064D01*
X112849474Y-70500000D01*
X112849474Y-70500000D01*
G37*
G04 #@! TD*
M02*
