M48
;DRILL file {KiCad 5.0.2-bee76a0~70~ubuntu18.04.1} date Thu 12 Mar 2020 03:24:42 PM CET
;FORMAT={-:-/ absolute / inch / decimal}
FMAT,2
INCH,TZ
T1C0.0118
T2C0.0866
%
G90
G05
T1
X6.3445Y-4.6457
X6.3607Y-4.6457
X6.3769Y-4.6457
X6.393Y-4.6457
X6.4092Y-4.6457
X6.4254Y-4.6457
X6.4416Y-4.6457
X6.4578Y-4.6457
X6.474Y-4.6457
X6.4902Y-4.6457
X4.8425Y-3.0177
X4.8425Y-3.0339
X4.8425Y-3.0501
X4.8425Y-3.0663
X4.8425Y-3.0825
X4.8425Y-3.0986
X4.8425Y-3.1148
X4.8425Y-3.131
X4.8425Y-3.1472
X4.8425Y-3.1634
X5.315Y-3.0177
X5.315Y-3.0339
X5.315Y-3.0501
X5.315Y-3.0663
X5.315Y-3.0825
X5.315Y-3.0986
X5.315Y-3.1148
X5.315Y-3.131
X5.315Y-3.1472
X5.315Y-3.1634
X6.3445Y-2.5984
X6.3607Y-2.5984
X6.3769Y-2.5984
X6.393Y-2.5984
X6.4092Y-2.5984
X6.4254Y-2.5984
X6.4416Y-2.5984
X6.4578Y-2.5984
X6.474Y-2.5984
X6.4902Y-2.5984
X6.1024Y-4.061
X6.1024Y-4.0772
X6.1024Y-4.0934
X6.1024Y-4.1096
X6.1024Y-4.1258
X6.1024Y-4.142
X6.1024Y-4.1581
X6.1024Y-4.1743
X6.1024Y-4.1905
X6.1024Y-4.2067
X5.315Y-4.061
X5.315Y-4.0772
X5.315Y-4.0934
X5.315Y-4.1096
X5.315Y-4.1258
X5.315Y-4.142
X5.315Y-4.1581
X5.315Y-4.1743
X5.315Y-4.1905
X5.315Y-4.2067
X4.3701Y-4.061
X4.3701Y-4.0772
X4.3701Y-4.0934
X4.3701Y-4.1096
X4.3701Y-4.1258
X4.3701Y-4.142
X4.3701Y-4.1581
X4.3701Y-4.1743
X4.3701Y-4.1905
X4.3701Y-4.2067
X5.7874Y-3.0177
X5.7874Y-3.0339
X5.7874Y-3.0501
X5.7874Y-3.0663
X5.7874Y-3.0825
X5.7874Y-3.0986
X5.7874Y-3.1148
X5.7874Y-3.131
X5.7874Y-3.1472
X5.7874Y-3.1634
X6.5748Y-4.061
X6.5748Y-4.0772
X6.5748Y-4.0934
X6.5748Y-4.1096
X6.5748Y-4.1258
X6.5748Y-4.142
X6.5748Y-4.1581
X6.5748Y-4.1743
X6.5748Y-4.1905
X6.5748Y-4.2067
X4.685Y-3.0177
X4.685Y-3.0339
X4.685Y-3.0501
X4.685Y-3.0663
X4.685Y-3.0825
X4.685Y-3.0986
X4.685Y-3.1148
X4.685Y-3.131
X4.685Y-3.1472
X4.685Y-3.1634
X5.872Y-2.5984
X5.8882Y-2.5984
X5.9044Y-2.5984
X5.9206Y-2.5984
X5.9368Y-2.5984
X5.953Y-2.5984
X5.9692Y-2.5984
X5.9853Y-2.5984
X6.0015Y-2.5984
X6.0177Y-2.5984
X5.1575Y-3.0177
X5.1575Y-3.0339
X5.1575Y-3.0501
X5.1575Y-3.0663
X5.1575Y-3.0825
X5.1575Y-3.0986
X5.1575Y-3.1148
X5.1575Y-3.131
X5.1575Y-3.1472
X5.1575Y-3.1634
X4.3701Y-3.0177
X4.3701Y-3.0339
X4.3701Y-3.0501
X4.3701Y-3.0663
X4.3701Y-3.0825
X4.3701Y-3.0986
X4.3701Y-3.1148
X4.3701Y-3.131
X4.3701Y-3.1472
X4.3701Y-3.1634
X5.6299Y-3.0177
X5.6299Y-3.0339
X5.6299Y-3.0501
X5.6299Y-3.0663
X5.6299Y-3.0825
X5.6299Y-3.0986
X5.6299Y-3.1148
X5.6299Y-3.131
X5.6299Y-3.1472
X5.6299Y-3.1634
X6.7323Y-4.061
X6.7323Y-4.0772
X6.7323Y-4.0934
X6.7323Y-4.1096
X6.7323Y-4.1258
X6.7323Y-4.142
X6.7323Y-4.1581
X6.7323Y-4.1743
X6.7323Y-4.1905
X6.7323Y-4.2067
X5.3996Y-4.6457
X5.4158Y-4.6457
X5.432Y-4.6457
X5.4482Y-4.6457
X5.4643Y-4.6457
X5.4805Y-4.6457
X5.4967Y-4.6457
X5.5129Y-4.6457
X5.5291Y-4.6457
X5.5453Y-4.6457
X4.8425Y-4.061
X4.8425Y-4.0772
X4.8425Y-4.0934
X4.8425Y-4.1096
X4.8425Y-4.1258
X4.8425Y-4.142
X4.8425Y-4.1581
X4.8425Y-4.1743
X4.8425Y-4.1905
X4.8425Y-4.2067
X7.0472Y-4.061
X7.0472Y-4.0772
X7.0472Y-4.0934
X7.0472Y-4.1096
X7.0472Y-4.1258
X7.0472Y-4.142
X7.0472Y-4.1581
X7.0472Y-4.1743
X7.0472Y-4.1905
X7.0472Y-4.2067
X7.0472Y-3.0177
X7.0472Y-3.0339
X7.0472Y-3.0501
X7.0472Y-3.0663
X7.0472Y-3.0825
X7.0472Y-3.0986
X7.0472Y-3.1148
X7.0472Y-3.131
X7.0472Y-3.1472
X7.0472Y-3.1634
X5.3996Y-2.5984
X5.4158Y-2.5984
X5.432Y-2.5984
X5.4482Y-2.5984
X5.4643Y-2.5984
X5.4805Y-2.5984
X5.4967Y-2.5984
X5.5129Y-2.5984
X5.5291Y-2.5984
X5.5453Y-2.5984
X5.872Y-4.6457
X5.8882Y-4.6457
X5.9044Y-4.6457
X5.9206Y-4.6457
X5.9368Y-4.6457
X5.953Y-4.6457
X5.9692Y-4.6457
X5.9853Y-4.6457
X6.0015Y-4.6457
X6.0177Y-4.6457
X5.1575Y-4.061
X5.1575Y-4.0772
X5.1575Y-4.0934
X5.1575Y-4.1096
X5.1575Y-4.1258
X5.1575Y-4.142
X5.1575Y-4.1581
X5.1575Y-4.1743
X5.1575Y-4.1905
X5.1575Y-4.2067
X6.2598Y-4.061
X6.2598Y-4.0772
X6.2598Y-4.0934
X6.2598Y-4.1096
X6.2598Y-4.1258
X6.2598Y-4.142
X6.2598Y-4.1581
X6.2598Y-4.1743
X6.2598Y-4.1905
X6.2598Y-4.2067
X6.5748Y-3.0177
X6.5748Y-3.0339
X6.5748Y-3.0501
X6.5748Y-3.0663
X6.5748Y-3.0825
X6.5748Y-3.0986
X6.5748Y-3.1148
X6.5748Y-3.131
X6.5748Y-3.1472
X6.5748Y-3.1634
X4.9272Y-4.6457
X4.9434Y-4.6457
X4.9595Y-4.6457
X4.9757Y-4.6457
X4.9919Y-4.6457
X5.0081Y-4.6457
X5.0243Y-4.6457
X5.0405Y-4.6457
X5.0566Y-4.6457
X5.0728Y-4.6457
X5.6299Y-4.061
X5.6299Y-4.0772
X5.6299Y-4.0934
X5.6299Y-4.1096
X5.6299Y-4.1258
X5.6299Y-4.142
X5.6299Y-4.1581
X5.6299Y-4.1743
X5.6299Y-4.1905
X5.6299Y-4.2067
X6.2598Y-3.0177
X6.2598Y-3.0339
X6.2598Y-3.0501
X6.2598Y-3.0663
X6.2598Y-3.0825
X6.2598Y-3.0986
X6.2598Y-3.1148
X6.2598Y-3.131
X6.2598Y-3.1472
X6.2598Y-3.1634
X4.4547Y-4.6457
X4.4709Y-4.6457
X4.4871Y-4.6457
X4.5033Y-4.6457
X4.5195Y-4.6457
X4.5357Y-4.6457
X4.5518Y-4.6457
X4.568Y-4.6457
X4.5842Y-4.6457
X4.6004Y-4.6457
X6.8169Y-2.5984
X6.8331Y-2.5984
X6.8493Y-2.5984
X6.8655Y-2.5984
X6.8817Y-2.5984
X6.8979Y-2.5984
X6.914Y-2.5984
X6.9302Y-2.5984
X6.9464Y-2.5984
X6.9626Y-2.5984
X5.7874Y-4.061
X5.7874Y-4.0772
X5.7874Y-4.0934
X5.7874Y-4.1096
X5.7874Y-4.1258
X5.7874Y-4.142
X5.7874Y-4.1581
X5.7874Y-4.1743
X5.7874Y-4.1905
X5.7874Y-4.2067
X4.685Y-4.061
X4.685Y-4.0772
X4.685Y-4.0934
X4.685Y-4.1096
X4.685Y-4.1258
X4.685Y-4.142
X4.685Y-4.1581
X4.685Y-4.1743
X4.685Y-4.1905
X4.685Y-4.2067
X6.1024Y-3.0177
X6.1024Y-3.0339
X6.1024Y-3.0501
X6.1024Y-3.0663
X6.1024Y-3.0825
X6.1024Y-3.0986
X6.1024Y-3.1148
X6.1024Y-3.131
X6.1024Y-3.1472
X6.1024Y-3.1634
X4.9272Y-2.5984
X4.9434Y-2.5984
X4.9595Y-2.5984
X4.9757Y-2.5984
X4.9919Y-2.5984
X5.0081Y-2.5984
X5.0243Y-2.5984
X5.0405Y-2.5984
X5.0566Y-2.5984
X5.0728Y-2.5984
X6.8169Y-4.6457
X6.8331Y-4.6457
X6.8493Y-4.6457
X6.8655Y-4.6457
X6.8817Y-4.6457
X6.8979Y-4.6457
X6.914Y-4.6457
X6.9302Y-4.6457
X6.9464Y-4.6457
X6.9626Y-4.6457
X4.4547Y-2.5984
X4.4709Y-2.5984
X4.4871Y-2.5984
X4.5033Y-2.5984
X4.5195Y-2.5984
X4.5357Y-2.5984
X4.5518Y-2.5984
X4.568Y-2.5984
X4.5842Y-2.5984
X4.6004Y-2.5984
X6.7323Y-3.0177
X6.7323Y-3.0339
X6.7323Y-3.0501
X6.7323Y-3.0663
X6.7323Y-3.0825
X6.7323Y-3.0986
X6.7323Y-3.1148
X6.7323Y-3.131
X6.7323Y-3.1472
X6.7323Y-3.1634
T2
X7.2441Y-2.387
X7.2441Y-4.8425
X4.1732Y-2.4016
X4.1732Y-4.8425
T0
M30
