M48
; DRILL file {KiCad 5.1.5-52549c5~84~ubuntu18.04.1} date Tue 17 Mar 2020 11:40:14 AM CET
; FORMAT={-:-/ absolute / inch / decimal}
; #@! TF.CreationDate,2020-03-17T11:40:14+01:00
; #@! TF.GenerationSoftware,Kicad,Pcbnew,5.1.5-52549c5~84~ubuntu18.04.1
; #@! TF.FileFunction,NonPlated,1,2,NPTH
FMAT,2
INCH
T1C0.0177
%
G90
G05
T1
X5.382Y-4.5906
X5.4181Y-4.5906
X5.4543Y-4.5906
X5.4905Y-4.5906
X5.5267Y-4.5906
X5.5629Y-4.5906
X5.7835Y-4.2243
X5.7835Y-4.1882
X5.7835Y-4.152
X5.7835Y-4.1158
X5.7835Y-4.0796
X5.7835Y-4.0434
X6.1063Y-4.0434
X6.1063Y-4.0796
X6.1063Y-4.1158
X6.1063Y-4.152
X6.1063Y-4.1882
X6.1063Y-4.2243
X5.382Y-2.5614
X5.4181Y-2.5614
X5.4543Y-2.5614
X5.4905Y-2.5614
X5.5267Y-2.5614
X5.5629Y-2.5614
X6.7283Y-4.2243
X6.7283Y-4.1882
X6.7283Y-4.152
X6.7283Y-4.1158
X6.7283Y-4.0796
X6.7283Y-4.0434
X4.3665Y-3.0001
X4.3665Y-3.0363
X4.3665Y-3.0725
X4.3665Y-3.1086
X4.3665Y-3.1448
X4.3665Y-3.181
X6.2559Y-4.2243
X6.2559Y-4.1882
X6.2559Y-4.152
X6.2559Y-4.1158
X6.2559Y-4.0796
X6.2559Y-4.0434
X6.3268Y-4.5906
X6.363Y-4.5906
X6.3992Y-4.5906
X6.4354Y-4.5906
X6.4716Y-4.5906
X6.5078Y-4.5906
X5.6343Y-3.181
X5.6343Y-3.1448
X5.6343Y-3.1086
X5.6343Y-3.0725
X5.6343Y-3.0363
X5.6343Y-3.0001
X5.7839Y-3.0001
X5.7839Y-3.0363
X5.7839Y-3.0725
X5.7839Y-3.1086
X5.7839Y-3.1448
X5.7839Y-3.181
X6.7993Y-2.5614
X6.8355Y-2.5614
X6.8717Y-2.5614
X6.9079Y-2.5614
X6.9441Y-2.5614
X6.9803Y-2.5614
X4.9095Y-2.5614
X4.9457Y-2.5614
X4.9819Y-2.5614
X5.0181Y-2.5614
X5.0543Y-2.5614
X5.0905Y-2.5614
X5.8544Y-4.5906
X5.8906Y-4.5906
X5.9268Y-4.5906
X5.963Y-4.5906
X5.9992Y-4.5906
X6.0354Y-4.5906
X5.8544Y-2.5614
X5.8906Y-2.5614
X5.9268Y-2.5614
X5.963Y-2.5614
X5.9992Y-2.5614
X6.0354Y-2.5614
X6.5791Y-3.181
X6.5791Y-3.1448
X6.5791Y-3.1086
X6.5791Y-3.0725
X6.5791Y-3.0363
X6.5791Y-3.0001
X6.3268Y-2.5614
X6.363Y-2.5614
X6.3992Y-2.5614
X6.4354Y-2.5614
X6.4716Y-2.5614
X6.5078Y-2.5614
X5.1614Y-4.0434
X5.1614Y-4.0796
X5.1614Y-4.1158
X5.1614Y-4.152
X5.1614Y-4.1882
X5.1614Y-4.2243
X4.9095Y-4.5906
X4.9457Y-4.5906
X4.9819Y-4.5906
X5.0181Y-4.5906
X5.0543Y-4.5906
X5.0905Y-4.5906
X4.4371Y-2.5614
X4.4733Y-2.5614
X4.5095Y-2.5614
X4.5457Y-2.5614
X4.5819Y-2.5614
X4.618Y-2.5614
X4.4371Y-4.5906
X4.4733Y-4.5906
X4.5095Y-4.5906
X4.5457Y-4.5906
X4.5819Y-4.5906
X4.618Y-4.5906
X5.311Y-4.2243
X5.311Y-4.1882
X5.311Y-4.152
X5.311Y-4.1158
X5.311Y-4.0796
X5.311Y-4.0434
X5.1618Y-3.181
X5.1618Y-3.1448
X5.1618Y-3.1086
X5.1618Y-3.0725
X5.1618Y-3.0363
X5.1618Y-3.0001
X4.3661Y-4.2243
X4.3661Y-4.1882
X4.3661Y-4.152
X4.3661Y-4.1158
X4.3661Y-4.0796
X4.3661Y-4.0434
X6.7287Y-3.0001
X6.7287Y-3.0363
X6.7287Y-3.0725
X6.7287Y-3.1086
X6.7287Y-3.1448
X6.7287Y-3.181
X4.6894Y-3.181
X4.6894Y-3.1448
X4.6894Y-3.1086
X4.6894Y-3.0725
X4.6894Y-3.0363
X4.6894Y-3.0001
X7.0512Y-4.0434
X7.0512Y-4.0796
X7.0512Y-4.1158
X7.0512Y-4.152
X7.0512Y-4.1882
X7.0512Y-4.2243
X4.839Y-3.0001
X4.839Y-3.0363
X4.839Y-3.0725
X4.839Y-3.1086
X4.839Y-3.1448
X4.839Y-3.181
X7.0516Y-3.181
X7.0516Y-3.1448
X7.0516Y-3.1086
X7.0516Y-3.0725
X7.0516Y-3.0363
X7.0516Y-3.0001
X4.689Y-4.0434
X4.689Y-4.0796
X4.689Y-4.1158
X4.689Y-4.152
X4.689Y-4.1882
X4.689Y-4.2243
X5.3114Y-3.0001
X5.3114Y-3.0363
X5.3114Y-3.0725
X5.3114Y-3.1086
X5.3114Y-3.1448
X5.3114Y-3.181
X6.1067Y-3.181
X6.1067Y-3.1448
X6.1067Y-3.1086
X6.1067Y-3.0725
X6.1067Y-3.0363
X6.1067Y-3.0001
X6.2563Y-3.0001
X6.2563Y-3.0363
X6.2563Y-3.0725
X6.2563Y-3.1086
X6.2563Y-3.1448
X6.2563Y-3.181
X6.7993Y-4.5906
X6.8355Y-4.5906
X6.8717Y-4.5906
X6.9079Y-4.5906
X6.9441Y-4.5906
X6.9803Y-4.5906
X5.6339Y-4.0434
X5.6339Y-4.0796
X5.6339Y-4.1158
X5.6339Y-4.152
X5.6339Y-4.1882
X5.6339Y-4.2243
X6.5787Y-4.0434
X6.5787Y-4.0796
X6.5787Y-4.1158
X6.5787Y-4.152
X6.5787Y-4.1882
X6.5787Y-4.2243
X4.8386Y-4.2243
X4.8386Y-4.1882
X4.8386Y-4.152
X4.8386Y-4.1158
X4.8386Y-4.0796
X4.8386Y-4.0434
T0
M30
