M48
;DRILL file {KiCad 5.0.2-bee76a0~70~ubuntu18.04.1} date Mon 16 Mar 2020 11:34:48 AM CET
;FORMAT={-:-/ absolute / inch / decimal}
FMAT,2
INCH,TZ
T1C0.0177
T2C0.1260
%
G90
G05
T1
X6.1024Y-4.064
X6.1024Y-4.0989
X6.1024Y-4.1339
X6.1024Y-4.1688
X6.1024Y-4.2037
X6.8199Y-2.5984
X6.8548Y-2.5984
X6.8898Y-2.5984
X6.9247Y-2.5984
X6.9596Y-2.5984
X4.685Y-3.0207
X4.685Y-3.0556
X4.685Y-3.0906
X4.685Y-3.1255
X4.685Y-3.1604
X6.5748Y-4.064
X6.5748Y-4.0989
X6.5748Y-4.1339
X6.5748Y-4.1688
X6.5748Y-4.2037
X4.9301Y-4.6457
X4.9651Y-4.6457
X5.Y-4.6457
X5.0349Y-4.6457
X5.0699Y-4.6457
X4.4577Y-2.5984
X4.4926Y-2.5984
X4.5276Y-2.5984
X4.5625Y-2.5984
X4.5974Y-2.5984
X5.315Y-4.064
X5.315Y-4.0989
X5.315Y-4.1339
X5.315Y-4.1688
X5.315Y-4.2037
X6.7323Y-4.064
X6.7323Y-4.0989
X6.7323Y-4.1339
X6.7323Y-4.1688
X6.7323Y-4.2037
X6.1024Y-3.0207
X6.1024Y-3.0556
X6.1024Y-3.0906
X6.1024Y-3.1255
X6.1024Y-3.1604
X6.3474Y-2.5984
X6.3824Y-2.5984
X6.4173Y-2.5984
X6.4523Y-2.5984
X6.4872Y-2.5984
X5.315Y-3.0207
X5.315Y-3.0556
X5.315Y-3.0906
X5.315Y-3.1255
X5.315Y-3.1604
X6.2598Y-4.064
X6.2598Y-4.0989
X6.2598Y-4.1339
X6.2598Y-4.1688
X6.2598Y-4.2037
X7.0472Y-4.064
X7.0472Y-4.0989
X7.0472Y-4.1339
X7.0472Y-4.1688
X7.0472Y-4.2037
X5.875Y-2.5984
X5.9099Y-2.5984
X5.9449Y-2.5984
X5.9798Y-2.5984
X6.0148Y-2.5984
X5.6299Y-4.064
X5.6299Y-4.0989
X5.6299Y-4.1339
X5.6299Y-4.1688
X5.6299Y-4.2037
X5.1575Y-3.0207
X5.1575Y-3.0556
X5.1575Y-3.0906
X5.1575Y-3.1255
X5.1575Y-3.1604
X4.685Y-4.064
X4.685Y-4.0989
X4.685Y-4.1339
X4.685Y-4.1688
X4.685Y-4.2037
X4.9301Y-2.5984
X4.9651Y-2.5984
X5.Y-2.5984
X5.0349Y-2.5984
X5.0699Y-2.5984
X7.0472Y-3.0207
X7.0472Y-3.0556
X7.0472Y-3.0906
X7.0472Y-3.1255
X7.0472Y-3.1604
X5.7874Y-3.0207
X5.7874Y-3.0556
X5.7874Y-3.0906
X5.7874Y-3.1255
X5.7874Y-3.1604
X6.7323Y-3.0207
X6.7323Y-3.0556
X6.7323Y-3.0906
X6.7323Y-3.1255
X6.7323Y-3.1604
X5.4026Y-4.6457
X5.4375Y-4.6457
X5.4724Y-4.6457
X5.5074Y-4.6457
X5.5423Y-4.6457
X6.3474Y-4.6457
X6.3824Y-4.6457
X6.4173Y-4.6457
X6.4523Y-4.6457
X6.4872Y-4.6457
X6.5748Y-3.0207
X6.5748Y-3.0556
X6.5748Y-3.0906
X6.5748Y-3.1255
X6.5748Y-3.1604
X6.8199Y-4.6457
X6.8548Y-4.6457
X6.8898Y-4.6457
X6.9247Y-4.6457
X6.9596Y-4.6457
X4.3701Y-4.064
X4.3701Y-4.0989
X4.3701Y-4.1339
X4.3701Y-4.1688
X4.3701Y-4.2037
X5.4026Y-2.5984
X5.4375Y-2.5984
X5.4724Y-2.5984
X5.5074Y-2.5984
X5.5423Y-2.5984
X4.8425Y-3.0207
X4.8425Y-3.0556
X4.8425Y-3.0906
X4.8425Y-3.1255
X4.8425Y-3.1604
X5.7874Y-4.064
X5.7874Y-4.0989
X5.7874Y-4.1339
X5.7874Y-4.1688
X5.7874Y-4.2037
X4.3701Y-3.0207
X4.3701Y-3.0556
X4.3701Y-3.0906
X4.3701Y-3.1255
X4.3701Y-3.1604
X4.8425Y-4.064
X4.8425Y-4.0989
X4.8425Y-4.1339
X4.8425Y-4.1688
X4.8425Y-4.2037
X5.1575Y-4.064
X5.1575Y-4.0989
X5.1575Y-4.1339
X5.1575Y-4.1688
X5.1575Y-4.2037
X5.6299Y-3.0207
X5.6299Y-3.0556
X5.6299Y-3.0906
X5.6299Y-3.1255
X5.6299Y-3.1604
X5.875Y-4.6457
X5.9099Y-4.6457
X5.9449Y-4.6457
X5.9798Y-4.6457
X6.0148Y-4.6457
X6.2598Y-3.0207
X6.2598Y-3.0556
X6.2598Y-3.0906
X6.2598Y-3.1255
X6.2598Y-3.1604
X4.4577Y-4.6457
X4.4926Y-4.6457
X4.5276Y-4.6457
X4.5625Y-4.6457
X4.5974Y-4.6457
T2
X4.2126Y-4.8031
X7.2059Y-4.8043
X4.2126Y-2.4409
X7.2028Y-2.439
T0
M30
