M48
;DRILL file {KiCad 5.0.2-bee76a0~70~ubuntu18.04.1} date Mon 16 Mar 2020 11:34:48 AM CET
;FORMAT={-:-/ absolute / inch / decimal}
FMAT,2
INCH,TZ
T1C0.0157
T2C0.0315
T3C0.0866
%
G90
G05
T1
X4.4123Y-3.2717
X4.4213Y-3.3937
X4.4488Y-3.4213
X4.4488Y-3.7598
X4.4528Y-3.9173
X4.4843Y-3.2717
X4.4843Y-4.126
X4.5276Y-4.2402
X4.5276Y-3.3071
X4.5276Y-3.937
X4.5276Y-3.0039
X4.5709Y-3.1181
X4.5709Y-3.9724
X4.6024Y-3.3268
X4.6063Y-3.4843
X4.6063Y-3.8228
X4.6339Y-3.8504
X4.6429Y-3.9724
X4.8847Y-3.2717
X4.8937Y-3.3937
X4.9213Y-3.4213
X4.9213Y-3.7598
X4.9252Y-3.9173
X4.9567Y-3.2717
X4.9567Y-4.126
X5.Y-4.2402
X5.Y-3.3071
X5.Y-3.937
X5.Y-3.0039
X5.0433Y-3.1181
X5.0433Y-3.9724
X5.0748Y-3.3268
X5.0787Y-3.4843
X5.0787Y-3.8228
X5.1063Y-3.8504
X5.1153Y-3.9724
X5.3571Y-3.2717
X5.3661Y-3.3937
X5.3937Y-3.4213
X5.3937Y-3.7598
X5.3976Y-3.9173
X5.4291Y-3.2717
X5.4291Y-4.126
X5.4724Y-4.2402
X5.4724Y-3.3071
X5.4724Y-3.937
X5.4724Y-3.0039
X5.5157Y-3.1181
X5.5157Y-3.9724
X5.5472Y-3.3268
X5.5512Y-3.4843
X5.5512Y-3.8228
X5.5787Y-3.8504
X5.5877Y-3.9724
X5.8296Y-3.2717
X5.8386Y-3.3937
X5.8661Y-3.4213
X5.8661Y-3.7598
X5.8701Y-3.9173
X5.9016Y-3.2717
X5.9016Y-4.126
X5.9449Y-4.2402
X5.9449Y-3.3071
X5.9449Y-3.937
X5.9449Y-3.0039
X5.9882Y-3.1181
X5.9882Y-3.9724
X6.0197Y-3.3268
X6.0236Y-3.4843
X6.0236Y-3.8228
X6.0512Y-3.8504
X6.0602Y-3.9724
X6.302Y-3.2717
X6.311Y-3.3937
X6.3386Y-3.4213
X6.3386Y-3.7598
X6.3425Y-3.9173
X6.374Y-3.2717
X6.374Y-4.126
X6.4173Y-4.2402
X6.4173Y-3.3071
X6.4173Y-3.937
X6.4173Y-3.0039
X6.4606Y-3.1181
X6.4606Y-3.9724
X6.4921Y-3.3268
X6.4961Y-3.4843
X6.4961Y-3.8228
X6.5236Y-3.8504
X6.5326Y-3.9724
X6.7745Y-3.2717
X6.7835Y-3.3937
X6.811Y-3.4213
X6.811Y-3.7598
X6.815Y-3.9173
X6.8465Y-3.2717
X6.8465Y-4.126
X6.8898Y-4.2402
X6.8898Y-3.3071
X6.8898Y-3.937
X6.8898Y-3.0039
X6.9331Y-3.1181
X6.9331Y-3.9724
X6.9646Y-3.3268
X6.9685Y-3.4843
X6.9685Y-3.8228
X6.9961Y-3.8504
X7.0051Y-3.9724
T2
X5.8449Y-4.5882
X6.0449Y-4.4882
X5.5724Y-4.4882
X5.1Y-4.4882
X6.9898Y-2.7559
X4.4276Y-4.5882
X5.Y-2.6559
X4.5276Y-4.4882
X6.7898Y-2.6559
X5.4724Y-4.5882
X5.3724Y-2.7559
X6.7898Y-2.7559
X5.5724Y-2.6559
X5.4724Y-2.6559
X6.9898Y-4.5882
X6.4173Y-2.6559
X6.4173Y-4.5882
X5.3724Y-4.5882
X4.6276Y-4.4882
X4.6276Y-2.6559
X6.3173Y-2.7559
X5.8449Y-2.6559
X4.4276Y-4.4882
X5.1Y-2.6559
X4.4276Y-2.6559
X6.4173Y-2.7559
X5.8449Y-2.7559
X6.3173Y-2.6559
X5.Y-4.5882
X5.9449Y-2.6559
X4.5276Y-2.6559
X6.3173Y-4.5882
X6.4173Y-4.4882
X4.9Y-2.7559
X5.9449Y-4.4882
X6.5173Y-2.7559
X5.4724Y-4.4882
X4.5276Y-4.5882
X5.5724Y-2.7559
X4.9Y-4.5882
X5.Y-4.4882
X6.9898Y-2.6559
X6.8898Y-2.7559
X6.5173Y-4.5882
X5.1Y-2.7559
X4.6276Y-2.7559
X6.0449Y-2.7559
X6.8898Y-2.6559
X5.Y-2.7559
X6.8898Y-4.4882
X6.0449Y-2.6559
X4.5276Y-2.7559
X5.5724Y-4.5882
X5.4724Y-2.7559
X6.5173Y-2.6559
X5.9449Y-4.5882
X6.7898Y-4.4882
X6.0449Y-4.5882
X6.3173Y-4.4882
X5.8449Y-4.4882
X6.7898Y-4.5882
X5.3724Y-4.4882
X5.1Y-4.5882
X4.9Y-4.4882
X5.9449Y-2.7559
X4.4276Y-2.7559
X6.8898Y-4.5882
X4.9Y-2.6559
X6.9898Y-4.4882
X4.6276Y-4.5882
X6.5173Y-4.4882
X5.3724Y-2.6559
T3
X6.4173Y-4.3504
X6.8898Y-4.3504
X5.Y-2.8937
X4.5276Y-2.8937
X4.5276Y-4.3504
X5.9449Y-2.8937
X6.8898Y-2.8937
X5.4724Y-4.3504
X6.4173Y-2.8937
X5.4724Y-2.8937
X5.Y-4.3504
X5.9449Y-4.3504
T0
M30
