M48
;DRILL file {KiCad 5.0.2-bee76a0~70~ubuntu18.04.1} date Thu 12 Mar 2020 01:59:15 PM CET
;FORMAT={-:-/ absolute / inch / decimal}
FMAT,2
INCH,TZ
T1C0.0118
T2C0.0866
%
G90
G05
T1
X4.9862Y-3.7055
X5.003Y-3.7055
X5.0197Y-3.7055
X5.0364Y-3.7055
X5.0531Y-3.7055
X5.4587Y-3.7055
X5.4754Y-3.7055
X5.4921Y-3.7055
X5.5089Y-3.7055
X5.5256Y-3.7055
X6.5945Y-2.7815
X6.5945Y-2.7982
X6.5945Y-2.815
X6.5945Y-2.8317
X6.5945Y-2.8484
X4.5138Y-3.5433
X4.5305Y-3.5433
X4.5472Y-3.5433
X4.564Y-3.5433
X4.5807Y-3.5433
X4.2126Y-2.7815
X4.2126Y-2.7982
X4.2126Y-2.815
X4.2126Y-2.8317
X4.2126Y-2.8484
X7.0669Y-2.7815
X7.0669Y-2.7982
X7.0669Y-2.815
X7.0669Y-2.8317
X7.0669Y-2.8484
X6.5916Y-4.3957
X6.5916Y-4.4124
X6.5916Y-4.4291
X6.5916Y-4.4459
X6.5916Y-4.4626
X5.1772Y-2.7815
X5.1772Y-2.7982
X5.1772Y-2.815
X5.1772Y-2.8317
X5.1772Y-2.8484
X5.9311Y-3.7055
X5.9478Y-3.7055
X5.9646Y-3.7055
X5.9813Y-3.7055
X5.998Y-3.7055
X5.6496Y-2.7815
X5.6496Y-2.7982
X5.6496Y-2.815
X5.6496Y-2.8317
X5.6496Y-2.8484
X6.876Y-3.7055
X6.8927Y-3.7055
X6.9094Y-3.7055
X6.9262Y-3.7055
X6.9429Y-3.7055
X5.3318Y-4.3957
X5.3318Y-4.4124
X5.3318Y-4.4291
X5.3318Y-4.4459
X5.3318Y-4.4626
X6.4035Y-3.7055
X6.4203Y-3.7055
X6.437Y-3.7055
X6.4537Y-3.7055
X6.4705Y-3.7055
X6.2795Y-2.7815
X6.2795Y-2.7982
X6.2795Y-2.815
X6.2795Y-2.8317
X6.2795Y-2.8484
X7.0641Y-4.3957
X7.0641Y-4.4124
X7.0641Y-4.4291
X7.0641Y-4.4459
X7.0641Y-4.4626
X4.7019Y-4.3957
X4.7019Y-4.4124
X4.7019Y-4.4291
X4.7019Y-4.4459
X4.7019Y-4.4626
X5.4587Y-3.5433
X5.4754Y-3.5433
X5.4921Y-3.5433
X5.5089Y-3.5433
X5.5256Y-3.5433
X4.9862Y-3.5433
X5.003Y-3.5433
X5.0197Y-3.5433
X5.0364Y-3.5433
X5.0531Y-3.5433
X4.8622Y-2.7815
X4.8622Y-2.7982
X4.8622Y-2.815
X4.8622Y-2.8317
X4.8622Y-2.8484
X7.2441Y-2.7815
X7.2441Y-2.7982
X7.2441Y-2.815
X7.2441Y-2.8317
X7.2441Y-2.8484
X6.7491Y-4.3957
X6.7491Y-4.4124
X6.7491Y-4.4291
X6.7491Y-4.4459
X6.7491Y-4.4626
X6.1192Y-4.3957
X6.1192Y-4.4124
X6.1192Y-4.4291
X6.1192Y-4.4459
X6.1192Y-4.4626
X6.2767Y-4.3957
X6.2767Y-4.4124
X6.2767Y-4.4291
X6.2767Y-4.4459
X6.2767Y-4.4626
X6.122Y-2.7815
X6.122Y-2.7982
X6.122Y-2.815
X6.122Y-2.8317
X6.122Y-2.8484
X4.8593Y-4.3957
X4.8593Y-4.4124
X4.8593Y-4.4291
X4.8593Y-4.4459
X4.8593Y-4.4626
X5.8071Y-2.7815
X5.8071Y-2.7982
X5.8071Y-2.815
X5.8071Y-2.8317
X5.8071Y-2.8484
X4.5138Y-3.7055
X4.5305Y-3.7055
X4.5472Y-3.7055
X4.564Y-3.7055
X4.5807Y-3.7055
X4.3869Y-4.3957
X4.3869Y-4.4124
X4.3869Y-4.4291
X4.3869Y-4.4459
X4.3869Y-4.4626
X6.752Y-2.7815
X6.752Y-2.7982
X6.752Y-2.815
X6.752Y-2.8317
X6.752Y-2.8484
X4.7047Y-2.7815
X4.7047Y-2.7982
X4.7047Y-2.815
X4.7047Y-2.8317
X4.7047Y-2.8484
X5.6467Y-4.3957
X5.6467Y-4.4124
X5.6467Y-4.4291
X5.6467Y-4.4459
X5.6467Y-4.4626
X4.3898Y-2.7815
X4.3898Y-2.7982
X4.3898Y-2.815
X4.3898Y-2.8317
X4.3898Y-2.8484
X5.3346Y-2.7815
X5.3346Y-2.7982
X5.3346Y-2.815
X5.3346Y-2.8317
X5.3346Y-2.8484
X7.2441Y-4.3957
X7.2441Y-4.4124
X7.2441Y-4.4291
X7.2441Y-4.4459
X7.2441Y-4.4626
X6.4035Y-3.5433
X6.4203Y-3.5433
X6.437Y-3.5433
X6.4537Y-3.5433
X6.4705Y-3.5433
X5.8042Y-4.3957
X5.8042Y-4.4124
X5.8042Y-4.4291
X5.8042Y-4.4459
X5.8042Y-4.4626
X5.9311Y-3.5433
X5.9478Y-3.5433
X5.9646Y-3.5433
X5.9813Y-3.5433
X5.998Y-3.5433
X6.876Y-3.5433
X6.8927Y-3.5433
X6.9094Y-3.5433
X6.9262Y-3.5433
X6.9429Y-3.5433
X4.2126Y-4.3957
X4.2126Y-4.4124
X4.2126Y-4.4291
X4.2126Y-4.4459
X4.2126Y-4.4626
X5.1743Y-4.3957
X5.1743Y-4.4124
X5.1743Y-4.4291
X5.1743Y-4.4459
X5.1743Y-4.4626
T2
X7.2835Y-2.4016
X4.1732Y-2.4016
X4.1732Y-4.8425
X7.2835Y-4.8425
T0
M30
