G04 #@! TF.GenerationSoftware,KiCad,Pcbnew,5.1.5-52549c5~84~ubuntu18.04.1*
G04 #@! TF.CreationDate,2020-03-17T11:40:12+01:00*
G04 #@! TF.ProjectId,output.A1335_long_I2C_panel,6f757470-7574-42e4-9131-3333355f6c6f,rev?*
G04 #@! TF.SameCoordinates,Original*
G04 #@! TF.FileFunction,Profile,NP*
%FSLAX46Y46*%
G04 Gerber Fmt 4.6, Leading zero omitted, Abs format (unit mm)*
G04 Created by KiCad (PCBNEW 5.1.5-52549c5~84~ubuntu18.04.1) date 2020-03-17 11:40:12*
%MOMM*%
%LPD*%
G04 APERTURE LIST*
%ADD10C,0.200000*%
%ADD11C,0.150000*%
%ADD12C,0.100000*%
G04 APERTURE END LIST*
D10*
X114278381Y-89092522D02*
G75*
G02X111010000Y-85160000I731619J3932522D01*
G01*
X126278381Y-89092522D02*
G75*
G02X123010000Y-85160000I731619J3932522D01*
G01*
X138278381Y-89092522D02*
G75*
G02X135010000Y-85160000I731619J3932522D01*
G01*
X150278381Y-89092522D02*
G75*
G02X147010000Y-85160000I731619J3932522D01*
G01*
X162278381Y-89092522D02*
G75*
G02X159010000Y-85160000I731619J3932522D01*
G01*
X174278381Y-89092522D02*
G75*
G02X171010000Y-85160000I731619J3932522D01*
G01*
X175731619Y-92567478D02*
G75*
G02X179000000Y-96500000I-731619J-3932522D01*
G01*
X163731619Y-92567478D02*
G75*
G02X167000000Y-96500000I-731619J-3932522D01*
G01*
X151731619Y-92567478D02*
G75*
G02X155000000Y-96500000I-731619J-3932522D01*
G01*
X139731619Y-92567478D02*
G75*
G02X143000000Y-96500000I-731619J-3932522D01*
G01*
X127731619Y-92567478D02*
G75*
G02X131000000Y-96500000I-731619J-3932522D01*
G01*
X111010000Y-65160000D02*
X111010000Y-70160000D01*
X123010000Y-65160000D02*
X123010000Y-70160000D01*
X135010000Y-65160000D02*
X135010000Y-70160000D01*
X147010000Y-65160000D02*
X147010000Y-70160000D01*
X159010000Y-65160000D02*
X159010000Y-70160000D01*
X171010000Y-65160000D02*
X171010000Y-70160000D01*
X179000000Y-116500000D02*
X179000000Y-111500000D01*
X167000000Y-116500000D02*
X167000000Y-111500000D01*
X155000000Y-116500000D02*
X155000000Y-111500000D01*
X143000000Y-116500000D02*
X143000000Y-111500000D01*
X131000000Y-116500000D02*
X131000000Y-111500000D01*
X116110000Y-72648571D02*
G75*
G03X116110000Y-72648571I-1100000J0D01*
G01*
X128110000Y-72648571D02*
G75*
G03X128110000Y-72648571I-1100000J0D01*
G01*
X140110000Y-72648571D02*
G75*
G03X140110000Y-72648571I-1100000J0D01*
G01*
X152110000Y-72648571D02*
G75*
G03X152110000Y-72648571I-1100000J0D01*
G01*
X164110000Y-72648571D02*
G75*
G03X164110000Y-72648571I-1100000J0D01*
G01*
X176110000Y-72648571D02*
G75*
G03X176110000Y-72648571I-1100000J0D01*
G01*
X176100000Y-109011429D02*
G75*
G03X176100000Y-109011429I-1100000J0D01*
G01*
X164100000Y-109011429D02*
G75*
G03X164100000Y-109011429I-1100000J0D01*
G01*
X152100000Y-109011429D02*
G75*
G03X152100000Y-109011429I-1100000J0D01*
G01*
X140100000Y-109011429D02*
G75*
G03X140100000Y-109011429I-1100000J0D01*
G01*
X128100000Y-109011429D02*
G75*
G03X128100000Y-109011429I-1100000J0D01*
G01*
X114278301Y-89092569D02*
G75*
G02X115741740Y-89092500I731699J432569D01*
G01*
X126278301Y-89092569D02*
G75*
G02X127741740Y-89092500I731699J432569D01*
G01*
X138278301Y-89092569D02*
G75*
G02X139741740Y-89092500I731699J432569D01*
G01*
X150278301Y-89092569D02*
G75*
G02X151741740Y-89092500I731699J432569D01*
G01*
X162278301Y-89092569D02*
G75*
G02X163741740Y-89092500I731699J432569D01*
G01*
X174278301Y-89092569D02*
G75*
G02X175741740Y-89092500I731699J432569D01*
G01*
X175731699Y-92567431D02*
G75*
G02X174268260Y-92567500I-731699J-432569D01*
G01*
X163731699Y-92567431D02*
G75*
G02X162268260Y-92567500I-731699J-432569D01*
G01*
X151731699Y-92567431D02*
G75*
G02X150268260Y-92567500I-731699J-432569D01*
G01*
X139731699Y-92567431D02*
G75*
G02X138268260Y-92567500I-731699J-432569D01*
G01*
X127731699Y-92567431D02*
G75*
G02X126268260Y-92567500I-731699J-432569D01*
G01*
X116110000Y-72648571D02*
G75*
G03X116110000Y-72648571I-1100000J0D01*
G01*
X128110000Y-72648571D02*
G75*
G03X128110000Y-72648571I-1100000J0D01*
G01*
X140110000Y-72648571D02*
G75*
G03X140110000Y-72648571I-1100000J0D01*
G01*
X152110000Y-72648571D02*
G75*
G03X152110000Y-72648571I-1100000J0D01*
G01*
X164110000Y-72648571D02*
G75*
G03X164110000Y-72648571I-1100000J0D01*
G01*
X176110000Y-72648571D02*
G75*
G03X176110000Y-72648571I-1100000J0D01*
G01*
X176100000Y-109011429D02*
G75*
G03X176100000Y-109011429I-1100000J0D01*
G01*
X164100000Y-109011429D02*
G75*
G03X164100000Y-109011429I-1100000J0D01*
G01*
X152100000Y-109011429D02*
G75*
G03X152100000Y-109011429I-1100000J0D01*
G01*
X140100000Y-109011429D02*
G75*
G03X140100000Y-109011429I-1100000J0D01*
G01*
X128100000Y-109011429D02*
G75*
G03X128100000Y-109011429I-1100000J0D01*
G01*
X119009987Y-85149999D02*
G75*
G02X115741740Y-89092500I-3999987J-10001D01*
G01*
X131009987Y-85149999D02*
G75*
G02X127741740Y-89092500I-3999987J-10001D01*
G01*
X143009987Y-85149999D02*
G75*
G02X139741740Y-89092500I-3999987J-10001D01*
G01*
X155009987Y-85149999D02*
G75*
G02X151741740Y-89092500I-3999987J-10001D01*
G01*
X167009987Y-85149999D02*
G75*
G02X163741740Y-89092500I-3999987J-10001D01*
G01*
X179009987Y-85149999D02*
G75*
G02X175741740Y-89092500I-3999987J-10001D01*
G01*
X171000013Y-96510001D02*
G75*
G02X174268260Y-92567500I3999987J10001D01*
G01*
X159000013Y-96510001D02*
G75*
G02X162268260Y-92567500I3999987J10001D01*
G01*
X147000013Y-96510001D02*
G75*
G02X150268260Y-92567500I3999987J10001D01*
G01*
X135000013Y-96510001D02*
G75*
G02X138268260Y-92567500I3999987J10001D01*
G01*
X123000013Y-96510001D02*
G75*
G02X126268260Y-92567500I3999987J10001D01*
G01*
D11*
X186000000Y-59000000D02*
X186000000Y-125000000D01*
X104000000Y-125000000D02*
X104000000Y-59000000D01*
X186000000Y-125000000D02*
X104000000Y-125000000D01*
X104000000Y-59000000D02*
X186000000Y-59000000D01*
D10*
X119000000Y-116500000D02*
X119000000Y-111500000D01*
X111000013Y-96510001D02*
G75*
G02X114268260Y-92567500I3999987J10001D01*
G01*
X116100000Y-109011429D02*
G75*
G03X116100000Y-109011429I-1100000J0D01*
G01*
X116100000Y-109011429D02*
G75*
G03X116100000Y-109011429I-1100000J0D01*
G01*
X115731619Y-92567478D02*
G75*
G02X119000000Y-96500000I-731619J-3932522D01*
G01*
X115731699Y-92567431D02*
G75*
G02X114268260Y-92567500I-731699J-432569D01*
G01*
D12*
X119000000Y-107499998D02*
X119000000Y-111500000D01*
X119000000Y-102500000D02*
X119000000Y-96500000D01*
X123000010Y-102499992D02*
X123000013Y-96510001D01*
X123000004Y-107500015D02*
X123000000Y-116500000D01*
X119000000Y-107499998D02*
X119007687Y-107400294D01*
X123000004Y-107500015D02*
X122992317Y-107400311D01*
X119007687Y-107400294D02*
X119023015Y-107301476D01*
X122992317Y-107400311D02*
X122976989Y-107301493D01*
X119023015Y-107301476D02*
X119045893Y-107204129D01*
X122976989Y-107301493D02*
X122954111Y-107204146D01*
X119045893Y-107204129D02*
X119076186Y-107108829D01*
X122954111Y-107204146D02*
X122923818Y-107108846D01*
X119076186Y-107108829D02*
X119113715Y-107016139D01*
X122923818Y-107108846D02*
X122886289Y-107016156D01*
X119113715Y-107016139D02*
X119158258Y-106926608D01*
X122886289Y-107016156D02*
X122841746Y-106926625D01*
X119158258Y-106926608D02*
X119209551Y-106840766D01*
X122841746Y-106926625D02*
X122790453Y-106840783D01*
X119209551Y-106840766D02*
X119267291Y-106759121D01*
X122790453Y-106840783D02*
X122732713Y-106759138D01*
X119267291Y-106759121D02*
X119331136Y-106682156D01*
X122732713Y-106759138D02*
X122668868Y-106682173D01*
X119331136Y-106682156D02*
X119400708Y-106610326D01*
X122668868Y-106682173D02*
X122599296Y-106610343D01*
X119400708Y-106610326D02*
X119475595Y-106544056D01*
X122599296Y-106610343D02*
X122524409Y-106544073D01*
X119475595Y-106544056D02*
X119555354Y-106483738D01*
X122524409Y-106544073D02*
X122444650Y-106483755D01*
X119555354Y-106483738D02*
X119639513Y-106429729D01*
X122444650Y-106483755D02*
X122360491Y-106429746D01*
X119639513Y-106429729D02*
X119727574Y-106382349D01*
X122360491Y-106429746D02*
X122272430Y-106382366D01*
X119727574Y-106382349D02*
X119819016Y-106341878D01*
X122272430Y-106382366D02*
X122180988Y-106341895D01*
X119819016Y-106341878D02*
X119913298Y-106308556D01*
X122180988Y-106341895D02*
X122086706Y-106308573D01*
X119913298Y-106308556D02*
X120009862Y-106282580D01*
X122086706Y-106308573D02*
X121990142Y-106282597D01*
X120009862Y-106282580D02*
X120108137Y-106264103D01*
X121990142Y-106282597D02*
X121891867Y-106264120D01*
X120108137Y-106264103D02*
X120207542Y-106253235D01*
X121891867Y-106264120D02*
X121792462Y-106253252D01*
X120207542Y-106253235D02*
X120307488Y-106250040D01*
X121792462Y-106253252D02*
X121692516Y-106250057D01*
X120307488Y-106250040D02*
X121692516Y-106250057D01*
X119000000Y-102500000D02*
X119007687Y-102599704D01*
X123000010Y-102499992D02*
X122992323Y-102599696D01*
X119007687Y-102599704D02*
X119023015Y-102698522D01*
X122992323Y-102599696D02*
X122976995Y-102698514D01*
X119023015Y-102698522D02*
X119045893Y-102795869D01*
X122976995Y-102698514D02*
X122954117Y-102795861D01*
X119045893Y-102795869D02*
X119076186Y-102891169D01*
X122954117Y-102795861D02*
X122923824Y-102891161D01*
X119076186Y-102891169D02*
X119113715Y-102983859D01*
X122923824Y-102891161D02*
X122886295Y-102983851D01*
X119113715Y-102983859D02*
X119158258Y-103073390D01*
X122886295Y-102983851D02*
X122841752Y-103073382D01*
X119158258Y-103073390D02*
X119209551Y-103159232D01*
X122841752Y-103073382D02*
X122790459Y-103159224D01*
X119209551Y-103159232D02*
X119267291Y-103240877D01*
X122790459Y-103159224D02*
X122732719Y-103240869D01*
X119267291Y-103240877D02*
X119331136Y-103317842D01*
X122732719Y-103240869D02*
X122668874Y-103317834D01*
X119331136Y-103317842D02*
X119400708Y-103389672D01*
X122668874Y-103317834D02*
X122599302Y-103389664D01*
X119400708Y-103389672D02*
X119475595Y-103455942D01*
X122599302Y-103389664D02*
X122524415Y-103455934D01*
X119475595Y-103455942D02*
X119555354Y-103516260D01*
X122524415Y-103455934D02*
X122444656Y-103516252D01*
X119555354Y-103516260D02*
X119639513Y-103570269D01*
X122444656Y-103516252D02*
X122360497Y-103570261D01*
X119639513Y-103570269D02*
X119727574Y-103617649D01*
X122360497Y-103570261D02*
X122272436Y-103617641D01*
X119727574Y-103617649D02*
X119819016Y-103658120D01*
X122272436Y-103617641D02*
X122180994Y-103658112D01*
X119819016Y-103658120D02*
X119913298Y-103691442D01*
X122180994Y-103658112D02*
X122086712Y-103691434D01*
X119913298Y-103691442D02*
X120009862Y-103717418D01*
X122086712Y-103691434D02*
X121990148Y-103717410D01*
X120009862Y-103717418D02*
X120108137Y-103735895D01*
X121990148Y-103717410D02*
X121891873Y-103735887D01*
X120108137Y-103735895D02*
X120207542Y-103746763D01*
X121891873Y-103735887D02*
X121792468Y-103746755D01*
X120207542Y-103746763D02*
X120307488Y-103749958D01*
X121792468Y-103746755D02*
X121692522Y-103749950D01*
X120307488Y-103749958D02*
X121692522Y-103749950D01*
X155000000Y-107499998D02*
X155000000Y-111500000D01*
X155000000Y-102500000D02*
X155000000Y-96500000D01*
X159000010Y-102499992D02*
X159000013Y-96510001D01*
X159000004Y-107500015D02*
X159000000Y-116500000D01*
X155000000Y-107499998D02*
X155007687Y-107400294D01*
X159000004Y-107500015D02*
X158992317Y-107400311D01*
X155007687Y-107400294D02*
X155023015Y-107301476D01*
X158992317Y-107400311D02*
X158976989Y-107301493D01*
X155023015Y-107301476D02*
X155045893Y-107204129D01*
X158976989Y-107301493D02*
X158954111Y-107204146D01*
X155045893Y-107204129D02*
X155076186Y-107108829D01*
X158954111Y-107204146D02*
X158923818Y-107108846D01*
X155076186Y-107108829D02*
X155113715Y-107016139D01*
X158923818Y-107108846D02*
X158886289Y-107016156D01*
X155113715Y-107016139D02*
X155158258Y-106926608D01*
X158886289Y-107016156D02*
X158841746Y-106926625D01*
X155158258Y-106926608D02*
X155209551Y-106840766D01*
X158841746Y-106926625D02*
X158790453Y-106840783D01*
X155209551Y-106840766D02*
X155267291Y-106759121D01*
X158790453Y-106840783D02*
X158732713Y-106759138D01*
X155267291Y-106759121D02*
X155331136Y-106682156D01*
X158732713Y-106759138D02*
X158668868Y-106682173D01*
X155331136Y-106682156D02*
X155400708Y-106610326D01*
X158668868Y-106682173D02*
X158599296Y-106610343D01*
X155400708Y-106610326D02*
X155475595Y-106544056D01*
X158599296Y-106610343D02*
X158524409Y-106544073D01*
X155475595Y-106544056D02*
X155555354Y-106483738D01*
X158524409Y-106544073D02*
X158444650Y-106483755D01*
X155555354Y-106483738D02*
X155639513Y-106429729D01*
X158444650Y-106483755D02*
X158360491Y-106429746D01*
X155639513Y-106429729D02*
X155727574Y-106382349D01*
X158360491Y-106429746D02*
X158272430Y-106382366D01*
X155727574Y-106382349D02*
X155819016Y-106341878D01*
X158272430Y-106382366D02*
X158180988Y-106341895D01*
X155819016Y-106341878D02*
X155913298Y-106308556D01*
X158180988Y-106341895D02*
X158086706Y-106308573D01*
X155913298Y-106308556D02*
X156009862Y-106282580D01*
X158086706Y-106308573D02*
X157990142Y-106282597D01*
X156009862Y-106282580D02*
X156108137Y-106264103D01*
X157990142Y-106282597D02*
X157891867Y-106264120D01*
X156108137Y-106264103D02*
X156207542Y-106253235D01*
X157891867Y-106264120D02*
X157792462Y-106253252D01*
X156207542Y-106253235D02*
X156307488Y-106250040D01*
X157792462Y-106253252D02*
X157692516Y-106250057D01*
X156307488Y-106250040D02*
X157692516Y-106250057D01*
X155000000Y-102500000D02*
X155007687Y-102599704D01*
X159000010Y-102499992D02*
X158992323Y-102599696D01*
X155007687Y-102599704D02*
X155023015Y-102698522D01*
X158992323Y-102599696D02*
X158976995Y-102698514D01*
X155023015Y-102698522D02*
X155045893Y-102795869D01*
X158976995Y-102698514D02*
X158954117Y-102795861D01*
X155045893Y-102795869D02*
X155076186Y-102891169D01*
X158954117Y-102795861D02*
X158923824Y-102891161D01*
X155076186Y-102891169D02*
X155113715Y-102983859D01*
X158923824Y-102891161D02*
X158886295Y-102983851D01*
X155113715Y-102983859D02*
X155158258Y-103073390D01*
X158886295Y-102983851D02*
X158841752Y-103073382D01*
X155158258Y-103073390D02*
X155209551Y-103159232D01*
X158841752Y-103073382D02*
X158790459Y-103159224D01*
X155209551Y-103159232D02*
X155267291Y-103240877D01*
X158790459Y-103159224D02*
X158732719Y-103240869D01*
X155267291Y-103240877D02*
X155331136Y-103317842D01*
X158732719Y-103240869D02*
X158668874Y-103317834D01*
X155331136Y-103317842D02*
X155400708Y-103389672D01*
X158668874Y-103317834D02*
X158599302Y-103389664D01*
X155400708Y-103389672D02*
X155475595Y-103455942D01*
X158599302Y-103389664D02*
X158524415Y-103455934D01*
X155475595Y-103455942D02*
X155555354Y-103516260D01*
X158524415Y-103455934D02*
X158444656Y-103516252D01*
X155555354Y-103516260D02*
X155639513Y-103570269D01*
X158444656Y-103516252D02*
X158360497Y-103570261D01*
X155639513Y-103570269D02*
X155727574Y-103617649D01*
X158360497Y-103570261D02*
X158272436Y-103617641D01*
X155727574Y-103617649D02*
X155819016Y-103658120D01*
X158272436Y-103617641D02*
X158180994Y-103658112D01*
X155819016Y-103658120D02*
X155913298Y-103691442D01*
X158180994Y-103658112D02*
X158086712Y-103691434D01*
X155913298Y-103691442D02*
X156009862Y-103717418D01*
X158086712Y-103691434D02*
X157990148Y-103717410D01*
X156009862Y-103717418D02*
X156108137Y-103735895D01*
X157990148Y-103717410D02*
X157891873Y-103735887D01*
X156108137Y-103735895D02*
X156207542Y-103746763D01*
X157891873Y-103735887D02*
X157792468Y-103746755D01*
X156207542Y-103746763D02*
X156307488Y-103749958D01*
X157792468Y-103746755D02*
X157692522Y-103749950D01*
X156307488Y-103749958D02*
X157692522Y-103749950D01*
X160500000Y-116500000D02*
X159000000Y-116500000D01*
X165500000Y-116500000D02*
X167000000Y-116500000D01*
X165500000Y-116500000D02*
X165400296Y-116507687D01*
X165500000Y-122000000D02*
X165400296Y-121992313D01*
X165400296Y-116507687D02*
X165301478Y-116523015D01*
X165400296Y-121992313D02*
X165301478Y-121976985D01*
X165301478Y-116523015D02*
X165204131Y-116545893D01*
X165301478Y-121976985D02*
X165204131Y-121954107D01*
X165204131Y-116545893D02*
X165108831Y-116576186D01*
X165204131Y-121954107D02*
X165108831Y-121923814D01*
X165108831Y-116576186D02*
X165016141Y-116613715D01*
X165108831Y-121923814D02*
X165016141Y-121886285D01*
X165016141Y-116613715D02*
X164926610Y-116658258D01*
X165016141Y-121886285D02*
X164926610Y-121841742D01*
X164926610Y-116658258D02*
X164840768Y-116709551D01*
X164926610Y-121841742D02*
X164840768Y-121790449D01*
X164840768Y-116709551D02*
X164759123Y-116767291D01*
X164840768Y-121790449D02*
X164759123Y-121732709D01*
X164759123Y-116767291D02*
X164682158Y-116831136D01*
X164759123Y-121732709D02*
X164682158Y-121668864D01*
X164682158Y-116831136D02*
X164610328Y-116900708D01*
X164682158Y-121668864D02*
X164610328Y-121599292D01*
X164610328Y-116900708D02*
X164544058Y-116975595D01*
X164610328Y-121599292D02*
X164544058Y-121524405D01*
X164544058Y-116975595D02*
X164483740Y-117055354D01*
X164544058Y-121524405D02*
X164483740Y-121444646D01*
X164483740Y-117055354D02*
X164429731Y-117139513D01*
X164483740Y-121444646D02*
X164429731Y-121360487D01*
X164429731Y-117139513D02*
X164382351Y-117227574D01*
X164429731Y-121360487D02*
X164382351Y-121272426D01*
X164382351Y-117227574D02*
X164341880Y-117319016D01*
X164382351Y-121272426D02*
X164341880Y-121180984D01*
X164341880Y-117319016D02*
X164308558Y-117413298D01*
X164341880Y-121180984D02*
X164308558Y-121086702D01*
X164308558Y-117413298D02*
X164282582Y-117509862D01*
X164308558Y-121086702D02*
X164282582Y-120990138D01*
X164282582Y-117509862D02*
X164264105Y-117608137D01*
X164282582Y-120990138D02*
X164264105Y-120891863D01*
X164264105Y-117608137D02*
X164253237Y-117707542D01*
X164264105Y-120891863D02*
X164253237Y-120792458D01*
X164253237Y-117707542D02*
X164250042Y-117807488D01*
X164253237Y-120792458D02*
X164250042Y-120692512D01*
X164250042Y-120692512D02*
X164250042Y-117807488D01*
X160500020Y-122000000D02*
X160599724Y-121992313D01*
X160500000Y-116500000D02*
X160599704Y-116507687D01*
X160599724Y-121992313D02*
X160698542Y-121976985D01*
X160599704Y-116507687D02*
X160698522Y-116523015D01*
X160698542Y-121976985D02*
X160795889Y-121954107D01*
X160698522Y-116523015D02*
X160795869Y-116545893D01*
X160795889Y-121954107D02*
X160891189Y-121923814D01*
X160795869Y-116545893D02*
X160891169Y-116576186D01*
X160891189Y-121923814D02*
X160983879Y-121886285D01*
X160891169Y-116576186D02*
X160983859Y-116613715D01*
X160983879Y-121886285D02*
X161073410Y-121841742D01*
X160983859Y-116613715D02*
X161073390Y-116658258D01*
X161073410Y-121841742D02*
X161159252Y-121790449D01*
X161073390Y-116658258D02*
X161159232Y-116709551D01*
X161159252Y-121790449D02*
X161240897Y-121732709D01*
X161159232Y-116709551D02*
X161240877Y-116767291D01*
X161240897Y-121732709D02*
X161317862Y-121668864D01*
X161240877Y-116767291D02*
X161317842Y-116831136D01*
X161317862Y-121668864D02*
X161389692Y-121599292D01*
X161317842Y-116831136D02*
X161389672Y-116900708D01*
X161389692Y-121599292D02*
X161455962Y-121524405D01*
X161389672Y-116900708D02*
X161455942Y-116975595D01*
X161455962Y-121524405D02*
X161516280Y-121444646D01*
X161455942Y-116975595D02*
X161516260Y-117055354D01*
X161516280Y-121444646D02*
X161570289Y-121360487D01*
X161516260Y-117055354D02*
X161570269Y-117139513D01*
X161570289Y-121360487D02*
X161617669Y-121272426D01*
X161570269Y-117139513D02*
X161617649Y-117227574D01*
X161617669Y-121272426D02*
X161658140Y-121180984D01*
X161617649Y-117227574D02*
X161658120Y-117319016D01*
X161658140Y-121180984D02*
X161691462Y-121086702D01*
X161658120Y-117319016D02*
X161691442Y-117413298D01*
X161691462Y-121086702D02*
X161717438Y-120990138D01*
X161691442Y-117413298D02*
X161717418Y-117509862D01*
X161717438Y-120990138D02*
X161735915Y-120891863D01*
X161717418Y-117509862D02*
X161735895Y-117608137D01*
X161735915Y-120891863D02*
X161746783Y-120792458D01*
X161735895Y-117608137D02*
X161746763Y-117707542D01*
X161746783Y-120792458D02*
X161749978Y-120692512D01*
X161746763Y-117707542D02*
X161749958Y-117807488D01*
X161749978Y-120692512D02*
X161749958Y-117807488D01*
X143009988Y-81000000D02*
X143009987Y-85149999D01*
X143009994Y-75999985D02*
X143010000Y-65160000D01*
X147010000Y-76000002D02*
X147010000Y-70160000D01*
X147010000Y-80999998D02*
X147010000Y-85160000D01*
X147010000Y-80999998D02*
X147002313Y-80900294D01*
X143009988Y-81000000D02*
X143017675Y-80900296D01*
X147002313Y-80900294D02*
X146986985Y-80801476D01*
X143017675Y-80900296D02*
X143033003Y-80801478D01*
X146986985Y-80801476D02*
X146964107Y-80704129D01*
X143033003Y-80801478D02*
X143055881Y-80704131D01*
X146964107Y-80704129D02*
X146933814Y-80608829D01*
X143055881Y-80704131D02*
X143086174Y-80608831D01*
X146933814Y-80608829D02*
X146896285Y-80516139D01*
X143086174Y-80608831D02*
X143123703Y-80516141D01*
X146896285Y-80516139D02*
X146851742Y-80426608D01*
X143123703Y-80516141D02*
X143168246Y-80426610D01*
X146851742Y-80426608D02*
X146800449Y-80340766D01*
X143168246Y-80426610D02*
X143219539Y-80340768D01*
X146800449Y-80340766D02*
X146742709Y-80259121D01*
X143219539Y-80340768D02*
X143277279Y-80259123D01*
X146742709Y-80259121D02*
X146678864Y-80182156D01*
X143277279Y-80259123D02*
X143341124Y-80182158D01*
X146678864Y-80182156D02*
X146609292Y-80110326D01*
X143341124Y-80182158D02*
X143410696Y-80110328D01*
X146609292Y-80110326D02*
X146534405Y-80044056D01*
X143410696Y-80110328D02*
X143485583Y-80044058D01*
X146534405Y-80044056D02*
X146454646Y-79983738D01*
X143485583Y-80044058D02*
X143565342Y-79983740D01*
X146454646Y-79983738D02*
X146370487Y-79929729D01*
X143565342Y-79983740D02*
X143649501Y-79929731D01*
X146370487Y-79929729D02*
X146282426Y-79882349D01*
X143649501Y-79929731D02*
X143737562Y-79882351D01*
X146282426Y-79882349D02*
X146190984Y-79841878D01*
X143737562Y-79882351D02*
X143829004Y-79841880D01*
X146190984Y-79841878D02*
X146096702Y-79808556D01*
X143829004Y-79841880D02*
X143923286Y-79808558D01*
X146096702Y-79808556D02*
X146000138Y-79782580D01*
X143923286Y-79808558D02*
X144019850Y-79782582D01*
X146000138Y-79782580D02*
X145901863Y-79764103D01*
X144019850Y-79782582D02*
X144118125Y-79764105D01*
X145901863Y-79764103D02*
X145802458Y-79753235D01*
X144118125Y-79764105D02*
X144217530Y-79753237D01*
X145802458Y-79753235D02*
X145702512Y-79750040D01*
X144217530Y-79753237D02*
X144317476Y-79750042D01*
X144317476Y-79750042D02*
X145702512Y-79750040D01*
X147010000Y-76000002D02*
X147002313Y-76099706D01*
X143009994Y-75999985D02*
X143017681Y-76099689D01*
X147002313Y-76099706D02*
X146986985Y-76198524D01*
X143017681Y-76099689D02*
X143033009Y-76198507D01*
X146986985Y-76198524D02*
X146964107Y-76295871D01*
X143033009Y-76198507D02*
X143055887Y-76295854D01*
X146964107Y-76295871D02*
X146933814Y-76391171D01*
X143055887Y-76295854D02*
X143086180Y-76391154D01*
X146933814Y-76391171D02*
X146896285Y-76483861D01*
X143086180Y-76391154D02*
X143123709Y-76483844D01*
X146896285Y-76483861D02*
X146851742Y-76573392D01*
X143123709Y-76483844D02*
X143168252Y-76573375D01*
X146851742Y-76573392D02*
X146800449Y-76659234D01*
X143168252Y-76573375D02*
X143219545Y-76659217D01*
X146800449Y-76659234D02*
X146742709Y-76740879D01*
X143219545Y-76659217D02*
X143277285Y-76740862D01*
X146742709Y-76740879D02*
X146678864Y-76817844D01*
X143277285Y-76740862D02*
X143341130Y-76817827D01*
X146678864Y-76817844D02*
X146609292Y-76889674D01*
X143341130Y-76817827D02*
X143410702Y-76889657D01*
X146609292Y-76889674D02*
X146534405Y-76955944D01*
X143410702Y-76889657D02*
X143485589Y-76955927D01*
X146534405Y-76955944D02*
X146454646Y-77016262D01*
X143485589Y-76955927D02*
X143565348Y-77016245D01*
X146454646Y-77016262D02*
X146370487Y-77070271D01*
X143565348Y-77016245D02*
X143649507Y-77070254D01*
X146370487Y-77070271D02*
X146282426Y-77117651D01*
X143649507Y-77070254D02*
X143737568Y-77117634D01*
X146282426Y-77117651D02*
X146190984Y-77158122D01*
X143737568Y-77117634D02*
X143829010Y-77158105D01*
X146190984Y-77158122D02*
X146096702Y-77191444D01*
X143829010Y-77158105D02*
X143923292Y-77191427D01*
X146096702Y-77191444D02*
X146000138Y-77217420D01*
X143923292Y-77191427D02*
X144019856Y-77217403D01*
X146000138Y-77217420D02*
X145901863Y-77235897D01*
X144019856Y-77217403D02*
X144118131Y-77235880D01*
X145901863Y-77235897D02*
X145802458Y-77246765D01*
X144118131Y-77235880D02*
X144217536Y-77246748D01*
X145802458Y-77246765D02*
X145702512Y-77249960D01*
X144217536Y-77246748D02*
X144317482Y-77249943D01*
X144317482Y-77249943D02*
X145702512Y-77249960D01*
X129500005Y-65160000D02*
X131010000Y-65160000D01*
X124499995Y-65160000D02*
X123010000Y-65160000D01*
X124500000Y-62000000D02*
X124599704Y-62007687D01*
X124499995Y-65160000D02*
X124599699Y-65152313D01*
X124599704Y-62007687D02*
X124698522Y-62023015D01*
X124599699Y-65152313D02*
X124698517Y-65136985D01*
X124698522Y-62023015D02*
X124795869Y-62045893D01*
X124698517Y-65136985D02*
X124795864Y-65114107D01*
X124795869Y-62045893D02*
X124891169Y-62076186D01*
X124795864Y-65114107D02*
X124891164Y-65083814D01*
X124891169Y-62076186D02*
X124983859Y-62113715D01*
X124891164Y-65083814D02*
X124983854Y-65046285D01*
X124983859Y-62113715D02*
X125073390Y-62158258D01*
X124983854Y-65046285D02*
X125073385Y-65001742D01*
X125073390Y-62158258D02*
X125159232Y-62209551D01*
X125073385Y-65001742D02*
X125159227Y-64950449D01*
X125159232Y-62209551D02*
X125240877Y-62267291D01*
X125159227Y-64950449D02*
X125240872Y-64892709D01*
X125240877Y-62267291D02*
X125317842Y-62331136D01*
X125240872Y-64892709D02*
X125317837Y-64828864D01*
X125317842Y-62331136D02*
X125389672Y-62400708D01*
X125317837Y-64828864D02*
X125389667Y-64759292D01*
X125389672Y-62400708D02*
X125455942Y-62475595D01*
X125389667Y-64759292D02*
X125455937Y-64684405D01*
X125455942Y-62475595D02*
X125516260Y-62555354D01*
X125455937Y-64684405D02*
X125516255Y-64604646D01*
X125516260Y-62555354D02*
X125570269Y-62639513D01*
X125516255Y-64604646D02*
X125570264Y-64520487D01*
X125570269Y-62639513D02*
X125617649Y-62727574D01*
X125570264Y-64520487D02*
X125617644Y-64432426D01*
X125617649Y-62727574D02*
X125658120Y-62819016D01*
X125617644Y-64432426D02*
X125658115Y-64340984D01*
X125658120Y-62819016D02*
X125691442Y-62913298D01*
X125658115Y-64340984D02*
X125691437Y-64246702D01*
X125691442Y-62913298D02*
X125717418Y-63009862D01*
X125691437Y-64246702D02*
X125717413Y-64150138D01*
X125717418Y-63009862D02*
X125735895Y-63108137D01*
X125717413Y-64150138D02*
X125735890Y-64051863D01*
X125735895Y-63108137D02*
X125746763Y-63207542D01*
X125735890Y-64051863D02*
X125746758Y-63952458D01*
X125746763Y-63207542D02*
X125749958Y-63307488D01*
X125746758Y-63952458D02*
X125749953Y-63852512D01*
X125749958Y-63307488D02*
X125749953Y-63852512D01*
X129499980Y-62000000D02*
X129400276Y-62007687D01*
X129500005Y-65160000D02*
X129400301Y-65152313D01*
X129400276Y-62007687D02*
X129301458Y-62023015D01*
X129400301Y-65152313D02*
X129301483Y-65136985D01*
X129301458Y-62023015D02*
X129204111Y-62045893D01*
X129301483Y-65136985D02*
X129204136Y-65114107D01*
X129204111Y-62045893D02*
X129108811Y-62076186D01*
X129204136Y-65114107D02*
X129108836Y-65083814D01*
X129108811Y-62076186D02*
X129016121Y-62113715D01*
X129108836Y-65083814D02*
X129016146Y-65046285D01*
X129016121Y-62113715D02*
X128926590Y-62158258D01*
X129016146Y-65046285D02*
X128926615Y-65001742D01*
X128926590Y-62158258D02*
X128840748Y-62209551D01*
X128926615Y-65001742D02*
X128840773Y-64950449D01*
X128840748Y-62209551D02*
X128759103Y-62267291D01*
X128840773Y-64950449D02*
X128759128Y-64892709D01*
X128759103Y-62267291D02*
X128682138Y-62331136D01*
X128759128Y-64892709D02*
X128682163Y-64828864D01*
X128682138Y-62331136D02*
X128610308Y-62400708D01*
X128682163Y-64828864D02*
X128610333Y-64759292D01*
X128610308Y-62400708D02*
X128544038Y-62475595D01*
X128610333Y-64759292D02*
X128544063Y-64684405D01*
X128544038Y-62475595D02*
X128483720Y-62555354D01*
X128544063Y-64684405D02*
X128483745Y-64604646D01*
X128483720Y-62555354D02*
X128429711Y-62639513D01*
X128483745Y-64604646D02*
X128429736Y-64520487D01*
X128429711Y-62639513D02*
X128382331Y-62727574D01*
X128429736Y-64520487D02*
X128382356Y-64432426D01*
X128382331Y-62727574D02*
X128341860Y-62819016D01*
X128382356Y-64432426D02*
X128341885Y-64340984D01*
X128341860Y-62819016D02*
X128308538Y-62913298D01*
X128341885Y-64340984D02*
X128308563Y-64246702D01*
X128308538Y-62913298D02*
X128282562Y-63009862D01*
X128308563Y-64246702D02*
X128282587Y-64150138D01*
X128282562Y-63009862D02*
X128264085Y-63108137D01*
X128282587Y-64150138D02*
X128264110Y-64051863D01*
X128264085Y-63108137D02*
X128253217Y-63207542D01*
X128264110Y-64051863D02*
X128253242Y-63952458D01*
X128253217Y-63207542D02*
X128250022Y-63307488D01*
X128253242Y-63952458D02*
X128250047Y-63852512D01*
X128250022Y-63307488D02*
X128250047Y-63852512D01*
X148500000Y-116500000D02*
X147000000Y-116500000D01*
X153500000Y-116500000D02*
X155000000Y-116500000D01*
X153500003Y-122000000D02*
X160500020Y-122000000D01*
X148500030Y-122000000D02*
X148599734Y-121992313D01*
X148500000Y-116500000D02*
X148599704Y-116507687D01*
X148599734Y-121992313D02*
X148698552Y-121976985D01*
X148599704Y-116507687D02*
X148698522Y-116523015D01*
X148698552Y-121976985D02*
X148795899Y-121954107D01*
X148698522Y-116523015D02*
X148795869Y-116545893D01*
X148795899Y-121954107D02*
X148891199Y-121923814D01*
X148795869Y-116545893D02*
X148891169Y-116576186D01*
X148891199Y-121923814D02*
X148983889Y-121886285D01*
X148891169Y-116576186D02*
X148983859Y-116613715D01*
X148983889Y-121886285D02*
X149073420Y-121841742D01*
X148983859Y-116613715D02*
X149073390Y-116658258D01*
X149073420Y-121841742D02*
X149159262Y-121790449D01*
X149073390Y-116658258D02*
X149159232Y-116709551D01*
X149159262Y-121790449D02*
X149240907Y-121732709D01*
X149159232Y-116709551D02*
X149240877Y-116767291D01*
X149240907Y-121732709D02*
X149317872Y-121668864D01*
X149240877Y-116767291D02*
X149317842Y-116831136D01*
X149317872Y-121668864D02*
X149389702Y-121599292D01*
X149317842Y-116831136D02*
X149389672Y-116900708D01*
X149389702Y-121599292D02*
X149455972Y-121524405D01*
X149389672Y-116900708D02*
X149455942Y-116975595D01*
X149455972Y-121524405D02*
X149516290Y-121444646D01*
X149455942Y-116975595D02*
X149516260Y-117055354D01*
X149516290Y-121444646D02*
X149570299Y-121360487D01*
X149516260Y-117055354D02*
X149570269Y-117139513D01*
X149570299Y-121360487D02*
X149617679Y-121272426D01*
X149570269Y-117139513D02*
X149617649Y-117227574D01*
X149617679Y-121272426D02*
X149658150Y-121180984D01*
X149617649Y-117227574D02*
X149658120Y-117319016D01*
X149658150Y-121180984D02*
X149691472Y-121086702D01*
X149658120Y-117319016D02*
X149691442Y-117413298D01*
X149691472Y-121086702D02*
X149717448Y-120990138D01*
X149691442Y-117413298D02*
X149717418Y-117509862D01*
X149717448Y-120990138D02*
X149735925Y-120891863D01*
X149717418Y-117509862D02*
X149735895Y-117608137D01*
X149735925Y-120891863D02*
X149746793Y-120792458D01*
X149735895Y-117608137D02*
X149746763Y-117707542D01*
X149746793Y-120792458D02*
X149749988Y-120692512D01*
X149746763Y-117707542D02*
X149749958Y-117807488D01*
X149749958Y-117807488D02*
X149749988Y-120692512D01*
X153500000Y-116500000D02*
X153400296Y-116507687D01*
X153500003Y-122000000D02*
X153400299Y-121992313D01*
X153400296Y-116507687D02*
X153301478Y-116523015D01*
X153400299Y-121992313D02*
X153301481Y-121976985D01*
X153301478Y-116523015D02*
X153204131Y-116545893D01*
X153301481Y-121976985D02*
X153204134Y-121954107D01*
X153204131Y-116545893D02*
X153108831Y-116576186D01*
X153204134Y-121954107D02*
X153108834Y-121923814D01*
X153108831Y-116576186D02*
X153016141Y-116613715D01*
X153108834Y-121923814D02*
X153016144Y-121886285D01*
X153016141Y-116613715D02*
X152926610Y-116658258D01*
X153016144Y-121886285D02*
X152926613Y-121841742D01*
X152926610Y-116658258D02*
X152840768Y-116709551D01*
X152926613Y-121841742D02*
X152840771Y-121790449D01*
X152840768Y-116709551D02*
X152759123Y-116767291D01*
X152840771Y-121790449D02*
X152759126Y-121732709D01*
X152759123Y-116767291D02*
X152682158Y-116831136D01*
X152759126Y-121732709D02*
X152682161Y-121668864D01*
X152682158Y-116831136D02*
X152610328Y-116900708D01*
X152682161Y-121668864D02*
X152610331Y-121599292D01*
X152610328Y-116900708D02*
X152544058Y-116975595D01*
X152610331Y-121599292D02*
X152544061Y-121524405D01*
X152544058Y-116975595D02*
X152483740Y-117055354D01*
X152544061Y-121524405D02*
X152483743Y-121444646D01*
X152483740Y-117055354D02*
X152429731Y-117139513D01*
X152483743Y-121444646D02*
X152429734Y-121360487D01*
X152429731Y-117139513D02*
X152382351Y-117227574D01*
X152429734Y-121360487D02*
X152382354Y-121272426D01*
X152382351Y-117227574D02*
X152341880Y-117319016D01*
X152382354Y-121272426D02*
X152341883Y-121180984D01*
X152341880Y-117319016D02*
X152308558Y-117413298D01*
X152341883Y-121180984D02*
X152308561Y-121086702D01*
X152308558Y-117413298D02*
X152282582Y-117509862D01*
X152308561Y-121086702D02*
X152282585Y-120990138D01*
X152282582Y-117509862D02*
X152264105Y-117608137D01*
X152282585Y-120990138D02*
X152264108Y-120891863D01*
X152264105Y-117608137D02*
X152253237Y-117707542D01*
X152264108Y-120891863D02*
X152253240Y-120792458D01*
X152253237Y-117707542D02*
X152250042Y-117807488D01*
X152253240Y-120792458D02*
X152250045Y-120692512D01*
X152250042Y-117807488D02*
X152250045Y-120692512D01*
X167000000Y-107499998D02*
X167000000Y-111500000D01*
X167000000Y-102500000D02*
X167000000Y-96500000D01*
X171000010Y-102499992D02*
X171000013Y-96510001D01*
X171000004Y-107500015D02*
X171000000Y-116500000D01*
X167000000Y-107499998D02*
X167007687Y-107400294D01*
X171000004Y-107500015D02*
X170992317Y-107400311D01*
X167007687Y-107400294D02*
X167023015Y-107301476D01*
X170992317Y-107400311D02*
X170976989Y-107301493D01*
X167023015Y-107301476D02*
X167045893Y-107204129D01*
X170976989Y-107301493D02*
X170954111Y-107204146D01*
X167045893Y-107204129D02*
X167076186Y-107108829D01*
X170954111Y-107204146D02*
X170923818Y-107108846D01*
X167076186Y-107108829D02*
X167113715Y-107016139D01*
X170923818Y-107108846D02*
X170886289Y-107016156D01*
X167113715Y-107016139D02*
X167158258Y-106926608D01*
X170886289Y-107016156D02*
X170841746Y-106926625D01*
X167158258Y-106926608D02*
X167209551Y-106840766D01*
X170841746Y-106926625D02*
X170790453Y-106840783D01*
X167209551Y-106840766D02*
X167267291Y-106759121D01*
X170790453Y-106840783D02*
X170732713Y-106759138D01*
X167267291Y-106759121D02*
X167331136Y-106682156D01*
X170732713Y-106759138D02*
X170668868Y-106682173D01*
X167331136Y-106682156D02*
X167400708Y-106610326D01*
X170668868Y-106682173D02*
X170599296Y-106610343D01*
X167400708Y-106610326D02*
X167475595Y-106544056D01*
X170599296Y-106610343D02*
X170524409Y-106544073D01*
X167475595Y-106544056D02*
X167555354Y-106483738D01*
X170524409Y-106544073D02*
X170444650Y-106483755D01*
X167555354Y-106483738D02*
X167639513Y-106429729D01*
X170444650Y-106483755D02*
X170360491Y-106429746D01*
X167639513Y-106429729D02*
X167727574Y-106382349D01*
X170360491Y-106429746D02*
X170272430Y-106382366D01*
X167727574Y-106382349D02*
X167819016Y-106341878D01*
X170272430Y-106382366D02*
X170180988Y-106341895D01*
X167819016Y-106341878D02*
X167913298Y-106308556D01*
X170180988Y-106341895D02*
X170086706Y-106308573D01*
X167913298Y-106308556D02*
X168009862Y-106282580D01*
X170086706Y-106308573D02*
X169990142Y-106282597D01*
X168009862Y-106282580D02*
X168108137Y-106264103D01*
X169990142Y-106282597D02*
X169891867Y-106264120D01*
X168108137Y-106264103D02*
X168207542Y-106253235D01*
X169891867Y-106264120D02*
X169792462Y-106253252D01*
X168207542Y-106253235D02*
X168307488Y-106250040D01*
X169792462Y-106253252D02*
X169692516Y-106250057D01*
X168307488Y-106250040D02*
X169692516Y-106250057D01*
X167000000Y-102500000D02*
X167007687Y-102599704D01*
X171000010Y-102499992D02*
X170992323Y-102599696D01*
X167007687Y-102599704D02*
X167023015Y-102698522D01*
X170992323Y-102599696D02*
X170976995Y-102698514D01*
X167023015Y-102698522D02*
X167045893Y-102795869D01*
X170976995Y-102698514D02*
X170954117Y-102795861D01*
X167045893Y-102795869D02*
X167076186Y-102891169D01*
X170954117Y-102795861D02*
X170923824Y-102891161D01*
X167076186Y-102891169D02*
X167113715Y-102983859D01*
X170923824Y-102891161D02*
X170886295Y-102983851D01*
X167113715Y-102983859D02*
X167158258Y-103073390D01*
X170886295Y-102983851D02*
X170841752Y-103073382D01*
X167158258Y-103073390D02*
X167209551Y-103159232D01*
X170841752Y-103073382D02*
X170790459Y-103159224D01*
X167209551Y-103159232D02*
X167267291Y-103240877D01*
X170790459Y-103159224D02*
X170732719Y-103240869D01*
X167267291Y-103240877D02*
X167331136Y-103317842D01*
X170732719Y-103240869D02*
X170668874Y-103317834D01*
X167331136Y-103317842D02*
X167400708Y-103389672D01*
X170668874Y-103317834D02*
X170599302Y-103389664D01*
X167400708Y-103389672D02*
X167475595Y-103455942D01*
X170599302Y-103389664D02*
X170524415Y-103455934D01*
X167475595Y-103455942D02*
X167555354Y-103516260D01*
X170524415Y-103455934D02*
X170444656Y-103516252D01*
X167555354Y-103516260D02*
X167639513Y-103570269D01*
X170444656Y-103516252D02*
X170360497Y-103570261D01*
X167639513Y-103570269D02*
X167727574Y-103617649D01*
X170360497Y-103570261D02*
X170272436Y-103617641D01*
X167727574Y-103617649D02*
X167819016Y-103658120D01*
X170272436Y-103617641D02*
X170180994Y-103658112D01*
X167819016Y-103658120D02*
X167913298Y-103691442D01*
X170180994Y-103658112D02*
X170086712Y-103691434D01*
X167913298Y-103691442D02*
X168009862Y-103717418D01*
X170086712Y-103691434D02*
X169990148Y-103717410D01*
X168009862Y-103717418D02*
X168108137Y-103735895D01*
X169990148Y-103717410D02*
X169891873Y-103735887D01*
X168108137Y-103735895D02*
X168207542Y-103746763D01*
X169891873Y-103735887D02*
X169792468Y-103746755D01*
X168207542Y-103746763D02*
X168307488Y-103749958D01*
X169792468Y-103746755D02*
X169692522Y-103749950D01*
X168307488Y-103749958D02*
X169692522Y-103749950D01*
X111010000Y-76000002D02*
X111010000Y-70160000D01*
X111010000Y-80999998D02*
X111010000Y-85160000D01*
X107000000Y-76000002D02*
X107000000Y-62000000D01*
X107000000Y-76000002D02*
X107007687Y-76099706D01*
X111010000Y-76000002D02*
X111002313Y-76099706D01*
X107007687Y-76099706D02*
X107023015Y-76198524D01*
X111002313Y-76099706D02*
X110986985Y-76198524D01*
X107023015Y-76198524D02*
X107045893Y-76295871D01*
X110986985Y-76198524D02*
X110964107Y-76295871D01*
X107045893Y-76295871D02*
X107076186Y-76391171D01*
X110964107Y-76295871D02*
X110933814Y-76391171D01*
X107076186Y-76391171D02*
X107113715Y-76483861D01*
X110933814Y-76391171D02*
X110896285Y-76483861D01*
X107113715Y-76483861D02*
X107158258Y-76573392D01*
X110896285Y-76483861D02*
X110851742Y-76573392D01*
X107158258Y-76573392D02*
X107209551Y-76659234D01*
X110851742Y-76573392D02*
X110800449Y-76659234D01*
X107209551Y-76659234D02*
X107267291Y-76740879D01*
X110800449Y-76659234D02*
X110742709Y-76740879D01*
X107267291Y-76740879D02*
X107331136Y-76817844D01*
X110742709Y-76740879D02*
X110678864Y-76817844D01*
X107331136Y-76817844D02*
X107400708Y-76889674D01*
X110678864Y-76817844D02*
X110609292Y-76889674D01*
X107400708Y-76889674D02*
X107475595Y-76955944D01*
X110609292Y-76889674D02*
X110534405Y-76955944D01*
X107475595Y-76955944D02*
X107555354Y-77016262D01*
X110534405Y-76955944D02*
X110454646Y-77016262D01*
X107555354Y-77016262D02*
X107639513Y-77070271D01*
X110454646Y-77016262D02*
X110370487Y-77070271D01*
X107639513Y-77070271D02*
X107727574Y-77117651D01*
X110370487Y-77070271D02*
X110282426Y-77117651D01*
X107727574Y-77117651D02*
X107819016Y-77158122D01*
X110282426Y-77117651D02*
X110190984Y-77158122D01*
X107819016Y-77158122D02*
X107913298Y-77191444D01*
X110190984Y-77158122D02*
X110096702Y-77191444D01*
X107913298Y-77191444D02*
X108009862Y-77217420D01*
X110096702Y-77191444D02*
X110000138Y-77217420D01*
X108009862Y-77217420D02*
X108108137Y-77235897D01*
X110000138Y-77217420D02*
X109901863Y-77235897D01*
X108108137Y-77235897D02*
X108207542Y-77246765D01*
X109901863Y-77235897D02*
X109802458Y-77246765D01*
X108207542Y-77246765D02*
X108307488Y-77249960D01*
X109802458Y-77246765D02*
X109702512Y-77249960D01*
X109702512Y-77249960D02*
X108307488Y-77249960D01*
X111010000Y-80999998D02*
X111002313Y-80900294D01*
X107000000Y-81000055D02*
X107007687Y-80900351D01*
X111002313Y-80900294D02*
X110986985Y-80801476D01*
X107007687Y-80900351D02*
X107023015Y-80801533D01*
X110986985Y-80801476D02*
X110964107Y-80704129D01*
X107023015Y-80801533D02*
X107045893Y-80704186D01*
X110964107Y-80704129D02*
X110933814Y-80608829D01*
X107045893Y-80704186D02*
X107076186Y-80608886D01*
X110933814Y-80608829D02*
X110896285Y-80516139D01*
X107076186Y-80608886D02*
X107113715Y-80516196D01*
X110896285Y-80516139D02*
X110851742Y-80426608D01*
X107113715Y-80516196D02*
X107158258Y-80426665D01*
X110851742Y-80426608D02*
X110800449Y-80340766D01*
X107158258Y-80426665D02*
X107209551Y-80340823D01*
X110800449Y-80340766D02*
X110742709Y-80259121D01*
X107209551Y-80340823D02*
X107267291Y-80259178D01*
X110742709Y-80259121D02*
X110678864Y-80182156D01*
X107267291Y-80259178D02*
X107331136Y-80182213D01*
X110678864Y-80182156D02*
X110609292Y-80110326D01*
X107331136Y-80182213D02*
X107400708Y-80110383D01*
X110609292Y-80110326D02*
X110534405Y-80044056D01*
X107400708Y-80110383D02*
X107475595Y-80044113D01*
X110534405Y-80044056D02*
X110454646Y-79983738D01*
X107475595Y-80044113D02*
X107555354Y-79983795D01*
X110454646Y-79983738D02*
X110370487Y-79929729D01*
X107555354Y-79983795D02*
X107639513Y-79929786D01*
X110370487Y-79929729D02*
X110282426Y-79882349D01*
X107639513Y-79929786D02*
X107727574Y-79882406D01*
X110282426Y-79882349D02*
X110190984Y-79841878D01*
X107727574Y-79882406D02*
X107819016Y-79841935D01*
X110190984Y-79841878D02*
X110096702Y-79808556D01*
X107819016Y-79841935D02*
X107913298Y-79808613D01*
X110096702Y-79808556D02*
X110000138Y-79782580D01*
X107913298Y-79808613D02*
X108009862Y-79782637D01*
X110000138Y-79782580D02*
X109901863Y-79764103D01*
X108009862Y-79782637D02*
X108108137Y-79764160D01*
X109901863Y-79764103D02*
X109802458Y-79753235D01*
X108108137Y-79764160D02*
X108207542Y-79753292D01*
X109802458Y-79753235D02*
X109702512Y-79750040D01*
X108207542Y-79753292D02*
X108307488Y-79750097D01*
X109702512Y-79750040D02*
X108307488Y-79750097D01*
X172500000Y-116500000D02*
X171000000Y-116500000D01*
X177500000Y-116500000D02*
X179000000Y-116500000D01*
X172500002Y-122000000D02*
X165500000Y-122000000D01*
X177500000Y-122000000D02*
X183000000Y-122000000D01*
X172500002Y-122000000D02*
X172599706Y-121992313D01*
X172500000Y-116500000D02*
X172599704Y-116507687D01*
X172599706Y-121992313D02*
X172698524Y-121976985D01*
X172599704Y-116507687D02*
X172698522Y-116523015D01*
X172698524Y-121976985D02*
X172795871Y-121954107D01*
X172698522Y-116523015D02*
X172795869Y-116545893D01*
X172795871Y-121954107D02*
X172891171Y-121923814D01*
X172795869Y-116545893D02*
X172891169Y-116576186D01*
X172891171Y-121923814D02*
X172983861Y-121886285D01*
X172891169Y-116576186D02*
X172983859Y-116613715D01*
X172983861Y-121886285D02*
X173073392Y-121841742D01*
X172983859Y-116613715D02*
X173073390Y-116658258D01*
X173073392Y-121841742D02*
X173159234Y-121790449D01*
X173073390Y-116658258D02*
X173159232Y-116709551D01*
X173159234Y-121790449D02*
X173240879Y-121732709D01*
X173159232Y-116709551D02*
X173240877Y-116767291D01*
X173240879Y-121732709D02*
X173317844Y-121668864D01*
X173240877Y-116767291D02*
X173317842Y-116831136D01*
X173317844Y-121668864D02*
X173389674Y-121599292D01*
X173317842Y-116831136D02*
X173389672Y-116900708D01*
X173389674Y-121599292D02*
X173455944Y-121524405D01*
X173389672Y-116900708D02*
X173455942Y-116975595D01*
X173455944Y-121524405D02*
X173516262Y-121444646D01*
X173455942Y-116975595D02*
X173516260Y-117055354D01*
X173516262Y-121444646D02*
X173570271Y-121360487D01*
X173516260Y-117055354D02*
X173570269Y-117139513D01*
X173570271Y-121360487D02*
X173617651Y-121272426D01*
X173570269Y-117139513D02*
X173617649Y-117227574D01*
X173617651Y-121272426D02*
X173658122Y-121180984D01*
X173617649Y-117227574D02*
X173658120Y-117319016D01*
X173658122Y-121180984D02*
X173691444Y-121086702D01*
X173658120Y-117319016D02*
X173691442Y-117413298D01*
X173691444Y-121086702D02*
X173717420Y-120990138D01*
X173691442Y-117413298D02*
X173717418Y-117509862D01*
X173717420Y-120990138D02*
X173735897Y-120891863D01*
X173717418Y-117509862D02*
X173735895Y-117608137D01*
X173735897Y-120891863D02*
X173746765Y-120792458D01*
X173735895Y-117608137D02*
X173746763Y-117707542D01*
X173746765Y-120792458D02*
X173749960Y-120692512D01*
X173746763Y-117707542D02*
X173749958Y-117807488D01*
X173749958Y-117807488D02*
X173749960Y-120692512D01*
X177500000Y-122000000D02*
X177400296Y-121992313D01*
X177500000Y-116500000D02*
X177400296Y-116507687D01*
X177400296Y-121992313D02*
X177301478Y-121976985D01*
X177400296Y-116507687D02*
X177301478Y-116523015D01*
X177301478Y-121976985D02*
X177204131Y-121954107D01*
X177301478Y-116523015D02*
X177204131Y-116545893D01*
X177204131Y-121954107D02*
X177108831Y-121923814D01*
X177204131Y-116545893D02*
X177108831Y-116576186D01*
X177108831Y-121923814D02*
X177016141Y-121886285D01*
X177108831Y-116576186D02*
X177016141Y-116613715D01*
X177016141Y-121886285D02*
X176926610Y-121841742D01*
X177016141Y-116613715D02*
X176926610Y-116658258D01*
X176926610Y-121841742D02*
X176840768Y-121790449D01*
X176926610Y-116658258D02*
X176840768Y-116709551D01*
X176840768Y-121790449D02*
X176759123Y-121732709D01*
X176840768Y-116709551D02*
X176759123Y-116767291D01*
X176759123Y-121732709D02*
X176682158Y-121668864D01*
X176759123Y-116767291D02*
X176682158Y-116831136D01*
X176682158Y-121668864D02*
X176610328Y-121599292D01*
X176682158Y-116831136D02*
X176610328Y-116900708D01*
X176610328Y-121599292D02*
X176544058Y-121524405D01*
X176610328Y-116900708D02*
X176544058Y-116975595D01*
X176544058Y-121524405D02*
X176483740Y-121444646D01*
X176544058Y-116975595D02*
X176483740Y-117055354D01*
X176483740Y-121444646D02*
X176429731Y-121360487D01*
X176483740Y-117055354D02*
X176429731Y-117139513D01*
X176429731Y-121360487D02*
X176382351Y-121272426D01*
X176429731Y-117139513D02*
X176382351Y-117227574D01*
X176382351Y-121272426D02*
X176341880Y-121180984D01*
X176382351Y-117227574D02*
X176341880Y-117319016D01*
X176341880Y-121180984D02*
X176308558Y-121086702D01*
X176341880Y-117319016D02*
X176308558Y-117413298D01*
X176308558Y-121086702D02*
X176282582Y-120990138D01*
X176308558Y-117413298D02*
X176282582Y-117509862D01*
X176282582Y-120990138D02*
X176264105Y-120891863D01*
X176282582Y-117509862D02*
X176264105Y-117608137D01*
X176264105Y-120891863D02*
X176253237Y-120792458D01*
X176264105Y-117608137D02*
X176253237Y-117707542D01*
X176253237Y-120792458D02*
X176250042Y-120692512D01*
X176253237Y-117707542D02*
X176250042Y-117807488D01*
X176250042Y-117807488D02*
X176250042Y-120692512D01*
X131000000Y-107499998D02*
X131000000Y-111500000D01*
X131000000Y-102500000D02*
X131000000Y-96500000D01*
X135000010Y-102499992D02*
X135000013Y-96510001D01*
X135000004Y-107500015D02*
X135000000Y-116500000D01*
X131000000Y-107499998D02*
X131007687Y-107400294D01*
X135000004Y-107500015D02*
X134992317Y-107400311D01*
X131007687Y-107400294D02*
X131023015Y-107301476D01*
X134992317Y-107400311D02*
X134976989Y-107301493D01*
X131023015Y-107301476D02*
X131045893Y-107204129D01*
X134976989Y-107301493D02*
X134954111Y-107204146D01*
X131045893Y-107204129D02*
X131076186Y-107108829D01*
X134954111Y-107204146D02*
X134923818Y-107108846D01*
X131076186Y-107108829D02*
X131113715Y-107016139D01*
X134923818Y-107108846D02*
X134886289Y-107016156D01*
X131113715Y-107016139D02*
X131158258Y-106926608D01*
X134886289Y-107016156D02*
X134841746Y-106926625D01*
X131158258Y-106926608D02*
X131209551Y-106840766D01*
X134841746Y-106926625D02*
X134790453Y-106840783D01*
X131209551Y-106840766D02*
X131267291Y-106759121D01*
X134790453Y-106840783D02*
X134732713Y-106759138D01*
X131267291Y-106759121D02*
X131331136Y-106682156D01*
X134732713Y-106759138D02*
X134668868Y-106682173D01*
X131331136Y-106682156D02*
X131400708Y-106610326D01*
X134668868Y-106682173D02*
X134599296Y-106610343D01*
X131400708Y-106610326D02*
X131475595Y-106544056D01*
X134599296Y-106610343D02*
X134524409Y-106544073D01*
X131475595Y-106544056D02*
X131555354Y-106483738D01*
X134524409Y-106544073D02*
X134444650Y-106483755D01*
X131555354Y-106483738D02*
X131639513Y-106429729D01*
X134444650Y-106483755D02*
X134360491Y-106429746D01*
X131639513Y-106429729D02*
X131727574Y-106382349D01*
X134360491Y-106429746D02*
X134272430Y-106382366D01*
X131727574Y-106382349D02*
X131819016Y-106341878D01*
X134272430Y-106382366D02*
X134180988Y-106341895D01*
X131819016Y-106341878D02*
X131913298Y-106308556D01*
X134180988Y-106341895D02*
X134086706Y-106308573D01*
X131913298Y-106308556D02*
X132009862Y-106282580D01*
X134086706Y-106308573D02*
X133990142Y-106282597D01*
X132009862Y-106282580D02*
X132108137Y-106264103D01*
X133990142Y-106282597D02*
X133891867Y-106264120D01*
X132108137Y-106264103D02*
X132207542Y-106253235D01*
X133891867Y-106264120D02*
X133792462Y-106253252D01*
X132207542Y-106253235D02*
X132307488Y-106250040D01*
X133792462Y-106253252D02*
X133692516Y-106250057D01*
X132307488Y-106250040D02*
X133692516Y-106250057D01*
X131000000Y-102500000D02*
X131007687Y-102599704D01*
X135000010Y-102499992D02*
X134992323Y-102599696D01*
X131007687Y-102599704D02*
X131023015Y-102698522D01*
X134992323Y-102599696D02*
X134976995Y-102698514D01*
X131023015Y-102698522D02*
X131045893Y-102795869D01*
X134976995Y-102698514D02*
X134954117Y-102795861D01*
X131045893Y-102795869D02*
X131076186Y-102891169D01*
X134954117Y-102795861D02*
X134923824Y-102891161D01*
X131076186Y-102891169D02*
X131113715Y-102983859D01*
X134923824Y-102891161D02*
X134886295Y-102983851D01*
X131113715Y-102983859D02*
X131158258Y-103073390D01*
X134886295Y-102983851D02*
X134841752Y-103073382D01*
X131158258Y-103073390D02*
X131209551Y-103159232D01*
X134841752Y-103073382D02*
X134790459Y-103159224D01*
X131209551Y-103159232D02*
X131267291Y-103240877D01*
X134790459Y-103159224D02*
X134732719Y-103240869D01*
X131267291Y-103240877D02*
X131331136Y-103317842D01*
X134732719Y-103240869D02*
X134668874Y-103317834D01*
X131331136Y-103317842D02*
X131400708Y-103389672D01*
X134668874Y-103317834D02*
X134599302Y-103389664D01*
X131400708Y-103389672D02*
X131475595Y-103455942D01*
X134599302Y-103389664D02*
X134524415Y-103455934D01*
X131475595Y-103455942D02*
X131555354Y-103516260D01*
X134524415Y-103455934D02*
X134444656Y-103516252D01*
X131555354Y-103516260D02*
X131639513Y-103570269D01*
X134444656Y-103516252D02*
X134360497Y-103570261D01*
X131639513Y-103570269D02*
X131727574Y-103617649D01*
X134360497Y-103570261D02*
X134272436Y-103617641D01*
X131727574Y-103617649D02*
X131819016Y-103658120D01*
X134272436Y-103617641D02*
X134180994Y-103658112D01*
X131819016Y-103658120D02*
X131913298Y-103691442D01*
X134180994Y-103658112D02*
X134086712Y-103691434D01*
X131913298Y-103691442D02*
X132009862Y-103717418D01*
X134086712Y-103691434D02*
X133990148Y-103717410D01*
X132009862Y-103717418D02*
X132108137Y-103735895D01*
X133990148Y-103717410D02*
X133891873Y-103735887D01*
X132108137Y-103735895D02*
X132207542Y-103746763D01*
X133891873Y-103735887D02*
X133792468Y-103746755D01*
X132207542Y-103746763D02*
X132307488Y-103749958D01*
X133792468Y-103746755D02*
X133692522Y-103749950D01*
X132307488Y-103749958D02*
X133692522Y-103749950D01*
X131009988Y-81000000D02*
X131009987Y-85149999D01*
X131009994Y-75999985D02*
X131010000Y-65160000D01*
X135010000Y-76000002D02*
X135010000Y-70160000D01*
X135010000Y-80999998D02*
X135010000Y-85160000D01*
X135010000Y-80999998D02*
X135002313Y-80900294D01*
X131009988Y-81000000D02*
X131017675Y-80900296D01*
X135002313Y-80900294D02*
X134986985Y-80801476D01*
X131017675Y-80900296D02*
X131033003Y-80801478D01*
X134986985Y-80801476D02*
X134964107Y-80704129D01*
X131033003Y-80801478D02*
X131055881Y-80704131D01*
X134964107Y-80704129D02*
X134933814Y-80608829D01*
X131055881Y-80704131D02*
X131086174Y-80608831D01*
X134933814Y-80608829D02*
X134896285Y-80516139D01*
X131086174Y-80608831D02*
X131123703Y-80516141D01*
X134896285Y-80516139D02*
X134851742Y-80426608D01*
X131123703Y-80516141D02*
X131168246Y-80426610D01*
X134851742Y-80426608D02*
X134800449Y-80340766D01*
X131168246Y-80426610D02*
X131219539Y-80340768D01*
X134800449Y-80340766D02*
X134742709Y-80259121D01*
X131219539Y-80340768D02*
X131277279Y-80259123D01*
X134742709Y-80259121D02*
X134678864Y-80182156D01*
X131277279Y-80259123D02*
X131341124Y-80182158D01*
X134678864Y-80182156D02*
X134609292Y-80110326D01*
X131341124Y-80182158D02*
X131410696Y-80110328D01*
X134609292Y-80110326D02*
X134534405Y-80044056D01*
X131410696Y-80110328D02*
X131485583Y-80044058D01*
X134534405Y-80044056D02*
X134454646Y-79983738D01*
X131485583Y-80044058D02*
X131565342Y-79983740D01*
X134454646Y-79983738D02*
X134370487Y-79929729D01*
X131565342Y-79983740D02*
X131649501Y-79929731D01*
X134370487Y-79929729D02*
X134282426Y-79882349D01*
X131649501Y-79929731D02*
X131737562Y-79882351D01*
X134282426Y-79882349D02*
X134190984Y-79841878D01*
X131737562Y-79882351D02*
X131829004Y-79841880D01*
X134190984Y-79841878D02*
X134096702Y-79808556D01*
X131829004Y-79841880D02*
X131923286Y-79808558D01*
X134096702Y-79808556D02*
X134000138Y-79782580D01*
X131923286Y-79808558D02*
X132019850Y-79782582D01*
X134000138Y-79782580D02*
X133901863Y-79764103D01*
X132019850Y-79782582D02*
X132118125Y-79764105D01*
X133901863Y-79764103D02*
X133802458Y-79753235D01*
X132118125Y-79764105D02*
X132217530Y-79753237D01*
X133802458Y-79753235D02*
X133702512Y-79750040D01*
X132217530Y-79753237D02*
X132317476Y-79750042D01*
X132317476Y-79750042D02*
X133702512Y-79750040D01*
X135010000Y-76000002D02*
X135002313Y-76099706D01*
X131009994Y-75999985D02*
X131017681Y-76099689D01*
X135002313Y-76099706D02*
X134986985Y-76198524D01*
X131017681Y-76099689D02*
X131033009Y-76198507D01*
X134986985Y-76198524D02*
X134964107Y-76295871D01*
X131033009Y-76198507D02*
X131055887Y-76295854D01*
X134964107Y-76295871D02*
X134933814Y-76391171D01*
X131055887Y-76295854D02*
X131086180Y-76391154D01*
X134933814Y-76391171D02*
X134896285Y-76483861D01*
X131086180Y-76391154D02*
X131123709Y-76483844D01*
X134896285Y-76483861D02*
X134851742Y-76573392D01*
X131123709Y-76483844D02*
X131168252Y-76573375D01*
X134851742Y-76573392D02*
X134800449Y-76659234D01*
X131168252Y-76573375D02*
X131219545Y-76659217D01*
X134800449Y-76659234D02*
X134742709Y-76740879D01*
X131219545Y-76659217D02*
X131277285Y-76740862D01*
X134742709Y-76740879D02*
X134678864Y-76817844D01*
X131277285Y-76740862D02*
X131341130Y-76817827D01*
X134678864Y-76817844D02*
X134609292Y-76889674D01*
X131341130Y-76817827D02*
X131410702Y-76889657D01*
X134609292Y-76889674D02*
X134534405Y-76955944D01*
X131410702Y-76889657D02*
X131485589Y-76955927D01*
X134534405Y-76955944D02*
X134454646Y-77016262D01*
X131485589Y-76955927D02*
X131565348Y-77016245D01*
X134454646Y-77016262D02*
X134370487Y-77070271D01*
X131565348Y-77016245D02*
X131649507Y-77070254D01*
X134370487Y-77070271D02*
X134282426Y-77117651D01*
X131649507Y-77070254D02*
X131737568Y-77117634D01*
X134282426Y-77117651D02*
X134190984Y-77158122D01*
X131737568Y-77117634D02*
X131829010Y-77158105D01*
X134190984Y-77158122D02*
X134096702Y-77191444D01*
X131829010Y-77158105D02*
X131923292Y-77191427D01*
X134096702Y-77191444D02*
X134000138Y-77217420D01*
X131923292Y-77191427D02*
X132019856Y-77217403D01*
X134000138Y-77217420D02*
X133901863Y-77235897D01*
X132019856Y-77217403D02*
X132118131Y-77235880D01*
X133901863Y-77235897D02*
X133802458Y-77246765D01*
X132118131Y-77235880D02*
X132217536Y-77246748D01*
X133802458Y-77246765D02*
X133702512Y-77249960D01*
X132217536Y-77246748D02*
X132317482Y-77249943D01*
X132317482Y-77249943D02*
X133702512Y-77249960D01*
X177500000Y-62000000D02*
X183000000Y-62000000D01*
X177500005Y-65160000D02*
X179010000Y-65160000D01*
X172499995Y-65160000D02*
X171010000Y-65160000D01*
X172500002Y-62000000D02*
X172599706Y-62007687D01*
X172499995Y-65160000D02*
X172599699Y-65152313D01*
X172599706Y-62007687D02*
X172698524Y-62023015D01*
X172599699Y-65152313D02*
X172698517Y-65136985D01*
X172698524Y-62023015D02*
X172795871Y-62045893D01*
X172698517Y-65136985D02*
X172795864Y-65114107D01*
X172795871Y-62045893D02*
X172891171Y-62076186D01*
X172795864Y-65114107D02*
X172891164Y-65083814D01*
X172891171Y-62076186D02*
X172983861Y-62113715D01*
X172891164Y-65083814D02*
X172983854Y-65046285D01*
X172983861Y-62113715D02*
X173073392Y-62158258D01*
X172983854Y-65046285D02*
X173073385Y-65001742D01*
X173073392Y-62158258D02*
X173159234Y-62209551D01*
X173073385Y-65001742D02*
X173159227Y-64950449D01*
X173159234Y-62209551D02*
X173240879Y-62267291D01*
X173159227Y-64950449D02*
X173240872Y-64892709D01*
X173240879Y-62267291D02*
X173317844Y-62331136D01*
X173240872Y-64892709D02*
X173317837Y-64828864D01*
X173317844Y-62331136D02*
X173389674Y-62400708D01*
X173317837Y-64828864D02*
X173389667Y-64759292D01*
X173389674Y-62400708D02*
X173455944Y-62475595D01*
X173389667Y-64759292D02*
X173455937Y-64684405D01*
X173455944Y-62475595D02*
X173516262Y-62555354D01*
X173455937Y-64684405D02*
X173516255Y-64604646D01*
X173516262Y-62555354D02*
X173570271Y-62639513D01*
X173516255Y-64604646D02*
X173570264Y-64520487D01*
X173570271Y-62639513D02*
X173617651Y-62727574D01*
X173570264Y-64520487D02*
X173617644Y-64432426D01*
X173617651Y-62727574D02*
X173658122Y-62819016D01*
X173617644Y-64432426D02*
X173658115Y-64340984D01*
X173658122Y-62819016D02*
X173691444Y-62913298D01*
X173658115Y-64340984D02*
X173691437Y-64246702D01*
X173691444Y-62913298D02*
X173717420Y-63009862D01*
X173691437Y-64246702D02*
X173717413Y-64150138D01*
X173717420Y-63009862D02*
X173735897Y-63108137D01*
X173717413Y-64150138D02*
X173735890Y-64051863D01*
X173735897Y-63108137D02*
X173746765Y-63207542D01*
X173735890Y-64051863D02*
X173746758Y-63952458D01*
X173746765Y-63207542D02*
X173749960Y-63307488D01*
X173746758Y-63952458D02*
X173749953Y-63852512D01*
X173749960Y-63307488D02*
X173749953Y-63852512D01*
X177500000Y-62000000D02*
X177400296Y-62007687D01*
X177500005Y-65160000D02*
X177400301Y-65152313D01*
X177400296Y-62007687D02*
X177301478Y-62023015D01*
X177400301Y-65152313D02*
X177301483Y-65136985D01*
X177301478Y-62023015D02*
X177204131Y-62045893D01*
X177301483Y-65136985D02*
X177204136Y-65114107D01*
X177204131Y-62045893D02*
X177108831Y-62076186D01*
X177204136Y-65114107D02*
X177108836Y-65083814D01*
X177108831Y-62076186D02*
X177016141Y-62113715D01*
X177108836Y-65083814D02*
X177016146Y-65046285D01*
X177016141Y-62113715D02*
X176926610Y-62158258D01*
X177016146Y-65046285D02*
X176926615Y-65001742D01*
X176926610Y-62158258D02*
X176840768Y-62209551D01*
X176926615Y-65001742D02*
X176840773Y-64950449D01*
X176840768Y-62209551D02*
X176759123Y-62267291D01*
X176840773Y-64950449D02*
X176759128Y-64892709D01*
X176759123Y-62267291D02*
X176682158Y-62331136D01*
X176759128Y-64892709D02*
X176682163Y-64828864D01*
X176682158Y-62331136D02*
X176610328Y-62400708D01*
X176682163Y-64828864D02*
X176610333Y-64759292D01*
X176610328Y-62400708D02*
X176544058Y-62475595D01*
X176610333Y-64759292D02*
X176544063Y-64684405D01*
X176544058Y-62475595D02*
X176483740Y-62555354D01*
X176544063Y-64684405D02*
X176483745Y-64604646D01*
X176483740Y-62555354D02*
X176429731Y-62639513D01*
X176483745Y-64604646D02*
X176429736Y-64520487D01*
X176429731Y-62639513D02*
X176382351Y-62727574D01*
X176429736Y-64520487D02*
X176382356Y-64432426D01*
X176382351Y-62727574D02*
X176341880Y-62819016D01*
X176382356Y-64432426D02*
X176341885Y-64340984D01*
X176341880Y-62819016D02*
X176308558Y-62913298D01*
X176341885Y-64340984D02*
X176308563Y-64246702D01*
X176308558Y-62913298D02*
X176282582Y-63009862D01*
X176308563Y-64246702D02*
X176282587Y-64150138D01*
X176282582Y-63009862D02*
X176264105Y-63108137D01*
X176282587Y-64150138D02*
X176264110Y-64051863D01*
X176264105Y-63108137D02*
X176253237Y-63207542D01*
X176264110Y-64051863D02*
X176253242Y-63952458D01*
X176253237Y-63207542D02*
X176250042Y-63307488D01*
X176253242Y-63952458D02*
X176250047Y-63852512D01*
X176250042Y-63307488D02*
X176250047Y-63852512D01*
X124500000Y-116500000D02*
X123000000Y-116500000D01*
X129500000Y-116500000D02*
X131000000Y-116500000D01*
X124500000Y-122000000D02*
X124599704Y-121992313D01*
X124500000Y-116500000D02*
X124599704Y-116507687D01*
X124599704Y-121992313D02*
X124698522Y-121976985D01*
X124599704Y-116507687D02*
X124698522Y-116523015D01*
X124698522Y-121976985D02*
X124795869Y-121954107D01*
X124698522Y-116523015D02*
X124795869Y-116545893D01*
X124795869Y-121954107D02*
X124891169Y-121923814D01*
X124795869Y-116545893D02*
X124891169Y-116576186D01*
X124891169Y-121923814D02*
X124983859Y-121886285D01*
X124891169Y-116576186D02*
X124983859Y-116613715D01*
X124983859Y-121886285D02*
X125073390Y-121841742D01*
X124983859Y-116613715D02*
X125073390Y-116658258D01*
X125073390Y-121841742D02*
X125159232Y-121790449D01*
X125073390Y-116658258D02*
X125159232Y-116709551D01*
X125159232Y-121790449D02*
X125240877Y-121732709D01*
X125159232Y-116709551D02*
X125240877Y-116767291D01*
X125240877Y-121732709D02*
X125317842Y-121668864D01*
X125240877Y-116767291D02*
X125317842Y-116831136D01*
X125317842Y-121668864D02*
X125389672Y-121599292D01*
X125317842Y-116831136D02*
X125389672Y-116900708D01*
X125389672Y-121599292D02*
X125455942Y-121524405D01*
X125389672Y-116900708D02*
X125455942Y-116975595D01*
X125455942Y-121524405D02*
X125516260Y-121444646D01*
X125455942Y-116975595D02*
X125516260Y-117055354D01*
X125516260Y-121444646D02*
X125570269Y-121360487D01*
X125516260Y-117055354D02*
X125570269Y-117139513D01*
X125570269Y-121360487D02*
X125617649Y-121272426D01*
X125570269Y-117139513D02*
X125617649Y-117227574D01*
X125617649Y-121272426D02*
X125658120Y-121180984D01*
X125617649Y-117227574D02*
X125658120Y-117319016D01*
X125658120Y-121180984D02*
X125691442Y-121086702D01*
X125658120Y-117319016D02*
X125691442Y-117413298D01*
X125691442Y-121086702D02*
X125717418Y-120990138D01*
X125691442Y-117413298D02*
X125717418Y-117509862D01*
X125717418Y-120990138D02*
X125735895Y-120891863D01*
X125717418Y-117509862D02*
X125735895Y-117608137D01*
X125735895Y-120891863D02*
X125746763Y-120792458D01*
X125735895Y-117608137D02*
X125746763Y-117707542D01*
X125746763Y-120792458D02*
X125749958Y-120692512D01*
X125746763Y-117707542D02*
X125749958Y-117807488D01*
X125749958Y-117807488D02*
X125749958Y-120692512D01*
X129500000Y-116500000D02*
X129400296Y-116507687D01*
X129500023Y-122000000D02*
X129400319Y-121992313D01*
X129400296Y-116507687D02*
X129301478Y-116523015D01*
X129400319Y-121992313D02*
X129301501Y-121976985D01*
X129301478Y-116523015D02*
X129204131Y-116545893D01*
X129301501Y-121976985D02*
X129204154Y-121954107D01*
X129204131Y-116545893D02*
X129108831Y-116576186D01*
X129204154Y-121954107D02*
X129108854Y-121923814D01*
X129108831Y-116576186D02*
X129016141Y-116613715D01*
X129108854Y-121923814D02*
X129016164Y-121886285D01*
X129016141Y-116613715D02*
X128926610Y-116658258D01*
X129016164Y-121886285D02*
X128926633Y-121841742D01*
X128926610Y-116658258D02*
X128840768Y-116709551D01*
X128926633Y-121841742D02*
X128840791Y-121790449D01*
X128840768Y-116709551D02*
X128759123Y-116767291D01*
X128840791Y-121790449D02*
X128759146Y-121732709D01*
X128759123Y-116767291D02*
X128682158Y-116831136D01*
X128759146Y-121732709D02*
X128682181Y-121668864D01*
X128682158Y-116831136D02*
X128610328Y-116900708D01*
X128682181Y-121668864D02*
X128610351Y-121599292D01*
X128610328Y-116900708D02*
X128544058Y-116975595D01*
X128610351Y-121599292D02*
X128544081Y-121524405D01*
X128544058Y-116975595D02*
X128483740Y-117055354D01*
X128544081Y-121524405D02*
X128483763Y-121444646D01*
X128483740Y-117055354D02*
X128429731Y-117139513D01*
X128483763Y-121444646D02*
X128429754Y-121360487D01*
X128429731Y-117139513D02*
X128382351Y-117227574D01*
X128429754Y-121360487D02*
X128382374Y-121272426D01*
X128382351Y-117227574D02*
X128341880Y-117319016D01*
X128382374Y-121272426D02*
X128341903Y-121180984D01*
X128341880Y-117319016D02*
X128308558Y-117413298D01*
X128341903Y-121180984D02*
X128308581Y-121086702D01*
X128308558Y-117413298D02*
X128282582Y-117509862D01*
X128308581Y-121086702D02*
X128282605Y-120990138D01*
X128282582Y-117509862D02*
X128264105Y-117608137D01*
X128282605Y-120990138D02*
X128264128Y-120891863D01*
X128264105Y-117608137D02*
X128253237Y-117707542D01*
X128264128Y-120891863D02*
X128253260Y-120792458D01*
X128253237Y-117707542D02*
X128250042Y-117807488D01*
X128253260Y-120792458D02*
X128250065Y-120692512D01*
X128250042Y-117807488D02*
X128250065Y-120692512D01*
X117500005Y-65160000D02*
X119010000Y-65160000D01*
X112499995Y-65160000D02*
X111010000Y-65160000D01*
X117499998Y-62000000D02*
X124500000Y-62000000D01*
X112500000Y-62000000D02*
X107000000Y-62000000D01*
X117499998Y-62000000D02*
X117400294Y-62007687D01*
X117500005Y-65160000D02*
X117400301Y-65152313D01*
X117400294Y-62007687D02*
X117301476Y-62023015D01*
X117400301Y-65152313D02*
X117301483Y-65136985D01*
X117301476Y-62023015D02*
X117204129Y-62045893D01*
X117301483Y-65136985D02*
X117204136Y-65114107D01*
X117204129Y-62045893D02*
X117108829Y-62076186D01*
X117204136Y-65114107D02*
X117108836Y-65083814D01*
X117108829Y-62076186D02*
X117016139Y-62113715D01*
X117108836Y-65083814D02*
X117016146Y-65046285D01*
X117016139Y-62113715D02*
X116926608Y-62158258D01*
X117016146Y-65046285D02*
X116926615Y-65001742D01*
X116926608Y-62158258D02*
X116840766Y-62209551D01*
X116926615Y-65001742D02*
X116840773Y-64950449D01*
X116840766Y-62209551D02*
X116759121Y-62267291D01*
X116840773Y-64950449D02*
X116759128Y-64892709D01*
X116759121Y-62267291D02*
X116682156Y-62331136D01*
X116759128Y-64892709D02*
X116682163Y-64828864D01*
X116682156Y-62331136D02*
X116610326Y-62400708D01*
X116682163Y-64828864D02*
X116610333Y-64759292D01*
X116610326Y-62400708D02*
X116544056Y-62475595D01*
X116610333Y-64759292D02*
X116544063Y-64684405D01*
X116544056Y-62475595D02*
X116483738Y-62555354D01*
X116544063Y-64684405D02*
X116483745Y-64604646D01*
X116483738Y-62555354D02*
X116429729Y-62639513D01*
X116483745Y-64604646D02*
X116429736Y-64520487D01*
X116429729Y-62639513D02*
X116382349Y-62727574D01*
X116429736Y-64520487D02*
X116382356Y-64432426D01*
X116382349Y-62727574D02*
X116341878Y-62819016D01*
X116382356Y-64432426D02*
X116341885Y-64340984D01*
X116341878Y-62819016D02*
X116308556Y-62913298D01*
X116341885Y-64340984D02*
X116308563Y-64246702D01*
X116308556Y-62913298D02*
X116282580Y-63009862D01*
X116308563Y-64246702D02*
X116282587Y-64150138D01*
X116282580Y-63009862D02*
X116264103Y-63108137D01*
X116282587Y-64150138D02*
X116264110Y-64051863D01*
X116264103Y-63108137D02*
X116253235Y-63207542D01*
X116264110Y-64051863D02*
X116253242Y-63952458D01*
X116253235Y-63207542D02*
X116250040Y-63307488D01*
X116253242Y-63952458D02*
X116250047Y-63852512D01*
X116250047Y-63852512D02*
X116250040Y-63307488D01*
X112500000Y-62000000D02*
X112599704Y-62007687D01*
X112499995Y-65160000D02*
X112599699Y-65152313D01*
X112599704Y-62007687D02*
X112698522Y-62023015D01*
X112599699Y-65152313D02*
X112698517Y-65136985D01*
X112698522Y-62023015D02*
X112795869Y-62045893D01*
X112698517Y-65136985D02*
X112795864Y-65114107D01*
X112795869Y-62045893D02*
X112891169Y-62076186D01*
X112795864Y-65114107D02*
X112891164Y-65083814D01*
X112891169Y-62076186D02*
X112983859Y-62113715D01*
X112891164Y-65083814D02*
X112983854Y-65046285D01*
X112983859Y-62113715D02*
X113073390Y-62158258D01*
X112983854Y-65046285D02*
X113073385Y-65001742D01*
X113073390Y-62158258D02*
X113159232Y-62209551D01*
X113073385Y-65001742D02*
X113159227Y-64950449D01*
X113159232Y-62209551D02*
X113240877Y-62267291D01*
X113159227Y-64950449D02*
X113240872Y-64892709D01*
X113240877Y-62267291D02*
X113317842Y-62331136D01*
X113240872Y-64892709D02*
X113317837Y-64828864D01*
X113317842Y-62331136D02*
X113389672Y-62400708D01*
X113317837Y-64828864D02*
X113389667Y-64759292D01*
X113389672Y-62400708D02*
X113455942Y-62475595D01*
X113389667Y-64759292D02*
X113455937Y-64684405D01*
X113455942Y-62475595D02*
X113516260Y-62555354D01*
X113455937Y-64684405D02*
X113516255Y-64604646D01*
X113516260Y-62555354D02*
X113570269Y-62639513D01*
X113516255Y-64604646D02*
X113570264Y-64520487D01*
X113570269Y-62639513D02*
X113617649Y-62727574D01*
X113570264Y-64520487D02*
X113617644Y-64432426D01*
X113617649Y-62727574D02*
X113658120Y-62819016D01*
X113617644Y-64432426D02*
X113658115Y-64340984D01*
X113658120Y-62819016D02*
X113691442Y-62913298D01*
X113658115Y-64340984D02*
X113691437Y-64246702D01*
X113691442Y-62913298D02*
X113717418Y-63009862D01*
X113691437Y-64246702D02*
X113717413Y-64150138D01*
X113717418Y-63009862D02*
X113735895Y-63108137D01*
X113717413Y-64150138D02*
X113735890Y-64051863D01*
X113735895Y-63108137D02*
X113746763Y-63207542D01*
X113735890Y-64051863D02*
X113746758Y-63952458D01*
X113746763Y-63207542D02*
X113749958Y-63307488D01*
X113746758Y-63952458D02*
X113749953Y-63852512D01*
X113749953Y-63852512D02*
X113749958Y-63307488D01*
X155009988Y-81000000D02*
X155009987Y-85149999D01*
X155009994Y-75999985D02*
X155010000Y-65160000D01*
X159010000Y-76000002D02*
X159010000Y-70160000D01*
X159010000Y-80999998D02*
X159010000Y-85160000D01*
X159010000Y-80999998D02*
X159002313Y-80900294D01*
X155009988Y-81000000D02*
X155017675Y-80900296D01*
X159002313Y-80900294D02*
X158986985Y-80801476D01*
X155017675Y-80900296D02*
X155033003Y-80801478D01*
X158986985Y-80801476D02*
X158964107Y-80704129D01*
X155033003Y-80801478D02*
X155055881Y-80704131D01*
X158964107Y-80704129D02*
X158933814Y-80608829D01*
X155055881Y-80704131D02*
X155086174Y-80608831D01*
X158933814Y-80608829D02*
X158896285Y-80516139D01*
X155086174Y-80608831D02*
X155123703Y-80516141D01*
X158896285Y-80516139D02*
X158851742Y-80426608D01*
X155123703Y-80516141D02*
X155168246Y-80426610D01*
X158851742Y-80426608D02*
X158800449Y-80340766D01*
X155168246Y-80426610D02*
X155219539Y-80340768D01*
X158800449Y-80340766D02*
X158742709Y-80259121D01*
X155219539Y-80340768D02*
X155277279Y-80259123D01*
X158742709Y-80259121D02*
X158678864Y-80182156D01*
X155277279Y-80259123D02*
X155341124Y-80182158D01*
X158678864Y-80182156D02*
X158609292Y-80110326D01*
X155341124Y-80182158D02*
X155410696Y-80110328D01*
X158609292Y-80110326D02*
X158534405Y-80044056D01*
X155410696Y-80110328D02*
X155485583Y-80044058D01*
X158534405Y-80044056D02*
X158454646Y-79983738D01*
X155485583Y-80044058D02*
X155565342Y-79983740D01*
X158454646Y-79983738D02*
X158370487Y-79929729D01*
X155565342Y-79983740D02*
X155649501Y-79929731D01*
X158370487Y-79929729D02*
X158282426Y-79882349D01*
X155649501Y-79929731D02*
X155737562Y-79882351D01*
X158282426Y-79882349D02*
X158190984Y-79841878D01*
X155737562Y-79882351D02*
X155829004Y-79841880D01*
X158190984Y-79841878D02*
X158096702Y-79808556D01*
X155829004Y-79841880D02*
X155923286Y-79808558D01*
X158096702Y-79808556D02*
X158000138Y-79782580D01*
X155923286Y-79808558D02*
X156019850Y-79782582D01*
X158000138Y-79782580D02*
X157901863Y-79764103D01*
X156019850Y-79782582D02*
X156118125Y-79764105D01*
X157901863Y-79764103D02*
X157802458Y-79753235D01*
X156118125Y-79764105D02*
X156217530Y-79753237D01*
X157802458Y-79753235D02*
X157702512Y-79750040D01*
X156217530Y-79753237D02*
X156317476Y-79750042D01*
X156317476Y-79750042D02*
X157702512Y-79750040D01*
X159010000Y-76000002D02*
X159002313Y-76099706D01*
X155009994Y-75999985D02*
X155017681Y-76099689D01*
X159002313Y-76099706D02*
X158986985Y-76198524D01*
X155017681Y-76099689D02*
X155033009Y-76198507D01*
X158986985Y-76198524D02*
X158964107Y-76295871D01*
X155033009Y-76198507D02*
X155055887Y-76295854D01*
X158964107Y-76295871D02*
X158933814Y-76391171D01*
X155055887Y-76295854D02*
X155086180Y-76391154D01*
X158933814Y-76391171D02*
X158896285Y-76483861D01*
X155086180Y-76391154D02*
X155123709Y-76483844D01*
X158896285Y-76483861D02*
X158851742Y-76573392D01*
X155123709Y-76483844D02*
X155168252Y-76573375D01*
X158851742Y-76573392D02*
X158800449Y-76659234D01*
X155168252Y-76573375D02*
X155219545Y-76659217D01*
X158800449Y-76659234D02*
X158742709Y-76740879D01*
X155219545Y-76659217D02*
X155277285Y-76740862D01*
X158742709Y-76740879D02*
X158678864Y-76817844D01*
X155277285Y-76740862D02*
X155341130Y-76817827D01*
X158678864Y-76817844D02*
X158609292Y-76889674D01*
X155341130Y-76817827D02*
X155410702Y-76889657D01*
X158609292Y-76889674D02*
X158534405Y-76955944D01*
X155410702Y-76889657D02*
X155485589Y-76955927D01*
X158534405Y-76955944D02*
X158454646Y-77016262D01*
X155485589Y-76955927D02*
X155565348Y-77016245D01*
X158454646Y-77016262D02*
X158370487Y-77070271D01*
X155565348Y-77016245D02*
X155649507Y-77070254D01*
X158370487Y-77070271D02*
X158282426Y-77117651D01*
X155649507Y-77070254D02*
X155737568Y-77117634D01*
X158282426Y-77117651D02*
X158190984Y-77158122D01*
X155737568Y-77117634D02*
X155829010Y-77158105D01*
X158190984Y-77158122D02*
X158096702Y-77191444D01*
X155829010Y-77158105D02*
X155923292Y-77191427D01*
X158096702Y-77191444D02*
X158000138Y-77217420D01*
X155923292Y-77191427D02*
X156019856Y-77217403D01*
X158000138Y-77217420D02*
X157901863Y-77235897D01*
X156019856Y-77217403D02*
X156118131Y-77235880D01*
X157901863Y-77235897D02*
X157802458Y-77246765D01*
X156118131Y-77235880D02*
X156217536Y-77246748D01*
X157802458Y-77246765D02*
X157702512Y-77249960D01*
X156217536Y-77246748D02*
X156317482Y-77249943D01*
X156317482Y-77249943D02*
X157702512Y-77249960D01*
X143000000Y-107499998D02*
X143000000Y-111500000D01*
X143000000Y-102500000D02*
X143000000Y-96500000D01*
X147000010Y-102499992D02*
X147000013Y-96510001D01*
X147000004Y-107500015D02*
X147000000Y-116500000D01*
X143000000Y-107499998D02*
X143007687Y-107400294D01*
X147000004Y-107500015D02*
X146992317Y-107400311D01*
X143007687Y-107400294D02*
X143023015Y-107301476D01*
X146992317Y-107400311D02*
X146976989Y-107301493D01*
X143023015Y-107301476D02*
X143045893Y-107204129D01*
X146976989Y-107301493D02*
X146954111Y-107204146D01*
X143045893Y-107204129D02*
X143076186Y-107108829D01*
X146954111Y-107204146D02*
X146923818Y-107108846D01*
X143076186Y-107108829D02*
X143113715Y-107016139D01*
X146923818Y-107108846D02*
X146886289Y-107016156D01*
X143113715Y-107016139D02*
X143158258Y-106926608D01*
X146886289Y-107016156D02*
X146841746Y-106926625D01*
X143158258Y-106926608D02*
X143209551Y-106840766D01*
X146841746Y-106926625D02*
X146790453Y-106840783D01*
X143209551Y-106840766D02*
X143267291Y-106759121D01*
X146790453Y-106840783D02*
X146732713Y-106759138D01*
X143267291Y-106759121D02*
X143331136Y-106682156D01*
X146732713Y-106759138D02*
X146668868Y-106682173D01*
X143331136Y-106682156D02*
X143400708Y-106610326D01*
X146668868Y-106682173D02*
X146599296Y-106610343D01*
X143400708Y-106610326D02*
X143475595Y-106544056D01*
X146599296Y-106610343D02*
X146524409Y-106544073D01*
X143475595Y-106544056D02*
X143555354Y-106483738D01*
X146524409Y-106544073D02*
X146444650Y-106483755D01*
X143555354Y-106483738D02*
X143639513Y-106429729D01*
X146444650Y-106483755D02*
X146360491Y-106429746D01*
X143639513Y-106429729D02*
X143727574Y-106382349D01*
X146360491Y-106429746D02*
X146272430Y-106382366D01*
X143727574Y-106382349D02*
X143819016Y-106341878D01*
X146272430Y-106382366D02*
X146180988Y-106341895D01*
X143819016Y-106341878D02*
X143913298Y-106308556D01*
X146180988Y-106341895D02*
X146086706Y-106308573D01*
X143913298Y-106308556D02*
X144009862Y-106282580D01*
X146086706Y-106308573D02*
X145990142Y-106282597D01*
X144009862Y-106282580D02*
X144108137Y-106264103D01*
X145990142Y-106282597D02*
X145891867Y-106264120D01*
X144108137Y-106264103D02*
X144207542Y-106253235D01*
X145891867Y-106264120D02*
X145792462Y-106253252D01*
X144207542Y-106253235D02*
X144307488Y-106250040D01*
X145792462Y-106253252D02*
X145692516Y-106250057D01*
X144307488Y-106250040D02*
X145692516Y-106250057D01*
X143000000Y-102500000D02*
X143007687Y-102599704D01*
X147000010Y-102499992D02*
X146992323Y-102599696D01*
X143007687Y-102599704D02*
X143023015Y-102698522D01*
X146992323Y-102599696D02*
X146976995Y-102698514D01*
X143023015Y-102698522D02*
X143045893Y-102795869D01*
X146976995Y-102698514D02*
X146954117Y-102795861D01*
X143045893Y-102795869D02*
X143076186Y-102891169D01*
X146954117Y-102795861D02*
X146923824Y-102891161D01*
X143076186Y-102891169D02*
X143113715Y-102983859D01*
X146923824Y-102891161D02*
X146886295Y-102983851D01*
X143113715Y-102983859D02*
X143158258Y-103073390D01*
X146886295Y-102983851D02*
X146841752Y-103073382D01*
X143158258Y-103073390D02*
X143209551Y-103159232D01*
X146841752Y-103073382D02*
X146790459Y-103159224D01*
X143209551Y-103159232D02*
X143267291Y-103240877D01*
X146790459Y-103159224D02*
X146732719Y-103240869D01*
X143267291Y-103240877D02*
X143331136Y-103317842D01*
X146732719Y-103240869D02*
X146668874Y-103317834D01*
X143331136Y-103317842D02*
X143400708Y-103389672D01*
X146668874Y-103317834D02*
X146599302Y-103389664D01*
X143400708Y-103389672D02*
X143475595Y-103455942D01*
X146599302Y-103389664D02*
X146524415Y-103455934D01*
X143475595Y-103455942D02*
X143555354Y-103516260D01*
X146524415Y-103455934D02*
X146444656Y-103516252D01*
X143555354Y-103516260D02*
X143639513Y-103570269D01*
X146444656Y-103516252D02*
X146360497Y-103570261D01*
X143639513Y-103570269D02*
X143727574Y-103617649D01*
X146360497Y-103570261D02*
X146272436Y-103617641D01*
X143727574Y-103617649D02*
X143819016Y-103658120D01*
X146272436Y-103617641D02*
X146180994Y-103658112D01*
X143819016Y-103658120D02*
X143913298Y-103691442D01*
X146180994Y-103658112D02*
X146086712Y-103691434D01*
X143913298Y-103691442D02*
X144009862Y-103717418D01*
X146086712Y-103691434D02*
X145990148Y-103717410D01*
X144009862Y-103717418D02*
X144108137Y-103735895D01*
X145990148Y-103717410D02*
X145891873Y-103735887D01*
X144108137Y-103735895D02*
X144207542Y-103746763D01*
X145891873Y-103735887D02*
X145792468Y-103746755D01*
X144207542Y-103746763D02*
X144307488Y-103749958D01*
X145792468Y-103746755D02*
X145692522Y-103749950D01*
X144307488Y-103749958D02*
X145692522Y-103749950D01*
X141500005Y-65160000D02*
X143010000Y-65160000D01*
X136499995Y-65160000D02*
X135010000Y-65160000D01*
X136499997Y-62000000D02*
X129499980Y-62000000D01*
X141500005Y-65160000D02*
X141400301Y-65152313D01*
X141500023Y-62000000D02*
X141400319Y-62007687D01*
X141400301Y-65152313D02*
X141301483Y-65136985D01*
X141400319Y-62007687D02*
X141301501Y-62023015D01*
X141301483Y-65136985D02*
X141204136Y-65114107D01*
X141301501Y-62023015D02*
X141204154Y-62045893D01*
X141204136Y-65114107D02*
X141108836Y-65083814D01*
X141204154Y-62045893D02*
X141108854Y-62076186D01*
X141108836Y-65083814D02*
X141016146Y-65046285D01*
X141108854Y-62076186D02*
X141016164Y-62113715D01*
X141016146Y-65046285D02*
X140926615Y-65001742D01*
X141016164Y-62113715D02*
X140926633Y-62158258D01*
X140926615Y-65001742D02*
X140840773Y-64950449D01*
X140926633Y-62158258D02*
X140840791Y-62209551D01*
X140840773Y-64950449D02*
X140759128Y-64892709D01*
X140840791Y-62209551D02*
X140759146Y-62267291D01*
X140759128Y-64892709D02*
X140682163Y-64828864D01*
X140759146Y-62267291D02*
X140682181Y-62331136D01*
X140682163Y-64828864D02*
X140610333Y-64759292D01*
X140682181Y-62331136D02*
X140610351Y-62400708D01*
X140610333Y-64759292D02*
X140544063Y-64684405D01*
X140610351Y-62400708D02*
X140544081Y-62475595D01*
X140544063Y-64684405D02*
X140483745Y-64604646D01*
X140544081Y-62475595D02*
X140483763Y-62555354D01*
X140483745Y-64604646D02*
X140429736Y-64520487D01*
X140483763Y-62555354D02*
X140429754Y-62639513D01*
X140429736Y-64520487D02*
X140382356Y-64432426D01*
X140429754Y-62639513D02*
X140382374Y-62727574D01*
X140382356Y-64432426D02*
X140341885Y-64340984D01*
X140382374Y-62727574D02*
X140341903Y-62819016D01*
X140341885Y-64340984D02*
X140308563Y-64246702D01*
X140341903Y-62819016D02*
X140308581Y-62913298D01*
X140308563Y-64246702D02*
X140282587Y-64150138D01*
X140308581Y-62913298D02*
X140282605Y-63009862D01*
X140282587Y-64150138D02*
X140264110Y-64051863D01*
X140282605Y-63009862D02*
X140264128Y-63108137D01*
X140264110Y-64051863D02*
X140253242Y-63952458D01*
X140264128Y-63108137D02*
X140253260Y-63207542D01*
X140253242Y-63952458D02*
X140250047Y-63852512D01*
X140253260Y-63207542D02*
X140250065Y-63307488D01*
X140250047Y-63852512D02*
X140250065Y-63307488D01*
X136499997Y-62000000D02*
X136599701Y-62007687D01*
X136499995Y-65160000D02*
X136599699Y-65152313D01*
X136599701Y-62007687D02*
X136698519Y-62023015D01*
X136599699Y-65152313D02*
X136698517Y-65136985D01*
X136698519Y-62023015D02*
X136795866Y-62045893D01*
X136698517Y-65136985D02*
X136795864Y-65114107D01*
X136795866Y-62045893D02*
X136891166Y-62076186D01*
X136795864Y-65114107D02*
X136891164Y-65083814D01*
X136891166Y-62076186D02*
X136983856Y-62113715D01*
X136891164Y-65083814D02*
X136983854Y-65046285D01*
X136983856Y-62113715D02*
X137073387Y-62158258D01*
X136983854Y-65046285D02*
X137073385Y-65001742D01*
X137073387Y-62158258D02*
X137159229Y-62209551D01*
X137073385Y-65001742D02*
X137159227Y-64950449D01*
X137159229Y-62209551D02*
X137240874Y-62267291D01*
X137159227Y-64950449D02*
X137240872Y-64892709D01*
X137240874Y-62267291D02*
X137317839Y-62331136D01*
X137240872Y-64892709D02*
X137317837Y-64828864D01*
X137317839Y-62331136D02*
X137389669Y-62400708D01*
X137317837Y-64828864D02*
X137389667Y-64759292D01*
X137389669Y-62400708D02*
X137455939Y-62475595D01*
X137389667Y-64759292D02*
X137455937Y-64684405D01*
X137455939Y-62475595D02*
X137516257Y-62555354D01*
X137455937Y-64684405D02*
X137516255Y-64604646D01*
X137516257Y-62555354D02*
X137570266Y-62639513D01*
X137516255Y-64604646D02*
X137570264Y-64520487D01*
X137570266Y-62639513D02*
X137617646Y-62727574D01*
X137570264Y-64520487D02*
X137617644Y-64432426D01*
X137617646Y-62727574D02*
X137658117Y-62819016D01*
X137617644Y-64432426D02*
X137658115Y-64340984D01*
X137658117Y-62819016D02*
X137691439Y-62913298D01*
X137658115Y-64340984D02*
X137691437Y-64246702D01*
X137691439Y-62913298D02*
X137717415Y-63009862D01*
X137691437Y-64246702D02*
X137717413Y-64150138D01*
X137717415Y-63009862D02*
X137735892Y-63108137D01*
X137717413Y-64150138D02*
X137735890Y-64051863D01*
X137735892Y-63108137D02*
X137746760Y-63207542D01*
X137735890Y-64051863D02*
X137746758Y-63952458D01*
X137746760Y-63207542D02*
X137749955Y-63307488D01*
X137746758Y-63952458D02*
X137749953Y-63852512D01*
X137749953Y-63852512D02*
X137749955Y-63307488D01*
X136500010Y-122000000D02*
X129500023Y-122000000D01*
X141500005Y-122000000D02*
X148500030Y-122000000D01*
X136500000Y-116500000D02*
X135000000Y-116500000D01*
X141500000Y-116500000D02*
X143000000Y-116500000D01*
X141500000Y-116500000D02*
X141400296Y-116507687D01*
X141500005Y-122000000D02*
X141400301Y-121992313D01*
X141400296Y-116507687D02*
X141301478Y-116523015D01*
X141400301Y-121992313D02*
X141301483Y-121976985D01*
X141301478Y-116523015D02*
X141204131Y-116545893D01*
X141301483Y-121976985D02*
X141204136Y-121954107D01*
X141204131Y-116545893D02*
X141108831Y-116576186D01*
X141204136Y-121954107D02*
X141108836Y-121923814D01*
X141108831Y-116576186D02*
X141016141Y-116613715D01*
X141108836Y-121923814D02*
X141016146Y-121886285D01*
X141016141Y-116613715D02*
X140926610Y-116658258D01*
X141016146Y-121886285D02*
X140926615Y-121841742D01*
X140926610Y-116658258D02*
X140840768Y-116709551D01*
X140926615Y-121841742D02*
X140840773Y-121790449D01*
X140840768Y-116709551D02*
X140759123Y-116767291D01*
X140840773Y-121790449D02*
X140759128Y-121732709D01*
X140759123Y-116767291D02*
X140682158Y-116831136D01*
X140759128Y-121732709D02*
X140682163Y-121668864D01*
X140682158Y-116831136D02*
X140610328Y-116900708D01*
X140682163Y-121668864D02*
X140610333Y-121599292D01*
X140610328Y-116900708D02*
X140544058Y-116975595D01*
X140610333Y-121599292D02*
X140544063Y-121524405D01*
X140544058Y-116975595D02*
X140483740Y-117055354D01*
X140544063Y-121524405D02*
X140483745Y-121444646D01*
X140483740Y-117055354D02*
X140429731Y-117139513D01*
X140483745Y-121444646D02*
X140429736Y-121360487D01*
X140429731Y-117139513D02*
X140382351Y-117227574D01*
X140429736Y-121360487D02*
X140382356Y-121272426D01*
X140382351Y-117227574D02*
X140341880Y-117319016D01*
X140382356Y-121272426D02*
X140341885Y-121180984D01*
X140341880Y-117319016D02*
X140308558Y-117413298D01*
X140341885Y-121180984D02*
X140308563Y-121086702D01*
X140308558Y-117413298D02*
X140282582Y-117509862D01*
X140308563Y-121086702D02*
X140282587Y-120990138D01*
X140282582Y-117509862D02*
X140264105Y-117608137D01*
X140282587Y-120990138D02*
X140264110Y-120891863D01*
X140264105Y-117608137D02*
X140253237Y-117707542D01*
X140264110Y-120891863D02*
X140253242Y-120792458D01*
X140253237Y-117707542D02*
X140250042Y-117807488D01*
X140253242Y-120792458D02*
X140250047Y-120692512D01*
X140250047Y-120692512D02*
X140250042Y-117807488D01*
X136500010Y-122000000D02*
X136599714Y-121992313D01*
X136500000Y-116500000D02*
X136599704Y-116507687D01*
X136599714Y-121992313D02*
X136698532Y-121976985D01*
X136599704Y-116507687D02*
X136698522Y-116523015D01*
X136698532Y-121976985D02*
X136795879Y-121954107D01*
X136698522Y-116523015D02*
X136795869Y-116545893D01*
X136795879Y-121954107D02*
X136891179Y-121923814D01*
X136795869Y-116545893D02*
X136891169Y-116576186D01*
X136891179Y-121923814D02*
X136983869Y-121886285D01*
X136891169Y-116576186D02*
X136983859Y-116613715D01*
X136983869Y-121886285D02*
X137073400Y-121841742D01*
X136983859Y-116613715D02*
X137073390Y-116658258D01*
X137073400Y-121841742D02*
X137159242Y-121790449D01*
X137073390Y-116658258D02*
X137159232Y-116709551D01*
X137159242Y-121790449D02*
X137240887Y-121732709D01*
X137159232Y-116709551D02*
X137240877Y-116767291D01*
X137240887Y-121732709D02*
X137317852Y-121668864D01*
X137240877Y-116767291D02*
X137317842Y-116831136D01*
X137317852Y-121668864D02*
X137389682Y-121599292D01*
X137317842Y-116831136D02*
X137389672Y-116900708D01*
X137389682Y-121599292D02*
X137455952Y-121524405D01*
X137389672Y-116900708D02*
X137455942Y-116975595D01*
X137455952Y-121524405D02*
X137516270Y-121444646D01*
X137455942Y-116975595D02*
X137516260Y-117055354D01*
X137516270Y-121444646D02*
X137570279Y-121360487D01*
X137516260Y-117055354D02*
X137570269Y-117139513D01*
X137570279Y-121360487D02*
X137617659Y-121272426D01*
X137570269Y-117139513D02*
X137617649Y-117227574D01*
X137617659Y-121272426D02*
X137658130Y-121180984D01*
X137617649Y-117227574D02*
X137658120Y-117319016D01*
X137658130Y-121180984D02*
X137691452Y-121086702D01*
X137658120Y-117319016D02*
X137691442Y-117413298D01*
X137691452Y-121086702D02*
X137717428Y-120990138D01*
X137691442Y-117413298D02*
X137717418Y-117509862D01*
X137717428Y-120990138D02*
X137735905Y-120891863D01*
X137717418Y-117509862D02*
X137735895Y-117608137D01*
X137735905Y-120891863D02*
X137746773Y-120792458D01*
X137735895Y-117608137D02*
X137746763Y-117707542D01*
X137746773Y-120792458D02*
X137749968Y-120692512D01*
X137746763Y-117707542D02*
X137749958Y-117807488D01*
X137749968Y-120692512D02*
X137749958Y-117807488D01*
X117499998Y-122000000D02*
X124500000Y-122000000D01*
X112500000Y-122000000D02*
X107000000Y-122000000D01*
X112500000Y-116500000D02*
X111000000Y-116500000D01*
X117500000Y-116500000D02*
X119000000Y-116500000D01*
X117500000Y-116500000D02*
X117400296Y-116507687D01*
X117499998Y-122000000D02*
X117400294Y-121992313D01*
X117400296Y-116507687D02*
X117301478Y-116523015D01*
X117400294Y-121992313D02*
X117301476Y-121976985D01*
X117301478Y-116523015D02*
X117204131Y-116545893D01*
X117301476Y-121976985D02*
X117204129Y-121954107D01*
X117204131Y-116545893D02*
X117108831Y-116576186D01*
X117204129Y-121954107D02*
X117108829Y-121923814D01*
X117108831Y-116576186D02*
X117016141Y-116613715D01*
X117108829Y-121923814D02*
X117016139Y-121886285D01*
X117016141Y-116613715D02*
X116926610Y-116658258D01*
X117016139Y-121886285D02*
X116926608Y-121841742D01*
X116926610Y-116658258D02*
X116840768Y-116709551D01*
X116926608Y-121841742D02*
X116840766Y-121790449D01*
X116840768Y-116709551D02*
X116759123Y-116767291D01*
X116840766Y-121790449D02*
X116759121Y-121732709D01*
X116759123Y-116767291D02*
X116682158Y-116831136D01*
X116759121Y-121732709D02*
X116682156Y-121668864D01*
X116682158Y-116831136D02*
X116610328Y-116900708D01*
X116682156Y-121668864D02*
X116610326Y-121599292D01*
X116610328Y-116900708D02*
X116544058Y-116975595D01*
X116610326Y-121599292D02*
X116544056Y-121524405D01*
X116544058Y-116975595D02*
X116483740Y-117055354D01*
X116544056Y-121524405D02*
X116483738Y-121444646D01*
X116483740Y-117055354D02*
X116429731Y-117139513D01*
X116483738Y-121444646D02*
X116429729Y-121360487D01*
X116429731Y-117139513D02*
X116382351Y-117227574D01*
X116429729Y-121360487D02*
X116382349Y-121272426D01*
X116382351Y-117227574D02*
X116341880Y-117319016D01*
X116382349Y-121272426D02*
X116341878Y-121180984D01*
X116341878Y-121180984D02*
X116308556Y-121086702D01*
X116341880Y-117319016D02*
X116308558Y-117413298D01*
X116308556Y-121086702D02*
X116282580Y-120990138D01*
X116308558Y-117413298D02*
X116282582Y-117509862D01*
X116282580Y-120990138D02*
X116264103Y-120891863D01*
X116282582Y-117509862D02*
X116264105Y-117608137D01*
X116264103Y-120891863D02*
X116253235Y-120792458D01*
X116264105Y-117608137D02*
X116253237Y-117707542D01*
X116253235Y-120792458D02*
X116250040Y-120692512D01*
X116253237Y-117707542D02*
X116250042Y-117807488D01*
X116250040Y-120692512D02*
X116250042Y-117807488D01*
X112500000Y-116500000D02*
X112599704Y-116507687D01*
X112500000Y-122000000D02*
X112599704Y-121992313D01*
X112599704Y-116507687D02*
X112698522Y-116523015D01*
X112599704Y-121992313D02*
X112698522Y-121976985D01*
X112698522Y-116523015D02*
X112795869Y-116545893D01*
X112698522Y-121976985D02*
X112795869Y-121954107D01*
X112795869Y-116545893D02*
X112891169Y-116576186D01*
X112795869Y-121954107D02*
X112891169Y-121923814D01*
X112891169Y-116576186D02*
X112983859Y-116613715D01*
X112891169Y-121923814D02*
X112983859Y-121886285D01*
X112983859Y-116613715D02*
X113073390Y-116658258D01*
X112983859Y-121886285D02*
X113073390Y-121841742D01*
X113073390Y-116658258D02*
X113159232Y-116709551D01*
X113073390Y-121841742D02*
X113159232Y-121790449D01*
X113159232Y-116709551D02*
X113240877Y-116767291D01*
X113159232Y-121790449D02*
X113240877Y-121732709D01*
X113240877Y-116767291D02*
X113317842Y-116831136D01*
X113240877Y-121732709D02*
X113317842Y-121668864D01*
X113317842Y-116831136D02*
X113389672Y-116900708D01*
X113317842Y-121668864D02*
X113389672Y-121599292D01*
X113389672Y-116900708D02*
X113455942Y-116975595D01*
X113389672Y-121599292D02*
X113455942Y-121524405D01*
X113455942Y-116975595D02*
X113516260Y-117055354D01*
X113455942Y-121524405D02*
X113516260Y-121444646D01*
X113516260Y-117055354D02*
X113570269Y-117139513D01*
X113516260Y-121444646D02*
X113570269Y-121360487D01*
X113570269Y-117139513D02*
X113617649Y-117227574D01*
X113570269Y-121360487D02*
X113617649Y-121272426D01*
X113617649Y-117227574D02*
X113658120Y-117319016D01*
X113617649Y-121272426D02*
X113658120Y-121180984D01*
X113658120Y-117319016D02*
X113691442Y-117413298D01*
X113658120Y-121180984D02*
X113691442Y-121086702D01*
X113691442Y-117413298D02*
X113717418Y-117509862D01*
X113691442Y-121086702D02*
X113717418Y-120990138D01*
X113717418Y-117509862D02*
X113735895Y-117608137D01*
X113717418Y-120990138D02*
X113735895Y-120891863D01*
X113735895Y-117608137D02*
X113746763Y-117707542D01*
X113735895Y-120891863D02*
X113746763Y-120792458D01*
X113746763Y-117707542D02*
X113749958Y-117807488D01*
X113746763Y-120792458D02*
X113749958Y-120692512D01*
X113749958Y-120692512D02*
X113749958Y-117807488D01*
X165500005Y-65160000D02*
X167010000Y-65160000D01*
X160499995Y-65160000D02*
X159010000Y-65160000D01*
X165499998Y-62000000D02*
X172500002Y-62000000D01*
X165499998Y-62000000D02*
X165400294Y-62007687D01*
X165500005Y-65160000D02*
X165400301Y-65152313D01*
X165400294Y-62007687D02*
X165301476Y-62023015D01*
X165400301Y-65152313D02*
X165301483Y-65136985D01*
X165301476Y-62023015D02*
X165204129Y-62045893D01*
X165301483Y-65136985D02*
X165204136Y-65114107D01*
X165204129Y-62045893D02*
X165108829Y-62076186D01*
X165204136Y-65114107D02*
X165108836Y-65083814D01*
X165108829Y-62076186D02*
X165016139Y-62113715D01*
X165108836Y-65083814D02*
X165016146Y-65046285D01*
X165016139Y-62113715D02*
X164926608Y-62158258D01*
X165016146Y-65046285D02*
X164926615Y-65001742D01*
X164926608Y-62158258D02*
X164840766Y-62209551D01*
X164926615Y-65001742D02*
X164840773Y-64950449D01*
X164840766Y-62209551D02*
X164759121Y-62267291D01*
X164840773Y-64950449D02*
X164759128Y-64892709D01*
X164759121Y-62267291D02*
X164682156Y-62331136D01*
X164759128Y-64892709D02*
X164682163Y-64828864D01*
X164682156Y-62331136D02*
X164610326Y-62400708D01*
X164682163Y-64828864D02*
X164610333Y-64759292D01*
X164610326Y-62400708D02*
X164544056Y-62475595D01*
X164610333Y-64759292D02*
X164544063Y-64684405D01*
X164544056Y-62475595D02*
X164483738Y-62555354D01*
X164544063Y-64684405D02*
X164483745Y-64604646D01*
X164483738Y-62555354D02*
X164429729Y-62639513D01*
X164483745Y-64604646D02*
X164429736Y-64520487D01*
X164429729Y-62639513D02*
X164382349Y-62727574D01*
X164429736Y-64520487D02*
X164382356Y-64432426D01*
X164382349Y-62727574D02*
X164341878Y-62819016D01*
X164382356Y-64432426D02*
X164341885Y-64340984D01*
X164341878Y-62819016D02*
X164308556Y-62913298D01*
X164341885Y-64340984D02*
X164308563Y-64246702D01*
X164308556Y-62913298D02*
X164282580Y-63009862D01*
X164308563Y-64246702D02*
X164282587Y-64150138D01*
X164282580Y-63009862D02*
X164264103Y-63108137D01*
X164282587Y-64150138D02*
X164264110Y-64051863D01*
X164264103Y-63108137D02*
X164253235Y-63207542D01*
X164264110Y-64051863D02*
X164253242Y-63952458D01*
X164253235Y-63207542D02*
X164250040Y-63307488D01*
X164253242Y-63952458D02*
X164250047Y-63852512D01*
X164250047Y-63852512D02*
X164250040Y-63307488D01*
X160499995Y-65160000D02*
X160599699Y-65152313D01*
X160499982Y-62000000D02*
X160599686Y-62007687D01*
X160599699Y-65152313D02*
X160698517Y-65136985D01*
X160599686Y-62007687D02*
X160698504Y-62023015D01*
X160698517Y-65136985D02*
X160795864Y-65114107D01*
X160698504Y-62023015D02*
X160795851Y-62045893D01*
X160795864Y-65114107D02*
X160891164Y-65083814D01*
X160795851Y-62045893D02*
X160891151Y-62076186D01*
X160891164Y-65083814D02*
X160983854Y-65046285D01*
X160891151Y-62076186D02*
X160983841Y-62113715D01*
X160983854Y-65046285D02*
X161073385Y-65001742D01*
X160983841Y-62113715D02*
X161073372Y-62158258D01*
X161073385Y-65001742D02*
X161159227Y-64950449D01*
X161073372Y-62158258D02*
X161159214Y-62209551D01*
X161159227Y-64950449D02*
X161240872Y-64892709D01*
X161159214Y-62209551D02*
X161240859Y-62267291D01*
X161240872Y-64892709D02*
X161317837Y-64828864D01*
X161240859Y-62267291D02*
X161317824Y-62331136D01*
X161317837Y-64828864D02*
X161389667Y-64759292D01*
X161317824Y-62331136D02*
X161389654Y-62400708D01*
X161389667Y-64759292D02*
X161455937Y-64684405D01*
X161389654Y-62400708D02*
X161455924Y-62475595D01*
X161455937Y-64684405D02*
X161516255Y-64604646D01*
X161455924Y-62475595D02*
X161516242Y-62555354D01*
X161516255Y-64604646D02*
X161570264Y-64520487D01*
X161516242Y-62555354D02*
X161570251Y-62639513D01*
X161570264Y-64520487D02*
X161617644Y-64432426D01*
X161570251Y-62639513D02*
X161617631Y-62727574D01*
X161617644Y-64432426D02*
X161658115Y-64340984D01*
X161617631Y-62727574D02*
X161658102Y-62819016D01*
X161658115Y-64340984D02*
X161691437Y-64246702D01*
X161658102Y-62819016D02*
X161691424Y-62913298D01*
X161691437Y-64246702D02*
X161717413Y-64150138D01*
X161691424Y-62913298D02*
X161717400Y-63009862D01*
X161717413Y-64150138D02*
X161735890Y-64051863D01*
X161717400Y-63009862D02*
X161735877Y-63108137D01*
X161735890Y-64051863D02*
X161746758Y-63952458D01*
X161735877Y-63108137D02*
X161746745Y-63207542D01*
X161746758Y-63952458D02*
X161749953Y-63852512D01*
X161746745Y-63207542D02*
X161749940Y-63307488D01*
X161749953Y-63852512D02*
X161749940Y-63307488D01*
X153499993Y-62000000D02*
X160499982Y-62000000D01*
X148500010Y-62000000D02*
X141500023Y-62000000D01*
X153500005Y-65160000D02*
X155010000Y-65160000D01*
X148499995Y-65160000D02*
X147010000Y-65160000D01*
X148500010Y-62000000D02*
X148599714Y-62007687D01*
X148499995Y-65160000D02*
X148599699Y-65152313D01*
X148599714Y-62007687D02*
X148698532Y-62023015D01*
X148599699Y-65152313D02*
X148698517Y-65136985D01*
X148698532Y-62023015D02*
X148795879Y-62045893D01*
X148698517Y-65136985D02*
X148795864Y-65114107D01*
X148795879Y-62045893D02*
X148891179Y-62076186D01*
X148795864Y-65114107D02*
X148891164Y-65083814D01*
X148891179Y-62076186D02*
X148983869Y-62113715D01*
X148891164Y-65083814D02*
X148983854Y-65046285D01*
X148983869Y-62113715D02*
X149073400Y-62158258D01*
X148983854Y-65046285D02*
X149073385Y-65001742D01*
X149073400Y-62158258D02*
X149159242Y-62209551D01*
X149073385Y-65001742D02*
X149159227Y-64950449D01*
X149159242Y-62209551D02*
X149240887Y-62267291D01*
X149159227Y-64950449D02*
X149240872Y-64892709D01*
X149240887Y-62267291D02*
X149317852Y-62331136D01*
X149240872Y-64892709D02*
X149317837Y-64828864D01*
X149317852Y-62331136D02*
X149389682Y-62400708D01*
X149317837Y-64828864D02*
X149389667Y-64759292D01*
X149389682Y-62400708D02*
X149455952Y-62475595D01*
X149389667Y-64759292D02*
X149455937Y-64684405D01*
X149455952Y-62475595D02*
X149516270Y-62555354D01*
X149455937Y-64684405D02*
X149516255Y-64604646D01*
X149516270Y-62555354D02*
X149570279Y-62639513D01*
X149516255Y-64604646D02*
X149570264Y-64520487D01*
X149570279Y-62639513D02*
X149617659Y-62727574D01*
X149570264Y-64520487D02*
X149617644Y-64432426D01*
X149617659Y-62727574D02*
X149658130Y-62819016D01*
X149617644Y-64432426D02*
X149658115Y-64340984D01*
X149658130Y-62819016D02*
X149691452Y-62913298D01*
X149658115Y-64340984D02*
X149691437Y-64246702D01*
X149691452Y-62913298D02*
X149717428Y-63009862D01*
X149691437Y-64246702D02*
X149717413Y-64150138D01*
X149717428Y-63009862D02*
X149735905Y-63108137D01*
X149717413Y-64150138D02*
X149735890Y-64051863D01*
X149735905Y-63108137D02*
X149746773Y-63207542D01*
X149735890Y-64051863D02*
X149746758Y-63952458D01*
X149746773Y-63207542D02*
X149749968Y-63307488D01*
X149746758Y-63952458D02*
X149749953Y-63852512D01*
X149749968Y-63307488D02*
X149749953Y-63852512D01*
X153499993Y-62000000D02*
X153400289Y-62007687D01*
X153500005Y-65160000D02*
X153400301Y-65152313D01*
X153400289Y-62007687D02*
X153301471Y-62023015D01*
X153400301Y-65152313D02*
X153301483Y-65136985D01*
X153301471Y-62023015D02*
X153204124Y-62045893D01*
X153301483Y-65136985D02*
X153204136Y-65114107D01*
X153204124Y-62045893D02*
X153108824Y-62076186D01*
X153204136Y-65114107D02*
X153108836Y-65083814D01*
X153108824Y-62076186D02*
X153016134Y-62113715D01*
X153108836Y-65083814D02*
X153016146Y-65046285D01*
X153016134Y-62113715D02*
X152926603Y-62158258D01*
X153016146Y-65046285D02*
X152926615Y-65001742D01*
X152926603Y-62158258D02*
X152840761Y-62209551D01*
X152926615Y-65001742D02*
X152840773Y-64950449D01*
X152840761Y-62209551D02*
X152759116Y-62267291D01*
X152840773Y-64950449D02*
X152759128Y-64892709D01*
X152759116Y-62267291D02*
X152682151Y-62331136D01*
X152759128Y-64892709D02*
X152682163Y-64828864D01*
X152682151Y-62331136D02*
X152610321Y-62400708D01*
X152682163Y-64828864D02*
X152610333Y-64759292D01*
X152610321Y-62400708D02*
X152544051Y-62475595D01*
X152610333Y-64759292D02*
X152544063Y-64684405D01*
X152544051Y-62475595D02*
X152483733Y-62555354D01*
X152544063Y-64684405D02*
X152483745Y-64604646D01*
X152483733Y-62555354D02*
X152429724Y-62639513D01*
X152483745Y-64604646D02*
X152429736Y-64520487D01*
X152429724Y-62639513D02*
X152382344Y-62727574D01*
X152429736Y-64520487D02*
X152382356Y-64432426D01*
X152382344Y-62727574D02*
X152341873Y-62819016D01*
X152382356Y-64432426D02*
X152341885Y-64340984D01*
X152341873Y-62819016D02*
X152308551Y-62913298D01*
X152341885Y-64340984D02*
X152308563Y-64246702D01*
X152308551Y-62913298D02*
X152282575Y-63009862D01*
X152308563Y-64246702D02*
X152282587Y-64150138D01*
X152282575Y-63009862D02*
X152264098Y-63108137D01*
X152282587Y-64150138D02*
X152264110Y-64051863D01*
X152264098Y-63108137D02*
X152253230Y-63207542D01*
X152264110Y-64051863D02*
X152253242Y-63952458D01*
X152253230Y-63207542D02*
X152250035Y-63307488D01*
X152253242Y-63952458D02*
X152250047Y-63852512D01*
X152250035Y-63307488D02*
X152250047Y-63852512D01*
X167009988Y-81000000D02*
X167009987Y-85149999D01*
X167009994Y-75999985D02*
X167010000Y-65160000D01*
X171010000Y-76000002D02*
X171010000Y-70160000D01*
X171010000Y-80999998D02*
X171010000Y-85160000D01*
X171010000Y-80999998D02*
X171002313Y-80900294D01*
X167009988Y-81000000D02*
X167017675Y-80900296D01*
X171002313Y-80900294D02*
X170986985Y-80801476D01*
X167017675Y-80900296D02*
X167033003Y-80801478D01*
X170986985Y-80801476D02*
X170964107Y-80704129D01*
X167033003Y-80801478D02*
X167055881Y-80704131D01*
X170964107Y-80704129D02*
X170933814Y-80608829D01*
X167055881Y-80704131D02*
X167086174Y-80608831D01*
X170933814Y-80608829D02*
X170896285Y-80516139D01*
X167086174Y-80608831D02*
X167123703Y-80516141D01*
X170896285Y-80516139D02*
X170851742Y-80426608D01*
X167123703Y-80516141D02*
X167168246Y-80426610D01*
X170851742Y-80426608D02*
X170800449Y-80340766D01*
X167168246Y-80426610D02*
X167219539Y-80340768D01*
X170800449Y-80340766D02*
X170742709Y-80259121D01*
X167219539Y-80340768D02*
X167277279Y-80259123D01*
X170742709Y-80259121D02*
X170678864Y-80182156D01*
X167277279Y-80259123D02*
X167341124Y-80182158D01*
X170678864Y-80182156D02*
X170609292Y-80110326D01*
X167341124Y-80182158D02*
X167410696Y-80110328D01*
X170609292Y-80110326D02*
X170534405Y-80044056D01*
X167410696Y-80110328D02*
X167485583Y-80044058D01*
X170534405Y-80044056D02*
X170454646Y-79983738D01*
X167485583Y-80044058D02*
X167565342Y-79983740D01*
X170454646Y-79983738D02*
X170370487Y-79929729D01*
X167565342Y-79983740D02*
X167649501Y-79929731D01*
X170370487Y-79929729D02*
X170282426Y-79882349D01*
X167649501Y-79929731D02*
X167737562Y-79882351D01*
X170282426Y-79882349D02*
X170190984Y-79841878D01*
X167737562Y-79882351D02*
X167829004Y-79841880D01*
X170190984Y-79841878D02*
X170096702Y-79808556D01*
X167829004Y-79841880D02*
X167923286Y-79808558D01*
X170096702Y-79808556D02*
X170000138Y-79782580D01*
X167923286Y-79808558D02*
X168019850Y-79782582D01*
X170000138Y-79782580D02*
X169901863Y-79764103D01*
X168019850Y-79782582D02*
X168118125Y-79764105D01*
X169901863Y-79764103D02*
X169802458Y-79753235D01*
X168118125Y-79764105D02*
X168217530Y-79753237D01*
X169802458Y-79753235D02*
X169702512Y-79750040D01*
X168217530Y-79753237D02*
X168317476Y-79750042D01*
X168317476Y-79750042D02*
X169702512Y-79750040D01*
X171010000Y-76000002D02*
X171002313Y-76099706D01*
X167009994Y-75999985D02*
X167017681Y-76099689D01*
X171002313Y-76099706D02*
X170986985Y-76198524D01*
X167017681Y-76099689D02*
X167033009Y-76198507D01*
X170986985Y-76198524D02*
X170964107Y-76295871D01*
X167033009Y-76198507D02*
X167055887Y-76295854D01*
X170964107Y-76295871D02*
X170933814Y-76391171D01*
X167055887Y-76295854D02*
X167086180Y-76391154D01*
X170933814Y-76391171D02*
X170896285Y-76483861D01*
X167086180Y-76391154D02*
X167123709Y-76483844D01*
X170896285Y-76483861D02*
X170851742Y-76573392D01*
X167123709Y-76483844D02*
X167168252Y-76573375D01*
X170851742Y-76573392D02*
X170800449Y-76659234D01*
X167168252Y-76573375D02*
X167219545Y-76659217D01*
X170800449Y-76659234D02*
X170742709Y-76740879D01*
X167219545Y-76659217D02*
X167277285Y-76740862D01*
X170742709Y-76740879D02*
X170678864Y-76817844D01*
X167277285Y-76740862D02*
X167341130Y-76817827D01*
X170678864Y-76817844D02*
X170609292Y-76889674D01*
X167341130Y-76817827D02*
X167410702Y-76889657D01*
X170609292Y-76889674D02*
X170534405Y-76955944D01*
X167410702Y-76889657D02*
X167485589Y-76955927D01*
X170534405Y-76955944D02*
X170454646Y-77016262D01*
X167485589Y-76955927D02*
X167565348Y-77016245D01*
X170454646Y-77016262D02*
X170370487Y-77070271D01*
X167565348Y-77016245D02*
X167649507Y-77070254D01*
X170370487Y-77070271D02*
X170282426Y-77117651D01*
X167649507Y-77070254D02*
X167737568Y-77117634D01*
X170282426Y-77117651D02*
X170190984Y-77158122D01*
X167737568Y-77117634D02*
X167829010Y-77158105D01*
X170190984Y-77158122D02*
X170096702Y-77191444D01*
X167829010Y-77158105D02*
X167923292Y-77191427D01*
X170096702Y-77191444D02*
X170000138Y-77217420D01*
X167923292Y-77191427D02*
X168019856Y-77217403D01*
X170000138Y-77217420D02*
X169901863Y-77235897D01*
X168019856Y-77217403D02*
X168118131Y-77235880D01*
X169901863Y-77235897D02*
X169802458Y-77246765D01*
X168118131Y-77235880D02*
X168217536Y-77246748D01*
X169802458Y-77246765D02*
X169702512Y-77249960D01*
X168217536Y-77246748D02*
X168317482Y-77249943D01*
X168317482Y-77249943D02*
X169702512Y-77249960D01*
X179000000Y-107499998D02*
X179000000Y-111500000D01*
X179000000Y-102500000D02*
X179000000Y-96500000D01*
X183000000Y-107500020D02*
X183000000Y-122000000D01*
X179000000Y-107499998D02*
X179007687Y-107400294D01*
X183000000Y-107500020D02*
X182992313Y-107400316D01*
X179007687Y-107400294D02*
X179023015Y-107301476D01*
X182992313Y-107400316D02*
X182976985Y-107301498D01*
X179023015Y-107301476D02*
X179045893Y-107204129D01*
X182976985Y-107301498D02*
X182954107Y-107204151D01*
X179045893Y-107204129D02*
X179076186Y-107108829D01*
X182954107Y-107204151D02*
X182923814Y-107108851D01*
X179076186Y-107108829D02*
X179113715Y-107016139D01*
X182923814Y-107108851D02*
X182886285Y-107016161D01*
X179113715Y-107016139D02*
X179158258Y-106926608D01*
X182886285Y-107016161D02*
X182841742Y-106926630D01*
X179158258Y-106926608D02*
X179209551Y-106840766D01*
X182841742Y-106926630D02*
X182790449Y-106840788D01*
X179209551Y-106840766D02*
X179267291Y-106759121D01*
X182790449Y-106840788D02*
X182732709Y-106759143D01*
X179267291Y-106759121D02*
X179331136Y-106682156D01*
X182732709Y-106759143D02*
X182668864Y-106682178D01*
X179331136Y-106682156D02*
X179400708Y-106610326D01*
X182668864Y-106682178D02*
X182599292Y-106610348D01*
X179400708Y-106610326D02*
X179475595Y-106544056D01*
X182599292Y-106610348D02*
X182524405Y-106544078D01*
X179475595Y-106544056D02*
X179555354Y-106483738D01*
X182524405Y-106544078D02*
X182444646Y-106483760D01*
X179555354Y-106483738D02*
X179639513Y-106429729D01*
X182444646Y-106483760D02*
X182360487Y-106429751D01*
X179639513Y-106429729D02*
X179727574Y-106382349D01*
X182360487Y-106429751D02*
X182272426Y-106382371D01*
X179727574Y-106382349D02*
X179819016Y-106341878D01*
X182272426Y-106382371D02*
X182180984Y-106341900D01*
X179819016Y-106341878D02*
X179913298Y-106308556D01*
X182180984Y-106341900D02*
X182086702Y-106308578D01*
X179913298Y-106308556D02*
X180009862Y-106282580D01*
X182086702Y-106308578D02*
X181990138Y-106282602D01*
X180009862Y-106282580D02*
X180108137Y-106264103D01*
X181990138Y-106282602D02*
X181891863Y-106264125D01*
X180108137Y-106264103D02*
X180207542Y-106253235D01*
X181891863Y-106264125D02*
X181792458Y-106253257D01*
X180207542Y-106253235D02*
X180307488Y-106250040D01*
X181792458Y-106253257D02*
X181692512Y-106250062D01*
X180307488Y-106250040D02*
X181692512Y-106250062D01*
X179000000Y-102500000D02*
X179007687Y-102599704D01*
X183000000Y-102499980D02*
X182992313Y-102599684D01*
X179007687Y-102599704D02*
X179023015Y-102698522D01*
X182992313Y-102599684D02*
X182976985Y-102698502D01*
X179023015Y-102698522D02*
X179045893Y-102795869D01*
X182976985Y-102698502D02*
X182954107Y-102795849D01*
X179045893Y-102795869D02*
X179076186Y-102891169D01*
X182954107Y-102795849D02*
X182923814Y-102891149D01*
X179076186Y-102891169D02*
X179113715Y-102983859D01*
X182923814Y-102891149D02*
X182886285Y-102983839D01*
X179113715Y-102983859D02*
X179158258Y-103073390D01*
X182886285Y-102983839D02*
X182841742Y-103073370D01*
X179158258Y-103073390D02*
X179209551Y-103159232D01*
X182841742Y-103073370D02*
X182790449Y-103159212D01*
X179209551Y-103159232D02*
X179267291Y-103240877D01*
X182790449Y-103159212D02*
X182732709Y-103240857D01*
X179267291Y-103240877D02*
X179331136Y-103317842D01*
X182732709Y-103240857D02*
X182668864Y-103317822D01*
X179331136Y-103317842D02*
X179400708Y-103389672D01*
X182668864Y-103317822D02*
X182599292Y-103389652D01*
X179400708Y-103389672D02*
X179475595Y-103455942D01*
X182599292Y-103389652D02*
X182524405Y-103455922D01*
X179475595Y-103455942D02*
X179555354Y-103516260D01*
X182524405Y-103455922D02*
X182444646Y-103516240D01*
X179555354Y-103516260D02*
X179639513Y-103570269D01*
X182444646Y-103516240D02*
X182360487Y-103570249D01*
X179639513Y-103570269D02*
X179727574Y-103617649D01*
X182360487Y-103570249D02*
X182272426Y-103617629D01*
X179727574Y-103617649D02*
X179819016Y-103658120D01*
X182272426Y-103617629D02*
X182180984Y-103658100D01*
X179819016Y-103658120D02*
X179913298Y-103691442D01*
X182180984Y-103658100D02*
X182086702Y-103691422D01*
X179913298Y-103691442D02*
X180009862Y-103717418D01*
X182086702Y-103691422D02*
X181990138Y-103717398D01*
X180009862Y-103717418D02*
X180108137Y-103735895D01*
X181990138Y-103717398D02*
X181891863Y-103735875D01*
X180108137Y-103735895D02*
X180207542Y-103746763D01*
X181891863Y-103735875D02*
X181792458Y-103746743D01*
X180207542Y-103746763D02*
X180307488Y-103749958D01*
X181792458Y-103746743D02*
X181692512Y-103749938D01*
X180307488Y-103749958D02*
X181692512Y-103749938D01*
X107000000Y-102499985D02*
X107000000Y-81000055D01*
X107000000Y-107500020D02*
X107000000Y-122000000D01*
X111000010Y-102499992D02*
X111000013Y-96510001D01*
X111000004Y-107500015D02*
X111000000Y-116500000D01*
X111000004Y-107500015D02*
X110992317Y-107400311D01*
X107000000Y-107500020D02*
X107007687Y-107400316D01*
X110992317Y-107400311D02*
X110976989Y-107301493D01*
X107007687Y-107400316D02*
X107023015Y-107301498D01*
X110976989Y-107301493D02*
X110954111Y-107204146D01*
X107023015Y-107301498D02*
X107045893Y-107204151D01*
X110954111Y-107204146D02*
X110923818Y-107108846D01*
X107045893Y-107204151D02*
X107076186Y-107108851D01*
X110923818Y-107108846D02*
X110886289Y-107016156D01*
X107076186Y-107108851D02*
X107113715Y-107016161D01*
X110886289Y-107016156D02*
X110841746Y-106926625D01*
X107113715Y-107016161D02*
X107158258Y-106926630D01*
X110841746Y-106926625D02*
X110790453Y-106840783D01*
X107158258Y-106926630D02*
X107209551Y-106840788D01*
X110790453Y-106840783D02*
X110732713Y-106759138D01*
X107209551Y-106840788D02*
X107267291Y-106759143D01*
X110732713Y-106759138D02*
X110668868Y-106682173D01*
X107267291Y-106759143D02*
X107331136Y-106682178D01*
X110668868Y-106682173D02*
X110599296Y-106610343D01*
X107331136Y-106682178D02*
X107400708Y-106610348D01*
X110599296Y-106610343D02*
X110524409Y-106544073D01*
X107400708Y-106610348D02*
X107475595Y-106544078D01*
X110524409Y-106544073D02*
X110444650Y-106483755D01*
X107475595Y-106544078D02*
X107555354Y-106483760D01*
X110444650Y-106483755D02*
X110360491Y-106429746D01*
X107555354Y-106483760D02*
X107639513Y-106429751D01*
X110360491Y-106429746D02*
X110272430Y-106382366D01*
X107639513Y-106429751D02*
X107727574Y-106382371D01*
X110272430Y-106382366D02*
X110180988Y-106341895D01*
X107727574Y-106382371D02*
X107819016Y-106341900D01*
X110180988Y-106341895D02*
X110086706Y-106308573D01*
X107819016Y-106341900D02*
X107913298Y-106308578D01*
X110086706Y-106308573D02*
X109990142Y-106282597D01*
X107913298Y-106308578D02*
X108009862Y-106282602D01*
X109990142Y-106282597D02*
X109891867Y-106264120D01*
X108009862Y-106282602D02*
X108108137Y-106264125D01*
X109891867Y-106264120D02*
X109792462Y-106253252D01*
X108108137Y-106264125D02*
X108207542Y-106253257D01*
X109792462Y-106253252D02*
X109692516Y-106250057D01*
X108207542Y-106253257D02*
X108307488Y-106250062D01*
X108307488Y-106250062D02*
X109692516Y-106250057D01*
X111000010Y-102499992D02*
X110992323Y-102599696D01*
X107000000Y-102499985D02*
X107007687Y-102599689D01*
X110992323Y-102599696D02*
X110976995Y-102698514D01*
X107007687Y-102599689D02*
X107023015Y-102698507D01*
X110976995Y-102698514D02*
X110954117Y-102795861D01*
X107023015Y-102698507D02*
X107045893Y-102795854D01*
X110954117Y-102795861D02*
X110923824Y-102891161D01*
X107045893Y-102795854D02*
X107076186Y-102891154D01*
X110923824Y-102891161D02*
X110886295Y-102983851D01*
X107076186Y-102891154D02*
X107113715Y-102983844D01*
X110886295Y-102983851D02*
X110841752Y-103073382D01*
X107113715Y-102983844D02*
X107158258Y-103073375D01*
X110841752Y-103073382D02*
X110790459Y-103159224D01*
X107158258Y-103073375D02*
X107209551Y-103159217D01*
X110790459Y-103159224D02*
X110732719Y-103240869D01*
X107209551Y-103159217D02*
X107267291Y-103240862D01*
X110732719Y-103240869D02*
X110668874Y-103317834D01*
X107267291Y-103240862D02*
X107331136Y-103317827D01*
X110668874Y-103317834D02*
X110599302Y-103389664D01*
X107331136Y-103317827D02*
X107400708Y-103389657D01*
X110599302Y-103389664D02*
X110524415Y-103455934D01*
X107400708Y-103389657D02*
X107475595Y-103455927D01*
X110524415Y-103455934D02*
X110444656Y-103516252D01*
X107475595Y-103455927D02*
X107555354Y-103516245D01*
X110444656Y-103516252D02*
X110360497Y-103570261D01*
X107555354Y-103516245D02*
X107639513Y-103570254D01*
X110360497Y-103570261D02*
X110272436Y-103617641D01*
X107639513Y-103570254D02*
X107727574Y-103617634D01*
X110272436Y-103617641D02*
X110180994Y-103658112D01*
X107727574Y-103617634D02*
X107819016Y-103658105D01*
X110180994Y-103658112D02*
X110086712Y-103691434D01*
X107819016Y-103658105D02*
X107913298Y-103691427D01*
X110086712Y-103691434D02*
X109990148Y-103717410D01*
X107913298Y-103691427D02*
X108009862Y-103717403D01*
X109990148Y-103717410D02*
X109891873Y-103735887D01*
X108009862Y-103717403D02*
X108108137Y-103735880D01*
X109891873Y-103735887D02*
X109792468Y-103746755D01*
X108108137Y-103735880D02*
X108207542Y-103746748D01*
X109792468Y-103746755D02*
X109692522Y-103749950D01*
X108207542Y-103746748D02*
X108307488Y-103749943D01*
X108307488Y-103749943D02*
X109692522Y-103749950D01*
X119009988Y-81000000D02*
X119009987Y-85149999D01*
X119009994Y-75999985D02*
X119010000Y-65160000D01*
X123010000Y-76000002D02*
X123010000Y-70160000D01*
X123010000Y-80999998D02*
X123010000Y-85160000D01*
X123010000Y-80999998D02*
X123002313Y-80900294D01*
X119009988Y-81000000D02*
X119017675Y-80900296D01*
X123002313Y-80900294D02*
X122986985Y-80801476D01*
X119017675Y-80900296D02*
X119033003Y-80801478D01*
X122986985Y-80801476D02*
X122964107Y-80704129D01*
X119033003Y-80801478D02*
X119055881Y-80704131D01*
X122964107Y-80704129D02*
X122933814Y-80608829D01*
X119055881Y-80704131D02*
X119086174Y-80608831D01*
X122933814Y-80608829D02*
X122896285Y-80516139D01*
X119086174Y-80608831D02*
X119123703Y-80516141D01*
X122896285Y-80516139D02*
X122851742Y-80426608D01*
X119123703Y-80516141D02*
X119168246Y-80426610D01*
X122851742Y-80426608D02*
X122800449Y-80340766D01*
X119168246Y-80426610D02*
X119219539Y-80340768D01*
X122800449Y-80340766D02*
X122742709Y-80259121D01*
X119219539Y-80340768D02*
X119277279Y-80259123D01*
X122742709Y-80259121D02*
X122678864Y-80182156D01*
X119277279Y-80259123D02*
X119341124Y-80182158D01*
X122678864Y-80182156D02*
X122609292Y-80110326D01*
X119341124Y-80182158D02*
X119410696Y-80110328D01*
X122609292Y-80110326D02*
X122534405Y-80044056D01*
X119410696Y-80110328D02*
X119485583Y-80044058D01*
X122534405Y-80044056D02*
X122454646Y-79983738D01*
X119485583Y-80044058D02*
X119565342Y-79983740D01*
X122454646Y-79983738D02*
X122370487Y-79929729D01*
X119565342Y-79983740D02*
X119649501Y-79929731D01*
X122370487Y-79929729D02*
X122282426Y-79882349D01*
X119649501Y-79929731D02*
X119737562Y-79882351D01*
X122282426Y-79882349D02*
X122190984Y-79841878D01*
X119737562Y-79882351D02*
X119829004Y-79841880D01*
X122190984Y-79841878D02*
X122096702Y-79808556D01*
X119829004Y-79841880D02*
X119923286Y-79808558D01*
X122096702Y-79808556D02*
X122000138Y-79782580D01*
X119923286Y-79808558D02*
X120019850Y-79782582D01*
X122000138Y-79782580D02*
X121901863Y-79764103D01*
X120019850Y-79782582D02*
X120118125Y-79764105D01*
X121901863Y-79764103D02*
X121802458Y-79753235D01*
X120118125Y-79764105D02*
X120217530Y-79753237D01*
X121802458Y-79753235D02*
X121702512Y-79750040D01*
X120217530Y-79753237D02*
X120317476Y-79750042D01*
X120317476Y-79750042D02*
X121702512Y-79750040D01*
X123010000Y-76000002D02*
X123002313Y-76099706D01*
X119009994Y-75999985D02*
X119017681Y-76099689D01*
X123002313Y-76099706D02*
X122986985Y-76198524D01*
X119017681Y-76099689D02*
X119033009Y-76198507D01*
X122986985Y-76198524D02*
X122964107Y-76295871D01*
X119033009Y-76198507D02*
X119055887Y-76295854D01*
X122964107Y-76295871D02*
X122933814Y-76391171D01*
X119055887Y-76295854D02*
X119086180Y-76391154D01*
X122933814Y-76391171D02*
X122896285Y-76483861D01*
X119086180Y-76391154D02*
X119123709Y-76483844D01*
X122896285Y-76483861D02*
X122851742Y-76573392D01*
X119123709Y-76483844D02*
X119168252Y-76573375D01*
X122851742Y-76573392D02*
X122800449Y-76659234D01*
X119168252Y-76573375D02*
X119219545Y-76659217D01*
X122800449Y-76659234D02*
X122742709Y-76740879D01*
X119219545Y-76659217D02*
X119277285Y-76740862D01*
X122742709Y-76740879D02*
X122678864Y-76817844D01*
X119277285Y-76740862D02*
X119341130Y-76817827D01*
X122678864Y-76817844D02*
X122609292Y-76889674D01*
X119341130Y-76817827D02*
X119410702Y-76889657D01*
X122609292Y-76889674D02*
X122534405Y-76955944D01*
X119410702Y-76889657D02*
X119485589Y-76955927D01*
X122534405Y-76955944D02*
X122454646Y-77016262D01*
X119485589Y-76955927D02*
X119565348Y-77016245D01*
X122454646Y-77016262D02*
X122370487Y-77070271D01*
X119565348Y-77016245D02*
X119649507Y-77070254D01*
X122370487Y-77070271D02*
X122282426Y-77117651D01*
X119649507Y-77070254D02*
X119737568Y-77117634D01*
X122282426Y-77117651D02*
X122190984Y-77158122D01*
X119737568Y-77117634D02*
X119829010Y-77158105D01*
X122190984Y-77158122D02*
X122096702Y-77191444D01*
X119829010Y-77158105D02*
X119923292Y-77191427D01*
X122096702Y-77191444D02*
X122000138Y-77217420D01*
X119923292Y-77191427D02*
X120019856Y-77217403D01*
X122000138Y-77217420D02*
X121901863Y-77235897D01*
X120019856Y-77217403D02*
X120118131Y-77235880D01*
X121901863Y-77235897D02*
X121802458Y-77246765D01*
X120118131Y-77235880D02*
X120217536Y-77246748D01*
X121802458Y-77246765D02*
X121702512Y-77249960D01*
X120217536Y-77246748D02*
X120317482Y-77249943D01*
X120317482Y-77249943D02*
X121702512Y-77249960D01*
X179009988Y-81000000D02*
X179009987Y-85149999D01*
X179009994Y-75999985D02*
X179010000Y-65160000D01*
X183000000Y-81000018D02*
X183000000Y-102499980D01*
X183000000Y-76000002D02*
X183000000Y-62000000D01*
X179009988Y-81000000D02*
X179017675Y-80900296D01*
X183000000Y-81000018D02*
X182992313Y-80900314D01*
X179017675Y-80900296D02*
X179033003Y-80801478D01*
X182992313Y-80900314D02*
X182976985Y-80801496D01*
X179033003Y-80801478D02*
X179055881Y-80704131D01*
X182976985Y-80801496D02*
X182954107Y-80704149D01*
X179055881Y-80704131D02*
X179086174Y-80608831D01*
X182954107Y-80704149D02*
X182923814Y-80608849D01*
X179086174Y-80608831D02*
X179123703Y-80516141D01*
X182923814Y-80608849D02*
X182886285Y-80516159D01*
X179123703Y-80516141D02*
X179168246Y-80426610D01*
X182886285Y-80516159D02*
X182841742Y-80426628D01*
X179168246Y-80426610D02*
X179219539Y-80340768D01*
X182841742Y-80426628D02*
X182790449Y-80340786D01*
X179219539Y-80340768D02*
X179277279Y-80259123D01*
X182790449Y-80340786D02*
X182732709Y-80259141D01*
X179277279Y-80259123D02*
X179341124Y-80182158D01*
X182732709Y-80259141D02*
X182668864Y-80182176D01*
X179341124Y-80182158D02*
X179410696Y-80110328D01*
X182668864Y-80182176D02*
X182599292Y-80110346D01*
X179410696Y-80110328D02*
X179485583Y-80044058D01*
X182599292Y-80110346D02*
X182524405Y-80044076D01*
X179485583Y-80044058D02*
X179565342Y-79983740D01*
X182524405Y-80044076D02*
X182444646Y-79983758D01*
X179565342Y-79983740D02*
X179649501Y-79929731D01*
X182444646Y-79983758D02*
X182360487Y-79929749D01*
X179649501Y-79929731D02*
X179737562Y-79882351D01*
X182360487Y-79929749D02*
X182272426Y-79882369D01*
X179737562Y-79882351D02*
X179829004Y-79841880D01*
X182272426Y-79882369D02*
X182180984Y-79841898D01*
X179829004Y-79841880D02*
X179923286Y-79808558D01*
X182180984Y-79841898D02*
X182086702Y-79808576D01*
X179923286Y-79808558D02*
X180019850Y-79782582D01*
X182086702Y-79808576D02*
X181990138Y-79782600D01*
X180019850Y-79782582D02*
X180118125Y-79764105D01*
X181990138Y-79782600D02*
X181891863Y-79764123D01*
X180118125Y-79764105D02*
X180217530Y-79753237D01*
X181891863Y-79764123D02*
X181792458Y-79753255D01*
X180217530Y-79753237D02*
X180317476Y-79750042D01*
X181792458Y-79753255D02*
X181692512Y-79750060D01*
X180317476Y-79750042D02*
X181692512Y-79750060D01*
X183000000Y-76000002D02*
X182992313Y-76099706D01*
X179009994Y-75999985D02*
X179017681Y-76099689D01*
X182992313Y-76099706D02*
X182976985Y-76198524D01*
X179017681Y-76099689D02*
X179033009Y-76198507D01*
X182976985Y-76198524D02*
X182954107Y-76295871D01*
X179033009Y-76198507D02*
X179055887Y-76295854D01*
X182954107Y-76295871D02*
X182923814Y-76391171D01*
X179055887Y-76295854D02*
X179086180Y-76391154D01*
X182923814Y-76391171D02*
X182886285Y-76483861D01*
X179086180Y-76391154D02*
X179123709Y-76483844D01*
X182886285Y-76483861D02*
X182841742Y-76573392D01*
X179123709Y-76483844D02*
X179168252Y-76573375D01*
X182841742Y-76573392D02*
X182790449Y-76659234D01*
X179168252Y-76573375D02*
X179219545Y-76659217D01*
X182790449Y-76659234D02*
X182732709Y-76740879D01*
X179219545Y-76659217D02*
X179277285Y-76740862D01*
X182732709Y-76740879D02*
X182668864Y-76817844D01*
X179277285Y-76740862D02*
X179341130Y-76817827D01*
X182668864Y-76817844D02*
X182599292Y-76889674D01*
X179341130Y-76817827D02*
X179410702Y-76889657D01*
X182599292Y-76889674D02*
X182524405Y-76955944D01*
X179410702Y-76889657D02*
X179485589Y-76955927D01*
X182524405Y-76955944D02*
X182444646Y-77016262D01*
X179485589Y-76955927D02*
X179565348Y-77016245D01*
X182444646Y-77016262D02*
X182360487Y-77070271D01*
X179565348Y-77016245D02*
X179649507Y-77070254D01*
X182360487Y-77070271D02*
X182272426Y-77117651D01*
X179649507Y-77070254D02*
X179737568Y-77117634D01*
X182272426Y-77117651D02*
X182180984Y-77158122D01*
X179737568Y-77117634D02*
X179829010Y-77158105D01*
X182180984Y-77158122D02*
X182086702Y-77191444D01*
X179829010Y-77158105D02*
X179923292Y-77191427D01*
X182086702Y-77191444D02*
X181990138Y-77217420D01*
X179923292Y-77191427D02*
X180019856Y-77217403D01*
X181990138Y-77217420D02*
X181891863Y-77235897D01*
X180019856Y-77217403D02*
X180118131Y-77235880D01*
X181891863Y-77235897D02*
X181792458Y-77246765D01*
X180118131Y-77235880D02*
X180217536Y-77246748D01*
X181792458Y-77246765D02*
X181692512Y-77249960D01*
X180217536Y-77246748D02*
X180317482Y-77249943D01*
X180317482Y-77249943D02*
X181692512Y-77249960D01*
M02*
