G04 #@! TF.FileFunction,Legend,Bot*
%FSLAX46Y46*%
G04 Gerber Fmt 4.6, Leading zero omitted, Abs format (unit mm)*
G04 Created by KiCad (PCBNEW 4.0.6-e0-6349~53~ubuntu16.04.1) date Tue Jul 11 19:26:18 2017*
%MOMM*%
%LPD*%
G01*
G04 APERTURE LIST*
%ADD10C,0.100000*%
%ADD11C,0.120000*%
%ADD12C,0.127000*%
G04 APERTURE END LIST*
D10*
D11*
X153525000Y-103745000D02*
X154225000Y-103745000D01*
X154225000Y-102545000D02*
X153525000Y-102545000D01*
X153525000Y-105245000D02*
X154225000Y-105245000D01*
X154225000Y-104045000D02*
X153525000Y-104045000D01*
X146547000Y-107040000D02*
X150367000Y-107040000D01*
X150367000Y-107040000D02*
X150367000Y-108820000D01*
X150367000Y-108820000D02*
X146547000Y-108820000D01*
X146547000Y-107040000D02*
X146547000Y-108820000D01*
X146547000Y-103357000D02*
X150367000Y-103357000D01*
X150367000Y-103357000D02*
X150367000Y-105137000D01*
X150367000Y-105137000D02*
X146547000Y-105137000D01*
X146547000Y-103357000D02*
X146547000Y-105137000D01*
D12*
X144741113Y-100686171D02*
X145031399Y-100686171D01*
X145060428Y-100976457D01*
X145031399Y-100947429D01*
X144973342Y-100918400D01*
X144828199Y-100918400D01*
X144770142Y-100947429D01*
X144741113Y-100976457D01*
X144712085Y-101034514D01*
X144712085Y-101179657D01*
X144741113Y-101237714D01*
X144770142Y-101266743D01*
X144828199Y-101295771D01*
X144973342Y-101295771D01*
X145031399Y-101266743D01*
X145060428Y-101237714D01*
X144537914Y-100686171D02*
X144334714Y-101295771D01*
X144131514Y-100686171D01*
X150615228Y-101266743D02*
X150528142Y-101295771D01*
X150382999Y-101295771D01*
X150324942Y-101266743D01*
X150295913Y-101237714D01*
X150266885Y-101179657D01*
X150266885Y-101121600D01*
X150295913Y-101063543D01*
X150324942Y-101034514D01*
X150382999Y-101005486D01*
X150499113Y-100976457D01*
X150557171Y-100947429D01*
X150586199Y-100918400D01*
X150615228Y-100860343D01*
X150615228Y-100802286D01*
X150586199Y-100744229D01*
X150557171Y-100715200D01*
X150499113Y-100686171D01*
X150353971Y-100686171D01*
X150266885Y-100715200D01*
X150005628Y-101295771D02*
X150005628Y-100686171D01*
X149860485Y-100686171D01*
X149773400Y-100715200D01*
X149715342Y-100773257D01*
X149686314Y-100831314D01*
X149657285Y-100947429D01*
X149657285Y-101034514D01*
X149686314Y-101150629D01*
X149715342Y-101208686D01*
X149773400Y-101266743D01*
X149860485Y-101295771D01*
X150005628Y-101295771D01*
X149425057Y-101121600D02*
X149134771Y-101121600D01*
X149483114Y-101295771D02*
X149279914Y-100686171D01*
X149076714Y-101295771D01*
X153225714Y-101266743D02*
X153138628Y-101295771D01*
X152993485Y-101295771D01*
X152935428Y-101266743D01*
X152906399Y-101237714D01*
X152877371Y-101179657D01*
X152877371Y-101121600D01*
X152906399Y-101063543D01*
X152935428Y-101034514D01*
X152993485Y-101005486D01*
X153109599Y-100976457D01*
X153167657Y-100947429D01*
X153196685Y-100918400D01*
X153225714Y-100860343D01*
X153225714Y-100802286D01*
X153196685Y-100744229D01*
X153167657Y-100715200D01*
X153109599Y-100686171D01*
X152964457Y-100686171D01*
X152877371Y-100715200D01*
X152267771Y-101237714D02*
X152296800Y-101266743D01*
X152383886Y-101295771D01*
X152441943Y-101295771D01*
X152529028Y-101266743D01*
X152587086Y-101208686D01*
X152616114Y-101150629D01*
X152645143Y-101034514D01*
X152645143Y-100947429D01*
X152616114Y-100831314D01*
X152587086Y-100773257D01*
X152529028Y-100715200D01*
X152441943Y-100686171D01*
X152383886Y-100686171D01*
X152296800Y-100715200D01*
X152267771Y-100744229D01*
X151716228Y-101295771D02*
X152006514Y-101295771D01*
X152006514Y-100686171D01*
X148251486Y-101266743D02*
X148164400Y-101295771D01*
X148019257Y-101295771D01*
X147961200Y-101266743D01*
X147932171Y-101237714D01*
X147903143Y-101179657D01*
X147903143Y-101121600D01*
X147932171Y-101063543D01*
X147961200Y-101034514D01*
X148019257Y-101005486D01*
X148135371Y-100976457D01*
X148193429Y-100947429D01*
X148222457Y-100918400D01*
X148251486Y-100860343D01*
X148251486Y-100802286D01*
X148222457Y-100744229D01*
X148193429Y-100715200D01*
X148135371Y-100686171D01*
X147990229Y-100686171D01*
X147903143Y-100715200D01*
X147641886Y-100976457D02*
X147438686Y-100976457D01*
X147351600Y-101295771D02*
X147641886Y-101295771D01*
X147641886Y-100686171D01*
X147351600Y-100686171D01*
X147090343Y-101295771D02*
X147090343Y-100686171D01*
X146742000Y-101295771D01*
X146742000Y-100686171D01*
X146538800Y-100686171D02*
X146190457Y-100686171D01*
X146364628Y-101295771D02*
X146364628Y-100686171D01*
X155589457Y-100715200D02*
X155647514Y-100686171D01*
X155734600Y-100686171D01*
X155821685Y-100715200D01*
X155879743Y-100773257D01*
X155908771Y-100831314D01*
X155937800Y-100947429D01*
X155937800Y-101034514D01*
X155908771Y-101150629D01*
X155879743Y-101208686D01*
X155821685Y-101266743D01*
X155734600Y-101295771D01*
X155676543Y-101295771D01*
X155589457Y-101266743D01*
X155560428Y-101237714D01*
X155560428Y-101034514D01*
X155676543Y-101034514D01*
X155299171Y-101295771D02*
X155299171Y-100686171D01*
X154950828Y-101295771D01*
X154950828Y-100686171D01*
X154660542Y-101295771D02*
X154660542Y-100686171D01*
X154515399Y-100686171D01*
X154428314Y-100715200D01*
X154370256Y-100773257D01*
X154341228Y-100831314D01*
X154312199Y-100947429D01*
X154312199Y-101034514D01*
X154341228Y-101150629D01*
X154370256Y-101208686D01*
X154428314Y-101266743D01*
X154515399Y-101295771D01*
X154660542Y-101295771D01*
X153976599Y-102112714D02*
X154005628Y-102141743D01*
X154092714Y-102170771D01*
X154150771Y-102170771D01*
X154237856Y-102141743D01*
X154295914Y-102083686D01*
X154324942Y-102025629D01*
X154353971Y-101909514D01*
X154353971Y-101822429D01*
X154324942Y-101706314D01*
X154295914Y-101648257D01*
X154237856Y-101590200D01*
X154150771Y-101561171D01*
X154092714Y-101561171D01*
X154005628Y-101590200D01*
X153976599Y-101619229D01*
X153396028Y-102170771D02*
X153744371Y-102170771D01*
X153570199Y-102170771D02*
X153570199Y-101561171D01*
X153628256Y-101648257D01*
X153686314Y-101706314D01*
X153744371Y-101735343D01*
X153976599Y-106237714D02*
X154005628Y-106266743D01*
X154092714Y-106295771D01*
X154150771Y-106295771D01*
X154237856Y-106266743D01*
X154295914Y-106208686D01*
X154324942Y-106150629D01*
X154353971Y-106034514D01*
X154353971Y-105947429D01*
X154324942Y-105831314D01*
X154295914Y-105773257D01*
X154237856Y-105715200D01*
X154150771Y-105686171D01*
X154092714Y-105686171D01*
X154005628Y-105715200D01*
X153976599Y-105744229D01*
X153744371Y-105744229D02*
X153715342Y-105715200D01*
X153657285Y-105686171D01*
X153512142Y-105686171D01*
X153454085Y-105715200D01*
X153425056Y-105744229D01*
X153396028Y-105802286D01*
X153396028Y-105860343D01*
X153425056Y-105947429D01*
X153773399Y-106295771D01*
X153396028Y-106295771D01*
X149182714Y-109827743D02*
X149095628Y-109856771D01*
X148950485Y-109856771D01*
X148892428Y-109827743D01*
X148863399Y-109798714D01*
X148834371Y-109740657D01*
X148834371Y-109682600D01*
X148863399Y-109624543D01*
X148892428Y-109595514D01*
X148950485Y-109566486D01*
X149066599Y-109537457D01*
X149124657Y-109508429D01*
X149153685Y-109479400D01*
X149182714Y-109421343D01*
X149182714Y-109363286D01*
X149153685Y-109305229D01*
X149124657Y-109276200D01*
X149066599Y-109247171D01*
X148921457Y-109247171D01*
X148834371Y-109276200D01*
X148602143Y-109682600D02*
X148311857Y-109682600D01*
X148660200Y-109856771D02*
X148457000Y-109247171D01*
X148253800Y-109856771D01*
X147934486Y-109247171D02*
X147876429Y-109247171D01*
X147818372Y-109276200D01*
X147789343Y-109305229D01*
X147760314Y-109363286D01*
X147731286Y-109479400D01*
X147731286Y-109624543D01*
X147760314Y-109740657D01*
X147789343Y-109798714D01*
X147818372Y-109827743D01*
X147876429Y-109856771D01*
X147934486Y-109856771D01*
X147992543Y-109827743D01*
X148021572Y-109798714D01*
X148050600Y-109740657D01*
X148079629Y-109624543D01*
X148079629Y-109479400D01*
X148050600Y-109363286D01*
X148021572Y-109305229D01*
X147992543Y-109276200D01*
X147934486Y-109247171D01*
X149182714Y-102842743D02*
X149095628Y-102871771D01*
X148950485Y-102871771D01*
X148892428Y-102842743D01*
X148863399Y-102813714D01*
X148834371Y-102755657D01*
X148834371Y-102697600D01*
X148863399Y-102639543D01*
X148892428Y-102610514D01*
X148950485Y-102581486D01*
X149066599Y-102552457D01*
X149124657Y-102523429D01*
X149153685Y-102494400D01*
X149182714Y-102436343D01*
X149182714Y-102378286D01*
X149153685Y-102320229D01*
X149124657Y-102291200D01*
X149066599Y-102262171D01*
X148921457Y-102262171D01*
X148834371Y-102291200D01*
X148602143Y-102697600D02*
X148311857Y-102697600D01*
X148660200Y-102871771D02*
X148457000Y-102262171D01*
X148253800Y-102871771D01*
X147731286Y-102871771D02*
X148079629Y-102871771D01*
X147905457Y-102871771D02*
X147905457Y-102262171D01*
X147963514Y-102349257D01*
X148021572Y-102407314D01*
X148079629Y-102436343D01*
M02*
